<svg width="144" height="223" viewBox="0 0 144 223" fill="none" xmlns="http://www.w3.org/2000/svg">
<path d="M98.937 33.6959C97.014 35.3799 97.496 39.0959 100.012 41.9909C102.528 44.8859 106.125 45.8689 108.046 44.1839L132.804 30.3449L115.935 10.9219L98.937 33.6959Z" fill="#F4F3FD"/>
<path d="M133.248 29.9719C129.831 32.9676 123.265 31.0661 118.581 25.7245C113.898 20.383 112.871 13.624 116.288 10.6283C119.704 7.63258 126.271 9.53408 130.955 14.8756C135.638 20.2172 136.665 26.9755 133.248 29.9719Z" fill="#DADAF7"/>
<path d="M103.158 28.041C103.834 30.8941 105.212 33.5331 107.167 35.718C109.052 37.9559 111.469 39.6853 114.195 40.748L116.553 39.429C113.572 38.4192 110.926 36.6068 108.908 34.191C106.794 31.8496 105.365 28.9721 104.777 25.873L103.158 28.041Z" fill="#DADAF7"/>
<path d="M118.575 25.7221C119.194 26.4348 119.862 27.1031 120.575 27.7221L127.124 23.0221L122.397 17.5801L116.875 23.4611C117.387 24.2542 117.955 25.0097 118.575 25.7221Z" fill="#EAE9FF"/>
<path d="M79.902 66.9389C89.113 68.0959 88.652 78.7389 88.652 78.7389C88.652 78.7389 98.093 80.3589 102.468 85.2169C106.843 90.0749 102.468 99.0989 102.468 99.0989C102.468 99.0989 109.606 97.9419 113.29 101.644C116.974 105.346 114.672 111.13 105.69 113.212C96.708 115.294 25.79 125.937 25.79 125.937C25.79 125.937 20.954 126.633 21.415 121.774C21.876 116.915 29.935 112.751 29.935 112.751C29.935 112.751 24.178 109.743 25.33 103.728C26.482 97.7129 34.31 91.9279 37.53 89.6139C39.9737 87.9289 42.5111 86.3841 45.13 84.9869C45.13 84.9869 44.697 73.0529 52.038 69.7169C61.709 65.3169 66.545 72.2619 66.545 72.2619C66.545 72.2619 70.691 65.7829 79.902 66.9389Z" fill="#F99A3D"/>
<path d="M105.459 74.5744C108.683 59.0744 108.452 53.2884 108.452 53.2884C107.881 50.8617 107.573 48.3809 107.531 45.8884C107.457 44.9577 107.583 44.0218 107.9 43.1438C108.218 42.2658 108.72 41.4661 109.373 40.7984C112.73 37.4254 118.584 34.0884 125.031 39.1784C131.478 44.2684 128.024 58.3784 128.024 58.3784C128.024 58.3784 128.485 82.9034 125.491 100.719C122.497 118.535 118.813 121.542 118.813 121.542L95.559 104.883C99.8146 95.118 103.13 84.969 105.459 74.5744Z" fill="#DA5742"/>
<path d="M127.345 22.8508C126.384 23.6934 124.537 23.1583 123.22 21.656C121.903 20.1536 121.614 18.2525 122.575 17.41C123.536 16.5675 125.384 17.1019 126.701 18.6042C128.018 20.1065 128.307 22.0076 127.345 22.8508Z" fill="#F4F3FD"/>
<path d="M7.37101 193.499C3.68401 206.46 8.75001 214.831 11.398 217.237C14.046 219.643 37.763 166.66 37.763 166.66L15.427 168.742C15.427 168.742 11.052 180.542 7.37101 193.499Z" fill="#C43D28"/>
<path d="M97.759 99.5879C96.459 102.888 95.559 104.888 95.559 104.888L118.152 121.068L118.944 121.417C119.55 120.774 122.182 117.4 124.636 105.348L97.759 99.5879Z" fill="#C43D28"/>
<path d="M30.855 141.44C39.144 134.04 49.276 129.872 63.322 128.483C77.368 127.094 83.355 119.229 86.348 115.989C89.341 112.749 95.789 100.719 95.789 100.719L123.421 112.056C122.215 119.4 120.287 126.608 117.664 133.573C115.054 140.155 111.485 146.314 107.072 151.852C107.072 151.852 110.986 168.511 113.75 188.177C116.514 207.843 116.914 216.867 116.914 216.867H35.773L38.453 182.162L8.97998 170.819C8.97998 170.819 22.566 148.844 30.855 141.44Z" fill="#3D5CFF"/>
<path d="M112.159 144.577L98.322 134.73L107.143 151.763C108.973 149.482 110.648 147.081 112.159 144.577Z" fill="#224BF4"/>
<path d="M56.644 150.463L40.526 138.895L17 173.908L38.454 182.161L35.774 216.866H50.2L56.644 150.463Z" fill="#224BF4"/>
<path d="M9.67102 165.271L43.289 176.377" stroke="#EAEAFF" stroke-width="1.158" stroke-miterlimit="10"/>
<path d="M90.033 103.496L126.415 119.923" stroke="#EAEAFF" stroke-width="1.158" stroke-miterlimit="10"/>
<path opacity="0.55" d="M30.3951 138.896C30.3951 138.896 28.3231 158.796 49.9671 161.569C71.6111 164.343 81.9731 153.937 76.6771 149.537C67.3331 141.782 50.1971 161.105 58.4861 169.897C66.7751 178.689 93.3551 171.352 96.9411 182.161C99.4741 189.796 88.1911 193.729 75.9871 188.177C60.5711 181.162 73.2231 165.738 93.2561 172.214C113.289 178.69 111.908 194.424 102.241 199.051C85.6901 206.971 62.0601 191.271 54.1161 208.075C49.7411 217.33 63.0231 227.267 73.2281 219.643C82.2081 212.933 85.6621 208.075 109.149 206.918C132.636 205.761 133.096 174.526 120.662 165.965C108.228 157.405 91.4141 155.554 89.1121 141.438C86.8101 127.321 100.625 124.547 102.698 133.57C104.771 142.593 82.8981 153.931 81.5141 138.892C79.8791 121.092 95.5601 119.225 108.225 121.307C120.89 123.389 130.559 118.767 123.421 110.438" stroke="#EAEAFF" stroke-width="1.158" stroke-miterlimit="10"/>
<path d="M51.5791 97.0175C48.3551 98.6375 48.1251 103.496 49.5051 106.041C50.8851 108.586 52.9611 109.512 55.4931 109.979C56.8559 110.258 58.2525 110.336 59.6381 110.21C59.6381 110.21 59.8681 116.457 59.6381 122.704C59.4081 128.951 58.4871 130.104 58.4871 130.104C62.2847 131.907 66.5063 132.627 70.6871 132.186C77.8251 131.492 78.9761 129.641 78.9761 129.641C78.9761 129.641 78.2851 125.014 78.0551 121.541C77.8251 118.068 77.5941 116.22 77.5941 116.22C77.5941 116.22 85.6531 113.906 86.1141 105.577C86.5751 97.2475 86.1141 95.1645 86.1141 95.1645C86.1141 95.1645 83.1211 94.2395 81.2781 88.4545C79.4351 82.6695 78.0591 81.9785 75.7571 81.9785C73.4551 81.9785 72.9941 84.7545 72.9941 84.7545C72.9941 84.7545 71.1421 81.2585 66.7761 82.9035C63.0921 84.2915 64.4761 89.8445 62.8621 93.3155C62.4391 94.2998 61.8087 95.1813 61.014 95.8997C60.2193 96.6182 59.2789 97.1567 58.2571 97.4785C58.2571 97.4785 54.8051 95.3975 51.5791 97.0175Z" fill="#DA5742"/>
<path d="M62.1711 118.535C61.4347 118.102 60.5904 117.889 59.7371 117.919C59.7281 119.439 59.6981 121.068 59.6371 122.699C59.4081 128.947 58.4871 130.104 58.4871 130.104C60.2669 130.979 62.1654 131.588 64.1221 131.913C64.2991 131.161 64.5341 130.004 64.7871 128.313C65.3301 124.669 64.4741 119.919 62.1711 118.535Z" fill="#C43D28"/>
<path d="M65.625 93.3158C65.625 93.3158 65.164 91.6958 66.546 91.2328C66.7121 91.1561 66.8918 91.1131 67.0747 91.1064C67.2576 91.0997 67.4399 91.1293 67.6113 91.1936C67.7826 91.2579 67.9395 91.3555 68.0728 91.4808C68.2061 91.6062 68.3133 91.7567 68.388 91.9238" fill="white"/>
<path d="M76.678 89.6139C76.7007 89.2542 76.8534 88.9151 77.1077 88.6597C77.362 88.4043 77.7004 88.2501 78.06 88.2259C78.4265 88.145 78.8098 88.1928 79.1452 88.3613C79.4807 88.5297 79.7479 88.8086 79.902 89.1509" fill="white"/>
<path d="M74.29 93.3242C74.5604 93.5586 74.8128 93.8129 75.045 94.0852C75.279 94.3705 75.4765 94.684 75.633 95.0182L75.733 95.2882C75.7494 95.3358 75.7617 95.3846 75.77 95.4342C75.7812 95.4853 75.7888 95.5371 75.793 95.5892C75.8119 95.8031 75.7721 96.0182 75.678 96.2112C75.485 96.5533 75.1894 96.8262 74.833 96.9912C74.1884 97.3 73.4846 97.4651 72.77 97.4752C73.4295 97.2881 74.063 97.0193 74.656 96.6752C74.9235 96.5216 75.1422 96.2956 75.287 96.0232C75.3436 95.898 75.365 95.7597 75.349 95.6232C75.3468 95.5894 75.3414 95.556 75.333 95.5232C75.3266 95.4869 75.3166 95.4514 75.303 95.4172L75.22 95.1952C74.9227 94.5952 74.5265 94.0496 74.048 93.5812C73.571 93.0902 73.06 92.6232 72.533 92.1582C73.1671 92.4683 73.7578 92.8603 74.29 93.3242Z" fill="#1F1F39"/>
<path d="M68.2501 98.3914C67.8662 98.3873 67.4989 98.2338 67.2263 97.9634C66.9537 97.693 66.7972 97.327 66.79 96.9431C66.7017 96.5696 66.7624 96.1764 66.9592 95.8468C67.1559 95.5173 67.4733 95.2774 67.844 95.178C68.2276 95.1823 68.5945 95.3359 68.8668 95.6061C69.1392 95.8763 69.2956 96.2419 69.303 96.6255C69.3916 96.9989 69.3312 97.3922 69.1346 97.7219C68.938 98.0516 68.6208 98.2917 68.2501 98.3914Z" fill="#1F1F39"/>
<path d="M79.992 97.0053C79.6081 97.0011 79.2409 96.8474 78.9684 96.5769C78.6958 96.3064 78.5395 95.9403 78.5324 95.5564C78.4443 95.1829 78.5051 94.7897 78.702 94.4603C78.8989 94.1308 79.2164 93.891 79.5871 93.7917C79.9707 93.7962 80.3375 93.9499 80.6098 94.2202C80.882 94.4905 81.0383 94.8562 81.0456 95.2397C81.134 95.6132 81.0735 96.0065 80.8768 96.3361C80.6801 96.6657 80.3627 96.9058 79.992 97.0053Z" fill="#1F1F39"/>
<path d="M74.835 101.413C75.8638 101.215 76.8678 100.905 77.829 100.488C77.829 100.488 79.211 104.188 77.829 107.198C77.587 107.78 77.1834 108.28 76.666 108.64C76.1486 109 75.5391 109.204 74.9094 109.228C74.2797 109.253 73.6562 109.096 73.1127 108.777C72.5691 108.458 72.1282 107.991 71.842 107.429C71.225 105.564 70.9139 103.61 70.921 101.645C72.2298 101.77 73.5501 101.692 74.835 101.413Z" fill="white"/>
<path d="M59.638 110.201C59.638 110.201 59.638 110.314 59.65 110.523C60.1398 108.685 60.2919 106.773 60.099 104.88C59.8475 102.339 59.2718 99.8407 58.386 97.4459L58.257 97.4809C58.257 97.4809 54.805 95.4009 51.579 97.0179C48.353 98.6349 48.125 103.501 49.505 106.041C50.885 108.581 52.959 109.512 55.492 109.974C56.8553 110.253 58.2523 110.329 59.638 110.201Z" fill="#C43D28"/>
<path d="M52.5 101.182C54.2433 101.956 55.8708 102.968 57.336 104.19C59.868 106.272 60.1 107.66 60.1 107.66" stroke="#1F1F39" stroke-width="0.579" stroke-miterlimit="10" stroke-linecap="round"/>
<path d="M125.033 39.176C121.591 36.462 118.319 36.143 115.505 36.952C117.285 42.031 121.46 53.606 123.421 56.297C123.957 57.0381 124.647 57.6551 125.442 58.1061C126.238 58.5572 127.122 58.8317 128.033 58.911C128.033 58.566 128.026 58.379 128.026 58.379C128.026 58.379 131.481 44.262 125.033 39.176Z" fill="#C43D28"/>
<path d="M71.842 119.229C73.715 120.591 75.8423 121.565 78.098 122.091C78.084 121.906 78.07 121.723 78.059 121.543C77.859 118.575 77.665 116.795 77.612 116.343C77.287 116.373 76.93 116.408 76.537 116.454C74.557 116.683 68.388 115.758 68.388 115.758C68.388 115.758 67.467 116.221 71.842 119.229Z" fill="#C43D28"/>
<path d="M128.533 55.6764C127.898 56.042 127.143 56.1404 126.436 55.9499C125.728 55.7594 125.125 55.2955 124.759 54.6604L116.47 40.2354C116.106 39.5974 116.008 38.8416 116.197 38.1318C116.386 37.422 116.848 36.8154 117.481 36.4434L118.081 36.0964C118.716 35.7313 119.47 35.6332 120.177 35.8235C120.884 36.0138 121.487 36.477 121.853 37.1114L130.142 51.5374C130.505 52.175 130.603 52.9299 130.414 53.639C130.225 54.348 129.764 54.9541 129.132 55.3264L128.533 55.6764Z" fill="#DADAF7"/>
<path d="M68.158 115.527C69.8581 116.139 71.6512 116.452 73.458 116.452C74.8423 116.493 76.2277 116.416 77.599 116.221" stroke="#1F1F39" stroke-width="0.579" stroke-miterlimit="10" stroke-linecap="round"/>
<path d="M120.428 39.1751C120.201 40.0351 120.284 40.9475 120.663 41.7522C121.042 42.5569 121.692 43.2023 122.5 43.5751C122.274 44.7489 122.435 45.9645 122.961 47.0381C123.149 47.5961 123.532 48.0675 124.039 48.3652C124.547 48.663 125.145 48.767 125.724 48.6581C125.724 48.6581 125.033 51.4381 128.487 52.3631C131.941 53.2881 134.704 50.2811 134.244 47.7361C133.567 44.4209 132.404 41.2242 130.79 38.2501C130.473 37.63 130.035 37.0797 129.502 36.6319C128.969 36.184 128.351 35.8476 127.685 35.6427C127.02 35.4378 126.32 35.3684 125.627 35.4387C124.934 35.5091 124.263 35.7176 123.652 36.0521C122.293 36.6761 120.734 37.7451 120.428 39.1751Z" fill="#DA5742"/>
<path d="M122.634 43.6178L127.796 41.2578L122.634 43.6178Z" fill="#1F1F39"/>
<path d="M122.634 43.6178L127.796 41.2578" stroke="#1F1F39" stroke-width="0.579" stroke-miterlimit="10" stroke-linecap="round"/>
<path d="M125.724 48.6601L131.024 46.5781L125.724 48.6601Z" fill="#1F1F39"/>
<path d="M125.724 48.6601L131.024 46.5781" stroke="#1F1F39" stroke-width="0.579" stroke-miterlimit="10" stroke-linecap="round"/>
<path d="M127.105 5.39547L128.947 1.23047L127.105 5.39547Z" fill="#1F1F39"/>
<path d="M127.105 5.39547L128.947 1.23047" stroke="#1F1F39" stroke-width="0.579" stroke-miterlimit="10" stroke-linecap="round"/>
<path d="M136.387 13.6411L140.387 11.4941L136.387 13.6411Z" fill="#1F1F39"/>
<path d="M136.387 13.6411L140.387 11.4941" stroke="#1F1F39" stroke-width="0.579" stroke-miterlimit="10" stroke-linecap="round"/>
<path d="M138.423 25.9258L142.959 26.0458L138.423 25.9258Z" fill="#1F1F39"/>
<path d="M138.423 25.9258L142.959 26.0458" stroke="#1F1F39" stroke-width="0.579" stroke-miterlimit="10" stroke-linecap="round"/>
<path d="M98.322 134.73L99.978 137.969L107.072 151.851" stroke="#1F1F39" stroke-width="0.579" stroke-miterlimit="10" stroke-linecap="round"/>
<path d="M108.136 42.2307C108.136 42.2307 112.26 37.3797 114.963 37.0047C117.666 36.6297 119.046 37.5547 118.816 40.5627C118.586 43.5707 114.21 46.5787 114.21 46.5787" fill="#DA5742"/>
<path d="M108.136 42.2307C108.136 42.2307 112.26 37.3797 114.963 37.0047C117.666 36.6297 119.046 37.5547 118.816 40.5627C118.586 43.5707 114.21 46.5787 114.21 46.5787" stroke="#1F1F39" stroke-width="0.579" stroke-miterlimit="10" stroke-linecap="round"/>
<path d="M78.39 105.097C77.4652 104.802 76.4842 104.729 75.526 104.884C74.0781 105.056 72.6916 105.569 71.48 106.381C71.573 106.739 71.694 107.089 71.842 107.429C72.1282 107.99 72.5692 108.457 73.1126 108.776C73.656 109.094 74.2793 109.251 74.9088 109.226C75.5383 109.202 76.1477 108.998 76.665 108.639C77.1822 108.279 77.5858 107.779 77.828 107.198C78.1261 106.532 78.3158 105.822 78.39 105.097Z" fill="#F9D2DD"/>
<path d="M84.9827 102.919C82.2566 103.14 79.9351 101.952 79.7984 100.266C79.6618 98.5794 81.7618 97.0337 84.4878 96.8128C87.2139 96.5919 89.5354 97.7793 89.6721 99.4657C89.8087 101.152 87.7097 102.698 84.9827 102.919Z" fill="#C43D28"/>
<path d="M65.5666 105.403C62.8406 105.624 60.5191 104.437 60.3824 102.75C60.2457 101.064 62.3458 99.5181 65.0718 99.2972C67.7979 99.0763 70.1194 100.264 70.2561 101.95C70.3927 103.637 68.2937 105.182 65.5666 105.403Z" fill="#C43D28"/>
<path d="M0 216.867H139.77H0Z" fill="#1F1F39"/>
<path d="M0 216.867H139.77" stroke="#1F1F39" stroke-width="0.579" stroke-miterlimit="10"/>
<path d="M25.098 169.204C30.164 160.643 36.863 140.158 39.157 136.171C39.7208 135.061 40.5897 134.135 41.6616 133.502C42.7334 132.869 43.9638 132.554 45.208 132.596C45.208 132.596 44.444 122.696 44.444 119.227C44.444 115.758 46.744 113.443 48.819 115.062C50.894 116.681 52.503 128.713 52.503 128.713C52.503 128.713 57.287 118.506 59.73 118.752C62.173 118.998 62.862 121.08 61.71 125.476C60.8289 128.625 59.7522 131.716 58.486 134.731C58.486 134.731 62.4 132.417 64.243 134.5C66.086 136.583 62.857 141.671 60.329 145.141C59.0466 146.826 57.892 148.605 56.875 150.462C56.875 150.462 48.357 194.654 43.75 206.686C39.143 218.718 29.934 223.345 22.336 222.65C14.738 221.955 5.29602 216.172 8.98002 201.136C8.98002 201.136 20.033 177.765 25.098 169.204Z" fill="#DA5742"/>
<path d="M40.9871 141.439C40.9871 141.439 41.2171 145.139 43.2871 146.066C45.3571 146.993 46.7411 145.141 47.2011 143.29C47.4463 141.37 47.4473 139.426 47.2041 137.506" stroke="#1F1F39" stroke-width="0.579" stroke-miterlimit="10" stroke-linecap="round"/>
<path d="M47.204 144.45C47.204 144.45 47.895 146.995 49.967 146.301C52.039 145.607 52.504 143.522 52.73 141.209C52.8488 139.586 52.7729 137.954 52.504 136.35" stroke="#1F1F39" stroke-width="0.579" stroke-miterlimit="10" stroke-linecap="round"/>
<path d="M54.572 137.969C54.572 137.969 56.184 136.581 57.105 135.887C57.5895 135.532 58.0508 135.145 58.486 134.73" stroke="#1F1F39" stroke-width="0.579" stroke-miterlimit="10" stroke-linecap="round"/>
<path d="M40.5291 134.731C40.5291 134.731 40.9871 133.111 45.1291 132.649C47.5164 132.356 49.9376 132.513 52.2671 133.112" stroke="#1F1F39" stroke-width="0.579" stroke-miterlimit="10" stroke-linecap="round"/>
</svg>
