<svg width="164" height="119" viewBox="0 0 164 119" fill="none" xmlns="http://www.w3.org/2000/svg">
<path d="M106.196 98.5799C106.145 98.5785 106.096 98.565 106.051 98.5405C106.007 98.5159 105.969 98.4811 105.941 98.4389C105.923 98.4065 105.912 98.3708 105.907 98.334C105.903 98.2971 105.907 98.2598 105.917 98.2242C105.928 98.1886 105.945 98.1555 105.969 98.1268C105.992 98.0981 106.021 98.0743 106.054 98.0569L107.539 97.2509C107.582 97.2289 107.63 97.2173 107.679 97.2169C107.729 97.2159 107.778 97.2291 107.821 97.255C107.864 97.2808 107.898 97.3182 107.921 97.3629C107.939 97.3954 107.95 97.4311 107.954 97.4679C107.958 97.5047 107.954 97.5419 107.944 97.5774C107.933 97.6129 107.916 97.646 107.893 97.6747C107.869 97.7035 107.84 97.7273 107.808 97.7449L106.324 98.5519C106.285 98.5744 106.24 98.5841 106.196 98.5799ZM109.18 96.9529C109.129 96.9516 109.08 96.9381 109.036 96.9136C108.991 96.889 108.954 96.8542 108.926 96.8119C108.908 96.7795 108.897 96.7438 108.893 96.707C108.889 96.6701 108.892 96.6329 108.903 96.5973C108.913 96.5618 108.931 96.5287 108.954 96.5C108.977 96.4712 109.006 96.4474 109.039 96.4299L110.525 95.6229C110.568 95.6014 110.616 95.5901 110.664 95.5899C110.714 95.5887 110.764 95.6018 110.807 95.6279C110.851 95.6539 110.885 95.6917 110.908 95.7369C110.943 95.8048 110.951 95.8835 110.93 95.9569C110.92 95.9917 110.903 96.0239 110.879 96.0516C110.856 96.0793 110.827 96.1019 110.795 96.1179L109.308 96.9249C109.269 96.9479 109.224 96.9578 109.18 96.9529Z" fill="#EAEAFF"/>
<path d="M69.364 92.2539C69.3277 92.2553 69.2916 92.2494 69.2576 92.2365C69.2237 92.2237 69.1926 92.2043 69.1663 92.1793C69.1399 92.1544 69.1188 92.1244 69.1042 92.0912C69.0895 92.058 69.0817 92.0222 69.081 91.9859C69.0806 91.9115 69.1079 91.8395 69.1576 91.784C69.2074 91.7286 69.2759 91.6936 69.35 91.6859C69.9 91.6709 70.462 91.6279 71.019 91.5579H71.046C71.1 91.5577 71.1529 91.5729 71.1986 91.6017C71.2443 91.6304 71.2808 91.6717 71.3039 91.7205C71.327 91.7693 71.3357 91.8236 71.329 91.8772C71.3223 91.9308 71.3004 91.9813 71.266 92.0229C71.2424 92.0515 71.2134 92.075 71.1806 92.0922C71.1478 92.1094 71.1119 92.1198 71.075 92.1229C70.485 92.1889 69.925 92.2299 69.364 92.2539ZM67.664 92.2399H67.652C67.0814 92.2123 66.5134 92.1455 65.952 92.0399H65.938C65.9015 92.034 65.8666 92.0209 65.8353 92.0012C65.8041 91.9815 65.7771 91.9558 65.756 91.9254C65.7349 91.8951 65.7201 91.8608 65.7126 91.8246C65.705 91.7885 65.7048 91.7512 65.712 91.7149C65.7225 91.6502 65.7558 91.5913 65.8058 91.549C65.8559 91.5066 65.9194 91.4836 65.985 91.4839C66.0023 91.4824 66.0197 91.4824 66.037 91.4839H66.066C66.6027 91.5854 67.1462 91.6472 67.692 91.6689C67.7667 91.675 67.8362 91.7095 67.8863 91.7653C67.9363 91.8211 67.9631 91.894 67.961 91.9689C67.9537 92.0428 67.9198 92.1115 67.8655 92.1621C67.8111 92.2128 67.7402 92.2418 67.666 92.2439L67.664 92.2399ZM72.742 91.8869C72.6713 91.8866 72.6033 91.8601 72.551 91.8126C72.4987 91.7651 72.4658 91.6999 72.4587 91.6296C72.4516 91.5593 72.4708 91.4888 72.5126 91.4318C72.5544 91.3748 72.6158 91.3353 72.685 91.3209C73.168 91.2449 73.655 91.1469 74.17 91.0439L74.34 91.0099C74.3576 91.0084 74.3754 91.0084 74.393 91.0099C74.4579 91.0102 74.5209 91.0315 74.5727 91.0706C74.6244 91.1097 74.6621 91.1646 74.68 91.2269C74.6925 91.2996 74.6778 91.3744 74.6387 91.4369C74.5996 91.4994 74.5388 91.5453 74.468 91.5659C73.968 91.6789 73.433 91.7779 72.785 91.8769C72.7796 91.8821 72.7732 91.8861 72.7661 91.8885C72.759 91.8909 72.7515 91.8917 72.744 91.8909L72.742 91.8869ZM64.332 91.6779C64.3075 91.6804 64.2828 91.6755 64.261 91.6639C63.731 91.5319 63.179 91.3639 62.62 91.1689C62.5513 91.1413 62.4949 91.0898 62.461 91.0239C62.4443 90.9919 62.4346 90.9567 62.4327 90.9206C62.4308 90.8846 62.4367 90.8485 62.45 90.8149C62.4705 90.7613 62.5064 90.7149 62.5532 90.6816C62.6 90.6483 62.6556 90.6297 62.713 90.6279C62.7441 90.6278 62.775 90.6335 62.804 90.6449C63.271 90.8099 63.779 90.9629 64.404 91.1269C64.4408 91.1365 64.4752 91.1534 64.5053 91.1766C64.5354 91.1998 64.5604 91.2288 64.579 91.2619C64.5958 91.2921 64.6065 91.3253 64.6105 91.3596C64.6144 91.394 64.6116 91.4287 64.602 91.4619C64.5892 91.5237 64.5552 91.5791 64.5059 91.6186C64.4566 91.658 64.3951 91.679 64.332 91.6779ZM76.143 91.1959H76.072C76.0014 91.1985 75.9325 91.1741 75.8793 91.1277C75.8261 91.0813 75.7925 91.0164 75.7853 90.9462C75.7782 90.8759 75.7981 90.8056 75.8409 90.7494C75.8838 90.6933 75.9464 90.6556 76.016 90.6439C76.539 90.5169 77.099 90.3589 77.641 90.2059C77.6677 90.1986 77.6953 90.1949 77.723 90.1949C77.7853 90.1944 77.8459 90.2147 77.8954 90.2526C77.9448 90.2904 77.9802 90.3437 77.996 90.4039C78.0166 90.4774 78.0076 90.556 77.971 90.6229C77.9526 90.6557 77.9279 90.6845 77.8981 90.7075C77.8684 90.7305 77.8344 90.7473 77.798 90.7569C77.263 90.9079 76.693 91.0649 76.143 91.1949V91.1959ZM61.132 90.5609C61.0928 90.5597 61.0543 90.5502 61.019 90.5329C60.394 90.2459 59.904 89.9989 59.477 89.7549C59.4449 89.7386 59.4164 89.716 59.3934 89.6883C59.3703 89.6606 59.3532 89.6285 59.343 89.5939C59.3315 89.5577 59.3275 89.5196 59.3311 89.4818C59.3347 89.444 59.3459 89.4073 59.364 89.3739C59.4001 89.3087 59.4604 89.2604 59.5319 89.2392C59.6033 89.2181 59.6802 89.2259 59.746 89.2609C60.275 89.5609 60.761 89.8019 61.232 90.0109C61.2659 90.0253 61.2964 90.0464 61.322 90.0729C61.3475 90.0993 61.3674 90.1307 61.3806 90.165C61.3937 90.1993 61.3999 90.236 61.3986 90.2727C61.3973 90.3095 61.3886 90.3456 61.373 90.3789C61.3577 90.4311 61.3261 90.477 61.2826 90.5098C61.2392 90.5426 61.1864 90.5605 61.132 90.5609ZM79.332 90.2609C79.2718 90.2603 79.2133 90.2406 79.165 90.2047C79.1167 90.1687 79.081 90.1184 79.063 90.0609C79.051 90.0256 79.0463 89.9881 79.0492 89.9509C79.052 89.9137 79.0624 89.8774 79.0797 89.8443C79.097 89.8112 79.1209 89.782 79.1498 89.7584C79.1787 89.7347 79.2121 89.7173 79.248 89.7069L79.466 89.6369C79.918 89.4909 80.385 89.3369 80.86 89.1699C80.8896 89.158 80.9211 89.1519 80.953 89.1519C81.0106 89.152 81.0667 89.1701 81.1134 89.2039C81.1601 89.2376 81.1949 89.2852 81.213 89.3399C81.2352 89.4092 81.2301 89.4844 81.1987 89.55C81.1673 89.6157 81.1119 89.6668 81.044 89.6929C80.461 89.8929 79.914 90.0739 79.417 90.2309C79.3915 90.248 79.3624 90.2593 79.332 90.2639V90.2609ZM82.543 89.1439C82.4849 89.1436 82.4283 89.1259 82.3803 89.0931C82.3324 89.0603 82.2954 89.0139 82.274 88.9599C82.2603 88.9254 82.2537 88.8885 82.2546 88.8514C82.2554 88.8143 82.2638 88.7777 82.279 88.7439C82.2948 88.7089 82.3176 88.6774 82.346 88.6514C82.3743 88.6255 82.4077 88.6056 82.444 88.5929L82.5 88.5719C83 88.3839 83.51 88.1899 84.028 87.9849C84.0598 87.9721 84.0937 87.9653 84.128 87.9649C84.1747 87.9643 84.2209 87.9753 84.2623 87.9971C84.3036 88.0188 84.3389 88.0506 84.3648 88.0894C84.3908 88.1283 84.4066 88.1731 84.4108 88.2196C84.415 88.2662 84.4075 88.313 84.389 88.3559C84.375 88.3899 84.3543 88.4208 84.3282 88.4467C84.3021 88.4726 84.2711 88.4931 84.237 88.5069C83.849 88.6599 83.457 88.8069 83.079 88.9499L82.639 89.1159C82.6133 89.1374 82.5805 89.1484 82.547 89.1469L82.543 89.1439ZM58.189 88.8919C58.1276 88.8924 58.0677 88.8724 58.019 88.8349C57.519 88.4679 57.07 88.1169 56.661 87.7599C56.6053 87.71 56.5712 87.6403 56.566 87.5656C56.5607 87.4909 56.5848 87.4172 56.633 87.3599C56.6599 87.3299 56.6929 87.306 56.7299 87.2898C56.7668 87.2736 56.8067 87.2654 56.847 87.2659C56.9137 87.2652 56.9783 87.2887 57.029 87.3319C57.4435 87.699 57.8775 88.0435 58.329 88.3639C58.3584 88.384 58.3836 88.4097 58.403 88.4396C58.4224 88.4695 58.4356 88.5029 58.442 88.5379C58.4572 88.6147 58.4418 88.6944 58.399 88.7599C58.3799 88.7994 58.3501 88.8327 58.3129 88.856C58.2758 88.8794 58.2329 88.8918 58.189 88.8919ZM150.216 88.7359C149.884 88.7357 149.553 88.7073 149.226 88.6509C149.19 88.645 149.155 88.6319 149.123 88.6122C149.092 88.5926 149.065 88.5668 149.044 88.5365C149.023 88.5062 149.008 88.4719 149 88.4357C148.992 88.3996 148.992 88.3622 148.999 88.3259C149.01 88.2614 149.043 88.2027 149.093 88.1605C149.143 88.1182 149.207 88.095 149.272 88.0949C149.289 88.0934 149.307 88.0934 149.324 88.0949C149.624 88.144 149.927 88.1687 150.23 88.1689C150.466 88.169 150.702 88.154 150.936 88.1239H150.966C151.035 88.1208 151.102 88.1441 151.155 88.189C151.207 88.234 151.24 88.2973 151.247 88.3659C151.255 88.441 151.234 88.5164 151.189 88.5769C151.167 88.6053 151.14 88.6288 151.109 88.646C151.077 88.6633 151.043 88.6738 151.007 88.6769H150.979C150.726 88.7094 150.471 88.7291 150.216 88.7359ZM152.606 88.2549C152.539 88.2556 152.475 88.2331 152.423 88.1912C152.371 88.1493 152.335 88.0908 152.322 88.0255C152.309 87.9602 152.318 87.8924 152.35 87.8335C152.381 87.7747 152.432 87.7285 152.493 87.7029C153.007 87.5016 153.5 87.2504 153.965 86.9529C154.009 86.9239 154.061 86.9086 154.114 86.9089C154.163 86.9088 154.21 86.9205 154.253 86.943C154.296 86.9655 154.333 86.998 154.361 87.0379C154.381 87.0693 154.395 87.1044 154.401 87.1412C154.408 87.1779 154.406 87.2156 154.398 87.2519C154.382 87.3258 154.338 87.3908 154.276 87.4339C153.783 87.7449 153.262 88.01 152.72 88.2259L152.668 88.2409C152.648 88.2482 152.627 88.2526 152.606 88.2539V88.2549ZM147.67 88.1139C147.63 88.1116 147.59 88.1032 147.552 88.0889H147.542C147.018 87.8223 146.525 87.4998 146.071 87.1269C146.041 87.1039 146.016 87.075 145.998 87.0419C145.98 87.0089 145.969 86.9725 145.965 86.9349C145.962 86.899 145.966 86.8628 145.977 86.8285C145.988 86.7941 146.006 86.7623 146.029 86.7349C146.055 86.7014 146.088 86.6744 146.127 86.6558C146.165 86.6373 146.207 86.6277 146.249 86.6279C146.314 86.6276 146.376 86.6507 146.425 86.6929C146.841 87.042 147.297 87.341 147.783 87.5839C147.817 87.6005 147.847 87.6236 147.871 87.6518C147.896 87.68 147.914 87.7129 147.926 87.7484C147.938 87.7839 147.943 87.8215 147.94 87.8588C147.937 87.8961 147.927 87.9325 147.91 87.9659C147.888 88.0109 147.854 88.0486 147.812 88.0747C147.769 88.1008 147.72 88.114 147.67 88.1129V88.1139ZM85.7 87.9019C85.6459 87.9013 85.5931 87.8851 85.548 87.8551C85.5029 87.8251 85.4675 87.7826 85.446 87.7329C85.4179 87.6637 85.4179 87.5862 85.446 87.5169C85.4599 87.4827 85.4805 87.4516 85.5066 87.4255C85.5327 87.3994 85.5638 87.3788 85.598 87.3649C86.063 87.1769 86.557 86.9649 87.154 86.7009C87.1899 86.6864 87.2283 86.6789 87.267 86.6789C87.321 86.6774 87.3741 86.6921 87.4196 86.7212C87.4651 86.7502 87.5008 86.7923 87.522 86.8419C87.5486 86.9111 87.5486 86.9877 87.522 87.0569C87.51 87.0911 87.4908 87.1223 87.4658 87.1485C87.4408 87.1747 87.4106 87.1953 87.377 87.2089C86.895 87.4179 86.349 87.6539 85.807 87.8739C85.776 87.896 85.7378 87.9056 85.7 87.9009V87.9019ZM55.643 86.6429C55.6025 86.643 55.5624 86.634 55.5258 86.6167C55.4891 86.5994 55.4568 86.5742 55.431 86.5429C55.0451 86.1143 54.6816 85.6661 54.342 85.1999C54.3188 85.1708 54.3017 85.1373 54.2919 85.1013C54.2821 85.0654 54.2798 85.0278 54.285 84.9909C54.2972 84.9164 54.3376 84.8494 54.398 84.8039C54.446 84.7655 54.5055 84.7444 54.567 84.7439C54.6112 84.7445 54.6547 84.7553 54.694 84.7754C54.7334 84.7956 54.7676 84.8245 54.794 84.8599C55.1194 85.3079 55.4689 85.7379 55.841 86.1479C55.8922 86.2074 55.9181 86.2846 55.913 86.3629C55.9114 86.3973 55.9029 86.431 55.8882 86.462C55.8734 86.4931 55.8526 86.5209 55.827 86.5439C55.8078 86.5752 55.7807 86.6008 55.7483 86.6182C55.716 86.6356 55.6797 86.6441 55.643 86.6429ZM88.813 86.5429C88.758 86.5452 88.7036 86.53 88.6578 86.4995C88.612 86.4689 88.577 86.4246 88.558 86.3729C88.5415 86.3394 88.5321 86.3027 88.5305 86.2654C88.529 86.228 88.5353 86.1907 88.549 86.1559C88.5769 86.0845 88.6304 86.0261 88.699 85.9919L89.185 85.7639C89.533 85.6009 89.885 85.4339 90.227 85.2699C90.2605 85.253 90.2969 85.2429 90.3343 85.2401C90.3717 85.2374 90.4092 85.2421 90.4448 85.2541C90.4803 85.266 90.5131 85.2848 90.5413 85.3095C90.5695 85.3342 90.5925 85.3643 90.609 85.3979C90.626 85.4313 90.6362 85.4677 90.6389 85.5051C90.6417 85.5424 90.6371 85.5799 90.6253 85.6154C90.6135 85.651 90.5947 85.6838 90.5701 85.712C90.5455 85.7403 90.5156 85.7633 90.482 85.7799L90.076 85.9729C89.701 86.1509 89.314 86.3349 88.94 86.5019C88.9027 86.5281 88.8586 86.5428 88.813 86.5439V86.5429ZM155.492 86.5009C155.452 86.5007 155.412 86.4916 155.375 86.4744C155.338 86.4571 155.306 86.432 155.28 86.4009C155.256 86.3711 155.238 86.3367 155.227 86.2998C155.216 86.2628 155.213 86.2241 155.217 86.1859C155.222 86.1502 155.234 86.1159 155.252 86.0848C155.27 86.0537 155.294 86.0266 155.323 86.0049C155.67 85.7169 156.123 85.3309 156.568 84.8879C156.594 84.8617 156.625 84.8408 156.66 84.8266C156.694 84.8124 156.731 84.8051 156.768 84.8051C156.805 84.8051 156.842 84.8124 156.876 84.8266C156.911 84.8408 156.942 84.8617 156.968 84.8879C156.994 84.9142 157.015 84.9454 157.029 84.9797C157.044 85.014 157.051 85.0508 157.051 85.0879C157.051 85.1251 157.044 85.1618 157.029 85.1962C157.015 85.2305 156.994 85.2617 156.968 85.2879C156.562 85.6929 156.145 86.0729 155.694 86.4479C155.63 86.4776 155.562 86.4959 155.492 86.5019V86.5009ZM145.039 86.0009C144.998 86.0027 144.958 85.9945 144.921 85.9771C144.884 85.9597 144.852 85.9335 144.827 85.9009C144.534 85.5639 144.253 85.2119 143.993 84.8539L143.88 84.6989L143.766 84.5429C143.724 84.48 143.708 84.4032 143.721 84.3286C143.734 84.254 143.776 84.1875 143.837 84.1429C143.885 84.1106 143.942 84.0936 144 84.0939C144.046 84.0932 144.091 84.1037 144.131 84.1244C144.172 84.1452 144.207 84.1756 144.233 84.2129C144.294 84.2989 144.368 84.4029 144.459 84.5239C144.702 84.8774 144.971 85.2117 145.265 85.5239C145.313 85.5813 145.337 85.655 145.332 85.7296C145.326 85.8042 145.293 85.8738 145.237 85.9239C145.182 85.9718 145.112 86.0006 145.039 86.0059V86.0009ZM91.882 85.0719C91.8296 85.0705 91.7784 85.0553 91.7337 85.0279C91.689 85.0006 91.6522 84.962 91.627 84.9159C91.61 84.8825 91.5999 84.8461 91.5971 84.8088C91.5943 84.7715 91.5989 84.7339 91.6107 84.6984C91.6226 84.6629 91.6413 84.63 91.6659 84.6018C91.6905 84.5736 91.7204 84.5505 91.754 84.5339C92.254 84.2779 92.768 84.0199 93.268 83.7699C93.3078 83.7501 93.3516 83.7398 93.396 83.7399C93.4602 83.74 93.5225 83.7617 93.5728 83.8016C93.6231 83.8415 93.6585 83.8972 93.6732 83.9597C93.6879 84.0222 93.681 84.0878 93.6538 84.1459C93.6265 84.204 93.5805 84.2513 93.523 84.2799C93.192 84.4449 92.859 84.6179 92.537 84.7799L92.009 85.0529C91.9879 85.0535 91.9668 85.0559 91.946 85.0599C91.9251 85.0657 91.9036 85.0697 91.882 85.0719ZM157.911 84.1099C157.844 84.108 157.779 84.0833 157.727 84.0399C157.672 83.9901 157.639 83.9209 157.634 83.8469C157.629 83.7743 157.652 83.7025 157.699 83.6469C158.112 83.1469 158.445 82.7319 158.746 82.3309C158.773 82.2956 158.807 82.2667 158.846 82.2466C158.885 82.2265 158.929 82.2157 158.973 82.2149C159.034 82.2152 159.093 82.236 159.141 82.2739C159.172 82.2971 159.198 82.3262 159.217 82.3595C159.237 82.3928 159.25 82.4296 159.255 82.4679C159.259 82.5034 159.256 82.5394 159.246 82.5737C159.236 82.608 159.219 82.64 159.197 82.6679C158.887 83.0949 158.525 83.5469 158.121 84.0119C158.065 84.0694 157.991 84.1043 157.911 84.1099ZM53.649 83.9099C53.6 83.9098 53.5519 83.8966 53.5095 83.8719C53.4672 83.8471 53.4322 83.8116 53.408 83.7689C53.1184 83.2718 52.8592 82.7575 52.632 82.2289C52.6052 82.1594 52.6052 82.0824 52.632 82.0129C52.6441 81.9788 52.6632 81.9476 52.6882 81.9214C52.7132 81.8952 52.7435 81.8746 52.777 81.8609C52.8127 81.8468 52.8507 81.8397 52.889 81.8399C52.9432 81.8382 52.9967 81.853 53.0424 81.8823C53.0881 81.9116 53.1239 81.954 53.145 82.0039C53.356 82.4799 53.602 82.9659 53.895 83.4889C53.9299 83.5534 53.939 83.6287 53.9204 83.6997C53.9019 83.7706 53.857 83.8318 53.795 83.8709C53.7513 83.8983 53.7006 83.9125 53.649 83.9119V83.9099ZM94.91 83.5009C94.865 83.5003 94.8208 83.4894 94.7807 83.4689C94.7407 83.4485 94.7058 83.4191 94.6789 83.383C94.6521 83.347 94.6339 83.3052 94.6257 83.261C94.6176 83.2167 94.6197 83.1712 94.632 83.1279C94.6419 83.0924 94.6591 83.0594 94.6825 83.031C94.7059 83.0025 94.7351 82.9794 94.768 82.9629L95.51 82.5629L95.567 82.5319L96.252 82.1599C96.2954 82.1379 96.3433 82.1263 96.392 82.1259C96.4419 82.1249 96.491 82.1381 96.5337 82.1639C96.5764 82.1898 96.6108 82.2272 96.633 82.2719C96.6679 82.3391 96.6761 82.417 96.656 82.4899C96.6462 82.5254 96.629 82.5585 96.6056 82.5869C96.5822 82.6154 96.553 82.6385 96.52 82.6549C96.354 82.7449 96.187 82.8369 96.02 82.9289C95.696 83.1079 95.361 83.2919 95.033 83.4609C95.0167 83.4766 94.9971 83.4885 94.9757 83.4958C94.9543 83.503 94.9315 83.5055 94.909 83.5029L94.91 83.5009ZM143.059 83.2599C143.011 83.2611 142.964 83.2501 142.922 83.2278C142.88 83.2056 142.845 83.1729 142.819 83.1329C142.51 82.6479 142.186 82.1329 141.928 81.6619C141.893 81.595 141.885 81.5176 141.905 81.4449C141.915 81.4096 141.932 81.3768 141.956 81.3485C141.979 81.3203 142.008 81.2973 142.041 81.2809C142.084 81.259 142.132 81.2473 142.18 81.2469C142.23 81.246 142.279 81.2594 142.322 81.2854C142.365 81.3114 142.4 81.349 142.422 81.3939C142.715 81.9149 142.998 82.3869 143.285 82.8369C143.305 82.8675 143.318 82.9017 143.325 82.9376C143.332 82.9735 143.331 83.0103 143.323 83.0459C143.307 83.1219 143.263 83.189 143.199 83.2329C143.154 83.2493 143.106 83.2591 143.058 83.2619L143.059 83.2599ZM97.866 81.8599C97.8171 81.86 97.769 81.847 97.7268 81.8222C97.6846 81.7974 97.6498 81.7617 97.626 81.7189C97.5901 81.6547 97.5805 81.579 97.5991 81.5078C97.6178 81.4366 97.6632 81.3754 97.726 81.3369C98.217 81.0479 98.726 80.7589 99.197 80.4879C99.2402 80.4619 99.2896 80.4481 99.34 80.4479C99.4016 80.4477 99.4615 80.4678 99.5105 80.5052C99.5594 80.5425 99.5946 80.595 99.6106 80.6545C99.6266 80.714 99.6225 80.7771 99.5988 80.8339C99.5752 80.8908 99.5334 80.9383 99.48 80.9689C99.162 81.1599 98.84 81.3469 98.529 81.5289L98.01 81.8289C97.9643 81.8482 97.9156 81.859 97.866 81.8609V81.8599ZM52.276 80.8139C52.2157 80.8136 52.1571 80.794 52.1087 80.758C52.0603 80.7221 52.0247 80.6716 52.007 80.6139C51.822 80.0714 51.6665 79.5192 51.541 78.9599C51.5323 78.9237 51.5309 78.886 51.5368 78.8492C51.5428 78.8124 51.556 78.7771 51.5758 78.7455C51.5955 78.7139 51.6213 78.6865 51.6518 78.6649C51.6822 78.6433 51.7166 78.628 51.753 78.6199C51.7725 78.6165 51.7922 78.6148 51.812 78.6149C51.8771 78.6121 51.941 78.6325 51.9925 78.6724C52.044 78.7123 52.0796 78.7692 52.093 78.8329C52.209 79.3329 52.357 79.8649 52.546 80.4459C52.5679 80.5219 52.5589 80.6035 52.521 80.6729C52.5043 80.7035 52.4816 80.7304 52.4543 80.7521C52.427 80.7737 52.3956 80.7896 52.362 80.7989C52.3349 80.8107 52.3055 80.8158 52.276 80.8139ZM141.417 80.2909C141.363 80.2903 141.31 80.2739 141.264 80.2437C141.219 80.2136 141.183 80.1709 141.162 80.1209C140.931 79.5859 140.747 79.0322 140.61 78.4659C140.595 78.393 140.608 78.3169 140.648 78.2536C140.687 78.1904 140.75 78.145 140.822 78.1269C140.841 78.1236 140.861 78.1219 140.88 78.1219C140.945 78.1212 141.007 78.1423 141.059 78.1819C141.11 78.2215 141.146 78.2772 141.161 78.3399C141.287 78.8738 141.462 79.3947 141.685 79.8959C141.7 79.9318 141.708 79.9704 141.708 80.0094C141.708 80.0484 141.7 80.087 141.685 80.1229C141.67 80.1554 141.649 80.1846 141.623 80.2087C141.597 80.2328 141.566 80.2512 141.532 80.2629C141.497 80.2809 141.458 80.2908 141.418 80.2919L141.417 80.2909ZM100.793 80.1349C100.744 80.1363 100.695 80.1239 100.653 80.0989C100.61 80.074 100.576 80.0376 100.553 79.9939C100.533 79.9632 100.52 79.9287 100.513 79.8926C100.507 79.8565 100.508 79.8195 100.517 79.7839C100.526 79.7454 100.542 79.7091 100.566 79.6772C100.589 79.6452 100.618 79.6183 100.652 79.5979L101.373 79.1519L102.094 78.7069C102.138 78.6773 102.191 78.6616 102.244 78.6619C102.292 78.662 102.34 78.6738 102.383 78.6962C102.426 78.7187 102.462 78.7512 102.49 78.7909C102.51 78.8223 102.524 78.8574 102.53 78.8942C102.537 78.9309 102.535 78.9686 102.527 79.0049C102.511 79.0788 102.467 79.1438 102.405 79.1869C102.241 79.2869 102.076 79.3869 101.912 79.4939C101.599 79.6939 101.278 79.8939 100.962 80.0779C100.913 80.1136 100.854 80.1338 100.793 80.1359V80.1349ZM103.678 78.3239C103.63 78.3251 103.583 78.3141 103.541 78.2918C103.499 78.2696 103.464 78.2369 103.438 78.1969C103.399 78.1319 103.386 78.0544 103.402 77.9802C103.418 77.906 103.461 77.8405 103.523 77.7969C103.978 77.5029 104.423 77.2039 104.86 76.9149L104.938 76.8629C104.986 76.8313 105.042 76.8145 105.1 76.8149C105.146 76.8139 105.191 76.8243 105.232 76.8451C105.273 76.8658 105.308 76.8963 105.334 76.9339C105.375 76.9972 105.391 77.0736 105.378 77.1479C105.372 77.1845 105.359 77.2196 105.34 77.2509C105.32 77.2822 105.294 77.3091 105.263 77.3299C105.019 77.4929 104.763 77.6589 104.523 77.8189C104.297 77.9679 104.071 78.1189 103.849 78.2639C103.799 78.2994 103.74 78.3205 103.679 78.3249L103.678 78.3239ZM51.554 77.5189C51.5484 77.5139 51.5417 77.5101 51.5344 77.5079C51.5272 77.5056 51.5195 77.505 51.512 77.5059C51.444 77.5061 51.3782 77.482 51.3263 77.438C51.2744 77.3941 51.24 77.333 51.229 77.2659C51.1433 76.6985 51.0865 76.1271 51.059 75.5539C51.0562 75.5161 51.0612 75.4781 51.0738 75.4423C51.0863 75.4065 51.1062 75.3737 51.132 75.3459C51.1572 75.3178 51.188 75.2954 51.2225 75.2801C51.257 75.2647 51.2943 75.2568 51.332 75.2569H51.352C51.4236 75.2574 51.4921 75.2858 51.5431 75.336C51.5941 75.3863 51.6235 75.4544 51.625 75.5259C51.6522 76.0852 51.709 76.6426 51.795 77.1959C51.8059 77.2709 51.7867 77.3472 51.7415 77.4081C51.6964 77.469 51.629 77.5096 51.554 77.5209V77.5189ZM140.724 76.9959H140.71C140.633 76.9888 140.562 76.9531 140.51 76.8959C140.485 76.8694 140.466 76.8379 140.454 76.8034C140.441 76.769 140.437 76.7323 140.44 76.6959C140.47 76.1015 140.59 75.515 140.794 74.9559C140.815 74.9012 140.851 74.8539 140.899 74.8204C140.947 74.7868 141.004 74.7686 141.063 74.7679C141.109 74.768 141.155 74.7792 141.196 74.8006C141.237 74.822 141.272 74.8529 141.298 74.8908C141.324 74.9287 141.341 74.9724 141.347 75.0182C141.353 75.064 141.348 75.1106 141.332 75.1539C141.145 75.6578 141.035 76.1871 141.006 76.7239C141.004 76.7969 140.973 76.8661 140.921 76.9168C140.868 76.9676 140.798 76.996 140.725 76.9959H140.724ZM106.493 76.4299C106.447 76.4309 106.402 76.4196 106.362 76.3973C106.322 76.3749 106.289 76.3424 106.266 76.3029C106.225 76.2397 106.209 76.1632 106.222 76.0889C106.228 76.0523 106.241 76.0172 106.26 75.9859C106.28 75.9545 106.306 75.9277 106.337 75.9069L106.372 75.8829C106.819 75.5709 107.282 75.2479 107.723 74.9309C107.77 74.8997 107.825 74.883 107.882 74.8829C107.928 74.8834 107.973 74.8944 108.015 74.9153C108.056 74.9361 108.091 74.9661 108.119 75.0029C108.162 75.0656 108.178 75.1424 108.165 75.2171C108.152 75.2917 108.11 75.3584 108.049 75.4029L107.854 75.5429C107.465 75.8229 107.063 76.1119 106.662 76.3789C106.614 76.4147 106.554 76.4327 106.494 76.4299H106.493ZM109.252 74.4539C109.208 74.4528 109.165 74.4421 109.126 74.4226C109.087 74.4031 109.052 74.3752 109.025 74.3409C109.002 74.3119 108.985 74.2785 108.975 74.2427C108.966 74.2069 108.964 74.1696 108.969 74.1329C108.982 74.0582 109.022 73.9911 109.082 73.9449C109.528 73.6109 109.988 73.2659 110.426 72.9269C110.474 72.8885 110.534 72.8674 110.595 72.8669C110.639 72.8675 110.683 72.8783 110.722 72.8984C110.761 72.9186 110.796 72.9475 110.822 72.9829C110.846 73.0125 110.863 73.0465 110.873 73.0831C110.883 73.1196 110.885 73.1578 110.88 73.1953C110.875 73.2327 110.862 73.2687 110.842 73.301C110.822 73.3333 110.796 73.3612 110.765 73.3829C110.379 73.6829 109.935 74.0199 109.407 74.4159L109.377 74.4269C109.337 74.4433 109.295 74.4525 109.252 74.4539ZM51.301 74.1239C51.2638 74.1241 51.2269 74.1168 51.1924 74.1027C51.158 74.0885 51.1266 74.0677 51.1003 74.0414C51.0739 74.0151 51.0529 73.9839 51.0387 73.9495C51.0244 73.9151 51.017 73.8782 51.017 73.8409C51.031 73.2849 51.046 72.7099 51.103 72.1289C51.1076 72.0581 51.1397 71.9919 51.1923 71.9443C51.245 71.8967 51.3141 71.8714 51.385 71.8739H51.414C51.4506 71.8772 51.4861 71.8877 51.5186 71.9049C51.551 71.9221 51.5797 71.9455 51.603 71.9739C51.6275 72.003 51.6459 72.0366 51.6572 72.0728C51.6686 72.109 51.6726 72.1471 51.669 72.1849C51.628 72.7369 51.599 73.2989 51.584 73.8539C51.5807 73.9267 51.5494 73.9954 51.4967 74.0457C51.444 74.096 51.3739 74.124 51.301 74.1239ZM141.801 73.8139C141.751 73.8131 141.702 73.7986 141.659 73.7719C141.625 73.7522 141.596 73.7259 141.572 73.6944C141.549 73.6629 141.532 73.6271 141.523 73.5889C141.515 73.5548 141.514 73.5195 141.521 73.4851C141.527 73.4507 141.541 73.418 141.56 73.3889C141.825 72.9379 142.131 72.4659 142.494 71.9459C142.52 71.9084 142.555 71.8779 142.596 71.8572C142.636 71.8364 142.681 71.826 142.727 71.8269C142.785 71.8267 142.842 71.8438 142.89 71.8759C142.919 71.896 142.945 71.9217 142.964 71.9516C142.983 71.9815 142.997 72.0149 143.003 72.0499C143.018 72.1267 143.003 72.2064 142.96 72.2719L142.932 72.3139C142.565 72.8569 142.276 73.2859 142.055 73.6729C142.029 73.7173 141.992 73.7538 141.947 73.7785C141.902 73.8032 141.851 73.8151 141.8 73.8129L141.801 73.8139ZM111.941 72.3709C111.897 72.3698 111.854 72.3591 111.815 72.3396C111.776 72.3201 111.741 72.2922 111.714 72.2579C111.689 72.2294 111.671 72.1961 111.66 72.1602C111.648 72.1242 111.645 72.0863 111.649 72.0488C111.652 72.0114 111.664 71.9751 111.683 71.9423C111.701 71.9094 111.726 71.8807 111.756 71.8579C112.274 71.4409 112.704 71.0889 113.072 70.7829C113.124 70.7418 113.188 70.7189 113.254 70.7179C113.296 70.718 113.336 70.7276 113.374 70.7462C113.411 70.7648 113.443 70.7917 113.468 70.8249C113.491 70.8523 113.509 70.8841 113.52 70.9185C113.531 70.9528 113.535 70.989 113.532 71.0249C113.529 71.0628 113.518 71.0996 113.499 71.133C113.481 71.1664 113.456 71.1956 113.426 71.2189C113.032 71.5459 112.59 71.9069 112.11 72.2939C112.088 72.3177 112.062 72.3368 112.033 72.35C112.004 72.3633 111.972 72.3704 111.94 72.3709H111.941ZM143.697 71.0129C143.636 71.0135 143.576 70.9934 143.527 70.9559C143.498 70.9361 143.472 70.9105 143.453 70.8808C143.433 70.8511 143.42 70.8179 143.413 70.7829C143.397 70.706 143.412 70.6259 143.455 70.5599C143.745 70.1459 144.072 69.6769 144.417 69.1739C144.443 69.1362 144.478 69.1055 144.518 69.0845C144.559 69.0636 144.604 69.053 144.65 69.0539C144.708 69.0534 144.765 69.0701 144.813 69.1019C144.843 69.1218 144.868 69.1473 144.887 69.177C144.907 69.2067 144.92 69.24 144.927 69.2749C144.943 69.3519 144.928 69.432 144.885 69.4979C144.644 69.8599 144.406 70.1979 144.176 70.5199C144.084 70.6499 143.995 70.7763 143.909 70.8989C143.889 70.9371 143.858 70.9683 143.819 70.9886C143.781 71.0089 143.738 71.0174 143.695 71.0129H143.697ZM51.583 70.7429H51.541C51.4677 70.7284 51.4025 70.687 51.3581 70.6269C51.3137 70.5668 51.2934 70.4923 51.301 70.4179C51.388 69.8479 51.488 69.2819 51.601 68.7339C51.6141 68.668 51.6499 68.6088 51.7022 68.5666C51.7544 68.5244 51.8198 68.5019 51.887 68.5029C51.9046 68.5014 51.9224 68.5014 51.94 68.5029C51.9759 68.5095 52.0101 68.5231 52.0407 68.543C52.0712 68.563 52.0975 68.5887 52.118 68.6189C52.163 68.6843 52.1803 68.7648 52.166 68.8429C52.054 69.3919 51.954 69.9489 51.866 70.4979C51.8536 70.5648 51.8188 70.6255 51.7674 70.67C51.716 70.7145 51.651 70.7402 51.583 70.7429ZM114.556 70.1909C114.515 70.1927 114.475 70.1845 114.438 70.1671C114.401 70.1497 114.369 70.1235 114.344 70.0909C114.297 70.0354 114.273 69.9636 114.278 69.8909C114.283 69.8167 114.317 69.7474 114.372 69.6979C114.783 69.3419 115.207 68.9609 115.631 68.5669C115.687 68.519 115.758 68.493 115.831 68.4939C115.869 68.4933 115.906 68.5008 115.94 68.5158C115.975 68.5308 116.006 68.553 116.031 68.5809C116.082 68.6404 116.108 68.7176 116.103 68.7959C116.101 68.8303 116.093 68.864 116.078 68.895C116.063 68.9261 116.043 68.9539 116.017 68.9769C115.549 69.4119 115.133 69.7769 114.744 70.1079C114.695 70.1591 114.627 70.1892 114.556 70.1919V70.1909ZM145.604 68.1969C145.549 68.1961 145.496 68.1817 145.448 68.1549C145.384 68.113 145.339 68.0474 145.323 67.9725C145.307 67.8975 145.321 67.8193 145.363 67.7549C145.641 67.3259 145.915 66.8679 146.226 66.3119C146.255 66.2653 146.296 66.228 146.346 66.2044C146.395 66.1808 146.45 66.1719 146.505 66.1789C146.559 66.1858 146.61 66.2083 146.652 66.2436C146.694 66.2789 146.725 66.3256 146.741 66.3779C146.751 66.4143 146.753 66.4523 146.747 66.4896C146.741 66.5268 146.728 66.5624 146.707 66.5939C146.46 67.0269 146.162 67.5399 145.83 68.0509C145.812 68.0958 145.781 68.134 145.74 68.1602C145.7 68.1864 145.652 68.1992 145.604 68.1969ZM117.06 67.8969C117.023 67.8968 116.986 67.8892 116.951 67.8746C116.917 67.86 116.886 67.8387 116.86 67.8119C116.834 67.7858 116.813 67.7546 116.8 67.7201C116.787 67.6857 116.78 67.6488 116.782 67.6119C116.783 67.574 116.791 67.5367 116.807 67.5023C116.823 67.4678 116.846 67.4371 116.874 67.4119C117.252 67.0469 117.681 66.6329 118.074 66.2239C118.127 66.1709 118.199 66.1411 118.274 66.1411C118.349 66.1411 118.421 66.1709 118.474 66.2239C118.527 66.277 118.557 66.3489 118.557 66.4239C118.557 66.4989 118.527 66.5709 118.474 66.6239C118.029 67.0839 117.631 67.4779 117.257 67.8239C117.201 67.8697 117.132 67.8963 117.06 67.8999V67.8969ZM52.26 67.4159C52.2358 67.4183 52.2114 67.4134 52.19 67.4019C52.1533 67.3924 52.1188 67.3755 52.0887 67.3523C52.0587 67.3291 52.0336 67.3 52.015 67.2669C51.9982 67.2367 51.9875 67.2035 51.9835 67.1692C51.9796 67.1349 51.9825 67.1001 51.992 67.0669C52.128 66.5509 52.283 66.0399 52.473 65.4259C52.4895 65.3672 52.5251 65.3156 52.5742 65.2794C52.6232 65.2431 52.683 65.2243 52.744 65.2259C52.7721 65.2259 52.8001 65.2299 52.827 65.2379C52.8607 65.2474 52.8921 65.2635 52.9194 65.2853C52.9467 65.3071 52.9694 65.3342 52.986 65.3649C53.0236 65.4345 53.0322 65.516 53.01 65.5919L52.99 65.6549C52.83 66.1639 52.665 66.6879 52.529 67.2039C52.516 67.265 52.4823 67.3198 52.4337 67.3592C52.3851 67.3985 52.3245 67.4199 52.262 67.4199L52.26 67.4159ZM119.432 65.4679C119.359 65.4663 119.289 65.4414 119.232 65.3969C119.204 65.3718 119.181 65.341 119.165 65.3066C119.149 65.2721 119.141 65.2348 119.14 65.1969C119.138 65.16 119.145 65.1231 119.158 65.0887C119.171 65.0543 119.192 65.023 119.218 64.9969C119.626 64.5439 119.991 64.1369 120.335 63.7379C120.362 63.7079 120.395 63.684 120.432 63.6678C120.469 63.6516 120.51 63.6434 120.55 63.6439C120.616 63.6432 120.681 63.6667 120.731 63.7099C120.786 63.7595 120.82 63.8288 120.825 63.9029C120.83 63.9755 120.807 64.0473 120.76 64.1029C120.417 64.5149 120.06 64.9129 119.629 65.3899C119.575 65.4383 119.505 65.466 119.432 65.4679ZM147.288 65.2539C147.247 65.2515 147.206 65.2427 147.168 65.2279H147.161C147.127 65.2114 147.097 65.1884 147.073 65.1602C147.048 65.132 147.029 65.0991 147.017 65.0636C147.006 65.028 147.001 64.9904 147.004 64.9531C147.007 64.9157 147.017 64.8793 147.034 64.8459C147.097 64.7179 147.172 64.5689 147.26 64.4079C147.427 64.0749 147.598 63.7079 147.76 63.3329C147.782 63.2808 147.819 63.2363 147.867 63.2052C147.914 63.174 147.969 63.1576 148.026 63.1579C148.06 63.1583 148.094 63.165 148.126 63.1779C148.16 63.1919 148.191 63.2125 148.217 63.2386C148.243 63.2647 148.264 63.2958 148.278 63.3299C148.306 63.3988 148.306 63.476 148.278 63.5449C148.107 63.9649 147.936 64.3449 147.769 64.6629C147.726 64.7629 147.677 64.8489 147.63 64.9359C147.6 64.9919 147.57 65.0469 147.543 65.1009C147.517 65.1464 147.481 65.1844 147.436 65.2112C147.391 65.2381 147.34 65.2528 147.288 65.2539ZM53.308 64.1939C53.2741 64.196 53.2401 64.1913 53.208 64.1799C53.1374 64.1527 53.0802 64.0991 53.0486 64.0303C53.0171 63.9616 53.0136 63.8832 53.039 63.8119C53.268 63.2059 53.476 62.6879 53.675 62.2279C53.6954 62.1781 53.7302 62.1354 53.7748 62.1053C53.8195 62.0752 53.8721 62.0591 53.926 62.0589C53.967 62.0589 54.0074 62.0685 54.044 62.0869C54.0785 62.1007 54.1097 62.1216 54.1357 62.1481C54.1617 62.1746 54.1819 62.2062 54.195 62.2409C54.2086 62.2752 54.2148 62.312 54.2133 62.3489C54.2117 62.3858 54.2024 62.4219 54.186 62.4549C53.979 62.9329 53.771 63.4419 53.55 64.0109C53.5363 64.0643 53.5049 64.1114 53.4609 64.1446C53.417 64.1778 53.3631 64.1952 53.308 64.1939ZM121.632 62.8789C121.57 62.8821 121.509 62.8617 121.462 62.8219C121.402 62.7761 121.362 62.7084 121.352 62.6336C121.341 62.5588 121.36 62.4827 121.405 62.4219C121.749 61.9819 122.091 61.5119 122.395 61.0639C122.421 61.0264 122.456 60.9959 122.497 60.9752C122.538 60.9544 122.583 60.944 122.629 60.9449C122.681 60.944 122.732 60.9576 122.777 60.9842C122.822 61.0108 122.859 61.0494 122.883 61.0955C122.907 61.1417 122.918 61.1937 122.914 61.2457C122.91 61.2977 122.892 61.3476 122.862 61.3899C122.517 61.8899 122.184 62.3439 121.843 62.7759C121.818 62.8077 121.786 62.8335 121.749 62.8513C121.713 62.8691 121.673 62.8785 121.632 62.8789ZM148.606 62.1289C148.577 62.1314 148.548 62.1266 148.521 62.1149C148.487 62.1057 148.455 62.0897 148.428 62.0679C148.4 62.046 148.378 62.0188 148.361 61.9879C148.342 61.9536 148.33 61.9158 148.326 61.8769C148.322 61.8379 148.326 61.7985 148.337 61.7609C148.524 61.1819 148.672 60.6539 148.79 60.1479C148.805 60.0855 148.841 60.03 148.892 59.9906C148.943 59.9512 149.006 59.9302 149.07 59.9309C149.09 59.9311 149.11 59.9331 149.129 59.9369C149.202 59.9545 149.264 59.9999 149.304 60.0632C149.344 60.1266 149.357 60.2029 149.341 60.2759C149.201 60.8349 149.041 61.3919 148.875 61.9309C148.857 61.9887 148.82 62.0392 148.772 62.0749C148.723 62.1107 148.664 62.13 148.603 62.1299L148.606 62.1289ZM54.652 61.0829C54.6084 61.0801 54.5655 61.0703 54.525 61.0539C54.4914 61.0373 54.4615 61.0143 54.4369 60.986C54.4123 60.9578 54.3936 60.925 54.3817 60.8894C54.3699 60.8539 54.3653 60.8164 54.3681 60.7791C54.3709 60.7417 54.381 60.7053 54.398 60.6719C54.486 60.4859 54.581 60.2989 54.673 60.1189L54.794 59.8799L54.814 59.8409C54.933 59.6159 55.055 59.3839 55.19 59.1409C55.207 59.1078 55.2308 59.0786 55.2599 59.0553C55.289 59.0319 55.3226 59.015 55.3587 59.0056C55.3947 58.9961 55.4323 58.9944 55.4691 59.0005C55.5059 59.0066 55.5409 59.0204 55.572 59.0409C55.6048 59.0572 55.6336 59.0804 55.6565 59.1089C55.6795 59.1374 55.696 59.1705 55.705 59.2059C55.7151 59.2424 55.7172 59.2807 55.7114 59.3181C55.7055 59.3555 55.6917 59.3912 55.671 59.4229C55.541 59.6439 55.412 59.8829 55.289 60.1299C55.23 60.2479 55.167 60.3689 55.105 60.4909C55.032 60.6329 54.96 60.7719 54.893 60.9079C54.8737 60.957 54.8407 60.9996 54.798 61.0306C54.7553 61.0616 54.7047 61.0797 54.652 61.0829ZM123.552 60.0829C123.502 60.082 123.453 60.0675 123.411 60.0409C123.347 60.003 123.301 59.9416 123.283 59.8699C123.264 59.7983 123.274 59.7221 123.311 59.6579C123.599 59.1811 123.864 58.6902 124.103 58.1869C124.119 58.1516 124.141 58.1198 124.169 58.0934C124.198 58.0671 124.231 58.0468 124.267 58.0337C124.304 58.0206 124.342 58.015 124.381 58.0173C124.419 58.0196 124.457 58.0297 124.491 58.047C124.526 58.0643 124.557 58.0884 124.582 58.1179C124.606 58.1474 124.625 58.1817 124.636 58.2186C124.648 58.2556 124.651 58.2944 124.647 58.3328C124.643 58.3712 124.631 58.4083 124.612 58.4419C124.34 59.0019 124.072 59.4969 123.791 59.9549C123.763 59.9917 123.727 60.0218 123.686 60.0431C123.645 60.0644 123.599 60.0762 123.553 60.0779L123.552 60.0829ZM149.41 58.8339H149.368C149.332 58.8277 149.297 58.8142 149.266 58.7944C149.234 58.7746 149.207 58.7487 149.186 58.7184C149.165 58.6881 149.15 58.6538 149.143 58.6177C149.135 58.5816 149.134 58.5443 149.141 58.5079C149.232 58.0029 149.306 57.4569 149.368 56.8389C149.375 56.7686 149.409 56.7034 149.461 56.6562C149.514 56.6089 149.582 56.5828 149.653 56.5829H149.68C149.755 56.5908 149.824 56.6278 149.871 56.686C149.919 56.7443 149.942 56.819 149.935 56.8939C149.869 57.5549 149.794 58.1109 149.708 58.5939C149.69 58.6602 149.651 58.719 149.598 58.7621C149.544 58.8051 149.479 58.8303 149.41 58.8339ZM56.332 58.1409C56.2771 58.142 56.223 58.1275 56.176 58.0989C56.1437 58.0771 56.1163 58.0489 56.0953 58.016C56.0743 57.9832 56.0603 57.9464 56.054 57.9079C56.0479 57.8721 56.0492 57.8354 56.058 57.8001C56.0668 57.7648 56.0828 57.7317 56.105 57.7029C56.405 57.2629 56.746 56.7959 57.105 56.3169C57.1312 56.2825 57.1651 56.2546 57.204 56.2355C57.2429 56.2164 57.2857 56.2066 57.329 56.2069C57.3903 56.2072 57.4502 56.2256 57.501 56.2599C57.5611 56.3058 57.6008 56.3734 57.6114 56.4483C57.6221 56.5231 57.6029 56.5991 57.558 56.6599C57.258 57.0449 56.979 57.4379 56.709 57.8189L56.568 58.0189C56.5407 58.056 56.5052 58.0863 56.4643 58.1075C56.4233 58.1286 56.3781 58.1401 56.332 58.1409ZM125.02 57.0229C124.986 57.0255 124.952 57.0208 124.92 57.0089C124.849 56.9828 124.791 56.9295 124.759 56.8606C124.727 56.7918 124.724 56.7131 124.75 56.6419C124.901 56.216 125.029 55.782 125.132 55.3419C125.146 55.2929 125.157 55.2419 125.168 55.1939C125.179 55.1459 125.189 55.0939 125.204 55.0449C125.219 54.9822 125.255 54.9265 125.307 54.8869C125.358 54.8474 125.42 54.8262 125.485 54.8269C125.504 54.8269 125.524 54.8286 125.543 54.8319C125.615 54.85 125.678 54.8954 125.717 54.9586C125.757 55.0219 125.77 55.098 125.755 55.1709C125.741 55.2199 125.73 55.2709 125.72 55.3189C125.71 55.3669 125.699 55.4189 125.684 55.4679C125.576 55.9337 125.439 56.3922 125.274 56.8409C125.257 56.894 125.224 56.9404 125.179 56.9731C125.134 57.0059 125.08 57.0233 125.024 57.0229H125.02ZM149.732 55.4539C149.695 55.4539 149.658 55.4466 149.623 55.4323C149.589 55.418 149.558 55.3971 149.531 55.3707C149.505 55.3444 149.484 55.3131 149.47 55.2786C149.455 55.2441 149.448 55.2072 149.448 55.1699V54.7039C149.448 54.3159 149.435 53.9359 149.422 53.5679V53.5019C149.419 53.4679 149.423 53.4335 149.433 53.4009C149.443 53.3683 149.46 53.338 149.482 53.3119C149.534 53.2501 149.609 53.2116 149.69 53.2049H149.714C149.785 53.208 149.852 53.2372 149.902 53.2869C149.953 53.3366 149.983 53.4033 149.987 53.4739C150.016 53.8819 150.03 54.2969 150.03 54.7049V55.1859C150.022 55.2595 149.987 55.3275 149.932 55.377C149.877 55.4265 149.806 55.4539 149.732 55.4539ZM58.401 55.4389C58.3334 55.4367 58.2686 55.4117 58.217 55.3679C58.1613 55.318 58.1272 55.2483 58.122 55.1736C58.1167 55.0989 58.1408 55.0252 58.189 54.9679C58.53 54.5579 58.889 54.1599 59.32 53.6809C59.3458 53.6518 59.3775 53.6285 59.4131 53.6127C59.4486 53.5968 59.4871 53.5887 59.526 53.5889C59.5613 53.5888 59.5962 53.5956 59.6288 53.609C59.6614 53.6224 59.691 53.6421 59.716 53.6669C59.7443 53.6921 59.7671 53.7229 59.783 53.7573C59.7988 53.7917 59.8073 53.829 59.808 53.8669C59.8096 53.9039 59.8035 53.9407 59.7901 53.9751C59.7767 54.0096 59.7562 54.0408 59.73 54.0669C59.33 54.4949 58.959 54.9239 58.612 55.3259C58.5903 55.362 58.5592 55.3916 58.5221 55.4114C58.4849 55.4313 58.4431 55.4408 58.401 55.4389ZM125.901 53.7539C125.876 53.7576 125.851 53.7527 125.83 53.7399C125.793 53.7302 125.759 53.7133 125.729 53.6901C125.699 53.667 125.674 53.6381 125.655 53.6051C125.637 53.5721 125.625 53.5357 125.621 53.4981C125.616 53.4604 125.619 53.4223 125.63 53.3859C125.767 52.8859 125.93 52.3519 126.13 51.7449C126.149 51.6866 126.187 51.6358 126.237 51.5999C126.287 51.564 126.347 51.5447 126.408 51.5449C126.433 51.545 126.459 51.5487 126.483 51.5559C126.553 51.581 126.61 51.6313 126.644 51.6969C126.678 51.7625 126.686 51.8386 126.667 51.9099C126.499 52.4099 126.328 52.9719 126.167 53.5229C126.157 53.5867 126.125 53.645 126.076 53.6873C126.028 53.7296 125.966 53.7532 125.901 53.7539ZM60.692 52.9349C60.6547 52.9348 60.6178 52.9272 60.5834 52.9126C60.5491 52.898 60.518 52.8767 60.492 52.8499C60.4648 52.8242 60.4431 52.7932 60.4282 52.7588C60.4134 52.7244 60.4058 52.6874 60.4058 52.6499C60.4058 52.6125 60.4134 52.5754 60.4282 52.541C60.4431 52.5066 60.4648 52.4756 60.492 52.4499C60.746 52.1869 61.007 51.9289 61.283 51.6559C61.4163 51.5226 61.5533 51.3866 61.694 51.2479C61.7471 51.1947 61.8189 51.1643 61.894 51.1629C61.9304 51.1625 61.9664 51.1699 61.9997 51.1845C62.033 51.1992 62.0628 51.2208 62.087 51.2479C62.1149 51.2756 62.1369 51.3086 62.1515 51.3451C62.1661 51.3816 62.1731 51.4207 62.172 51.4599C62.1714 51.4948 62.1635 51.5292 62.1488 51.5608C62.1342 51.5925 62.1131 51.6208 62.087 51.6439C61.941 51.7906 61.7953 51.9353 61.65 52.0779C61.383 52.3419 61.131 52.5909 60.885 52.8459C60.8603 52.8727 60.8305 52.8944 60.7974 52.9097C60.7643 52.9249 60.7285 52.9335 60.692 52.9349ZM149.551 52.0859C149.551 52.0729 149.537 52.0729 149.523 52.0729C149.455 52.0727 149.389 52.0485 149.338 52.0046C149.286 51.9607 149.251 51.8999 149.24 51.8329C149.164 51.3229 149.06 50.8059 148.915 50.2069C148.905 50.1698 148.903 50.1311 148.908 50.0931C148.914 50.0551 148.927 50.0186 148.947 49.9859C148.965 49.9558 148.989 49.9298 149.018 49.9093C149.046 49.8888 149.079 49.8744 149.113 49.8669C149.137 49.8604 149.161 49.857 149.186 49.8569C149.248 49.8562 149.307 49.8766 149.356 49.9146C149.404 49.9526 149.438 50.006 149.452 50.0659C149.597 50.6258 149.71 51.1934 149.791 51.7659C149.797 51.8005 149.797 51.836 149.789 51.8703C149.781 51.9047 149.767 51.9371 149.747 51.9659C149.724 51.9988 149.694 52.0267 149.659 52.048C149.625 52.0693 149.587 52.0835 149.547 52.0899L149.551 52.0859ZM63.126 50.5589C63.047 50.5583 62.9711 50.5276 62.914 50.4729C62.8877 50.4469 62.8672 50.4157 62.8538 50.3812C62.8403 50.3468 62.8343 50.3099 62.836 50.2729C62.8367 50.235 62.8452 50.1977 62.861 50.1633C62.8769 50.1289 62.8997 50.0981 62.928 50.0729L63.154 49.8629C63.486 49.5549 63.829 49.2359 64.186 48.9129C64.2415 48.865 64.3127 48.839 64.386 48.8399C64.4236 48.8393 64.4609 48.8468 64.4954 48.8618C64.5299 48.8768 64.5608 48.899 64.586 48.9269C64.6371 48.9818 64.6644 49.0547 64.6619 49.1296C64.6595 49.2045 64.6275 49.2755 64.573 49.3269C64.339 49.5449 64.103 49.7609 63.873 49.9689C63.685 50.1409 63.5023 50.3076 63.325 50.4689C63.2704 50.5201 63.2005 50.5517 63.126 50.5589ZM126.976 50.5299C126.942 50.5324 126.908 50.5277 126.876 50.5159C126.842 50.5023 126.812 50.4821 126.786 50.4565C126.76 50.4309 126.74 50.4005 126.726 50.3669C126.697 50.2971 126.697 50.2187 126.726 50.1489C126.926 49.6239 127.153 49.1289 127.372 48.6489L127.405 48.5769C127.421 48.5416 127.443 48.5098 127.471 48.4834C127.5 48.4571 127.533 48.4368 127.569 48.4237C127.606 48.4106 127.644 48.405 127.683 48.4073C127.721 48.4096 127.759 48.4197 127.793 48.437C127.828 48.4543 127.859 48.4784 127.884 48.5079C127.908 48.5374 127.927 48.5717 127.938 48.6086C127.95 48.6456 127.953 48.6844 127.949 48.7228C127.945 48.7612 127.933 48.7983 127.914 48.8319C127.684 49.3199 127.461 49.8379 127.249 50.3739C127.221 50.4218 127.181 50.4614 127.133 50.4888C127.085 50.5162 127.03 50.5304 126.975 50.5299H126.976ZM148.676 48.7899C148.618 48.7896 148.561 48.7719 148.513 48.7391C148.465 48.7063 148.428 48.6599 148.407 48.6059C148.212 48.0877 147.976 47.5861 147.7 47.1059C147.682 47.0735 147.671 47.0378 147.667 47.001C147.663 46.9641 147.666 46.9269 147.677 46.8913C147.687 46.8558 147.705 46.8227 147.728 46.794C147.751 46.7652 147.78 46.7414 147.813 46.7239C147.856 46.7024 147.904 46.6911 147.952 46.6909C148.002 46.6899 148.052 46.7032 148.094 46.7292C148.137 46.7553 148.172 46.793 148.194 46.8379C148.473 47.3446 148.719 47.8691 148.93 48.4079C148.958 48.4768 148.958 48.554 148.93 48.6229C148.916 48.6571 148.895 48.6881 148.869 48.7142C148.843 48.7403 148.812 48.7609 148.778 48.7749C148.745 48.7891 148.709 48.7946 148.674 48.7909L148.676 48.7899ZM65.632 48.2669C65.5912 48.2687 65.5506 48.2605 65.5137 48.2431C65.4767 48.2257 65.4446 48.1995 65.42 48.1669C65.3943 48.1376 65.3748 48.1033 65.3627 48.0661C65.3507 48.029 65.3464 47.9898 65.35 47.9509C65.3533 47.9156 65.3639 47.8814 65.3811 47.8504C65.3983 47.8194 65.4218 47.7924 65.45 47.7709C65.6053 47.6376 65.7607 47.5019 65.916 47.3639C66.183 47.1289 66.459 46.8869 66.737 46.6539C66.7877 46.6107 66.8524 46.5872 66.919 46.5879C66.9757 46.5883 67.031 46.6058 67.0775 46.6382C67.1241 46.6705 67.1598 46.7162 67.1799 46.7692C67.2 46.8222 67.2036 46.8801 67.1903 46.9352C67.1769 46.9903 67.1472 47.04 67.105 47.0779C66.705 47.4269 66.248 47.8219 65.832 48.1959C65.7746 48.2403 65.7045 48.2651 65.632 48.2669ZM128.449 47.4749C128.399 47.4743 128.35 47.4598 128.308 47.4329C128.274 47.4134 128.245 47.3873 128.221 47.356C128.198 47.3247 128.181 47.2889 128.172 47.2509C128.164 47.2168 128.163 47.1815 128.17 47.1471C128.176 47.1127 128.189 47.0799 128.209 47.0509C128.473 46.5989 128.774 46.1399 129.157 45.6079C129.183 45.5725 129.218 45.5436 129.257 45.5234C129.296 45.5033 129.34 45.4925 129.384 45.4919C129.445 45.4925 129.505 45.5136 129.553 45.5519C129.613 45.5981 129.653 45.6652 129.666 45.7399C129.671 45.7766 129.669 45.814 129.66 45.8497C129.65 45.8855 129.633 45.9189 129.61 45.9479C129.291 46.3829 128.981 46.8479 128.69 47.3339C128.666 47.3771 128.631 47.413 128.588 47.4378C128.545 47.4626 128.496 47.4754 128.447 47.4749H128.449ZM68.203 46.0469C68.1623 46.0484 68.1217 46.0401 68.0848 46.0227C68.048 46.0053 68.0158 45.9793 67.991 45.9469C67.9441 45.8913 67.9208 45.8195 67.926 45.7469C67.931 45.6728 67.9647 45.6035 68.02 45.5539C68.439 45.1909 68.879 44.8209 69.305 44.4649L69.322 44.4509C69.3723 44.4077 69.4367 44.3842 69.503 44.3849C69.5435 44.3844 69.5836 44.3926 69.6206 44.4088C69.6577 44.425 69.6909 44.4489 69.718 44.4789C69.7656 44.5365 69.7892 44.6102 69.7838 44.6847C69.7784 44.7593 69.7444 44.8288 69.689 44.8789C69.473 45.0599 69.256 45.2449 69.047 45.4229L69.039 45.4299C68.828 45.6099 68.609 45.7959 68.388 45.9819C68.3358 46.0244 68.2704 46.0474 68.203 46.0469ZM147.033 45.8469C146.989 45.8458 146.946 45.8351 146.907 45.8156C146.868 45.7961 146.833 45.7682 146.806 45.7339C146.471 45.2954 146.098 44.8884 145.689 44.5179C145.661 44.4927 145.638 44.4619 145.622 44.4275C145.606 44.3931 145.598 44.3558 145.597 44.3179C145.595 44.281 145.601 44.2441 145.615 44.2096C145.628 44.1752 145.649 44.1439 145.675 44.1179C145.701 44.0886 145.732 44.0651 145.768 44.0491C145.803 44.0331 145.842 44.0248 145.881 44.0249C145.916 44.0247 145.951 44.0315 145.984 44.0448C146.016 44.0582 146.046 44.078 146.071 44.1029C146.499 44.4973 146.891 44.9279 147.245 45.3899C147.269 45.4194 147.286 45.4534 147.296 45.4899C147.306 45.5264 147.309 45.5646 147.304 45.602C147.298 45.6395 147.285 45.6755 147.266 45.7078C147.246 45.7402 147.22 45.7681 147.189 45.7899C147.144 45.8247 147.089 45.8452 147.032 45.8489L147.033 45.8469ZM130.483 44.7579C130.427 44.7592 130.371 44.7434 130.324 44.7126C130.277 44.6818 130.24 44.6374 130.218 44.5853C130.197 44.5332 130.191 44.4758 130.203 44.4206C130.214 44.3654 130.242 44.315 130.283 44.2759C130.686 43.8606 131.12 43.4774 131.583 43.1299C131.631 43.0919 131.691 43.0711 131.752 43.0709C131.796 43.0716 131.84 43.0824 131.879 43.1025C131.918 43.1227 131.953 43.1515 131.979 43.1869C132.003 43.2165 132.02 43.2506 132.03 43.2871C132.04 43.3236 132.042 43.3618 132.037 43.3993C132.032 43.4368 132.019 43.4727 131.999 43.505C131.979 43.5373 131.953 43.5652 131.922 43.5869C131.486 43.9191 131.075 44.2831 130.692 44.6759C130.634 44.7269 130.56 44.7566 130.483 44.7599V44.7579ZM70.806 43.8539C70.7652 43.8555 70.7247 43.8472 70.6878 43.8298C70.6509 43.8124 70.6187 43.7864 70.594 43.7539C70.5709 43.7264 70.5535 43.6945 70.5428 43.6602C70.5322 43.6258 70.5285 43.5897 70.532 43.5539C70.5355 43.5162 70.5467 43.4796 70.5649 43.4464C70.5832 43.4132 70.608 43.3841 70.638 43.3609C70.7973 43.2276 70.9567 43.0943 71.116 42.9609H71.121C71.391 42.7369 71.671 42.5059 71.939 42.2739C71.9882 42.2315 72.0511 42.2084 72.116 42.2089C72.1583 42.2088 72.2 42.2184 72.238 42.2369C72.2759 42.2555 72.3091 42.2825 72.335 42.3159C72.3585 42.3433 72.3763 42.3751 72.3873 42.4094C72.3982 42.4438 72.4022 42.48 72.399 42.5159C72.3955 42.5536 72.3843 42.5903 72.3661 42.6235C72.3479 42.6567 72.323 42.6858 72.293 42.7089C72.1437 42.8343 71.9943 42.9583 71.845 43.0809H71.839C71.559 43.3119 71.27 43.5519 70.992 43.7929C70.9353 43.8268 70.8718 43.8476 70.806 43.8539ZM144.544 43.5539C144.489 43.5532 144.436 43.5387 144.388 43.5119C143.924 43.2137 143.437 42.9535 142.931 42.7339C142.896 42.7198 142.865 42.6987 142.839 42.6719C142.812 42.645 142.792 42.613 142.779 42.5779C142.766 42.5439 142.76 42.5076 142.762 42.4713C142.764 42.4349 142.774 42.3994 142.79 42.3669C142.81 42.3169 142.845 42.274 142.89 42.2437C142.934 42.2134 142.987 42.1972 143.041 42.1969C143.082 42.197 143.122 42.2066 143.158 42.2249C143.688 42.459 144.199 42.7335 144.686 43.0459C144.75 43.0878 144.795 43.1534 144.811 43.2284C144.827 43.3033 144.813 43.3815 144.771 43.4459C144.744 43.4807 144.71 43.5086 144.671 43.5274C144.631 43.5462 144.588 43.5553 144.544 43.5539ZM133.185 42.7329C133.133 42.7315 133.081 42.7163 133.037 42.6889C132.992 42.6616 132.955 42.623 132.93 42.5769C132.913 42.5435 132.903 42.507 132.9 42.4696C132.897 42.4322 132.902 42.3946 132.914 42.359C132.926 42.3235 132.945 42.2906 132.969 42.2624C132.994 42.2343 133.024 42.2113 133.058 42.1949C133.574 41.9284 134.114 41.7105 134.67 41.5439C134.696 41.5367 134.724 41.533 134.751 41.5329C134.811 41.5321 134.87 41.5506 134.919 41.5857C134.968 41.6208 135.004 41.6706 135.023 41.7279C135.044 41.7993 135.037 41.876 135.002 41.9419C134.968 42.0079 134.909 42.0581 134.839 42.0819C134.314 42.2427 133.804 42.446 133.312 42.6899C133.296 42.7064 133.276 42.7191 133.254 42.7271C133.232 42.735 133.208 42.738 133.185 42.7359V42.7329ZM141.446 42.1959C141.421 42.2003 141.396 42.1953 141.375 42.1819C140.96 42.0662 140.54 41.9717 140.116 41.8989C139.989 41.8709 139.874 41.8559 139.762 41.8419C139.688 41.8328 139.621 41.7951 139.574 41.7369C139.528 41.6787 139.506 41.6047 139.513 41.5306C139.521 41.4564 139.557 41.3882 139.614 41.3404C139.671 41.2926 139.745 41.2691 139.819 41.2749H139.847C139.914 41.2829 139.981 41.2939 140.047 41.3049C140.113 41.3159 140.162 41.3249 140.215 41.3309C140.665 41.4159 141.107 41.5159 141.531 41.6309C141.568 41.6407 141.602 41.6577 141.632 41.6809C141.662 41.7041 141.687 41.733 141.705 41.766C141.724 41.7989 141.736 41.8353 141.74 41.8729C141.745 41.9105 141.741 41.9485 141.731 41.9849C141.713 42.0464 141.675 42.1003 141.624 42.1388C141.572 42.1773 141.51 42.1984 141.446 42.1989V42.1959ZM136.41 41.7579C136.339 41.7594 136.271 41.7339 136.218 41.6865C136.165 41.6391 136.133 41.5735 136.127 41.5029C136.119 41.4287 136.139 41.3542 136.183 41.2939C136.205 41.2653 136.233 41.2416 136.264 41.2243C136.296 41.2071 136.331 41.1967 136.367 41.1939C136.844 41.1344 137.324 41.105 137.804 41.1059C137.904 41.1059 138.004 41.1059 138.104 41.1059C138.142 41.1055 138.18 41.1132 138.215 41.1286C138.25 41.144 138.281 41.1666 138.306 41.195C138.332 41.2234 138.351 41.2569 138.363 41.2933C138.374 41.3297 138.378 41.3681 138.373 41.4059C138.371 41.4777 138.342 41.5461 138.291 41.5965C138.24 41.6469 138.171 41.6754 138.099 41.6759H138.076C137.976 41.6759 137.876 41.6759 137.776 41.6759C137.322 41.6765 136.868 41.7012 136.417 41.7499C136.432 41.7539 136.432 41.7539 136.432 41.7539C136.432 41.7539 136.421 41.7609 136.41 41.7609V41.7579ZM73.41 41.6729C73.3692 41.6745 73.3287 41.6662 73.2918 41.6488C73.2549 41.6314 73.2227 41.6054 73.198 41.5729C73.1746 41.5455 73.1568 41.5137 73.1459 41.4794C73.1349 41.445 73.1308 41.4088 73.134 41.3729C73.1374 41.335 73.1485 41.2982 73.1667 41.2649C73.185 41.2315 73.2099 41.2022 73.24 41.1789L73.782 40.7249L74.541 40.0899C74.5914 40.0468 74.6557 40.0234 74.722 40.0239C74.7626 40.0235 74.8027 40.0317 74.8398 40.0481C74.8769 40.0645 74.91 40.0887 74.937 40.1189C74.984 40.1745 75.0074 40.2463 75.002 40.3189C74.9973 40.3929 74.9639 40.4621 74.909 40.5119L74.609 40.7639H74.603L73.609 41.5959C73.5513 41.6411 73.4819 41.6688 73.409 41.6759L73.41 41.6729ZM76.01 39.4939C75.9692 39.4957 75.9286 39.4875 75.8917 39.4701C75.8547 39.4527 75.8226 39.4265 75.798 39.3939C75.7498 39.3367 75.7257 39.2629 75.731 39.1883C75.7362 39.1136 75.7703 39.0439 75.826 38.9939C76.285 38.6089 76.726 38.2219 77.113 37.8939C77.1634 37.8508 77.2277 37.8274 77.294 37.8279C77.3346 37.8275 77.3747 37.8358 77.4118 37.8521C77.4489 37.8685 77.482 37.8927 77.509 37.9229C77.5564 37.9784 77.5801 38.0502 77.575 38.1229C77.5707 38.1978 77.5369 38.2679 77.481 38.3179C77.081 38.6639 76.662 39.0179 76.256 39.3569L76.18 39.4209C76.1586 39.4443 76.1327 39.463 76.1038 39.4761C76.0749 39.4892 76.0437 39.4962 76.012 39.4969L76.01 39.4939ZM78.584 37.2739C78.5433 37.2753 78.5028 37.2669 78.4659 37.2495C78.4291 37.2321 78.3969 37.2062 78.372 37.1739C78.3239 37.1166 78.3 37.0427 78.3054 36.968C78.3109 36.8934 78.3451 36.8238 78.401 36.7739C78.822 36.4049 79.211 36.0569 79.587 35.7199L79.674 35.6419C79.7266 35.596 79.7942 35.5708 79.864 35.5709C79.9038 35.5704 79.9431 35.5791 79.9789 35.5965C80.0146 35.6139 80.0458 35.6394 80.07 35.6709C80.0958 35.7003 80.1152 35.7346 80.1273 35.7717C80.1393 35.8088 80.1437 35.8481 80.14 35.8869C80.1367 35.9222 80.1261 35.9564 80.1089 35.9874C80.0917 36.0184 80.0682 36.0455 80.04 36.0669C79.694 36.3879 79.326 36.7089 78.94 37.0489L78.769 37.1979C78.7205 37.2469 78.6549 37.2752 78.586 37.2769L78.584 37.2739ZM81.116 34.9959C81.0372 34.9952 80.9615 34.9649 80.904 34.9109C80.8779 34.8848 80.8575 34.8535 80.844 34.8191C80.8306 34.7847 80.8245 34.7478 80.826 34.7109C80.8267 34.673 80.8352 34.6357 80.851 34.6013C80.8669 34.5669 80.8897 34.5361 80.918 34.5109C81.118 34.3209 81.318 34.1319 81.518 33.9479C81.737 33.7399 81.944 33.5479 82.152 33.3479C82.1782 33.3217 82.2094 33.3011 82.2438 33.2874C82.2782 33.2736 82.315 33.267 82.352 33.2679C82.4266 33.2673 82.4984 33.296 82.552 33.3479C82.6038 33.4016 82.6328 33.4733 82.6328 33.5479C82.6328 33.6225 82.6038 33.6942 82.552 33.7479C82.177 34.1099 81.752 34.5209 81.307 34.9219C81.2844 34.9495 81.2553 34.971 81.2223 34.9844C81.1893 34.9979 81.1534 35.0028 81.118 34.9989L81.116 34.9959ZM83.549 32.6339C83.5117 32.6338 83.4748 32.6262 83.4404 32.6116C83.4061 32.597 83.375 32.5757 83.349 32.5489C83.3218 32.5232 83.3001 32.4922 83.2852 32.4578C83.2704 32.4234 83.2628 32.3864 83.2628 32.3489C83.2628 32.3115 83.2704 32.2744 83.2852 32.24C83.3001 32.2056 83.3218 32.1746 83.349 32.1489C83.729 31.7689 84.119 31.3549 84.509 30.9189C84.5349 30.8895 84.5667 30.866 84.6024 30.85C84.6381 30.8339 84.6769 30.8257 84.716 30.8259C84.7511 30.8257 84.7859 30.8325 84.8184 30.8459C84.8508 30.8593 84.8803 30.879 84.905 30.9039C84.9333 30.9291 84.9561 30.9599 84.972 30.9943C84.9878 31.0287 84.9963 31.066 84.997 31.1039C84.9987 31.1409 84.9927 31.1778 84.9793 31.2122C84.9658 31.2467 84.9453 31.2779 84.919 31.3039C84.547 31.7039 84.151 32.1289 83.745 32.5489C83.7216 32.5778 83.6918 32.6008 83.658 32.6161C83.6241 32.6313 83.5871 32.6385 83.55 32.6369L83.549 32.6339ZM85.855 30.1339C85.7808 30.1322 85.71 30.1021 85.6572 30.0499C85.6044 29.9976 85.5735 29.9272 85.571 29.8529C85.5695 29.8186 85.5751 29.7844 85.5875 29.7524C85.5999 29.7204 85.6188 29.6913 85.643 29.6669C86.073 29.1569 86.406 28.7389 86.69 28.3509C86.7163 28.3156 86.7504 28.2868 86.7895 28.2667C86.8287 28.2465 86.872 28.2357 86.916 28.2349C86.9778 28.2353 87.0377 28.2565 87.086 28.2949C87.1169 28.3181 87.1429 28.3472 87.1624 28.3805C87.182 28.4138 87.1948 28.4507 87.2 28.4889C87.2079 28.5606 87.187 28.6325 87.142 28.6889C86.853 29.0789 86.512 29.5059 86.067 30.0329C86.0415 30.0643 86.0093 30.0896 85.9728 30.1071C85.9364 30.1245 85.8965 30.1337 85.856 30.1339H85.855ZM87.892 27.4179C87.8376 27.4171 87.7844 27.4027 87.737 27.3759C87.7051 27.3553 87.6775 27.3286 87.6559 27.2974C87.6343 27.2661 87.619 27.2309 87.611 27.1938C87.6031 27.1566 87.6025 27.1182 87.6093 27.0809C87.6162 27.0435 87.6304 27.0078 87.651 26.9759C87.99 26.4369 88.263 25.9649 88.486 25.5329C88.5026 25.4994 88.5257 25.4694 88.5539 25.4448C88.5821 25.4202 88.6149 25.4014 88.6504 25.3895C88.6859 25.3776 88.7234 25.3728 88.7607 25.3755C88.7981 25.3781 88.8345 25.3881 88.868 25.4049C88.9015 25.4217 88.9314 25.4449 88.9559 25.4733C88.9805 25.5016 88.9992 25.5345 89.011 25.5701C89.0228 25.6057 89.0274 25.6432 89.0247 25.6806C89.0219 25.718 89.0119 25.7544 88.995 25.7879C88.775 26.2019 88.479 26.7459 88.133 27.2729C88.1092 27.3159 88.0744 27.3518 88.0323 27.3771C87.9902 27.4023 87.9421 27.4161 87.893 27.4169L87.892 27.4179ZM89.42 24.4059C89.3861 24.4076 89.3522 24.4029 89.32 24.3919C89.2492 24.3649 89.1918 24.3113 89.16 24.2426C89.1283 24.1738 89.1247 24.0953 89.15 24.0239C89.3366 23.5101 89.4739 22.9797 89.56 22.4399C89.5725 22.3702 89.6097 22.3074 89.6648 22.2629C89.7199 22.2184 89.7892 22.1954 89.86 22.1979H89.89C89.9633 22.2125 90.0285 22.2539 90.0729 22.314C90.1173 22.3741 90.1377 22.4486 90.13 22.5229C90.0416 23.0978 89.8945 23.6621 89.691 24.2069C89.6727 24.2642 89.6367 24.3142 89.5882 24.3498C89.5397 24.3853 89.4812 24.4046 89.421 24.4049L89.42 24.4059ZM58.811 21.9719C58.739 21.9676 58.6713 21.936 58.6219 21.8835C58.5724 21.831 58.5448 21.7616 58.5448 21.6894C58.5448 21.6173 58.5724 21.5479 58.6219 21.4953C58.6713 21.4428 58.739 21.4112 58.811 21.4069C59.365 21.3928 59.9177 21.3454 60.466 21.2649C60.4817 21.2636 60.4974 21.2636 60.513 21.2649C60.5807 21.2667 60.6456 21.2922 60.6964 21.337C60.7473 21.3818 60.7807 21.443 60.791 21.5099C60.7973 21.5445 60.7967 21.58 60.7891 21.6143C60.7816 21.6487 60.7672 21.6812 60.747 21.7099C60.7236 21.743 60.6939 21.7711 60.6596 21.7925C60.6252 21.814 60.587 21.8284 60.547 21.8349C59.9713 21.9122 59.3917 21.9579 58.811 21.9719ZM57.111 21.8589H57.071C56.4889 21.7661 55.9188 21.6095 55.371 21.3919C55.3102 21.3671 55.2599 21.3217 55.229 21.2637C55.198 21.2058 55.1883 21.1388 55.2014 21.0744C55.2146 21.01 55.2498 20.9522 55.3011 20.9111C55.3523 20.8699 55.4163 20.8479 55.482 20.8489C55.5162 20.849 55.5501 20.8554 55.582 20.8679C56.0884 21.0691 56.6147 21.2163 57.152 21.3069C57.2253 21.3215 57.2905 21.3629 57.3349 21.423C57.3793 21.4831 57.3997 21.5576 57.392 21.6319C57.3784 21.6957 57.3434 21.753 57.2929 21.7942C57.2423 21.8355 57.1793 21.8583 57.114 21.8589H57.111ZM62.161 21.4909C62.1111 21.4902 62.0622 21.4762 62.0194 21.4505C61.9765 21.4247 61.9413 21.3881 61.9172 21.3443C61.8932 21.3005 61.8811 21.2512 61.8823 21.2012C61.8835 21.1513 61.8979 21.1025 61.924 21.0599C61.944 21.0284 61.9703 21.0014 62.0013 20.9806C62.0323 20.9597 62.0673 20.9456 62.104 20.9389C62.59 20.8179 63.155 20.6729 63.717 20.4859C63.7434 20.4787 63.7706 20.475 63.798 20.4749C63.8582 20.4741 63.9171 20.4926 63.9661 20.5277C64.015 20.5628 64.0514 20.6126 64.07 20.6699C64.0912 20.7414 64.0837 20.8183 64.0492 20.8844C64.0147 20.9505 63.9558 21.0005 63.885 21.0239C63.285 21.2139 62.714 21.3599 62.231 21.4769C62.21 21.4866 62.1871 21.4914 62.164 21.4909H62.161ZM89.928 21.0809H89.902C89.832 21.0797 89.7648 21.0533 89.7128 21.0064C89.6608 20.9595 89.6275 20.8954 89.619 20.8259C89.5721 20.2845 89.453 19.7518 89.265 19.2419C89.2525 19.209 89.2465 19.174 89.2475 19.1388C89.2486 19.1036 89.2565 19.069 89.271 19.0369C89.2862 19.0003 89.3085 18.967 89.3367 18.939C89.3648 18.911 89.3983 18.8889 89.435 18.8739C89.4657 18.8608 89.4987 18.854 89.532 18.8539C89.5911 18.8548 89.6487 18.8731 89.6974 18.9065C89.7462 18.94 89.7839 18.9871 89.806 19.0419C90.0046 19.5988 90.1329 20.1783 90.188 20.7669C90.1919 20.8044 90.1883 20.8422 90.1776 20.8783C90.1668 20.9143 90.149 20.9479 90.1252 20.9771C90.1014 21.0062 90.0721 21.0304 90.039 21.0483C90.0058 21.0661 89.9695 21.0772 89.932 21.0809H89.928ZM54.016 20.5709C53.9548 20.5722 53.895 20.552 53.847 20.5139C53.4902 20.2445 53.1585 19.9432 52.856 19.6139C52.7591 19.517 52.6696 19.4131 52.588 19.3029C52.5398 19.2457 52.5157 19.1719 52.521 19.0972C52.5262 19.0226 52.5603 18.9529 52.616 18.9029C52.6667 18.8597 52.7314 18.8362 52.798 18.8369C52.8383 18.8364 52.8783 18.8445 52.9152 18.8607C52.9521 18.8769 52.9851 18.9009 53.012 18.9309L53.267 19.2309C53.5493 19.5392 53.8571 19.8232 54.187 20.0799C54.2471 20.1258 54.2868 20.1934 54.2974 20.2683C54.3081 20.3431 54.2889 20.4191 54.244 20.4799C54.1823 20.538 54.1008 20.5705 54.016 20.5709ZM65.403 20.5139C65.3449 20.5139 65.2881 20.4963 65.2401 20.4635C65.1921 20.4306 65.1551 20.3841 65.134 20.3299C65.1208 20.2951 65.115 20.2579 65.1168 20.2208C65.1187 20.1836 65.1283 20.1472 65.145 20.1139C65.1769 20.045 65.2337 19.9906 65.304 19.9619L65.742 19.8009C66.108 19.6669 66.486 19.5289 66.888 19.3669C66.9199 19.3544 66.9538 19.348 66.988 19.3479C67.0537 19.3469 67.1177 19.3689 67.169 19.4101C67.2202 19.4512 67.2554 19.509 67.2686 19.5734C67.2818 19.6378 67.272 19.7048 67.2411 19.7627C67.2101 19.8207 67.1598 19.8661 67.099 19.8909C66.468 20.1429 65.96 20.3319 65.499 20.4849C65.47 20.5026 65.437 20.5126 65.403 20.5139ZM68.572 19.2839C68.5162 19.2821 68.4619 19.2655 68.4146 19.2358C68.3674 19.2061 68.3289 19.1644 68.303 19.1149C68.2761 19.0453 68.2773 18.968 68.3064 18.8993C68.3355 18.8306 68.3903 18.7759 68.459 18.7469C68.721 18.6409 68.986 18.5289 69.244 18.4219C69.502 18.3149 69.767 18.2029 70.029 18.0969C70.0608 18.0841 70.0947 18.0773 70.129 18.0769C70.1761 18.0758 70.2227 18.0867 70.2644 18.1085C70.3062 18.1303 70.3418 18.1623 70.3678 18.2015C70.3939 18.2407 70.4096 18.2859 70.4135 18.3329C70.4173 18.3798 70.4093 18.4269 70.39 18.4699C70.3761 18.5037 70.3555 18.5344 70.3296 18.5601C70.3037 18.5859 70.2729 18.6062 70.239 18.6199C69.698 18.8549 69.151 19.0759 68.669 19.2709C68.6555 19.2714 68.6421 19.2734 68.629 19.2769C68.6103 19.2814 68.5912 19.2838 68.572 19.2839ZM51.767 18.0539C51.7198 18.053 51.6734 18.0409 51.6317 18.0187C51.59 17.9964 51.5541 17.9647 51.527 17.9259C51.2056 17.4435 50.9128 16.9426 50.65 16.4259C50.6333 16.3925 50.6233 16.3561 50.6206 16.3188C50.6179 16.2815 50.6226 16.2441 50.6344 16.2086C50.6462 16.1732 50.6649 16.1403 50.6893 16.1121C50.7138 16.0838 50.7436 16.0607 50.777 16.0439C50.8104 16.0272 50.8468 16.0172 50.8841 16.0145C50.9214 16.0118 50.9588 16.0165 50.9943 16.0283C51.0298 16.0401 51.0626 16.0588 51.0908 16.0832C51.1191 16.1077 51.1423 16.1375 51.159 16.1709C51.4078 16.6639 51.6866 17.1412 51.994 17.5999C52.0367 17.6659 52.0518 17.746 52.036 17.8229C52.0294 17.8579 52.0159 17.8911 51.9963 17.9208C51.9768 17.9505 51.9515 17.9761 51.922 17.9959C51.879 18.0333 51.824 18.0538 51.767 18.0539ZM71.712 17.9689C71.6576 17.9689 71.6044 17.9529 71.5591 17.9228C71.5137 17.8928 71.4782 17.85 71.457 17.7999C71.4282 17.7301 71.4282 17.6517 71.457 17.5819C71.4712 17.5481 71.4919 17.5174 71.518 17.4917C71.5441 17.4659 71.575 17.4456 71.609 17.4319C72.119 17.2119 72.637 17.0009 73.138 16.7979L73.179 16.7809C73.2108 16.768 73.2447 16.7612 73.279 16.7609C73.3446 16.7602 73.4085 16.7823 73.4595 16.8236C73.5106 16.8648 73.5456 16.9226 73.5587 16.9869C73.5717 17.0512 73.5619 17.1181 73.5309 17.176C73.4999 17.2338 73.4498 17.2791 73.389 17.3039L73.334 17.3259C72.834 17.5259 72.324 17.7359 71.818 17.9549C71.7952 17.9556 71.7724 17.9583 71.75 17.9629C71.7375 17.9654 71.7248 17.9671 71.712 17.9679V17.9689ZM88.771 17.9269C88.7235 17.9281 88.6764 17.9171 88.6344 17.8948C88.5924 17.8726 88.5568 17.8399 88.531 17.7999C88.2361 17.342 87.8895 16.9196 87.498 16.5409C87.4708 16.5152 87.4491 16.4842 87.4342 16.4498C87.4194 16.4154 87.4118 16.3784 87.4118 16.3409C87.4118 16.3035 87.4194 16.2664 87.4342 16.232C87.4491 16.1976 87.4708 16.1666 87.498 16.1409C87.5236 16.1134 87.5545 16.0915 87.5889 16.0765C87.6233 16.0615 87.6605 16.0537 87.698 16.0537C87.7356 16.0537 87.7727 16.0615 87.8071 16.0765C87.8415 16.0915 87.8725 16.1134 87.898 16.1409C88.3147 16.5555 88.6892 17.0104 89.016 17.4989C89.0362 17.5303 89.0498 17.5654 89.0562 17.6022C89.0625 17.6389 89.0615 17.6766 89.053 17.7129C89.0367 17.7868 88.9932 17.8518 88.931 17.8949L88.908 17.9009C88.8634 17.9157 88.817 17.9241 88.77 17.9259L88.771 17.9269ZM74.852 16.6959C74.7939 16.6956 74.7373 16.6779 74.6893 16.6451C74.6414 16.6123 74.6044 16.5659 74.583 16.5119C74.5558 16.4424 74.5569 16.3649 74.5861 16.2961C74.6152 16.2274 74.6701 16.1727 74.739 16.1439C75.139 15.9889 75.505 15.8539 75.862 15.7239L76.332 15.5539C76.3616 15.542 76.3931 15.5359 76.425 15.5359C76.4826 15.536 76.5387 15.5541 76.5854 15.5879C76.6321 15.6216 76.6669 15.6692 76.685 15.7239C76.6977 15.7582 76.7034 15.7947 76.7017 15.8313C76.7 15.8678 76.6909 15.9036 76.6751 15.9366C76.6592 15.9695 76.6368 15.9989 76.6093 16.0231C76.5818 16.0472 76.5498 16.0655 76.515 16.0769C76.066 16.2309 75.592 16.4089 75.09 16.5979L74.931 16.6579C74.9224 16.6707 74.9105 16.6809 74.8966 16.6876C74.8828 16.6943 74.8674 16.6972 74.852 16.6959ZM86.338 15.6069C86.2895 15.6041 86.2417 15.5943 86.196 15.5779C85.7199 15.3177 85.211 15.1227 84.683 14.9979C84.6149 14.9825 84.5548 14.9424 84.5146 14.8852C84.4744 14.8281 84.4568 14.7581 84.4653 14.6887C84.4737 14.6193 84.5077 14.5556 84.5604 14.5098C84.6132 14.464 84.6812 14.4395 84.751 14.4409C84.7705 14.4409 84.7899 14.4426 84.809 14.4459C85.3871 14.5816 85.9439 14.7955 86.464 15.0819C86.4966 15.0995 86.5254 15.1234 86.5487 15.1521C86.572 15.1809 86.5894 15.2139 86.5999 15.2494C86.6104 15.2849 86.6138 15.3222 86.6099 15.359C86.6059 15.3958 86.5948 15.4314 86.577 15.4639C86.5535 15.5069 86.519 15.5428 86.477 15.5679C86.4349 15.5931 86.387 15.6065 86.338 15.6069ZM78.062 15.5779C78.0015 15.579 77.9423 15.56 77.8938 15.5238C77.8453 15.4876 77.8102 15.4363 77.794 15.3779C77.7836 15.3415 77.7804 15.3035 77.7849 15.2659C77.7893 15.2283 77.8012 15.1919 77.8198 15.159C77.8384 15.126 77.8634 15.0971 77.8933 15.0739C77.9232 15.0507 77.9575 15.0337 77.994 15.0239C78.586 14.8509 79.166 14.7069 79.663 14.5859C79.6822 14.5826 79.7016 14.5809 79.721 14.5809C79.791 14.5792 79.8591 14.6036 79.9121 14.6493C79.9651 14.6949 79.9992 14.7587 80.0078 14.8282C80.0164 14.8976 79.9989 14.9678 79.9586 15.025C79.9184 15.0823 79.8583 15.1225 79.79 15.1379C79.244 15.2599 78.696 15.4029 78.163 15.5629C78.1305 15.574 78.0963 15.579 78.062 15.5779ZM50.267 15.0129C50.2064 15.0144 50.1471 14.9954 50.0985 14.9592C50.0499 14.9229 50.0149 14.8714 49.999 14.8129C49.8294 14.2565 49.7014 13.6883 49.616 13.1129C49.6051 13.0379 49.6241 12.9617 49.6691 12.9006C49.714 12.8396 49.7812 12.7988 49.856 12.7869C49.8717 12.7856 49.8874 12.7856 49.903 12.7869C49.9707 12.7887 50.0356 12.8142 50.0864 12.859C50.1373 12.9038 50.1707 12.965 50.181 13.0319C50.2559 13.5794 50.379 14.1192 50.549 14.6449C50.57 14.7163 50.5625 14.793 50.5282 14.8589C50.4939 14.9249 50.4355 14.9751 50.365 14.9989C50.3335 15.0096 50.3003 15.0144 50.267 15.0129ZM81.414 14.8719H81.386C81.3152 14.8734 81.2466 14.8479 81.194 14.8005C81.1414 14.7531 81.1089 14.6875 81.103 14.6169C81.096 14.542 81.1189 14.4673 81.1666 14.409C81.2144 14.3508 81.2831 14.3138 81.358 14.3059C81.8416 14.2485 82.3281 14.2191 82.815 14.2179C82.915 14.2179 83.006 14.2179 83.099 14.2179C83.1367 14.2178 83.174 14.2257 83.2085 14.2411C83.243 14.2564 83.2738 14.2788 83.299 14.3069C83.3349 14.3474 83.3586 14.3971 83.3674 14.4504C83.3762 14.5037 83.3698 14.5584 83.3489 14.6083C83.328 14.6581 83.2935 14.701 83.2493 14.7321C83.2051 14.7632 83.153 14.7811 83.099 14.7839H83.075C82.9903 14.7839 82.9047 14.7839 82.818 14.7839C82.35 14.7852 81.8824 14.8149 81.418 14.8729L81.414 14.8719ZM49.814 11.6719C49.7756 11.6713 49.7377 11.663 49.7025 11.6475C49.6673 11.6319 49.6356 11.6095 49.6093 11.5816C49.5829 11.5536 49.5624 11.5207 49.5489 11.4847C49.5355 11.4487 49.5294 11.4103 49.531 11.3719C49.5517 10.7956 49.6135 10.2215 49.716 9.65392C49.7267 9.58945 49.7599 9.53085 49.8097 9.48855C49.8595 9.44625 49.9227 9.423 49.988 9.42292C50.006 9.4213 50.0241 9.4213 50.042 9.42292C50.079 9.42885 50.1144 9.44228 50.1461 9.46239C50.1777 9.4825 50.2049 9.50887 50.2259 9.53987C50.247 9.57086 50.2615 9.60584 50.2686 9.64265C50.2757 9.67946 50.2751 9.71733 50.267 9.75392C50.1645 10.2955 50.103 10.8441 50.083 11.3949C50.0821 11.4669 50.0539 11.5358 50.0042 11.5877C49.9545 11.6397 49.8868 11.6709 49.815 11.6749L49.814 11.6719ZM50.423 8.33592C50.3941 8.33829 50.3649 8.33384 50.338 8.32292C50.2693 8.30065 50.2121 8.25213 50.179 8.18792C50.1421 8.12109 50.1331 8.04236 50.154 7.96892C50.3404 7.41874 50.5577 6.87954 50.805 6.35392C50.8304 6.30452 50.8689 6.26312 50.9164 6.23434C50.9639 6.20557 51.0185 6.19053 51.074 6.19092C51.1127 6.19089 51.1511 6.19836 51.187 6.21292C51.2543 6.24719 51.3061 6.30554 51.3322 6.37634C51.3584 6.44714 51.3569 6.52519 51.328 6.59492C51.0903 7.09629 50.8823 7.61117 50.705 8.13692C50.6828 8.19416 50.6442 8.24357 50.594 8.27897C50.5439 8.31437 50.4844 8.33418 50.423 8.33592ZM51.852 5.26692C51.8015 5.26791 51.7519 5.25324 51.71 5.22492C51.6462 5.18719 51.5999 5.12576 51.5811 5.05402C51.5624 4.98228 51.5728 4.90604 51.61 4.84192C51.857 4.44192 52.189 3.91892 52.572 3.41392C52.5985 3.37857 52.6327 3.34975 52.6721 3.32964C52.7114 3.30954 52.7548 3.29869 52.799 3.29792C52.8604 3.29796 52.92 3.31875 52.968 3.35692C52.9989 3.38011 53.0249 3.4092 53.0445 3.4425C53.064 3.4758 53.0768 3.51265 53.082 3.55092C53.086 3.58644 53.0829 3.62238 53.0729 3.65669C53.063 3.69101 53.0463 3.72303 53.024 3.75092C52.7 4.18392 52.386 4.65092 52.091 5.13792C52.0669 5.17937 52.0319 5.21335 51.9897 5.23611C51.9475 5.25888 51.8999 5.26954 51.852 5.26692ZM53.86 2.53692C53.7924 2.53467 53.7276 2.50965 53.676 2.46592C53.6203 2.41596 53.5862 2.34626 53.581 2.2716C53.5757 2.19693 53.5998 2.12316 53.648 2.06592C54.0213 1.63813 54.4165 1.22992 54.832 0.842924L54.85 0.824924C54.9027 0.77908 54.9702 0.753858 55.04 0.753924C55.0799 0.753456 55.1193 0.762243 55.1553 0.779594C55.1912 0.796945 55.2226 0.822388 55.247 0.853924C55.2727 0.883305 55.2922 0.917603 55.3042 0.954734C55.3162 0.991866 55.3206 1.03106 55.317 1.06992C55.3137 1.10522 55.3031 1.13944 55.2859 1.17042C55.2687 1.20141 55.2452 1.22848 55.217 1.24992C54.8076 1.62726 54.4203 2.02792 54.057 2.44992C54.0054 2.50375 53.9346 2.53502 53.86 2.53692Z" fill="#5DB571"/>
<path d="M154.162 106.687C155.576 113.194 156.001 114.75 156.001 114.75H138.461L128.984 89.4297L149.07 90.7027C151.093 95.9213 152.794 101.259 154.162 106.687Z" fill="#F9D2DD"/>
<path d="M128.984 89.4297L131.247 95.3707L151.474 97.3507C150.399 94.2247 149.074 90.7027 149.074 90.7027L128.984 89.4297Z" fill="#F9ACC0"/>
<path d="M77.6381 90.4184L73.8191 114.748H139.593L134.784 94.5204L150.626 93.1064C150.626 93.1064 143.837 70.4744 130.258 63.1184C116.679 55.7624 97.1581 56.1874 84.9941 62.1284C77.4971 65.7924 65.3321 78.9614 63.0691 90.4184H77.6381Z" fill="#3D5CFF"/>
<path d="M77.6381 90.4185L73.8191 114.747H139.593L134.784 94.5205L150.626 93.1065C150.626 93.1065 146.949 72.7375 130.258 63.1185C116.877 55.4095 97.3431 56.5555 84.9941 62.1285C76.2241 66.0885 66.6051 75.9905 63.0691 90.4185H77.6381Z" fill="#3D5CFF"/>
<path d="M77.6881 62.5671C77.593 62.5671 77.4989 62.5484 77.4111 62.5121L69.8581 59.4281C69.812 59.4147 69.7631 59.4147 69.7171 59.4281L63.4931 61.8281C63.1375 61.9674 62.759 62.039 62.3771 62.0391C61.7498 62.0349 61.1382 61.8428 60.6213 61.4875C60.1044 61.1322 59.7058 60.6302 59.4771 60.0461L56.5771 52.5111C56.2814 51.7419 56.3029 50.8868 56.637 50.1335C56.9711 49.3802 57.5904 48.7903 58.3591 48.4931L75.6581 41.8321C76.0143 41.6926 76.3935 41.6211 76.7761 41.6211C77.404 41.6224 78.0168 41.8134 78.5343 42.1691C79.0518 42.5247 79.4498 43.0284 79.6761 43.6141L82.576 51.1531C82.725 51.5329 82.7966 51.9386 82.7867 52.3464C82.7767 52.7543 82.6854 53.156 82.5181 53.5281C82.3527 53.9018 82.1153 54.2392 81.8195 54.5211C81.5237 54.803 81.1752 55.0239 80.7941 55.1711L77.0881 56.5991C77.0387 56.6197 76.999 56.6583 76.9771 56.7071C76.9668 56.7302 76.9615 56.7553 76.9615 56.7806C76.9615 56.8059 76.9668 56.8309 76.9771 56.8541L78.6771 61.2391C78.7649 61.4694 78.7576 61.7252 78.6569 61.9502C78.5562 62.1753 78.3703 62.3511 78.1401 62.4391H78.1261C78.1235 62.4392 78.121 62.4399 78.1188 62.4411C78.1165 62.4423 78.1146 62.444 78.1131 62.4461C78.1112 62.4483 78.109 62.4501 78.1064 62.4513C78.1038 62.4525 78.1009 62.4531 78.0981 62.4531C77.9738 62.5264 77.8324 62.5657 77.6881 62.5671ZM67.9351 49.3851L65.1211 49.4981C65.1021 49.4981 65.0821 49.5061 65.0631 49.5091C65.0244 49.5138 64.9866 49.5242 64.9511 49.5401C64.886 49.5645 64.8265 49.6018 64.7761 49.6497C64.7258 49.6977 64.6856 49.7553 64.6581 49.8191C64.6305 49.8822 64.6163 49.9503 64.6163 50.0191C64.6163 50.0879 64.6305 50.156 64.6581 50.2191L66.6251 55.3261C66.6598 55.4254 66.7246 55.5114 66.8104 55.5723C66.8962 55.6332 66.9988 55.666 67.1041 55.6661H67.1341L70.3171 55.5531C70.3413 55.5554 70.3656 55.5506 70.3871 55.5391C70.4471 55.5126 70.495 55.4644 70.5211 55.4042C70.5473 55.3439 70.5497 55.2761 70.5281 55.2141L68.4351 49.7141C68.3938 49.6158 68.3242 49.5321 68.2351 49.4735C68.1461 49.4149 68.0416 49.3841 67.9351 49.3851ZM71.6511 46.9721C71.5289 46.9725 71.4107 47.0149 71.3161 47.0921L69.1661 48.9041C69.0898 48.9743 69.0358 49.0653 69.0105 49.1659C68.9853 49.2664 68.99 49.3722 69.0241 49.4701L71.1461 54.9701V54.9791C71.1559 55.0014 71.1686 55.0222 71.1841 55.0411C71.2072 55.0677 71.2357 55.089 71.2678 55.1035C71.3 55.118 71.3348 55.1253 71.3701 55.1251C71.426 55.1255 71.4802 55.106 71.5231 55.0701L73.975 53.0211C74.0644 52.9542 74.1266 52.8572 74.1501 52.748C74.1736 52.6389 74.1569 52.5249 74.1031 52.4271L72.1361 47.3051C72.1235 47.2657 72.1031 47.2293 72.0761 47.1981L72.0511 47.1631C72.0028 47.1036 71.9418 47.0557 71.8726 47.0228C71.8034 46.9899 71.7277 46.9729 71.6511 46.9731V46.9721Z" fill="white"/>
<path d="M153.342 38.6766C153.569 38.6784 153.792 38.612 153.981 38.486C154.17 38.36 154.317 38.1801 154.403 37.9696C154.488 37.7622 154.512 37.5347 154.472 37.3141C154.432 37.0934 154.329 36.8889 154.177 36.7246L153.498 38.3516C153.452 38.4626 153.4 38.5711 153.342 38.6766V38.6766Z" fill="white"/>
<path d="M151.277 35.946L151.234 34.985C151.206 34.646 150.994 34.547 150.753 34.785L150.046 35.409L149.141 35.168C148.829 35.098 148.674 35.282 148.801 35.579L149.153 36.484L148.63 37.333C148.46 37.616 148.573 37.814 148.899 37.771L149.848 37.654L150.428 38.432C150.628 38.687 150.838 38.632 150.928 38.305L151.153 37.347L152.044 36.965C152.344 36.824 152.369 36.583 152.086 36.413L151.277 35.946Z" fill="white"/>
<path d="M146.736 35.9749C146.765 35.8436 146.808 35.7157 146.863 35.5929L147.557 33.9239C147.312 33.8948 147.065 33.9469 146.853 34.0721C146.641 34.1973 146.476 34.3887 146.383 34.6169C146.287 34.851 146.27 35.1098 146.334 35.3545C146.397 35.5992 146.538 35.8168 146.736 35.9749Z" fill="white"/>
<path d="M140.248 49.562C140.09 49.5611 139.936 49.5142 139.805 49.427L139.579 49.342C139.483 49.3062 139.395 49.2518 139.32 49.1817C139.245 49.1117 139.185 49.0275 139.143 48.934C139.1 48.8384 139.076 48.7353 139.074 48.6306C139.071 48.5259 139.089 48.4217 139.127 48.324L141.121 43.161L136.707 41.461C135.929 41.1542 135.303 40.5535 134.964 39.7886C134.625 39.0238 134.601 38.1564 134.897 37.374L138.197 28.788C138.501 28.0083 139.101 27.3805 139.866 27.0414C140.631 26.7023 141.499 26.6795 142.281 26.978L161.448 34.362C162.226 34.665 162.852 35.263 163.191 36.0259C163.53 36.7887 163.554 37.6546 163.258 38.435L159.949 47.021C159.645 47.802 159.045 48.431 158.279 48.7703C157.513 49.1097 156.643 49.1319 155.861 48.832L148.83 46.116L140.555 49.496C140.458 49.5394 140.354 49.5619 140.248 49.562ZM146.189 41.342C146.081 41.3422 145.976 41.3801 145.892 41.4491C145.809 41.5181 145.752 41.614 145.731 41.7203C145.711 41.8267 145.728 41.9369 145.78 42.032C145.831 42.1272 145.914 42.2014 146.015 42.242L149.225 43.571C149.282 43.5946 149.342 43.6068 149.404 43.607C149.513 43.608 149.619 43.5708 149.703 43.5018C149.788 43.4328 149.845 43.3365 149.866 43.2295C149.886 43.1225 149.869 43.0116 149.816 42.9161C149.764 42.8207 149.679 42.7467 149.578 42.707L148.404 42.212L149.055 40.642C149.662 40.8193 150.304 40.8329 150.918 40.6813C151.532 40.5297 152.094 40.2184 152.549 39.779C152.751 39.8446 152.963 39.8783 153.176 39.879C153.589 39.8786 153.993 39.7564 154.337 39.5277C154.681 39.2989 154.95 38.9738 155.11 38.593C155.292 38.1639 155.321 37.6853 155.192 37.2373C155.064 36.7893 154.785 36.3991 154.403 36.132L154.703 35.411C154.772 35.2477 154.773 35.0637 154.707 34.8994C154.641 34.735 154.512 34.6036 154.349 34.534L148.949 32.285C148.866 32.2493 148.777 32.2306 148.687 32.23C148.555 32.2288 148.426 32.2668 148.317 32.3391C148.207 32.4114 148.121 32.5147 148.07 32.636L147.786 33.329C147.633 33.2937 147.477 33.2759 147.32 33.276C146.839 33.2726 146.372 33.4353 145.997 33.7366C145.622 34.0379 145.363 34.4593 145.264 34.9296C145.164 35.3999 145.229 35.8903 145.449 36.3178C145.669 36.7454 146.03 37.0838 146.471 37.276C146.483 37.8843 146.648 38.4798 146.953 39.0067C147.257 39.5336 147.69 39.9747 148.211 40.289L147.543 41.868L146.369 41.373C146.311 41.3507 146.249 41.3402 146.187 41.342H146.189Z" fill="white"/>
<path d="M77.2841 92.6547L77.8781 92.8107L81.8951 77.9727L73.5781 90.4207H77.6381L77.2841 92.6547Z" fill="#224BF4"/>
<path d="M85.8421 25.0699C86.1251 19.6949 90.3681 17.4319 92.0661 17.2899C93.0444 17.1931 94.0293 17.3902 94.8951 17.8559C94.8951 17.8559 95.6021 8.80288 101.401 7.52988C107.2 6.25688 110.029 8.51988 111.585 10.7829C113.141 13.0459 113 14.3189 113 14.3189C113 14.3189 115.263 12.4799 119.224 14.0359C123.185 15.5919 122.053 19.9769 122.053 19.9769C122.053 19.9769 125.165 19.1279 126.721 24.2199C128.277 29.3119 123.043 37.7989 121.063 39.0719C119.083 40.3449 90.3681 35.2539 90.3681 35.2539C90.3681 35.2539 85.5591 30.4449 85.8421 25.0699Z" fill="#1F1F39"/>
<path d="M89.095 33.1316C86.266 34.4046 85.983 38.2236 88.105 40.6316C90.227 43.0396 95.605 42.4706 95.605 42.4706L94.159 33.7536C93.4496 33.2025 92.6043 32.8537 91.7128 32.7441C90.8212 32.6346 89.9166 32.7685 89.095 33.1316Z" fill="#F9ACC0"/>
<path d="M122.916 33.1316C125.745 34.4046 126.028 38.2236 123.906 40.6316C121.784 43.0396 116.409 42.4676 116.409 42.4676L117.852 33.7536C118.561 33.2025 119.407 32.8537 120.298 32.7441C121.19 32.6346 122.094 32.7685 122.916 33.1316Z" fill="#F9ACC0"/>
<path d="M94.6111 40.6983C94.4723 39.7618 94.0975 38.8761 93.5221 38.1243C92.7353 37.0872 91.6414 36.3247 90.3961 35.9453C90.3417 35.932 90.2949 35.8977 90.2658 35.8499C90.2367 35.8021 90.2279 35.7447 90.2411 35.6903C90.2544 35.6359 90.2887 35.5891 90.3365 35.56C90.3843 35.5309 90.4417 35.522 90.4961 35.5353C91.8455 35.9346 93.0303 36.7579 93.8751 37.8833C94.5135 38.6927 94.9194 39.6607 95.0491 40.6833C95.0451 40.7419 95.0201 40.7971 94.9785 40.8387C94.9369 40.8802 94.8817 40.9053 94.8231 40.9093C94.7675 40.9078 94.7146 40.8851 94.6752 40.8459C94.6358 40.8067 94.6129 40.7539 94.6111 40.6983Z" fill="#1F1F39"/>
<path d="M118.064 40.4596C118.016 40.4321 117.98 40.3885 117.962 40.3366C117.943 40.2847 117.944 40.228 117.964 40.1766C118.536 39.0682 119.265 38.0486 120.13 37.1496C120.715 36.4518 121.492 35.9399 122.364 35.6766C122.418 35.6676 122.474 35.6804 122.519 35.7123C122.564 35.7441 122.594 35.7924 122.604 35.8466C122.613 35.901 122.6 35.9567 122.568 36.0016C122.536 36.0465 122.488 36.0771 122.434 36.0866C121.654 36.3504 120.961 36.8204 120.427 37.4466C119.6 38.315 118.901 39.2961 118.349 40.3606C118.334 40.3977 118.309 40.4296 118.276 40.4523C118.244 40.4749 118.205 40.4872 118.165 40.4876C118.13 40.4852 118.095 40.4757 118.064 40.4596Z" fill="#1F1F39"/>
<path d="M95.036 42.4676C96.1021 45.6473 98.193 48.3835 100.981 50.2476C101.055 52.2842 100.913 54.3229 100.557 56.3296C100.336 57.5531 99.9536 58.742 99.421 59.8656C99.421 59.8656 100.411 61.9876 105.645 61.9876C111.303 61.9876 112.859 59.8656 112.859 59.8656C112.424 58.5263 112.093 57.1556 111.869 55.7656C111.697 53.9793 111.65 52.1833 111.728 50.3906C111.728 50.3906 116.113 49.8246 117.81 43.6006C118.83 39.7757 119.119 35.7924 118.659 31.8606C118.659 31.8606 110.312 33.1316 107.481 29.7376C104.65 26.3436 101.825 22.9476 97.723 24.6446C96.5581 25.1294 95.5686 25.9577 94.8863 27.0191C94.204 28.0804 93.8614 29.3245 93.904 30.5856C93.904 30.5856 93.621 37.5166 95.036 42.4676Z" fill="#F9D2DD"/>
<path d="M100.509 30.5188C99.7778 30.9409 98.9765 30.9209 98.719 30.4749C98.4615 30.0289 98.8443 29.324 99.5752 28.902C100.306 28.48 101.107 28.5005 101.365 28.9473C101.623 29.3942 101.239 30.0973 100.509 30.5188Z" fill="#1F1F39"/>
<path d="M101.967 37.9407C101.602 37.9106 101.264 37.7377 101.025 37.4597C100.787 37.1817 100.668 36.821 100.694 36.4557C100.668 36.0905 100.787 35.7297 101.025 35.4517C101.264 35.1737 101.602 35.0008 101.967 34.9707C102.332 35.0008 102.67 35.1737 102.909 35.4517C103.147 35.7297 103.266 36.0905 103.24 36.4557C103.266 36.821 103.147 37.1817 102.909 37.4597C102.67 37.7377 102.332 37.9106 101.967 37.9407Z" fill="#1F1F39"/>
<path d="M111.303 37.9407C110.938 37.9106 110.6 37.7377 110.361 37.4597C110.123 37.1817 110.004 36.821 110.03 36.4557C110.004 36.0905 110.123 35.7297 110.361 35.4517C110.6 35.1737 110.938 35.0008 111.303 34.9707C111.668 35.0008 112.006 35.1737 112.244 35.4517C112.483 35.7297 112.602 36.0905 112.576 36.4557C112.602 36.821 112.483 37.1817 112.244 37.4597C112.006 37.7377 111.668 37.9106 111.303 37.9407Z" fill="#1F1F39"/>
<path d="M106.776 41.3371C107.559 41.2326 108.27 40.8264 108.757 40.2051C108.874 40.6735 108.808 41.1692 108.571 41.5901C108.334 42.0111 107.945 42.3253 107.484 42.4681C105.786 43.0341 104.372 41.3371 104.796 40.2051C104.992 40.5561 105.28 40.847 105.628 41.0465C105.977 41.246 106.374 41.3465 106.776 41.3371Z" fill="#F95368"/>
<path d="M105.644 38.5065C106.068 39.3555 107.2 38.9305 107.2 38.9305C107.2 38.9305 106.065 38.6475 106.065 37.7945C106.154 36.9738 106.345 36.1675 106.635 35.3945C106.635 35.3945 105.22 37.6575 105.644 38.5065Z" fill="#1F1F39"/>
<path d="M99.633 42.7514C98.5559 42.7514 97.503 42.432 96.6074 41.8336C95.7118 41.2351 95.0138 40.3846 94.6016 39.3895C94.1894 38.3943 94.0815 37.2993 94.2917 36.2429C94.5018 35.1865 95.0205 34.2161 95.7821 33.4545C96.5437 32.6928 97.5141 32.1742 98.5706 31.964C99.627 31.7539 100.722 31.8617 101.717 32.2739C102.712 32.6861 103.563 33.3842 104.161 34.2797C104.76 35.1753 105.079 36.2283 105.079 37.3054C105.077 38.7493 104.503 40.1335 103.482 41.1545C102.461 42.1755 101.077 42.7498 99.633 42.7514ZM99.633 32.2834C98.6397 32.2832 97.6687 32.5775 96.8427 33.1293C96.0167 33.681 95.3728 34.4652 94.9926 35.3828C94.6123 36.3005 94.5127 37.3103 94.7064 38.2845C94.9001 39.2587 95.3783 40.1537 96.0806 40.8561C96.7829 41.5586 97.6777 42.037 98.6519 42.2308C99.6261 42.4247 100.636 42.3253 101.554 41.9452C102.471 41.5651 103.256 40.9214 103.808 40.0956C104.359 39.2697 104.654 38.2987 104.654 37.3054C104.652 35.9741 104.123 34.6978 103.182 33.7564C102.24 32.815 100.964 32.2852 99.633 32.2834Z" fill="#1F1F39"/>
<path d="M113.212 42.7514C112.135 42.7514 111.082 42.432 110.186 41.8336C109.291 41.2351 108.593 40.3846 108.181 39.3895C107.768 38.3943 107.661 37.2993 107.871 36.2429C108.081 35.1865 108.6 34.2161 109.361 33.4545C110.123 32.6928 111.093 32.1742 112.15 31.964C113.206 31.7539 114.301 31.8617 115.296 32.2739C116.291 32.6861 117.142 33.3842 117.74 34.2797C118.339 35.1753 118.658 36.2283 118.658 37.3054C118.657 38.7493 118.082 40.1335 117.061 41.1545C116.04 42.1755 114.656 42.7498 113.212 42.7514ZM113.212 32.2834C112.219 32.2832 111.248 32.5775 110.422 33.1293C109.596 33.681 108.952 34.4652 108.572 35.3828C108.191 36.3005 108.092 37.3103 108.285 38.2845C108.479 39.2587 108.957 40.1537 109.66 40.8561C110.362 41.5586 111.257 42.037 112.231 42.2308C113.205 42.4247 114.215 42.3253 115.133 41.9452C116.05 41.5651 116.835 40.9214 117.387 40.0956C117.939 39.2697 118.233 38.2987 118.233 37.3054C118.232 35.9741 117.702 34.6978 116.761 33.7564C115.82 32.815 114.543 32.2852 113.212 32.2834Z" fill="#1F1F39"/>
<path d="M104.824 35.6938C105.408 35.5576 106.006 35.4905 106.606 35.4938C107.105 35.4668 107.605 35.5388 108.077 35.7058L107.907 36.0878C107.493 35.9562 107.058 35.8987 106.624 35.9178C106.052 35.9021 105.48 35.964 104.924 36.1018L104.824 35.6938Z" fill="#1F1F39"/>
<path d="M100.553 56.3281C100.454 56.7531 100.37 57.1351 100.27 57.4881C100.355 57.4601 100.44 57.4461 100.525 57.4171C106.636 55.8041 109.931 53.7111 111.685 52.0981C111.685 51.1081 111.713 50.3861 111.713 50.3861C111.713 50.3861 110.013 51.3761 105.913 51.2351C104.218 51.2384 102.54 50.9021 100.977 50.2461C101.037 52.2825 100.895 54.3198 100.553 56.3281Z" fill="#F9ACC0"/>
<path d="M113.636 41.6196C112.113 41.6196 110.878 40.8596 110.878 39.9246C110.878 38.9896 112.113 38.2246 113.636 38.2246C115.159 38.2246 116.395 38.9846 116.395 39.9246C116.395 40.8646 115.16 41.6196 113.636 41.6196Z" fill="#F9ACC0"/>
<path d="M99.0671 41.6196C97.5441 41.6196 96.3091 40.8596 96.3091 39.9246C96.3091 38.9896 97.5441 38.2246 99.0671 38.2246C100.59 38.2246 101.826 38.9846 101.826 39.9246C101.826 40.8646 100.591 41.6196 99.0671 41.6196Z" fill="#F9ACC0"/>
<path d="M134.784 94.5208L139.508 94.1208L128.984 76.1328L134.784 94.5208Z" fill="#224BF4"/>
<path d="M100.935 50.64C100.91 50.626 100.887 50.6068 100.87 50.5837C100.852 50.5606 100.84 50.534 100.833 50.5058C100.826 50.4775 100.826 50.4482 100.831 50.4196C100.836 50.3911 100.848 50.364 100.864 50.34C100.878 50.3146 100.897 50.2924 100.92 50.2748C100.943 50.2572 100.97 50.2447 100.998 50.238C101.027 50.2313 101.056 50.2306 101.084 50.236C101.113 50.2413 101.14 50.2526 101.164 50.269C102.441 50.9206 103.857 51.2538 105.291 51.24C105.347 51.24 105.401 51.2624 105.441 51.3021C105.481 51.3419 105.503 51.3958 105.503 51.452C105.503 51.5082 105.481 51.5622 105.441 51.6019C105.401 51.6417 105.347 51.664 105.291 51.664C103.777 51.6836 102.282 51.3321 100.935 50.64Z" fill="#1F1F39"/>
<path d="M96.309 93.1353C97.101 92.4563 96.988 90.9853 96.648 90.0803C96.347 89.4441 95.972 88.8457 95.531 88.2973C95.3123 88.0442 95.1805 87.7276 95.1549 87.3941C95.1294 87.0606 95.2114 86.7277 95.389 86.4443C95.898 85.7513 97.398 85.6383 98.572 85.9633C99.384 86.151 100.125 86.5674 100.708 87.1633C101.481 88.0197 102.061 89.0327 102.408 90.1333C103.122 89.7361 103.925 89.5276 104.742 89.5276C105.559 89.5276 106.362 89.7361 107.076 90.1333C107.409 90.373 107.674 90.6939 107.847 91.0653C108.021 91.4368 108.096 91.8465 108.066 92.2553C108.918 92.2869 109.727 92.6407 110.329 93.2453C110.615 93.5981 110.793 94.0256 110.843 94.4768C110.894 94.9281 110.813 95.3843 110.612 95.7913C111.021 96.1923 111.289 96.7151 111.375 97.2812C111.462 97.8473 111.363 98.4262 111.093 98.9313C110.471 100.031 108.151 102.731 103.593 105.098C96.776 108.638 82.532 117.125 72.701 118.143C66.35 118.789 57.561 116.589 60.112 104.847C62.663 93.1053 63.648 90.4193 63.648 90.4193H78.5L76.223 99.3303C76.223 99.3303 95.517 93.8143 96.309 93.1353Z" fill="#F9D2DD"/>
<path d="M67.7511 102.161C67.7338 102.108 67.7373 102.051 67.7609 102.001C67.7845 101.951 67.8265 101.912 67.8781 101.892L76.1531 99.1336C76.2055 99.1166 76.2625 99.1202 76.3123 99.1439C76.3622 99.1675 76.4011 99.2092 76.4211 99.2606C76.4384 99.3132 76.4349 99.3704 76.4113 99.4205C76.3876 99.4705 76.3457 99.5096 76.2941 99.5296L68.0191 102.288C67.9973 102.299 67.9726 102.304 67.9481 102.302C67.9048 102.301 67.8628 102.287 67.8276 102.262C67.7924 102.237 67.7657 102.201 67.7511 102.161Z" fill="#1F1F39"/>
<path d="M103.834 94.8456C103.806 94.7959 103.797 94.7373 103.811 94.6816C103.824 94.6259 103.858 94.5773 103.905 94.5456L107.936 92.0746C107.986 92.0463 108.044 92.0378 108.1 92.051C108.156 92.0642 108.204 92.098 108.236 92.1456C108.264 92.1953 108.273 92.2539 108.26 92.3096C108.247 92.3653 108.213 92.4139 108.165 92.4456L104.131 94.9176C104.095 94.9335 104.057 94.943 104.018 94.9456C103.982 94.9438 103.947 94.9338 103.915 94.9165C103.883 94.8992 103.855 94.875 103.834 94.8456Z" fill="#1F1F39"/>
<path d="M106.239 98.5233C106.211 98.4736 106.202 98.415 106.215 98.3593C106.228 98.3037 106.262 98.2551 106.31 98.2233L110.341 95.7523C110.391 95.724 110.449 95.7156 110.505 95.7287C110.561 95.7419 110.609 95.7757 110.641 95.8233C110.669 95.873 110.678 95.9316 110.664 95.9873C110.651 96.043 110.618 96.0916 110.57 96.1233L106.536 98.5953C106.5 98.6112 106.462 98.6207 106.423 98.6233C106.387 98.6215 106.351 98.6116 106.32 98.5943C106.288 98.577 106.26 98.5527 106.239 98.5233Z" fill="#1F1F39"/>
<path d="M102.405 90.121C102.349 91.4081 101.9 92.6471 101.118 93.671C103.409 93.505 104.824 91.305 105.602 89.569C104.505 89.4115 103.386 89.6047 102.405 90.121Z" fill="#F9ACC0"/>
<path d="M78.4871 90.418H63.6341C63.6341 90.418 63.2381 91.479 62.3191 95.199L78.0911 91.988L78.4871 90.418Z" fill="#F9ACC0"/>
<path d="M106.366 86.4304C106.332 86.4142 106.302 86.3911 106.278 86.3625C106.253 86.334 106.235 86.3006 106.224 86.2646C106.214 86.2286 106.211 86.1907 106.216 86.1535C106.221 86.1162 106.233 86.0804 106.253 86.0484L107.813 83.0784C107.829 83.0451 107.852 83.0155 107.88 82.9915C107.909 82.9675 107.942 82.9496 107.977 82.939C108.013 82.9283 108.05 82.9252 108.087 82.9298C108.124 82.9343 108.159 82.9465 108.191 82.9654C108.225 82.9816 108.255 83.0047 108.279 83.0333C108.304 83.0619 108.322 83.0952 108.332 83.1313C108.343 83.1673 108.346 83.2051 108.341 83.2424C108.336 83.2796 108.324 83.3154 108.304 83.3474L106.748 86.3174C106.72 86.3597 106.682 86.3945 106.638 86.4191C106.593 86.4436 106.544 86.4571 106.493 86.4584C106.449 86.4559 106.407 86.4464 106.366 86.4304Z" fill="#EAEAFF"/>
<path d="M90.8071 71.8177L89.5341 67.1507C89.5233 67.1144 89.52 67.0762 89.5243 67.0385C89.5286 67.0008 89.5404 66.9644 89.5591 66.9314C89.5777 66.8984 89.6028 66.8694 89.6329 66.8463C89.6629 66.8232 89.6973 66.8063 89.7341 66.7967C89.7704 66.786 89.8086 66.7827 89.8463 66.787C89.884 66.7913 89.9204 66.8031 89.9534 66.8218C89.9864 66.8404 90.0154 66.8655 90.0385 66.8956C90.0616 66.9256 90.0785 66.96 90.0881 66.9967L91.3591 71.6627C91.3698 71.6991 91.3731 71.7373 91.3688 71.775C91.3645 71.8127 91.3527 71.8491 91.334 71.8821C91.3154 71.9151 91.2903 71.9441 91.2602 71.9672C91.2302 71.9903 91.1958 72.0072 91.1591 72.0167C91.132 72.0272 91.103 72.032 91.0741 72.0307C91.012 72.0309 90.9517 72.0099 90.9031 71.9712C90.8546 71.9324 90.8207 71.8783 90.8071 71.8177Z" fill="#EAEAFF"/>
<path d="M96.9172 79.5134C96.8486 79.4842 96.7941 79.4295 96.7652 79.3608C96.7363 79.2921 96.7352 79.2149 96.7622 79.1454L98.4592 74.7604C98.4884 74.6919 98.5431 74.6374 98.6118 74.6084C98.6805 74.5795 98.7577 74.5784 98.8272 74.6054C98.8955 74.6346 98.9498 74.6892 98.9787 74.7577C99.0076 74.8261 99.0089 74.9031 98.9822 74.9724L97.2852 79.3574C97.2608 79.4081 97.2226 79.451 97.1751 79.481C97.1275 79.5111 97.0724 79.5272 97.0162 79.5274C96.9826 79.5297 96.9488 79.525 96.9172 79.5134Z" fill="#EAEAFF"/>
<path d="M86.153 89.6971L84.172 85.8771C84.1409 85.8098 84.1373 85.7331 84.1619 85.6631C84.1865 85.5932 84.2373 85.5356 84.3037 85.5025C84.3701 85.4695 84.4467 85.4636 84.5173 85.4861C84.5879 85.5086 84.647 85.5578 84.682 85.6231L86.662 89.4421C86.679 89.4755 86.6891 89.5119 86.6919 89.5492C86.6947 89.5866 86.6901 89.6241 86.6783 89.6596C86.6665 89.6952 86.6477 89.728 86.6231 89.7562C86.5985 89.7845 86.5686 89.8075 86.535 89.8241C86.4944 89.8401 86.4515 89.8495 86.408 89.8521C86.3557 89.8508 86.3046 89.8358 86.2599 89.8086C86.2151 89.7814 86.1783 89.743 86.153 89.6971Z" fill="#EAEAFF"/>
<path d="M117.611 97.1217C117.584 97.0962 117.562 97.0652 117.547 97.0308C117.532 96.9964 117.524 96.9593 117.524 96.9217C117.524 96.8842 117.532 96.847 117.547 96.8126C117.562 96.7782 117.584 96.7473 117.611 96.7217L119.733 94.6067C119.759 94.5792 119.79 94.5573 119.824 94.5423C119.858 94.5273 119.896 94.5195 119.933 94.5195C119.971 94.5195 120.008 94.5273 120.042 94.5423C120.077 94.5573 120.108 94.5792 120.133 94.6067C120.161 94.6323 120.183 94.6632 120.198 94.6976C120.213 94.732 120.22 94.7692 120.22 94.8067C120.22 94.8443 120.213 94.8814 120.198 94.9158C120.183 94.9502 120.161 94.9812 120.133 95.0067L118.007 97.1217C117.981 97.1485 117.95 97.1699 117.916 97.1845C117.881 97.1991 117.844 97.2066 117.807 97.2067C117.77 97.2061 117.734 97.1983 117.701 97.1837C117.667 97.1691 117.637 97.1481 117.611 97.1217Z" fill="#EAEAFF"/>
<path d="M118.715 108.977L116.452 106.148C116.427 106.119 116.409 106.086 116.397 106.05C116.386 106.014 116.382 105.976 116.386 105.939C116.39 105.901 116.402 105.865 116.42 105.832C116.439 105.799 116.464 105.771 116.494 105.748C116.523 105.724 116.556 105.707 116.591 105.697C116.627 105.686 116.664 105.683 116.7 105.687C116.737 105.692 116.773 105.703 116.805 105.722C116.837 105.74 116.865 105.764 116.887 105.794L119.154 108.623C119.179 108.651 119.198 108.685 119.209 108.721C119.22 108.757 119.224 108.794 119.22 108.832C119.216 108.869 119.205 108.906 119.186 108.939C119.167 108.971 119.142 109 119.112 109.023C119.091 109.047 119.065 109.066 119.036 109.078C119.006 109.091 118.974 109.096 118.942 109.094C118.898 109.092 118.855 109.081 118.816 109.061C118.776 109.04 118.742 109.012 118.715 108.977Z" fill="#EAEAFF"/>
<path d="M101.797 112.569C101.735 112.525 101.693 112.458 101.68 112.383C101.666 112.308 101.683 112.231 101.726 112.169L103.848 109.202C103.892 109.14 103.959 109.098 104.033 109.085C104.108 109.071 104.185 109.088 104.248 109.131C104.31 109.175 104.352 109.241 104.365 109.316C104.379 109.391 104.362 109.468 104.319 109.531L102.193 112.498C102.173 112.53 102.146 112.559 102.114 112.58C102.083 112.602 102.047 112.616 102.009 112.623C101.971 112.63 101.932 112.628 101.895 112.619C101.858 112.61 101.823 112.593 101.793 112.569H101.797Z" fill="#EAEAFF"/>
<path d="M129.451 106.246C129.38 106.22 129.323 106.166 129.291 106.097C129.259 106.028 129.256 105.95 129.281 105.878L130.696 101.917C130.723 101.846 130.776 101.788 130.846 101.757C130.88 101.741 130.917 101.732 130.955 101.731C130.992 101.729 131.03 101.735 131.065 101.748C131.1 101.762 131.133 101.782 131.16 101.807C131.188 101.833 131.21 101.864 131.226 101.898C131.242 101.932 131.251 101.969 131.252 102.007C131.253 102.045 131.247 102.082 131.234 102.117L129.819 106.076C129.798 106.131 129.761 106.177 129.713 106.21C129.665 106.243 129.608 106.26 129.55 106.26C129.517 106.263 129.483 106.258 129.451 106.246Z" fill="#EAEAFF"/>
<path d="M119.224 80.234V75.283C119.224 75.2079 119.254 75.136 119.307 75.0829C119.36 75.0298 119.432 75 119.507 75C119.582 75 119.654 75.0298 119.707 75.0829C119.76 75.136 119.79 75.2079 119.79 75.283V80.234C119.79 80.3091 119.76 80.381 119.707 80.4341C119.654 80.4872 119.582 80.517 119.507 80.517C119.432 80.517 119.36 80.4872 119.307 80.4341C119.254 80.381 119.224 80.3091 119.224 80.234V80.234Z" fill="#EAEAFF"/>
<path d="M109.619 68.8476L108.912 66.1596C108.902 66.1243 108.899 66.0874 108.904 66.0511C108.909 66.0147 108.921 65.9797 108.939 65.9481C108.958 65.9165 108.982 65.8889 109.012 65.867C109.041 65.8451 109.074 65.8293 109.11 65.8206C109.145 65.8107 109.182 65.8081 109.219 65.8129C109.255 65.8176 109.29 65.8297 109.322 65.8484C109.354 65.8671 109.381 65.892 109.403 65.9216C109.425 65.9511 109.441 65.9848 109.449 66.0206L110.157 68.7106C110.167 68.746 110.17 68.783 110.165 68.8195C110.16 68.8559 110.148 68.891 110.129 68.9227C110.111 68.9543 110.086 68.9819 110.056 69.0037C110.026 69.0255 109.993 69.0411 109.957 69.0496C109.935 69.061 109.911 69.0658 109.886 69.0636C109.824 69.0636 109.763 69.0421 109.714 69.0028C109.666 68.9635 109.632 68.9087 109.619 68.8476Z" fill="#EAEAFF"/>
<path d="M127.895 69.0457C127.824 69.019 127.767 68.9654 127.735 68.8965C127.703 68.8277 127.7 68.7491 127.725 68.6777L128.716 65.9897C128.743 65.9184 128.797 65.8605 128.866 65.8288C128.9 65.8131 128.937 65.8043 128.975 65.8029C129.012 65.8015 129.05 65.8076 129.085 65.8207C129.121 65.8339 129.153 65.8538 129.181 65.8795C129.208 65.9051 129.23 65.936 129.246 65.9702C129.262 66.0045 129.271 66.0415 129.272 66.0792C129.273 66.1168 129.267 66.1544 129.254 66.1897L128.263 68.8757C128.242 68.9298 128.205 68.9763 128.157 69.0091C128.109 69.0419 128.052 69.0595 127.994 69.0597C127.961 69.062 127.927 69.0573 127.895 69.0457Z" fill="#EAEAFF"/>
<path d="M70.2822 79.2587L70.1412 76.1497C70.1394 76.0748 70.1662 76.0021 70.2162 75.9464C70.2662 75.8906 70.3356 75.856 70.4102 75.8497C70.4851 75.8479 70.5578 75.8747 70.6135 75.9247C70.6693 75.9747 70.7039 76.0441 70.7102 76.1187L70.8482 79.2307C70.8483 79.3074 70.8191 79.3812 70.7664 79.437C70.7138 79.4928 70.6418 79.5263 70.5652 79.5307C70.4919 79.5313 70.4212 79.5031 70.3683 79.4523C70.3155 79.4015 70.2845 79.332 70.2822 79.2587Z" fill="#EAEAFF"/>
<path d="M144.303 78.9753L140.243 78.2533C140.206 78.2479 140.171 78.2351 140.139 78.2156C140.107 78.1962 140.08 78.1705 140.058 78.1401C140.037 78.1098 140.021 78.0753 140.013 78.0389C140.005 78.0025 140.005 77.9649 140.012 77.9283C140.017 77.8909 140.03 77.8551 140.05 77.8229C140.07 77.7907 140.096 77.763 140.127 77.7413C140.158 77.7196 140.193 77.7046 140.23 77.697C140.267 77.6894 140.305 77.6895 140.342 77.6973L144.402 78.4233C144.47 78.435 144.532 78.4717 144.574 78.5263C144.617 78.5808 144.638 78.6494 144.632 78.7184C144.627 78.7875 144.596 78.8521 144.546 78.8996C144.496 78.9471 144.429 78.9741 144.36 78.9753H144.303Z" fill="#EAEAFF"/>
<path d="M133.693 92.0172C133.689 91.9798 133.693 91.9421 133.703 91.9061C133.714 91.8701 133.732 91.8365 133.756 91.8075C133.78 91.7784 133.809 91.7543 133.842 91.7365C133.875 91.7188 133.912 91.7078 133.949 91.7042L149.735 90.3042C149.772 90.3004 149.81 90.304 149.846 90.3147C149.881 90.3254 149.915 90.3431 149.944 90.3667C149.973 90.3904 149.997 90.4195 150.015 90.4524C150.033 90.4854 150.044 90.5215 150.047 90.5587C150.051 90.5959 150.048 90.6336 150.037 90.6694C150.026 90.7053 150.009 90.7387 149.985 90.7677C149.961 90.7967 149.932 90.8208 149.899 90.8385C149.866 90.8563 149.83 90.8674 149.793 90.8712L134.005 92.2572C133.997 92.2648 133.988 92.2697 133.977 92.2712C133.907 92.2705 133.839 92.2444 133.787 92.1976C133.735 92.1509 133.701 92.0868 133.693 92.0172Z" fill="#EAEAFF"/>
<path d="M63.3231 88.183C63.3213 88.1082 63.3481 88.0355 63.3981 87.9797C63.4481 87.924 63.5175 87.8894 63.5921 87.883L79.0521 87.377C79.1269 87.3752 79.1997 87.4021 79.2554 87.4521C79.3112 87.5021 79.3457 87.5714 79.3521 87.646C79.3539 87.7209 79.327 87.7936 79.2771 87.8494C79.2271 87.9051 79.1577 87.9397 79.0831 87.946L63.6061 88.452C63.5332 88.4526 63.463 88.4249 63.4102 88.3747C63.3574 88.3245 63.3262 88.2558 63.3231 88.183Z" fill="#EAEAFF"/>
<path d="M78.4579 90.3333C78.4309 90.3275 78.4054 90.316 78.3832 90.2995C78.361 90.2831 78.3426 90.2621 78.3293 90.2379C78.3159 90.2137 78.3079 90.187 78.3058 90.1594C78.3036 90.1319 78.3074 90.1042 78.3169 90.0783L82.1359 76.3583C82.1425 76.3318 82.1545 76.307 82.1711 76.2854C82.1877 76.2638 82.2085 76.2458 82.2323 76.2325C82.2561 76.2192 82.2823 76.2109 82.3094 76.2081C82.3365 76.2053 82.3639 76.2081 82.3899 76.2163C82.4169 76.222 82.4424 76.2335 82.4646 76.25C82.4868 76.2664 82.5052 76.2874 82.5185 76.3116C82.5319 76.3358 82.5399 76.3626 82.5421 76.3901C82.5442 76.4176 82.5404 76.4453 82.5309 76.4713L78.7129 90.1923C78.7027 90.2374 78.6773 90.2776 78.6408 90.306C78.6043 90.3345 78.5591 90.3494 78.5129 90.3483C78.4934 90.3497 78.474 90.3444 78.4579 90.3333Z" fill="#1F1F39"/>
<path d="M134.373 94.5061L128.715 76.1181C128.701 76.0636 128.707 76.0057 128.733 75.9558C128.76 75.906 128.804 75.8679 128.857 75.8491C128.911 75.8349 128.969 75.8416 129.019 75.8679C129.068 75.8942 129.106 75.9382 129.125 75.9911L134.783 94.3791C134.798 94.4335 134.791 94.4913 134.765 94.5412C134.739 94.591 134.695 94.6292 134.642 94.6481C134.62 94.6584 134.596 94.6632 134.571 94.6621C134.526 94.6614 134.482 94.6457 134.446 94.6175C134.41 94.5893 134.384 94.5502 134.373 94.5061Z" fill="#1F1F39"/>
<path d="M32.851 5.46289H5.677C2.91558 5.46289 0.677002 7.70147 0.677002 10.4629V44.5619C0.677002 47.3233 2.91558 49.5619 5.677 49.5619H32.851C35.6124 49.5619 37.851 47.3233 37.851 44.5619V10.4629C37.851 7.70147 35.6124 5.46289 32.851 5.46289Z" fill="white"/>
<path d="M29.5439 36.1738H8.98389V38.4178H29.5439V36.1738Z" fill="#63926C"/>
<path d="M25.976 40.9688H12.553V43.2127H25.976V40.9688Z" fill="#8FAC94"/>
<path d="M19.2639 30.9663C24.4355 30.9663 28.6279 26.7739 28.6279 21.6023C28.6279 16.4307 24.4355 12.2383 19.2639 12.2383C14.0923 12.2383 9.8999 16.4307 9.8999 21.6023C9.8999 26.7739 14.0923 30.9663 19.2639 30.9663Z" fill="#C2E3DF"/>
<path d="M18.1908 22.4708L22.3908 18.3008L23.6018 19.5618L18.1908 24.9008L14.9258 21.5838L16.0788 20.4128L18.1908 22.4708Z" fill="#63926C"/>
</svg>
