<svg width="119" height="135" viewBox="0 0 119 135" fill="none" xmlns="http://www.w3.org/2000/svg">
<path opacity="0.4" d="M1.51903 112.81H1.47503C1.38197 112.799 1.29676 112.753 1.23794 112.68C1.17913 112.607 1.15149 112.514 1.16103 112.421C1.16103 112.409 1.24703 111.675 1.42903 110.321C1.43874 110.239 1.478 110.163 1.53947 110.108C1.60094 110.053 1.68041 110.022 1.76303 110.021C1.78067 110.019 1.79839 110.019 1.81603 110.021C1.86168 110.025 1.90592 110.039 1.94604 110.061C1.98616 110.084 2.02133 110.114 2.0494 110.15C2.07747 110.187 2.09785 110.228 2.10931 110.273C2.12076 110.317 2.12305 110.363 2.11603 110.409C1.93803 111.712 1.84803 112.488 1.84703 112.496C1.84652 112.538 1.83758 112.58 1.82074 112.618C1.8039 112.657 1.7795 112.692 1.74896 112.722C1.71841 112.751 1.68235 112.774 1.64287 112.789C1.60339 112.804 1.56129 112.811 1.51903 112.81ZM2.07103 108.616H2.02603C1.97876 108.608 1.9334 108.592 1.89256 108.567C1.85171 108.542 1.81619 108.509 1.78803 108.471C1.76236 108.436 1.74384 108.397 1.73353 108.355C1.72323 108.314 1.72136 108.27 1.72803 108.228C1.76803 107.941 1.81103 107.645 1.85503 107.337C1.91103 106.952 1.96803 106.557 2.02603 106.137C2.03851 106.053 2.08063 105.977 2.14471 105.922C2.20878 105.867 2.29053 105.836 2.37503 105.837C2.42606 105.837 2.47649 105.848 2.52289 105.869C2.56929 105.89 2.61058 105.921 2.64397 105.96C2.67735 105.998 2.70204 106.044 2.71637 106.093C2.73071 106.142 2.73434 106.193 2.72703 106.244C2.64303 106.769 2.57503 107.264 2.50903 107.744C2.48169 107.944 2.45503 108.135 2.42903 108.319C2.41085 108.401 2.36578 108.475 2.30095 108.529C2.23612 108.582 2.15522 108.613 2.07103 108.616ZM45.65 107.885H45.426C44.7129 107.797 44.0563 107.452 43.579 106.915C43.5145 106.849 43.4783 106.76 43.4783 106.668C43.4783 106.576 43.5145 106.488 43.579 106.422C43.6448 106.357 43.7331 106.321 43.825 106.321C43.917 106.321 44.0053 106.357 44.071 106.422C44.4329 106.844 44.9358 107.12 45.486 107.199H45.618C45.7059 107.2 45.79 107.235 45.8532 107.296C45.9163 107.357 45.9538 107.44 45.9579 107.528C45.962 107.615 45.9324 107.701 45.8752 107.768C45.8179 107.835 45.7374 107.877 45.65 107.887V107.885ZM47.079 106.661C47.0146 106.661 46.9519 106.64 46.901 106.601C46.8237 106.552 46.7681 106.475 46.7458 106.386C46.7234 106.297 46.7361 106.203 46.781 106.124C47.127 105.541 47.4163 104.926 47.645 104.288C47.6702 104.224 47.7137 104.169 47.7701 104.13C47.8266 104.09 47.8933 104.069 47.962 104.068C48.0067 104.068 48.0509 104.077 48.092 104.095C48.1343 104.111 48.1729 104.136 48.2056 104.167C48.2383 104.198 48.2644 104.236 48.2824 104.278C48.3003 104.319 48.3098 104.364 48.3103 104.409C48.3107 104.455 48.3022 104.5 48.285 104.542C48.0427 105.217 47.7335 105.867 47.362 106.482C47.3355 106.534 47.2951 106.579 47.2453 106.61C47.1954 106.642 47.138 106.659 47.079 106.661ZM42.596 105.333C42.5342 105.334 42.4733 105.318 42.4202 105.286C42.3671 105.255 42.3241 105.209 42.296 105.154C41.983 104.615 41.657 103.977 41.328 103.254C41.2906 103.169 41.2883 103.072 41.3216 102.986C41.355 102.899 41.4213 102.829 41.506 102.791C41.5513 102.772 41.5999 102.762 41.649 102.762C41.7168 102.761 41.7834 102.78 41.8402 102.817C41.897 102.854 41.9415 102.907 41.968 102.97C42.268 103.632 42.574 104.249 42.891 104.806C42.9156 104.844 42.932 104.887 42.9391 104.932C42.9461 104.977 42.9437 105.023 42.932 105.067C42.908 105.156 42.8508 105.234 42.772 105.283C42.7179 105.312 42.6577 105.329 42.596 105.332V105.333ZM2.68103 104.467H2.62203C2.57837 104.46 2.53644 104.445 2.49868 104.422C2.46091 104.399 2.42806 104.369 2.40203 104.334C2.37428 104.295 2.3545 104.251 2.34385 104.205C2.33321 104.159 2.33191 104.111 2.34003 104.064C2.41403 103.594 2.49503 103.11 2.58103 102.598V102.59C2.61436 102.39 2.64769 102.19 2.68103 101.99C2.69298 101.908 2.73437 101.834 2.79739 101.781C2.8604 101.728 2.94067 101.7 3.02303 101.702C3.043 101.7 3.06306 101.7 3.08303 101.702C3.12668 101.708 3.16861 101.723 3.20638 101.746C3.24415 101.769 3.277 101.799 3.30303 101.835C3.33078 101.873 3.35056 101.917 3.3612 101.963C3.37185 102.01 3.37315 102.058 3.36503 102.105C3.32169 102.365 3.28003 102.622 3.24003 102.875C3.16803 103.325 3.09903 103.751 3.02303 104.175C3.0135 104.258 2.97292 104.334 2.90947 104.388C2.84601 104.442 2.76439 104.47 2.68103 104.467ZM48.643 102.781C48.609 102.783 48.575 102.778 48.543 102.766C48.4569 102.736 48.3849 102.675 48.3409 102.595C48.2968 102.515 48.2837 102.422 48.304 102.333C48.485 101.716 48.676 101.052 48.856 100.319C48.8764 100.244 48.9205 100.178 48.9816 100.131C49.0428 100.083 49.1176 100.057 49.195 100.056C49.221 100.056 49.2469 100.059 49.272 100.066C49.3607 100.089 49.4366 100.147 49.483 100.226C49.5305 100.303 49.5456 100.396 49.525 100.484L49.471 100.684C49.298 101.337 49.135 101.954 48.96 102.509C48.9485 102.584 48.9102 102.654 48.852 102.704C48.7938 102.753 48.7197 102.781 48.643 102.781ZM40.853 101.527C40.7828 101.524 40.7148 101.501 40.6568 101.462C40.5988 101.422 40.5531 101.367 40.525 101.303C40.465 101.139 40.403 100.972 40.339 100.803C40.164 100.332 39.984 99.8447 39.81 99.3217C39.7813 99.2327 39.7886 99.136 39.8302 99.0523C39.8719 98.9685 39.9447 98.9044 40.033 98.8737C40.0688 98.8618 40.1063 98.8557 40.144 98.8557C40.2179 98.857 40.2896 98.8809 40.3495 98.9242C40.4093 98.9674 40.4546 99.028 40.479 99.0977C40.689 99.7147 40.918 100.354 41.179 101.053C41.1979 101.096 41.2076 101.143 41.2076 101.19C41.2076 101.238 41.1979 101.284 41.179 101.328C41.1612 101.368 41.1352 101.404 41.1027 101.434C41.0701 101.463 41.0318 101.486 40.99 101.5L40.942 101.514C40.9136 101.523 40.8839 101.527 40.854 101.527H40.853ZM3.38103 100.319H3.32203C3.27715 100.311 3.23422 100.295 3.1957 100.27C3.15718 100.246 3.12381 100.215 3.09752 100.177C3.07124 100.14 3.05254 100.098 3.0425 100.054C3.03246 100.009 3.03128 99.9635 3.03903 99.9187L3.13303 99.3867V99.3807C3.22103 98.8807 3.31203 98.3697 3.41003 97.8437C3.42392 97.7612 3.46701 97.6864 3.53144 97.6329C3.59587 97.5795 3.67735 97.551 3.76103 97.5527C3.77933 97.5512 3.79772 97.5512 3.81603 97.5527C3.85953 97.5595 3.90124 97.575 3.93868 97.5982C3.97612 97.6213 4.00854 97.6518 4.03403 97.6877C4.06194 97.7259 4.08205 97.7692 4.09321 97.8152C4.10436 97.8612 4.10634 97.9089 4.09903 97.9557C3.98803 98.5347 3.88703 99.1087 3.78903 99.6637L3.72703 100.016C3.71548 100.099 3.67413 100.176 3.61057 100.232C3.54701 100.287 3.46551 100.318 3.38103 100.319ZM49.7 98.7187C49.6742 98.7212 49.6482 98.7163 49.625 98.7047C49.5346 98.6839 49.4559 98.6285 49.4058 98.5503C49.3557 98.4722 49.3382 98.3776 49.357 98.2867C49.511 97.6387 49.669 96.8917 49.804 96.2427C49.819 96.1646 49.8606 96.0942 49.9217 96.0434C49.9828 95.9925 50.0596 95.9643 50.139 95.9637C50.1663 95.9636 50.1935 95.9666 50.22 95.9727C50.2656 95.9816 50.309 95.9997 50.3474 96.0259C50.3858 96.0521 50.4185 96.0857 50.4436 96.1249C50.4686 96.1641 50.4855 96.2079 50.4931 96.2537C50.5008 96.2996 50.499 96.3465 50.488 96.3917C50.344 97.1007 50.194 97.7917 50.042 98.4507C50.0193 98.525 49.9745 98.5906 49.9136 98.6388C49.8527 98.687 49.7785 98.7156 49.701 98.7207L49.7 98.7187ZM39.484 97.5527C39.4123 97.5531 39.3423 97.5307 39.2842 97.4886C39.2261 97.4465 39.1829 97.387 39.161 97.3187L39.061 97.0017C38.895 96.4667 38.722 95.9137 38.548 95.3017C38.5192 95.2202 38.5239 95.1307 38.561 95.0527C38.5835 95.0098 38.6144 94.9718 38.6518 94.941C38.6893 94.9103 38.7325 94.8874 38.779 94.8737C38.814 94.8627 38.8504 94.8569 38.887 94.8567C38.9614 94.8582 39.0333 94.8839 39.0918 94.9299C39.1502 94.9759 39.1921 95.0397 39.211 95.1117C39.335 95.5117 39.449 95.8867 39.56 96.2527V96.2617V96.2697C39.647 96.5577 39.732 96.8377 39.816 97.1117C39.8437 97.1987 39.8358 97.2931 39.794 97.3743C39.7522 97.4554 39.6799 97.5167 39.593 97.5447C39.5574 97.5536 39.5205 97.5563 39.484 97.5527ZM4.12603 96.1987H4.06603C4.02252 96.1919 3.98082 96.1764 3.94338 96.1532C3.90594 96.13 3.87352 96.0996 3.84803 96.0637C3.82011 96.0255 3.8 95.9821 3.78885 95.9362C3.7777 95.8902 3.77572 95.8424 3.78303 95.7957C3.91503 95.1347 4.05003 94.4417 4.18303 93.7367C4.19828 93.6587 4.24009 93.5883 4.30135 93.5376C4.3626 93.487 4.43952 93.4591 4.51903 93.4587C4.54595 93.4587 4.57278 93.4617 4.59903 93.4677C4.64458 93.4768 4.68782 93.4949 4.72618 93.5211C4.76453 93.5473 4.7972 93.581 4.82222 93.6201C4.84725 93.6593 4.86412 93.703 4.87181 93.7488C4.87951 93.7946 4.87789 93.8415 4.86703 93.8867L4.66103 94.9727L4.47103 95.9447C4.44874 96.0187 4.40307 96.0834 4.34086 96.1292C4.27866 96.175 4.20327 96.1994 4.12603 96.1987ZM50.561 94.6167H50.486C50.441 94.6099 50.398 94.5936 50.3597 94.569C50.3214 94.5443 50.2888 94.5119 50.264 94.4737C50.2387 94.4359 50.2215 94.3933 50.2136 94.3485C50.2057 94.3038 50.2072 94.2578 50.218 94.2137C50.309 93.7687 50.391 93.3137 50.479 92.8387C50.5204 92.6134 50.5624 92.385 50.605 92.1537C50.6195 92.0724 50.6622 91.9988 50.7258 91.9461C50.7893 91.8934 50.8695 91.8649 50.952 91.8657C51.0054 91.8658 51.0579 91.8785 51.1054 91.9028C51.1528 91.9272 51.1938 91.9624 51.225 92.0057C51.2529 92.0439 51.2731 92.0872 51.2842 92.1332C51.2954 92.1792 51.2973 92.2269 51.29 92.2737C51.227 92.6077 51.165 92.9387 51.104 93.2617V93.2847L51.097 93.3197C51.031 93.6687 50.967 94.0087 50.906 94.3327C50.8886 94.4118 50.8451 94.4828 50.7826 94.5343C50.72 94.5858 50.642 94.6148 50.561 94.6167ZM38.277 93.5417C38.2024 93.5399 38.1303 93.5142 38.0713 93.4685C38.0123 93.4228 37.9695 93.3595 37.949 93.2877C37.757 92.6357 37.561 91.9587 37.368 91.2737C37.3437 91.1847 37.3549 91.0898 37.3993 91.009C37.4438 90.9282 37.5179 90.8678 37.606 90.8407C37.6335 90.8339 37.6617 90.8306 37.69 90.8307C37.7665 90.8311 37.841 90.8553 37.9032 90.8999C37.9654 90.9445 38.0121 91.0073 38.037 91.0797C38.237 91.7797 38.431 92.4587 38.618 93.0947C38.6421 93.1836 38.6308 93.2785 38.5864 93.3592C38.542 93.44 38.468 93.5004 38.38 93.5277C38.3472 93.5402 38.312 93.545 38.277 93.5417ZM4.96103 92.0947C4.93509 92.0973 4.90898 92.092 4.88603 92.0797C4.84 92.0697 4.79642 92.0507 4.7578 92.0237C4.71917 91.9968 4.68628 91.9624 4.66103 91.9227C4.63706 91.8841 4.621 91.8412 4.61379 91.7964C4.60658 91.7516 4.60836 91.7058 4.61903 91.6617C4.77703 90.9297 4.91903 90.2707 5.06503 89.6167C5.08252 89.5372 5.12731 89.4664 5.19162 89.4165C5.25593 89.3666 5.33569 89.3409 5.41703 89.3437C5.43866 89.342 5.46039 89.342 5.48203 89.3437C5.57375 89.3636 5.65409 89.4185 5.70603 89.4967C5.73115 89.5355 5.74809 89.579 5.75583 89.6246C5.76356 89.6701 5.76193 89.7168 5.75103 89.7617C5.62203 90.3467 5.48003 90.9967 5.30503 91.8067C5.29032 91.8873 5.24788 91.9602 5.18505 92.0128C5.12222 92.0654 5.04297 92.0944 4.96103 92.0947ZM51.324 90.4827H51.261C51.216 90.4753 51.1729 90.4591 51.1342 90.4349C51.0955 90.4108 51.062 90.3792 51.0355 90.342C51.0091 90.3048 50.9904 90.2627 50.9803 90.2182C50.9703 90.1737 50.9692 90.1276 50.977 90.0827C51.11 89.3307 51.227 88.6567 51.334 88.0237C51.3462 87.9419 51.388 87.8675 51.4514 87.8144C51.5147 87.7613 51.5954 87.7333 51.678 87.7357C51.6977 87.7342 51.7174 87.7342 51.737 87.7357C51.7806 87.7421 51.8225 87.757 51.8602 87.7797C51.898 87.8023 51.9309 87.8322 51.957 87.8677C51.9848 87.9065 52.0046 87.9504 52.0152 87.997C52.0259 88.0435 52.0272 88.0917 52.019 88.1387C51.892 88.8857 51.775 89.5597 51.662 90.1977C51.6469 90.2767 51.6051 90.3482 51.5435 90.4001C51.482 90.452 51.4045 90.4811 51.324 90.4827ZM37.145 89.5127C37.0699 89.5128 36.9969 89.4879 36.9375 89.4419C36.8781 89.3959 36.8357 89.3315 36.817 89.2587L36.252 87.2447C36.2311 87.1559 36.2439 87.0624 36.2879 86.9825C36.3318 86.9025 36.4038 86.8417 36.49 86.8117C36.5178 86.8049 36.5464 86.8015 36.575 86.8017C36.6515 86.8021 36.726 86.8263 36.7882 86.8709C36.8504 86.9155 36.8971 86.9783 36.922 87.0507L37.488 89.0657C37.5084 89.1546 37.4953 89.2479 37.4512 89.3278C37.4071 89.4077 37.3351 89.4685 37.249 89.4987C37.2281 89.499 37.2073 89.5017 37.187 89.5067C37.1736 89.5101 37.1599 89.5121 37.146 89.5127H37.145ZM5.88303 88.0067C5.85704 88.0107 5.83046 88.0054 5.80803 87.9917C5.76408 87.9818 5.72258 87.9631 5.68598 87.9368C5.64939 87.9105 5.61846 87.8772 5.59503 87.8387C5.57118 87.7994 5.55536 87.7557 5.54849 87.7102C5.54163 87.6647 5.54385 87.6183 5.55503 87.5737C5.73603 86.7987 5.89703 86.1307 6.04603 85.5287C6.05645 85.4844 6.07559 85.4426 6.10234 85.4057C6.12908 85.3689 6.16289 85.3377 6.2018 85.3141C6.24071 85.2905 6.28393 85.2748 6.32895 85.268C6.37397 85.2613 6.41989 85.2635 6.46403 85.2747C6.50798 85.2846 6.54948 85.3033 6.58607 85.3296C6.62266 85.3558 6.6536 85.3892 6.67703 85.4277C6.70088 85.467 6.7167 85.5107 6.72356 85.5562C6.73043 85.6017 6.72821 85.6481 6.71703 85.6927C6.55803 86.3327 6.39603 87.0097 6.23903 87.6657L6.22503 87.7227C6.20519 87.8 6.16145 87.8691 6.10004 87.9201C6.03863 87.9711 5.96268 88.0014 5.88303 88.0067ZM52.039 86.3647H51.98C51.9351 86.3572 51.892 86.3409 51.8534 86.3167C51.8147 86.2925 51.7813 86.2609 51.7549 86.2237C51.7285 86.1866 51.7097 86.1445 51.6996 86.1001C51.6895 86.0556 51.6883 86.0096 51.696 85.9647C51.757 85.6137 51.815 85.2567 51.872 84.9107C51.926 84.5807 51.981 84.2407 52.039 83.9047C52.0512 83.8228 52.0929 83.7483 52.1563 83.695C52.2196 83.6418 52.3003 83.6136 52.383 83.6157C52.4027 83.6142 52.4224 83.6142 52.442 83.6157C52.4869 83.6233 52.5298 83.6397 52.5684 83.664C52.6069 83.6882 52.6402 83.7198 52.6665 83.757C52.6928 83.7941 52.7115 83.8361 52.7216 83.8805C52.7316 83.9249 52.7328 83.9708 52.725 84.0157C52.67 84.3377 52.617 84.6687 52.57 84.9607C52.51 85.3327 52.448 85.7147 52.383 86.0897C52.3627 86.1663 52.3183 86.2344 52.2564 86.284C52.1945 86.3335 52.1183 86.3618 52.039 86.3647ZM36.014 85.4647C35.9388 85.4652 35.8656 85.4404 35.8061 85.3944C35.7467 85.3483 35.7044 85.2836 35.686 85.2107L35.663 85.1307C35.479 84.4937 35.291 83.8387 35.12 83.1957C35.0959 83.1068 35.1073 83.0119 35.1517 82.9312C35.1961 82.8504 35.27 82.79 35.358 82.7627C35.3887 82.7526 35.4208 82.7475 35.453 82.7477C35.5284 82.751 35.6011 82.7771 35.6613 82.8227C35.7214 82.8682 35.7664 82.931 35.79 83.0027L36.08 84.0097L36.37 85.0167C36.3944 85.1056 36.3831 85.2006 36.3387 85.2814C36.2943 85.3622 36.2202 85.4226 36.132 85.4497C36.0939 85.4621 36.0541 85.4689 36.014 85.4697V85.4647ZM6.88103 83.9317C6.85058 83.9341 6.82 83.929 6.79203 83.9167C6.70179 83.8916 6.62484 83.8324 6.57745 83.7516C6.53005 83.6708 6.51591 83.5747 6.53803 83.4837C6.66203 83.0067 6.79403 82.5277 6.92203 82.0647L6.92903 82.0377C6.98303 81.841 7.03636 81.6464 7.08903 81.4537C7.10071 81.4092 7.12132 81.3675 7.1496 81.3311C7.17788 81.2948 7.21324 81.2646 7.25354 81.2424C7.29384 81.2201 7.33824 81.2063 7.38405 81.2017C7.42986 81.1971 7.47612 81.2019 7.52003 81.2157C7.56399 81.2272 7.60516 81.2475 7.64108 81.2753C7.677 81.3032 7.70691 81.338 7.72903 81.3777C7.75318 81.4188 7.7685 81.4645 7.77401 81.5118C7.77952 81.5592 7.7751 81.6071 7.76103 81.6527C7.68903 81.9177 7.61503 82.1867 7.54003 82.4587V82.4707C7.43203 82.8637 7.31903 83.2707 7.21403 83.6707C7.1994 83.7471 7.15762 83.8156 7.09641 83.8636C7.0352 83.9115 6.95869 83.9357 6.88103 83.9317ZM52.723 82.2157H52.661C52.6161 82.2082 52.5731 82.1919 52.5345 82.1677C52.4959 82.1435 52.4625 82.1118 52.4362 82.0747C52.4099 82.0375 52.3912 81.9954 52.3812 81.951C52.3712 81.9065 52.3701 81.8606 52.378 81.8157C52.426 81.5027 52.478 81.1827 52.527 80.8737V80.8627C52.586 80.4967 52.648 80.1177 52.704 79.7387C52.7162 79.6571 52.7578 79.5828 52.821 79.5297C52.8842 79.4767 52.9646 79.4486 53.047 79.4507C53.0667 79.4492 53.0864 79.4492 53.106 79.4507C53.151 79.4582 53.194 79.4745 53.2326 79.4987C53.2711 79.5229 53.3046 79.5545 53.3309 79.5917C53.3572 79.6289 53.3759 79.6709 53.3858 79.7154C53.3958 79.7598 53.3969 79.8058 53.389 79.8507C53.27 80.5507 53.165 81.2507 53.062 81.9207C53.0486 82.0014 53.0076 82.075 52.9459 82.1288C52.8843 82.1826 52.8058 82.2133 52.724 82.2157H52.723ZM34.851 81.4397C34.7764 81.4379 34.7043 81.4122 34.6453 81.3665C34.5863 81.3208 34.5435 81.2575 34.523 81.1857L34.349 80.6007L34.342 80.5787C34.2 80.0997 34.063 79.6387 33.926 79.1857C33.8983 79.0987 33.9063 79.0043 33.9481 78.9231C33.9899 78.842 34.0621 78.7807 34.149 78.7527C34.1813 78.7418 34.215 78.7361 34.249 78.7357C34.3218 78.7369 34.3924 78.7606 34.4512 78.8036C34.5099 78.8465 34.5539 78.9067 34.577 78.9757C34.706 79.4047 34.836 79.8407 34.969 80.2917L34.974 80.3097L34.98 80.3297L35.172 80.9757C35.1858 81.0173 35.191 81.0612 35.1874 81.1048C35.1838 81.1485 35.1714 81.1909 35.151 81.2297C35.1286 81.2726 35.0977 81.3106 35.0602 81.3414C35.0228 81.3721 34.9795 81.395 34.933 81.4087C34.926 81.4397 34.878 81.4397 34.852 81.4397H34.851ZM8.01403 79.8877C7.98006 79.8888 7.94617 79.8837 7.91403 79.8727C7.82805 79.8427 7.75618 79.782 7.71225 79.7023C7.66831 79.6226 7.65541 79.5294 7.67603 79.4407C7.89803 78.7117 8.10203 78.0517 8.30103 77.4257C8.32406 77.3563 8.36812 77.2959 8.42707 77.2527C8.48602 77.2095 8.55696 77.1857 8.63003 77.1847C8.66404 77.1851 8.69778 77.1909 8.73003 77.2017C8.81677 77.2299 8.88886 77.2912 8.93062 77.3723C8.97238 77.4534 8.98043 77.5477 8.95303 77.6347C8.71903 78.3547 8.51903 79.0087 8.34303 79.6347C8.32701 79.709 8.28516 79.7752 8.22492 79.8215C8.16467 79.8678 8.08994 79.8913 8.01403 79.8877ZM53.379 78.0827H53.32C53.2752 78.0751 53.2322 78.0587 53.1937 78.0344C53.1552 78.0102 53.1218 77.9786 53.0955 77.9414C53.0692 77.9043 53.0505 77.8623 53.0405 77.8179C53.0305 77.7735 53.0293 77.7275 53.037 77.6827L53.365 75.6087C53.3702 75.5627 53.385 75.5183 53.4086 75.4784C53.4321 75.4385 53.4637 75.404 53.5015 75.3772C53.5393 75.3504 53.5822 75.3319 53.6277 75.3228C53.6731 75.3138 53.7199 75.3144 53.765 75.3247C53.81 75.3322 53.853 75.3485 53.8916 75.3727C53.9301 75.3969 53.9636 75.4285 53.9899 75.4657C54.0162 75.5029 54.0349 75.5449 54.0448 75.5894C54.0548 75.6338 54.0559 75.6798 54.048 75.7247L53.72 77.7997C53.7082 77.8806 53.6668 77.9542 53.6038 78.0063C53.5408 78.0584 53.4607 78.0853 53.379 78.0817V78.0827ZM33.63 77.4407C33.5567 77.4424 33.4848 77.4199 33.4256 77.3767C33.3663 77.3335 33.3229 77.272 33.302 77.2017C33.074 76.5017 32.844 75.8097 32.647 75.2167C32.6183 75.1277 32.6256 75.031 32.6672 74.9473C32.7089 74.8635 32.7817 74.7994 32.87 74.7687C32.9058 74.7568 32.9433 74.7507 32.981 74.7507C33.055 74.7521 33.1268 74.776 33.1868 74.8193C33.2468 74.8625 33.2922 74.923 33.317 74.9927L33.36 75.1227C33.56 75.7227 33.76 76.3417 33.972 76.9927C33.9997 77.0798 33.9916 77.1743 33.9496 77.2555C33.9076 77.3367 33.8351 77.3979 33.748 77.4257C33.7241 77.4265 33.7004 77.4295 33.677 77.4347C33.6615 77.438 33.6458 77.44 33.63 77.4407ZM99.73 77.2307C99.6466 77.2296 99.5663 77.1988 99.5036 77.1438C99.4409 77.0888 99.3999 77.0132 99.388 76.9307C99.3752 76.8379 99.3995 76.7438 99.4557 76.6689C99.5118 76.594 99.5954 76.5443 99.688 76.5307C100.293 76.4199 100.843 76.1102 101.251 75.6507C101.316 75.5863 101.405 75.5502 101.497 75.5502C101.588 75.5502 101.677 75.5863 101.742 75.6507C101.806 75.7166 101.842 75.8048 101.842 75.8967C101.842 75.9886 101.806 76.0768 101.742 76.1427C101.23 76.7082 100.544 77.0865 99.792 77.2177C99.7723 77.228 99.7502 77.2325 99.728 77.2307H99.73ZM97.809 76.7237C97.7332 76.7215 97.66 76.6953 97.6 76.6487C97.0317 76.1854 96.5566 75.6184 96.2 74.9777C96.1762 74.9385 96.1604 74.895 96.1535 74.8497C96.1466 74.8043 96.1488 74.7581 96.16 74.7136C96.1712 74.6691 96.1911 74.6273 96.2186 74.5906C96.246 74.5539 96.2805 74.523 96.32 74.4997C96.3725 74.466 96.4336 74.4479 96.496 74.4477C96.5565 74.4484 96.6159 74.4646 96.6684 74.4947C96.7209 74.5248 96.7648 74.5678 96.796 74.6197C97.1195 75.1844 97.538 75.6892 98.033 76.1117C98.1048 76.17 98.1512 76.2539 98.1622 76.3457C98.1732 76.4376 98.148 76.5301 98.092 76.6037C98.0549 76.6416 98.0105 76.6717 97.9616 76.6923C97.9127 76.7129 97.8601 76.7236 97.807 76.7237H97.809ZM9.29403 75.9027C9.25344 75.9053 9.21273 75.9002 9.17403 75.8877C9.13005 75.8734 9.0895 75.8502 9.05488 75.8195C9.02026 75.7888 8.99233 75.7514 8.97282 75.7094C8.95331 75.6675 8.94264 75.622 8.94147 75.5758C8.9403 75.5295 8.94866 75.4836 8.96603 75.4407C9.19403 74.7947 9.43803 74.1087 9.68103 73.4557C9.70796 73.389 9.75408 73.3319 9.81355 73.2915C9.87301 73.251 9.94313 73.2292 10.015 73.2287C10.0531 73.2286 10.0909 73.2347 10.127 73.2467C10.2123 73.2808 10.2814 73.3461 10.3202 73.4293C10.3591 73.5125 10.3647 73.6074 10.336 73.6947C10.105 74.3007 9.87003 74.9637 9.63603 75.6637C9.61028 75.7337 9.56369 75.7941 9.50254 75.8369C9.4414 75.8796 9.36863 75.9026 9.29403 75.9027ZM102.661 74.5447C102.603 74.5439 102.546 74.5284 102.496 74.4997C102.416 74.4569 102.356 74.3846 102.328 74.2982C102.301 74.2118 102.308 74.118 102.348 74.0367C102.656 73.4298 102.92 72.8015 103.137 72.1567C103.16 72.0887 103.204 72.0297 103.263 71.9878C103.321 71.9459 103.391 71.9231 103.463 71.9227C103.505 71.9227 103.546 71.9308 103.584 71.9467C103.628 71.9625 103.669 71.9871 103.703 72.0191C103.738 72.051 103.765 72.0897 103.784 72.1327C103.803 72.1737 103.814 72.2183 103.815 72.2636C103.816 72.3088 103.807 72.3538 103.79 72.3957C103.564 73.0731 103.285 73.7317 102.956 74.3657C102.926 74.4182 102.883 74.4621 102.832 74.4934C102.78 74.5248 102.721 74.5424 102.661 74.5447ZM54.047 73.9447H53.988C53.9429 73.938 53.8997 73.9221 53.861 73.898C53.8223 73.874 53.789 73.8422 53.763 73.8047C53.7106 73.7277 53.6898 73.6336 53.705 73.5417C53.753 73.2227 53.805 72.8987 53.857 72.5847V72.5777C53.916 72.2157 53.977 71.8407 54.032 71.4667C54.044 71.3852 54.0854 71.3109 54.1484 71.2578C54.2114 71.2047 54.2917 71.1766 54.374 71.1787C54.3937 71.1772 54.4134 71.1772 54.433 71.1787C54.4781 71.1854 54.5213 71.2013 54.5601 71.2253C54.5988 71.2494 54.6321 71.2812 54.658 71.3187C54.7105 71.3956 54.7312 71.4898 54.716 71.5817C54.663 71.9297 54.606 72.2817 54.551 72.6257C54.496 72.9697 54.44 73.3147 54.388 73.6567C54.3741 73.7369 54.3328 73.8097 54.2712 73.8628C54.2095 73.9159 54.1314 73.9459 54.05 73.9477L54.047 73.9447ZM32.272 73.4677C32.2009 73.4688 32.1312 73.4479 32.0724 73.4078C32.0137 73.3677 31.9688 73.3104 31.944 73.2437C31.734 72.6517 31.514 72.0747 31.301 71.5167L31.214 71.2887C31.1953 71.2454 31.1857 71.1988 31.1857 71.1517C31.1857 71.1046 31.1953 71.0579 31.214 71.0147C31.2317 70.9742 31.2577 70.9378 31.2902 70.9078C31.3228 70.8779 31.3612 70.855 31.403 70.8407C31.4449 70.8233 31.4897 70.8145 31.535 70.8147C31.6043 70.8136 31.6721 70.8344 31.7288 70.874C31.7855 70.9137 31.8283 70.9703 31.851 71.0357L31.991 71.4027C32.191 71.9197 32.391 72.4527 32.591 73.0027C32.6213 73.0896 32.6165 73.1849 32.5776 73.2684C32.5388 73.3518 32.469 73.4168 32.383 73.4497C32.3669 73.4503 32.3508 73.4523 32.335 73.4557C32.3155 73.4623 32.2954 73.4673 32.275 73.4707L32.272 73.4677ZM95.526 73.2737C95.4586 73.2759 95.3921 73.257 95.3359 73.2195C95.2798 73.182 95.2368 73.1279 95.213 73.0647C94.935 72.4237 94.674 71.7647 94.439 71.0947C94.4088 71.0078 94.4136 70.9125 94.4524 70.829C94.4912 70.7456 94.5611 70.6805 94.647 70.6477C94.6841 70.6351 94.7229 70.6287 94.762 70.6287C94.8342 70.6269 94.9051 70.6479 94.9647 70.6886C95.0242 70.7294 95.0695 70.7878 95.094 70.8557C95.343 71.5627 95.599 72.2097 95.854 72.7807C95.8727 72.8228 95.8828 72.8683 95.8839 72.9143C95.885 72.9604 95.877 73.0063 95.8604 73.0493C95.8438 73.0923 95.8189 73.1316 95.7871 73.1649C95.7552 73.1983 95.7172 73.225 95.675 73.2437C95.6304 73.268 95.5797 73.2791 95.529 73.2757L95.526 73.2737ZM10.751 71.9737C10.705 71.9707 10.6597 71.9603 10.617 71.9427C10.5719 71.9246 10.5309 71.8975 10.4966 71.8632C10.4622 71.8288 10.4351 71.7878 10.417 71.7427C10.4002 71.7035 10.3916 71.6613 10.3916 71.6187C10.3916 71.5761 10.4002 71.5339 10.417 71.4947C10.691 70.8087 10.98 70.1567 11.251 69.5547C11.2792 69.4921 11.3255 69.4393 11.384 69.4033C11.4425 69.3673 11.5104 69.3497 11.579 69.3527C11.6278 69.3528 11.6761 69.3627 11.721 69.3817C11.806 69.4196 11.8725 69.4895 11.906 69.5763C11.9396 69.663 11.9374 69.7595 11.9 69.8447L11.827 70.0117C11.58 70.5757 11.327 71.1577 11.081 71.7547C11.0526 71.8186 11.007 71.8733 10.9492 71.9127C10.8915 71.9521 10.8239 71.9746 10.754 71.9777L10.751 71.9737ZM104.075 70.6007C104.044 70.6032 104.013 70.598 103.985 70.5857C103.895 70.5599 103.819 70.5007 103.772 70.4203C103.725 70.3399 103.711 70.2444 103.732 70.1537C103.932 69.4057 104.079 68.7607 104.209 68.1237C104.224 68.0457 104.266 67.9754 104.327 67.9247C104.388 67.874 104.465 67.8461 104.544 67.8457C104.571 67.8456 104.598 67.8486 104.625 67.8547C104.671 67.8637 104.714 67.8817 104.752 67.9078C104.79 67.9339 104.823 67.9675 104.848 68.0065C104.873 68.0456 104.89 68.0893 104.898 68.135C104.906 68.1808 104.904 68.2276 104.893 68.2727C104.73 69.0017 104.565 69.6947 104.402 70.3327C104.388 70.4085 104.348 70.4769 104.289 70.5265C104.23 70.5761 104.155 70.6037 104.078 70.6047L104.075 70.6007ZM54.702 69.8097H54.643C54.598 69.8023 54.555 69.7861 54.5163 69.7619C54.4776 69.7377 54.4442 69.7061 54.4178 69.6689C54.3915 69.6317 54.3728 69.5896 54.3629 69.5451C54.353 69.5006 54.352 69.4546 54.36 69.4097C54.446 68.8417 54.54 68.2867 54.64 67.6987L54.702 67.3357C54.714 67.2542 54.7554 67.1799 54.8184 67.1268C54.8814 67.0737 54.9617 67.0456 55.044 67.0477C55.064 67.0461 55.0841 67.0461 55.104 67.0477C55.1477 67.0542 55.1896 67.0693 55.2274 67.0921C55.2651 67.1149 55.298 67.1451 55.324 67.1807C55.3518 67.2193 55.3716 67.2631 55.3822 67.3095C55.3928 67.3558 55.3941 67.4038 55.386 67.4507C55.321 67.8247 55.26 68.2057 55.2 68.5737V68.5867C55.15 68.8927 55.1 69.2097 55.046 69.5247C55.0341 69.6061 54.9929 69.6804 54.9301 69.7336C54.8673 69.7868 54.7873 69.8153 54.705 69.8137L54.702 69.8097ZM30.741 69.5747C30.6736 69.5769 30.6071 69.558 30.5509 69.5205C30.4948 69.483 30.4518 69.4289 30.428 69.3657C30.115 68.6377 29.785 67.9347 29.564 67.4657C29.5423 67.4235 29.5296 67.3773 29.5267 67.33C29.5238 67.2826 29.5307 67.2352 29.547 67.1907C29.5624 67.1486 29.5863 67.1102 29.6173 67.0778C29.6483 67.0455 29.6857 67.0199 29.727 67.0027C29.776 66.9778 29.8301 66.9648 29.885 66.9647C29.9492 66.9648 30.0118 66.9839 30.0652 67.0194C30.1186 67.055 30.1602 67.1055 30.185 67.1647C30.473 67.7427 30.769 68.3907 31.064 69.0897C31.1014 69.1749 31.1036 69.2714 31.07 69.3581C31.0365 69.4449 30.97 69.5148 30.885 69.5527C30.8565 69.553 30.8281 69.5557 30.8 69.5607C30.7807 69.5668 30.761 69.5715 30.741 69.5747ZM94.114 69.3357C94.0387 69.3367 93.9652 69.3121 93.9056 69.266C93.8461 69.2199 93.8039 69.1549 93.786 69.0817C93.61 68.5127 93.425 67.8677 93.205 67.0527C93.1846 66.9638 93.1978 66.8704 93.2419 66.7906C93.2859 66.7107 93.3579 66.6498 93.444 66.6197C93.4718 66.6129 93.5004 66.6095 93.529 66.6097C93.6055 66.6101 93.68 66.6343 93.7422 66.6789C93.8044 66.7235 93.8511 66.7863 93.876 66.8587C94.076 67.6147 94.27 68.2687 94.456 68.8587C94.4701 68.9014 94.4755 68.9466 94.4717 68.9914C94.4679 69.0363 94.4551 69.0799 94.434 69.1197C94.3923 69.2009 94.3206 69.2626 94.234 69.2917C94.218 69.3067 94.1991 69.3184 94.1785 69.3262C94.1579 69.3339 94.136 69.3375 94.114 69.3367V69.3357ZM12.481 68.1527C12.4234 68.1518 12.367 68.1363 12.317 68.1077C12.238 68.0641 12.1779 67.9929 12.148 67.9077C12.1333 67.8654 12.1275 67.8206 12.1311 67.776C12.1348 67.7314 12.1477 67.688 12.169 67.6487C12.501 66.9827 12.842 66.3597 13.182 65.7987C13.2134 65.747 13.2573 65.704 13.3098 65.6739C13.3623 65.6439 13.4215 65.6276 13.482 65.6267C13.5444 65.6269 13.6055 65.645 13.658 65.6787C13.6976 65.7019 13.7322 65.7327 13.7598 65.7694C13.7873 65.8061 13.8073 65.848 13.8184 65.8925C13.8296 65.937 13.8318 65.9833 13.8249 66.0287C13.8179 66.074 13.802 66.1176 13.778 66.1567C13.378 66.8567 13.059 67.4307 12.778 67.9777C12.7525 68.0339 12.7103 68.0808 12.6572 68.1121C12.604 68.1434 12.5425 68.1576 12.481 68.1527ZM104.971 66.5107H104.911C104.866 66.5036 104.823 66.4875 104.784 66.4634C104.745 66.4393 104.712 66.4077 104.685 66.3704C104.659 66.3331 104.64 66.2909 104.63 66.2463C104.62 66.2017 104.62 66.1556 104.628 66.1107C104.705 65.6927 104.776 65.2557 104.85 64.7937V64.7887C104.889 64.5457 104.929 64.2997 104.97 64.0517C104.982 63.9683 105.024 63.8921 105.088 63.8371C105.152 63.782 105.234 63.7517 105.318 63.7517C105.336 63.7503 105.354 63.7503 105.372 63.7517C105.463 63.7679 105.545 63.8182 105.601 63.8925C105.657 63.9667 105.682 64.0594 105.672 64.1517C105.638 64.3617 105.605 64.5687 105.572 64.7727V64.7817C105.491 65.2897 105.415 65.7707 105.331 66.2257C105.311 66.3066 105.265 66.3787 105.2 66.431C105.135 66.4834 105.055 66.5131 104.972 66.5157L104.971 66.5107ZM28.894 65.8107C28.8322 65.8122 28.7713 65.7961 28.7182 65.7645C28.6651 65.7328 28.6221 65.6868 28.594 65.6317C28.239 65.0107 27.863 64.4067 27.507 63.8857C27.4806 63.8489 27.4619 63.8071 27.4521 63.7628C27.4422 63.7186 27.4414 63.6728 27.4497 63.6282C27.458 63.5836 27.4753 63.5412 27.5004 63.5035C27.5256 63.4658 27.5581 63.4335 27.596 63.4087C27.6556 63.37 27.725 63.3488 27.796 63.3477C27.8506 63.3471 27.9044 63.3606 27.9522 63.3868C28 63.4131 28.0403 63.4513 28.069 63.4977C28.469 64.0837 28.83 64.6747 29.187 65.3037C29.229 65.3854 29.2386 65.48 29.2137 65.5685C29.1889 65.657 29.1315 65.7328 29.053 65.7807C29.0024 65.7997 28.9491 65.8109 28.895 65.8137L28.894 65.8107ZM55.394 65.6767H55.335C55.2901 65.6692 55.2471 65.6529 55.2085 65.6287C55.1699 65.6045 55.1365 65.5728 55.1102 65.5357C55.0839 65.4985 55.0652 65.4564 55.0552 65.412C55.0452 65.3675 55.0441 65.3216 55.052 65.2767C55.117 64.9027 55.179 64.5207 55.238 64.1507V64.1427C55.288 63.8347 55.338 63.5177 55.392 63.2017C55.4046 63.1201 55.4465 63.0459 55.5098 62.9929C55.5731 62.9399 55.6535 62.9118 55.736 62.9137C55.7557 62.9122 55.7754 62.9122 55.795 62.9137C55.84 62.9212 55.883 62.9375 55.9217 62.9617C55.9603 62.9859 55.9938 63.0175 56.0202 63.0547C56.0466 63.0918 56.0653 63.1339 56.0754 63.1783C56.0855 63.2228 56.0868 63.2688 56.079 63.3137C55.951 64.0467 55.837 64.7087 55.736 65.3877C55.7221 65.4694 55.6797 65.5435 55.6164 65.5969C55.5531 65.6504 55.4729 65.6797 55.39 65.6797L55.394 65.6767ZM93.001 65.2887C92.9225 65.2867 92.8467 65.2595 92.785 65.211C92.7232 65.1626 92.6787 65.0955 92.658 65.0197C92.558 64.6457 92.469 64.2627 92.369 63.8577V63.8507C92.299 63.5647 92.227 63.273 92.153 62.9757C92.1316 62.8865 92.1462 62.7924 92.1938 62.7139C92.2414 62.6354 92.318 62.5789 92.407 62.5567C92.4336 62.5507 92.4608 62.5477 92.488 62.5477C92.5654 62.5477 92.6405 62.5736 92.7014 62.6212C92.7623 62.6689 92.8055 62.7356 92.824 62.8107C92.991 63.5417 93.179 64.2617 93.331 64.8397C93.3419 64.8846 93.3438 64.9312 93.3365 64.9769C93.3293 65.0225 93.3132 65.0663 93.289 65.1057C93.2657 65.1441 93.2349 65.1774 93.1985 65.2037C93.1621 65.2299 93.1208 65.2486 93.077 65.2587C93.061 65.2917 93.028 65.2917 92.997 65.2917L93.001 65.2887ZM14.615 64.5567C14.5455 64.5601 14.4769 64.5393 14.421 64.4977C14.3823 64.4728 14.3494 64.4399 14.3244 64.4013C14.2994 64.3627 14.2829 64.3192 14.276 64.2737C14.2615 64.1805 14.2814 64.0853 14.332 64.0057C14.7343 63.4226 15.1718 62.8645 15.642 62.3347C15.6744 62.297 15.7144 62.2666 15.7594 62.2456C15.8044 62.2246 15.8534 62.2133 15.903 62.2127C15.9888 62.2133 16.0713 62.2461 16.134 62.3047C16.1696 62.3342 16.1987 62.3707 16.2196 62.4119C16.2405 62.4531 16.2527 62.4981 16.2555 62.5442C16.2583 62.5903 16.2517 62.6365 16.2359 62.6799C16.2202 62.7233 16.1957 62.7631 16.164 62.7967C15.754 63.2647 15.328 63.8077 14.898 64.4087C14.8654 64.4545 14.8226 64.4921 14.773 64.5185C14.7233 64.5448 14.6682 64.5593 14.612 64.5607L14.615 64.5567ZM26.515 62.3777C26.4668 62.3771 26.4193 62.3661 26.3756 62.3456C26.332 62.3251 26.2933 62.2954 26.262 62.2587C25.8165 61.7583 25.3224 61.3034 24.787 60.9007C24.7129 60.8446 24.6637 60.7618 24.6497 60.6699C24.6357 60.578 24.658 60.4843 24.712 60.4087C24.746 60.3648 24.7895 60.3291 24.8392 60.3044C24.8889 60.2796 24.9435 60.2664 24.999 60.2657C25.0712 60.267 25.1411 60.2907 25.199 60.3337C25.7754 60.7584 26.3047 61.2435 26.778 61.7807C26.8097 61.8143 26.8342 61.854 26.8499 61.8975C26.8657 61.9409 26.8723 61.9871 26.8695 62.0332C26.8667 62.0793 26.8545 62.1243 26.8336 62.1655C26.8127 62.2067 26.7836 62.2432 26.748 62.2727C26.6865 62.3388 26.6013 62.378 26.511 62.3817L26.515 62.3777ZM105.615 62.3637H105.57C105.523 62.3564 105.477 62.3399 105.437 62.315C105.396 62.2901 105.36 62.2574 105.332 62.2187C105.306 62.1842 105.288 62.1449 105.278 62.1032C105.268 62.0614 105.266 62.0181 105.273 61.9757C105.358 61.3487 105.449 60.6647 105.54 59.9017C105.55 59.8196 105.589 59.7438 105.651 59.6886C105.713 59.6334 105.792 59.6025 105.875 59.6017C105.893 59.6004 105.91 59.6004 105.928 59.6017C106.021 59.6142 106.105 59.6623 106.163 59.7357C106.19 59.7715 106.21 59.8125 106.221 59.8562C106.232 59.8999 106.233 59.9453 106.226 59.9897C106.135 60.7427 106.045 61.4217 105.958 62.0777C105.941 62.1577 105.897 62.2297 105.834 62.2821C105.772 62.3345 105.693 62.3643 105.611 62.3667L105.615 62.3637ZM56.093 61.5277H56.034C55.989 61.5203 55.946 61.5041 55.9073 61.4799C55.8686 61.4557 55.8352 61.4241 55.8088 61.3869C55.7825 61.3497 55.7638 61.3076 55.7539 61.2631C55.744 61.2186 55.743 61.1726 55.751 61.1277V61.1167C55.869 60.4334 55.9874 59.7504 56.106 59.0677C56.1182 58.9861 56.1598 58.9118 56.223 58.8587C56.2862 58.8057 56.3666 58.7776 56.449 58.7797C56.4687 58.7782 56.4884 58.7782 56.508 58.7797C56.553 58.7872 56.596 58.8035 56.6346 58.8277C56.6731 58.8519 56.7066 58.8835 56.7329 58.9207C56.7592 58.9579 56.7779 58.9999 56.7878 59.0444C56.7978 59.0888 56.7989 59.1348 56.791 59.1797L56.611 60.2227L56.433 61.2477C56.4173 61.3272 56.3746 61.3988 56.3121 61.4504C56.2495 61.502 56.1711 61.5304 56.09 61.5307L56.093 61.5277ZM17.382 61.4527C17.3298 61.4543 17.2779 61.4429 17.2311 61.4195C17.1844 61.3961 17.1441 61.3615 17.114 61.3187C17.0563 61.2472 17.0289 61.156 17.0377 61.0646C17.0465 60.9732 17.0908 60.8888 17.161 60.8297C17.7185 60.3753 18.3285 59.9895 18.978 59.6807C19.0239 59.6615 19.0732 59.6516 19.123 59.6517C19.1889 59.65 19.2539 59.6675 19.3102 59.7019C19.3664 59.7363 19.4115 59.7862 19.44 59.8457C19.4774 59.9292 19.4812 60.0238 19.4507 60.11C19.4201 60.1962 19.3576 60.2674 19.276 60.3087C18.6778 60.5903 18.1174 60.9461 17.608 61.3677C17.5461 61.4236 17.4654 61.4539 17.382 61.4527ZM92.088 61.2137H92.013C91.9341 61.2143 91.8573 61.1881 91.7952 61.1394C91.7331 61.0907 91.6893 61.0224 91.671 60.9457C91.608 60.6617 91.542 60.3757 91.476 60.0877V60.0797C91.387 59.6937 91.296 59.2947 91.211 58.8997C91.2004 58.8556 91.1986 58.8098 91.2058 58.765C91.213 58.7202 91.2291 58.6772 91.253 58.6387C91.2868 58.5879 91.3326 58.5462 91.3863 58.5172C91.44 58.4883 91.5 58.473 91.561 58.4727C91.6403 58.4735 91.7169 58.5016 91.7779 58.5522C91.8389 58.6028 91.8806 58.6729 91.896 58.7507C91.983 59.1507 92.076 59.5597 92.166 59.9507C92.231 60.2337 92.296 60.5157 92.358 60.7947C92.3688 60.8395 92.3704 60.8859 92.3626 60.9313C92.3549 60.9767 92.338 61.02 92.313 61.0587C92.2613 61.1367 92.1814 61.1915 92.09 61.2117L92.088 61.2137ZM23.161 60.0247C23.127 60.0267 23.0929 60.0216 23.061 60.0097C22.5901 59.8588 22.0986 59.7815 21.604 59.7807C21.459 59.7807 21.313 59.7877 21.17 59.8007H21.142C21.0542 59.7993 20.9702 59.7644 20.9073 59.7032C20.8443 59.6419 20.807 59.559 20.803 59.4713C20.7991 59.3835 20.8287 59.2976 20.886 59.2309C20.9432 59.1643 21.0237 59.122 21.111 59.1127C21.27 59.0997 21.432 59.0927 21.59 59.0927C22.1665 59.092 22.7397 59.179 23.29 59.3507C23.3768 59.3789 23.4489 59.4402 23.4906 59.5213C23.5324 59.6024 23.5404 59.6967 23.513 59.7837C23.4846 59.8541 23.4361 59.9145 23.3735 59.9574C23.3108 60.0003 23.2369 60.0237 23.161 60.0247ZM106.134 58.2037H106.09C106.045 58.2004 106.002 58.1879 105.963 58.1669C105.923 58.1459 105.889 58.1168 105.861 58.0817C105.832 58.0443 105.811 58.0013 105.799 57.9554C105.787 57.9094 105.785 57.8615 105.792 57.8147C105.829 57.4747 105.87 57.1247 105.91 56.7867V56.7777C105.95 56.4377 105.992 56.0867 106.029 55.7417C106.038 55.6535 106.08 55.5719 106.146 55.5134C106.213 55.455 106.299 55.424 106.388 55.4267H106.416C106.509 55.437 106.594 55.4836 106.652 55.5563C106.711 55.629 106.738 55.7219 106.728 55.8147C106.647 56.5827 106.576 57.2317 106.49 57.9047C106.474 57.988 106.43 58.0634 106.365 58.1178C106.3 58.1723 106.218 58.2027 106.133 58.2037H106.134ZM56.805 57.4127H56.745C56.7001 57.4052 56.6571 57.3889 56.6185 57.3647C56.5799 57.3405 56.5465 57.3088 56.5202 57.2717C56.4939 57.2345 56.4752 57.1924 56.4652 57.148C56.4552 57.1035 56.4541 57.0576 56.462 57.0127C56.524 56.6557 56.59 56.2947 56.655 55.9457C56.712 55.6377 56.776 55.2887 56.835 54.9537C56.8492 54.8725 56.8918 54.799 56.9552 54.7462C57.0186 54.6935 57.0986 54.6649 57.181 54.6657C57.1993 54.6642 57.2177 54.6642 57.236 54.6657C57.2797 54.6724 57.3216 54.6879 57.3592 54.711C57.3968 54.7342 57.4294 54.7647 57.455 54.8007C57.4829 54.8387 57.5029 54.8819 57.5141 54.9277C57.5252 54.9735 57.5273 55.0211 57.52 55.0677C57.393 55.7157 57.279 56.3737 57.168 57.0097L57.147 57.1277C57.1342 57.2086 57.0925 57.282 57.0296 57.3344C56.9667 57.3869 56.8869 57.4147 56.805 57.4127ZM91.18 57.1287H91.105C91.0259 57.1291 90.949 57.1027 90.8867 57.0539C90.8244 57.0051 90.7805 56.9366 90.762 56.8597C90.634 56.2797 90.492 55.6297 90.316 54.8147C90.3056 54.7702 90.3042 54.7241 90.3119 54.6791C90.3197 54.6341 90.3364 54.5911 90.361 54.5527C90.395 54.5028 90.4406 54.4619 90.4939 54.4335C90.5472 54.4051 90.6066 54.3901 90.667 54.3897C90.7464 54.3905 90.8231 54.4187 90.8842 54.4696C90.9452 54.5204 90.9868 54.5907 91.002 54.6687C91.125 55.2377 91.287 55.9847 91.448 56.7127C91.4589 56.7577 91.4605 56.8045 91.4529 56.8502C91.4453 56.8958 91.4285 56.9395 91.4035 56.9785C91.3786 57.0176 91.346 57.0512 91.3078 57.0773C91.2696 57.1035 91.2264 57.1216 91.181 57.1307L91.18 57.1287ZM106.594 54.0387H106.55C106.457 54.0286 106.372 53.9821 106.313 53.9094C106.255 53.8367 106.227 53.7436 106.237 53.6507L106.252 53.5017C106.332 52.8097 106.402 52.1867 106.46 51.5617C106.469 51.4735 106.511 51.3919 106.577 51.3334C106.644 51.275 106.73 51.244 106.819 51.2467H106.847C106.94 51.257 107.025 51.3037 107.083 51.3767C107.142 51.4496 107.169 51.5428 107.159 51.6357C107.079 52.3187 107.009 52.9357 106.95 53.5757L106.936 53.7247C106.929 53.8107 106.89 53.8911 106.827 53.9495C106.764 54.008 106.68 54.0402 106.594 54.0397V54.0387ZM57.579 53.2927H57.52C57.4763 53.2858 57.4344 53.2702 57.3967 53.2469C57.3591 53.2235 57.3266 53.1929 57.301 53.1567C57.2731 53.1185 57.253 53.0751 57.2418 53.0292C57.2307 52.9832 57.2287 52.9354 57.236 52.8887L57.597 51.0407L57.638 50.8297C57.653 50.754 57.693 50.6855 57.7516 50.6353C57.8101 50.585 57.8839 50.5559 57.961 50.5527C57.9866 50.5525 58.0122 50.5556 58.037 50.5617C58.0841 50.572 58.1287 50.5916 58.1681 50.6192C58.2076 50.6468 58.2412 50.682 58.267 50.7227C58.2892 50.7582 58.304 50.7979 58.3106 50.8393C58.3171 50.8807 58.3152 50.923 58.305 50.9637L58.105 51.9937L57.905 53.0237C57.8923 53.1004 57.8523 53.1699 57.7924 53.2195C57.7325 53.2691 57.6568 53.2955 57.579 53.2937V53.2927ZM90.286 53.0247H90.211C90.1319 53.0251 90.055 52.9987 89.9927 52.9499C89.9304 52.9011 89.8865 52.8326 89.868 52.7557C89.794 52.4127 89.719 52.0727 89.645 51.7327C89.571 51.3927 89.496 51.0537 89.422 50.7107C89.4111 50.6658 89.4095 50.6191 89.4172 50.5736C89.425 50.528 89.4419 50.4845 89.467 50.4457C89.5003 50.3965 89.545 50.356 89.5972 50.3276C89.6494 50.2993 89.7076 50.2839 89.767 50.2827C89.8465 50.2835 89.9231 50.3117 89.9842 50.3626C90.0452 50.4134 90.0868 50.4837 90.102 50.5617L90.194 50.9837C90.31 51.5177 90.43 52.0697 90.549 52.6057C90.5597 52.6508 90.5612 52.6976 90.5535 52.7433C90.5457 52.7889 90.5288 52.8326 90.5038 52.8716C90.4788 52.9106 90.4462 52.9442 90.4079 52.9703C90.3696 52.9965 90.3265 53.0146 90.281 53.0237L90.286 53.0247ZM107.056 49.8757H107.012C106.919 49.8654 106.834 49.8188 106.776 49.7461C106.717 49.6735 106.689 49.5806 106.699 49.4877C106.776 48.7657 106.87 48.0307 106.952 47.3977C106.962 47.3157 107.001 47.2401 107.063 47.185C107.124 47.1298 107.203 47.0988 107.286 47.0977C107.304 47.0964 107.321 47.0964 107.339 47.0977C107.385 47.1024 107.429 47.1164 107.469 47.1387C107.509 47.161 107.544 47.1912 107.572 47.2275C107.6 47.2638 107.62 47.3054 107.632 47.3497C107.644 47.3941 107.646 47.4404 107.639 47.4857C107.591 47.8517 107.547 48.2217 107.505 48.5797C107.467 48.8997 107.428 49.2307 107.386 49.5597C107.386 49.6024 107.377 49.6446 107.36 49.6838C107.344 49.723 107.319 49.7584 107.288 49.7879C107.257 49.8174 107.221 49.8404 107.181 49.8555C107.141 49.8706 107.099 49.8774 107.056 49.8757ZM58.384 49.1887H58.309C58.2634 49.1799 58.2201 49.1619 58.1817 49.1358C58.1433 49.1098 58.1106 49.0762 58.0855 49.0371C58.0605 48.998 58.0436 48.9542 58.0359 48.9085C58.0283 48.8627 58.03 48.8158 58.041 48.7707C58.118 48.4187 58.191 48.0617 58.262 47.7157C58.33 47.3877 58.4 47.0477 58.473 46.7157C58.4882 46.6377 58.5298 46.5674 58.5909 46.5166C58.6519 46.4657 58.7286 46.4375 58.808 46.4367C58.8353 46.4366 58.8625 46.4396 58.889 46.4457C58.9346 46.4545 58.9779 46.4725 59.0163 46.4986C59.0548 46.5246 59.0875 46.5582 59.1125 46.5973C59.1376 46.6364 59.1545 46.6801 59.1621 46.7259C59.1698 46.7717 59.168 46.8186 59.157 46.8637C59.078 47.2217 59.001 47.5907 58.928 47.9467C58.862 48.2627 58.795 48.5877 58.728 48.9077C58.7121 48.9872 58.6691 49.0587 58.6064 49.1101C58.5437 49.1615 58.4651 49.1897 58.384 49.1897V49.1887ZM89.393 48.9347H89.318C89.239 48.9351 89.1622 48.9089 89.1 48.8603C89.0377 48.8116 88.9937 48.7434 88.975 48.6667C88.8 47.8577 88.658 47.2277 88.513 46.6217C88.5023 46.5766 88.5008 46.5298 88.5086 46.4841C88.5164 46.4384 88.5332 46.3948 88.5583 46.3558C88.5833 46.3168 88.6159 46.2832 88.6542 46.2571C88.6924 46.2309 88.7356 46.2128 88.781 46.2037C88.8076 46.1976 88.8348 46.1946 88.862 46.1947C88.9415 46.1953 89.0183 46.2232 89.0795 46.2739C89.1407 46.3245 89.1826 46.3948 89.198 46.4727C89.274 46.8237 89.355 47.1727 89.434 47.5187C89.513 47.8647 89.587 48.1807 89.66 48.5187C89.6707 48.5638 89.6722 48.6106 89.6645 48.6563C89.6567 48.7019 89.6398 48.7456 89.6148 48.7846C89.5898 48.8236 89.5572 48.8572 89.5189 48.8833C89.4806 48.9095 89.4375 48.9276 89.392 48.9367L89.393 48.9347ZM107.578 45.7117H107.533C107.438 45.6964 107.352 45.6439 107.295 45.5657C107.269 45.5312 107.251 45.492 107.241 45.4502C107.23 45.4085 107.228 45.3652 107.235 45.3227C107.326 44.6727 107.425 44.0097 107.547 43.2337C107.559 43.1522 107.601 43.078 107.664 43.025C107.727 42.972 107.808 42.9438 107.89 42.9457C107.91 42.9442 107.929 42.9442 107.949 42.9457C107.994 42.9532 108.037 42.9695 108.076 42.9937C108.114 43.0179 108.148 43.0495 108.174 43.0867C108.2 43.1239 108.219 43.1659 108.229 43.2104C108.239 43.2548 108.24 43.3008 108.232 43.3457C108.114 44.0707 108.018 44.7007 107.932 45.4207C107.914 45.5021 107.87 45.5752 107.806 45.6282C107.742 45.6812 107.661 45.711 107.578 45.7127V45.7117ZM59.261 45.0857C59.2352 45.0882 59.2092 45.0833 59.186 45.0717C59.1405 45.0626 59.0972 45.0444 59.0589 45.0182C59.0205 44.992 58.9879 44.9584 58.9628 44.9192C58.9378 44.8801 58.9209 44.8363 58.9132 44.7905C58.9055 44.7447 58.9072 44.6978 58.918 44.6527C59.018 44.1737 59.129 43.7007 59.234 43.2437C59.284 43.0277 59.334 42.8167 59.379 42.6097C59.3963 42.5342 59.4389 42.4669 59.4996 42.4189C59.5603 42.3709 59.6356 42.3451 59.713 42.3457C59.7413 42.3456 59.7695 42.3489 59.797 42.3557C59.8408 42.3655 59.8821 42.384 59.9185 42.4101C59.9549 42.4363 59.9857 42.4694 60.009 42.5077C60.0331 42.5471 60.0492 42.5909 60.0562 42.6366C60.0632 42.6822 60.0611 42.7288 60.05 42.7737C60.002 42.9864 59.9527 43.2017 59.902 43.4197V43.4267C59.802 43.8787 59.69 44.3457 59.59 44.8187C59.5795 44.8967 59.5396 44.9678 59.4785 45.0175C59.4174 45.0671 59.3396 45.0915 59.261 45.0857ZM88.468 44.8467H88.393C88.3139 44.8471 88.237 44.8207 88.1747 44.7719C88.1124 44.7231 88.0685 44.6546 88.05 44.5777C87.979 44.2777 87.909 43.9777 87.842 43.6877V43.6787V43.6717C87.757 43.3027 87.669 42.9217 87.578 42.5487C87.5563 42.4597 87.5707 42.3658 87.6181 42.2874C87.6656 42.209 87.7421 42.1527 87.831 42.1307C87.8562 42.1242 87.882 42.1209 87.908 42.1207C87.9855 42.1218 88.0606 42.1481 88.1219 42.1955C88.1832 42.2429 88.2275 42.309 88.248 42.3837C88.395 42.9837 88.567 43.7037 88.724 44.4287C88.7458 44.5177 88.7313 44.6116 88.6839 44.69C88.6365 44.7683 88.5599 44.8247 88.471 44.8467H88.468ZM118.374 44.2937H118.33C118.246 44.295 118.164 44.2651 118.101 44.2097C118.037 44.1542 117.997 44.0773 117.987 43.9937C117.927 43.5267 117.821 42.7937 117.659 41.9337C117.644 41.8414 117.665 41.7467 117.718 41.6697C117.744 41.6328 117.777 41.6015 117.815 41.5777C117.854 41.554 117.896 41.5383 117.941 41.5317C117.961 41.5301 117.981 41.5301 118.001 41.5317C118.083 41.5296 118.164 41.5577 118.227 41.6108C118.29 41.6639 118.331 41.7382 118.343 41.8197C118.47 42.5027 118.58 43.2057 118.671 43.9087C118.678 43.9556 118.676 44.0035 118.664 44.0495C118.652 44.0954 118.63 44.1384 118.601 44.1757C118.574 44.21 118.539 44.2383 118.5 44.2588C118.462 44.2793 118.419 44.2915 118.375 44.2947L118.374 44.2937ZM108.246 41.5627H108.187C108.143 41.5558 108.101 41.5402 108.064 41.5169C108.026 41.4935 107.994 41.4629 107.968 41.4267C107.94 41.3886 107.92 41.3454 107.909 41.2996C107.898 41.2538 107.897 41.2062 107.904 41.1597C108.044 40.3827 108.194 39.6847 108.35 39.0847C108.361 39.0405 108.38 38.9989 108.406 38.9622C108.433 38.9255 108.467 38.8945 108.506 38.8709C108.544 38.8473 108.587 38.8316 108.632 38.8247C108.677 38.8178 108.723 38.8198 108.767 38.8307C108.811 38.8406 108.852 38.8592 108.888 38.8853C108.925 38.9114 108.956 38.9445 108.979 38.9827C109.003 39.0221 109.019 39.0659 109.027 39.1115C109.034 39.1572 109.032 39.2038 109.021 39.2487C108.862 39.8997 108.721 40.5827 108.589 41.2777C108.572 41.3564 108.529 41.4271 108.467 41.4789C108.406 41.5306 108.328 41.5605 108.248 41.5637L108.246 41.5627ZM60.214 41.0097C60.1837 41.0119 60.1532 41.0071 60.125 40.9957C60.0813 40.9856 60.0399 40.9669 60.0035 40.9407C59.9671 40.9144 59.9363 40.8811 59.913 40.8427C59.8889 40.8033 59.8729 40.7595 59.8659 40.7138C59.8588 40.6681 59.8609 40.6215 59.872 40.5767C59.9234 40.3767 59.974 40.1767 60.024 39.9767C60.149 39.4767 60.266 39.0067 60.393 38.5517C60.4142 38.4754 60.46 38.4082 60.5233 38.3607C60.5866 38.3131 60.6638 38.2878 60.743 38.2887C60.7706 38.2886 60.7981 38.2916 60.825 38.2977C60.8703 38.3079 60.9129 38.3276 60.9501 38.3553C60.9873 38.383 61.0183 38.4183 61.041 38.4587C61.0872 38.5415 61.1004 38.6386 61.078 38.7307C61.0227 38.952 60.966 39.175 60.908 39.3997C60.795 39.8417 60.679 40.2997 60.571 40.7597C60.5441 40.8327 60.4956 40.8957 60.4321 40.9406C60.3685 40.9854 60.2928 41.0098 60.215 41.0107L60.214 41.0097ZM87.414 40.7707C87.3355 40.7687 87.2598 40.7415 87.198 40.693C87.1362 40.6446 87.0917 40.5775 87.071 40.5017L87.028 40.3377C86.867 39.7187 86.701 39.0797 86.55 38.4727C86.5289 38.3819 86.5433 38.2864 86.5904 38.2059C86.6374 38.1253 86.7135 38.0659 86.803 38.0397C86.8302 38.033 86.8581 38.0297 86.886 38.0297C86.9649 38.0302 87.0414 38.0562 87.1043 38.1038C87.1672 38.1514 87.2131 38.218 87.235 38.2937C87.435 39.0107 87.606 39.6937 87.756 40.3237C87.7672 40.3683 87.7694 40.4147 87.7626 40.4602C87.7557 40.5057 87.7399 40.5494 87.716 40.5887C87.6926 40.6272 87.6617 40.6605 87.6251 40.6868C87.5885 40.7131 87.547 40.7318 87.503 40.7417C87.477 40.7619 87.445 40.7728 87.412 40.7727L87.414 40.7707ZM117.648 40.1707H117.574C117.495 40.1711 117.418 40.1447 117.356 40.0959C117.293 40.0471 117.25 39.9786 117.231 39.9017C117.064 39.2347 116.88 38.5327 116.665 37.9167C116.637 37.8297 116.645 37.7353 116.687 37.6541C116.729 37.573 116.801 37.5117 116.888 37.4837C116.92 37.4729 116.954 37.4671 116.988 37.4667C117.061 37.4677 117.132 37.4915 117.191 37.5347C117.25 37.5779 117.294 37.6383 117.317 37.7077C117.517 38.3127 117.717 39.0007 117.898 39.7517C117.919 39.8408 117.904 39.9346 117.857 40.0128C117.809 40.0911 117.733 40.1474 117.644 40.1697L117.648 40.1707ZM109.248 37.4997C109.214 37.5016 109.18 37.4965 109.148 37.4847C109.06 37.4544 108.987 37.3905 108.945 37.3069C108.903 37.2232 108.896 37.1266 108.925 37.0377C109.14 36.3513 109.419 35.6867 109.759 35.0527C109.789 34.9993 109.832 34.9548 109.885 34.9238C109.938 34.8929 109.998 34.8766 110.059 34.8767C110.119 34.877 110.178 34.8914 110.232 34.9187C110.312 34.9654 110.371 35.0414 110.396 35.1306C110.421 35.2198 110.41 35.3152 110.366 35.3967C110.044 35.9919 109.78 36.6164 109.577 37.2617C109.554 37.3314 109.509 37.3922 109.45 37.4357C109.391 37.4792 109.32 37.5033 109.246 37.5047L109.248 37.4997ZM61.273 36.9527C61.2426 36.9552 61.212 36.95 61.184 36.9377C61.1401 36.9264 61.0989 36.9063 61.063 36.8786C61.0271 36.851 60.9972 36.8163 60.975 36.7767C60.9519 36.7359 60.9374 36.6908 60.9324 36.6442C60.9274 36.5976 60.932 36.5504 60.946 36.5057C61.137 35.8277 61.333 35.1317 61.527 34.4907C61.5522 34.4183 61.5992 34.3555 61.6615 34.311C61.7238 34.2664 61.7984 34.2422 61.875 34.2417C61.9033 34.2416 61.9315 34.2449 61.959 34.2517C62.0452 34.2817 62.1172 34.3425 62.1612 34.4225C62.2052 34.5024 62.2179 34.5959 62.197 34.6847C62.004 35.3237 61.809 36.0017 61.616 36.6987C61.5941 36.7725 61.5488 36.8372 61.487 36.883C61.4251 36.9288 61.35 36.9533 61.273 36.9527ZM86.443 36.7287H86.324C86.2488 36.7292 86.1756 36.7044 86.1161 36.6584C86.0567 36.6123 86.0144 36.5476 85.996 36.4747C85.784 35.7247 85.596 35.0747 85.415 34.4747C85.4012 34.4333 85.3959 34.3896 85.3993 34.3462C85.4027 34.3027 85.4149 34.2604 85.435 34.2217C85.4575 34.1787 85.4884 34.1408 85.5258 34.11C85.5633 34.0793 85.6065 34.0564 85.653 34.0427C85.6853 34.0318 85.719 34.0261 85.753 34.0257C85.8282 34.0271 85.9008 34.0528 85.9601 34.099C86.0194 34.1451 86.0622 34.2092 86.082 34.2817L86.143 34.4817C86.321 35.0707 86.505 35.6817 86.678 36.2937C86.7024 36.3826 86.6911 36.4776 86.6467 36.5584C86.6023 36.6392 86.5282 36.6996 86.44 36.7267L86.443 36.7287ZM116.23 36.2067C116.165 36.2068 116.101 36.1887 116.046 36.1544C115.991 36.1201 115.947 36.071 115.918 36.0127C115.647 35.4032 115.291 34.8354 114.86 34.3267C114.816 34.2759 114.788 34.2137 114.778 34.1473C114.768 34.0809 114.777 34.0131 114.805 33.9518C114.832 33.8905 114.876 33.8382 114.932 33.801C114.988 33.7638 115.053 33.7432 115.12 33.7417C115.17 33.7423 115.219 33.7534 115.264 33.7745C115.309 33.7955 115.35 33.8259 115.382 33.8637C115.853 34.4181 116.244 35.0357 116.544 35.6987C116.566 35.7409 116.578 35.7871 116.581 35.8344C116.584 35.8817 116.577 35.9292 116.561 35.9737C116.546 36.0158 116.522 36.0542 116.491 36.0866C116.46 36.1189 116.422 36.1445 116.381 36.1617C116.336 36.1898 116.284 36.205 116.231 36.2057L116.23 36.2067ZM111.419 34.0277C111.363 34.0267 111.309 34.0127 111.26 33.9869C111.211 33.961 111.168 33.9239 111.136 33.8787C111.085 33.8017 111.065 33.7086 111.08 33.6177C111.088 33.5735 111.105 33.5315 111.13 33.4942C111.154 33.457 111.187 33.4255 111.225 33.4017C111.78 32.9788 112.453 32.7391 113.15 32.7157C113.239 32.7157 113.327 32.7203 113.415 32.7297C113.461 32.7334 113.505 32.7466 113.545 32.7685C113.586 32.7903 113.621 32.8204 113.649 32.8567C113.707 32.9307 113.735 33.024 113.727 33.1177C113.718 33.2056 113.675 33.2868 113.609 33.3451C113.542 33.4035 113.456 33.4347 113.368 33.4327H113.34C113.277 33.4254 113.214 33.4217 113.151 33.4217C112.598 33.4522 112.067 33.6479 111.627 33.9837C111.561 34.0104 111.491 34.025 111.42 34.0267L111.419 34.0277ZM62.479 32.9387C62.445 32.9406 62.411 32.9355 62.379 32.9237C62.2925 32.8945 62.2208 32.8328 62.179 32.7517C62.1577 32.712 62.1447 32.6684 62.1408 32.6235C62.1368 32.5787 62.142 32.5335 62.156 32.4907C62.416 31.6907 62.629 31.0587 62.826 30.4907C62.8494 30.423 62.8932 30.3642 62.9515 30.3225C63.0097 30.2808 63.0794 30.2581 63.151 30.2577C63.1929 30.2575 63.2343 30.2657 63.273 30.2817C63.3171 30.2971 63.3576 30.3214 63.392 30.353C63.4264 30.3847 63.454 30.423 63.473 30.4657C63.4924 30.5066 63.503 30.5512 63.5042 30.5965C63.5054 30.6417 63.4972 30.6868 63.48 30.7287C63.286 31.2737 63.08 31.8857 62.81 32.7137C62.7851 32.7807 62.7399 32.8383 62.6808 32.8784C62.6217 32.9185 62.5515 32.9393 62.48 32.9377L62.479 32.9387ZM85.102 32.7147C85.0286 32.7167 84.9566 32.6944 84.8973 32.6511C84.8379 32.6079 84.7946 32.5462 84.774 32.4757C84.506 31.6567 84.295 31.0487 84.088 30.5067C84.0581 30.4195 84.0631 30.3241 84.1021 30.2405C84.1411 30.1569 84.211 30.0918 84.297 30.0587C84.3338 30.0466 84.3723 30.0406 84.411 30.0407C84.4833 30.039 84.5543 30.06 84.614 30.1007C84.6737 30.1414 84.7192 30.1998 84.744 30.2677C84.958 30.8677 85.202 31.5537 85.429 32.2527C85.4544 32.3416 85.4456 32.4368 85.4043 32.5195C85.3631 32.6022 85.2923 32.6665 85.206 32.6997C85.1731 32.7116 85.138 32.7164 85.103 32.7137L85.102 32.7147ZM63.861 28.9827C63.8193 28.9819 63.7782 28.9717 63.741 28.9527C63.6988 28.9363 63.6603 28.9116 63.6277 28.8802C63.5951 28.8487 63.569 28.8111 63.5511 28.7695C63.5331 28.728 63.5236 28.6832 63.5231 28.6379C63.5226 28.5926 63.531 28.5477 63.548 28.5057C63.854 27.7407 64.109 27.1187 64.348 26.5497C64.3746 26.4874 64.4192 26.4345 64.476 26.3976C64.5328 26.3607 64.5993 26.3416 64.667 26.3427C64.7161 26.3425 64.7647 26.352 64.81 26.3707C64.8948 26.4087 64.9611 26.4788 64.9944 26.5655C65.0278 26.6522 65.0255 26.7486 64.988 26.8337C64.688 27.5197 64.429 28.1497 64.199 28.7587C64.1669 28.8221 64.1188 28.876 64.0596 28.9153C64.0003 28.9545 63.9319 28.9778 63.861 28.9827ZM83.669 28.7737C83.5987 28.7716 83.5303 28.7494 83.4722 28.7097C83.4141 28.67 83.3685 28.6145 83.341 28.5497C83.022 27.7497 82.77 27.1637 82.522 26.6397C82.4846 26.5546 82.4823 26.4582 82.5156 26.3715C82.549 26.2848 82.6152 26.2147 82.7 26.1767C82.7453 26.1576 82.7939 26.1477 82.843 26.1477C82.9112 26.1456 82.9784 26.1641 83.036 26.2006C83.0936 26.2372 83.1389 26.2901 83.166 26.3527C83.456 26.9787 83.731 27.6527 83.986 28.2927C84.0041 28.3366 84.013 28.3837 84.0122 28.4312C84.0113 28.4787 84.0007 28.5255 83.981 28.5687C83.9633 28.6088 83.9375 28.6449 83.9051 28.6745C83.8728 28.7041 83.8346 28.7266 83.793 28.7407C83.7762 28.7538 83.7569 28.7635 83.7363 28.7692C83.7157 28.7748 83.6942 28.7764 83.673 28.7737H83.669ZM65.548 25.1477C65.4995 25.1467 65.4515 25.1375 65.406 25.1207H65.399C65.358 25.1008 65.3213 25.0728 65.2912 25.0384C65.2612 25.0041 65.2383 24.964 65.224 24.9207C65.2106 24.878 65.2059 24.833 65.2104 24.7885C65.2149 24.744 65.2284 24.7008 65.25 24.6617C65.566 24.0287 65.906 23.4007 66.262 22.7957C66.2934 22.744 66.3373 22.701 66.3898 22.6709C66.4423 22.6409 66.5015 22.6246 66.562 22.6237C66.6244 22.6239 66.6855 22.642 66.738 22.6757C66.7775 22.699 66.812 22.7299 66.8395 22.7666C66.867 22.8033 66.8869 22.8451 66.898 22.8896C66.9092 22.9341 66.9114 22.9803 66.9045 23.0257C66.8977 23.071 66.8819 23.1145 66.858 23.1537C66.543 23.6837 66.222 24.2797 65.875 24.9747C65.8356 25.0248 65.7862 25.066 65.7299 25.0958C65.6735 25.1256 65.6116 25.1433 65.548 25.1477ZM81.948 24.9687C81.8852 24.9667 81.8238 24.9493 81.7693 24.9181C81.7147 24.8869 81.6686 24.8428 81.635 24.7897C81.291 24.1457 80.945 23.5437 80.607 22.9987C80.5571 22.9215 80.5398 22.8276 80.559 22.7377C80.5688 22.6932 80.5874 22.651 80.6137 22.6138C80.6399 22.5765 80.6734 22.5449 80.712 22.5207C80.7684 22.4844 80.834 22.465 80.901 22.4647C80.9587 22.465 81.0154 22.4799 81.0658 22.508C81.1162 22.5362 81.1586 22.5767 81.189 22.6257C81.582 23.2507 81.928 23.8507 82.246 24.4617C82.2681 24.5029 82.2816 24.5481 82.2859 24.5947C82.2902 24.6412 82.2852 24.6881 82.271 24.7327C82.2576 24.7772 82.2353 24.8185 82.2054 24.8541C82.1754 24.8897 82.1386 24.9188 82.097 24.9397C82.0482 24.9562 81.9975 24.966 81.946 24.9687H81.948ZM67.695 21.5687C67.6569 21.5711 67.6187 21.5657 67.5828 21.5528C67.5468 21.5399 67.5139 21.5198 67.486 21.4937C67.4115 21.4379 67.3619 21.3551 67.3479 21.263C67.3338 21.171 67.3565 21.0772 67.411 21.0017C67.831 20.4299 68.294 19.891 68.796 19.3897C68.8623 19.33 68.949 19.298 69.0382 19.3004C69.1274 19.3028 69.2122 19.3393 69.2752 19.4025C69.3382 19.4656 69.3746 19.5505 69.3768 19.6397C69.379 19.7289 69.3469 19.8155 69.287 19.8817C68.8101 20.3583 68.3721 20.8723 67.977 21.4187C67.9453 21.4645 67.9028 21.5019 67.8533 21.5275C67.8038 21.5532 67.7488 21.5663 67.693 21.5657L67.695 21.5687ZM79.695 21.4487C79.6428 21.4503 79.5909 21.4389 79.5441 21.4155C79.4974 21.3921 79.4571 21.3575 79.427 21.3147C79.0111 20.7814 78.5475 20.287 78.042 19.8377C77.9733 19.7759 77.9317 19.6896 77.926 19.5973C77.9204 19.5051 77.9513 19.4144 78.012 19.3447C78.0439 19.3085 78.0832 19.2796 78.1272 19.2598C78.1711 19.2399 78.2188 19.2297 78.267 19.2297C78.3535 19.2309 78.437 19.2612 78.504 19.3157C79.0296 19.798 79.5168 20.3206 79.961 20.8787C80.017 20.9526 80.042 21.0453 80.0308 21.1373C80.0196 21.2293 79.9731 21.3134 79.901 21.3717C79.8738 21.3972 79.8417 21.4169 79.8066 21.4297C79.7716 21.4424 79.7343 21.4478 79.697 21.4457L79.695 21.4487ZM70.661 18.7447C70.5992 18.7462 70.5383 18.7301 70.4852 18.6985C70.4321 18.6668 70.3891 18.6208 70.361 18.5657C70.3383 18.5256 70.3238 18.4814 70.3182 18.4357C70.3127 18.39 70.3162 18.3436 70.3287 18.2993C70.3412 18.2549 70.3623 18.2135 70.3908 18.1774C70.4194 18.1412 70.4548 18.1111 70.495 18.0887C71.1136 17.7224 71.7943 17.4729 72.503 17.3527H72.547C72.565 17.3513 72.5831 17.3513 72.601 17.3527C72.6893 17.3549 72.7736 17.3899 72.8374 17.4508C72.9013 17.5118 72.9402 17.5944 72.9464 17.6825C72.9527 17.7705 72.9258 17.8578 72.8712 17.9272C72.8166 17.9965 72.7381 18.0431 72.651 18.0577H72.621C71.9937 18.1609 71.392 18.384 70.849 18.7147L70.819 18.7207C70.7673 18.7339 70.7144 18.7419 70.661 18.7447ZM76.588 18.7307C76.5304 18.7298 76.474 18.7143 76.424 18.6857C75.8501 18.3754 75.2303 18.1587 74.588 18.0437C74.5431 18.0362 74.5001 18.0199 74.4615 17.9957C74.4229 17.9715 74.3895 17.9398 74.3632 17.9027C74.3369 17.8655 74.3182 17.8234 74.3082 17.779C74.2982 17.7345 74.2971 17.6886 74.305 17.6437C74.3166 17.5614 74.358 17.4862 74.4215 17.4325C74.4849 17.3788 74.5659 17.3504 74.649 17.3527C74.6687 17.3512 74.6884 17.3512 74.708 17.3527C75.423 17.4767 76.1124 17.7187 76.748 18.0687C76.8293 18.1142 76.89 18.1891 76.9178 18.278C76.9455 18.3669 76.9381 18.4631 76.897 18.5467C76.8662 18.6027 76.8209 18.6493 76.7658 18.6817C76.7107 18.7141 76.6479 18.731 76.584 18.7307H76.588Z" fill="#3D5CFF"/>
<path d="M24.4112 54.4235C20.1371 46.4636 18.1475 37.4767 18.6622 28.4565C18.6622 28.4565 16.8452 15.8235 11.9452 15.5525C7.04522 15.2815 6.06222 16.8235 3.96222 23.5515C1.86222 30.2795 4.94522 53.0235 9.71122 64.6805C14.4772 76.3375 25.7912 85.7085 25.7912 85.7085L40.5212 67.4865C40.5212 67.4865 28.8042 62.6515 24.4112 54.4235Z" fill="#DA5742"/>
<path d="M4.45321 43.5625C5.43621 41.1445 7.68521 35.6235 9.29321 32.4145C11.3942 28.2065 11.5282 27.3555 11.5282 27.3555L3.36621 32.7725C3.51521 36.0265 3.88721 39.7425 4.45321 43.5625Z" fill="#C43D28"/>
<path d="M17.2771 76.9311C19.8503 80.0973 22.6944 83.0334 25.7771 85.7061L40.5261 67.4841C38.1909 66.3879 35.945 65.1107 33.8091 63.6641L17.2771 76.9311Z" fill="#C43D28"/>
<path d="M36.609 64.6797C36.609 64.6797 49.224 69.9797 56.224 69.7087C64.1125 69.5163 71.9632 70.8596 79.339 73.6637C87.188 76.6187 93.205 86.5727 95.454 91.2137C97.703 95.8547 99.52 104.974 99.52 104.974H77.79L81.99 128.001H27.494L35.477 93.1797L22.177 82.9317L36.609 64.6797Z" fill="#3D5CFF"/>
<path d="M56.2242 31.9819C50.7732 32.6819 49.4922 39.6979 49.4922 39.6979C49.4922 39.6979 41.6132 38.8469 38.2922 42.7869C34.5092 47.2789 40.5412 50.5029 40.5412 50.5029C40.5412 50.5029 34.4642 48.9349 33.9582 52.8899C33.3922 57.2479 37.0412 59.0679 52.5902 62.4259C68.1392 65.7839 87.4712 71.2609 90.5542 66.7689C94.3222 61.2769 82.9882 58.9039 82.9882 58.9039C82.9882 58.9039 88.7372 59.4709 88.7372 54.5459C88.7372 49.6209 77.1032 44.1589 77.1032 44.1589C77.1032 44.1589 77.1032 34.0589 69.3882 32.9359C63.9522 32.1599 63.2222 34.0849 63.2222 34.0849C63.2222 34.0849 61.6752 31.2799 56.2242 31.9819Z" fill="#F99A3D"/>
<path d="M77.8942 104.973H82.9582L75.0642 90.6465L77.8942 104.973Z" fill="#224BF4"/>
<path d="M29.5341 73.6328L28.4771 74.9608L27.8071 87.2608L35.4941 93.1828L27.4941 127.983H28.5511L31.8431 124.476L51.5941 123.224L64.0151 127.985H69.6891L47.9431 92.2428L29.5341 73.6328Z" fill="#224BF4"/>
<path d="M52.0091 56.9651C52.8431 60.6211 56.9091 62.4421 56.9091 62.4421L55.6381 71.0081C56.2591 72.0377 57.1462 72.8807 58.2059 73.4486C59.2657 74.0165 60.4589 74.2882 61.6601 74.2351C63.8498 74.2017 65.9473 73.3482 67.5381 71.8431L68.8041 59.3521C68.8041 59.3521 73.8531 59.2181 75.3871 55.1441C76.4591 52.3091 74.8211 49.8161 72.3041 49.6671C71.5614 49.647 70.8277 49.8325 70.1837 50.2031C69.5398 50.5736 69.0108 51.1149 68.6551 51.7671C67.7983 51.4254 67.0549 50.8497 66.5097 50.1056C65.9645 49.3615 65.6396 48.4791 65.5721 47.5591C65.1551 44.1861 65.2891 41.5301 63.4721 40.9591C62.9307 40.8055 62.3578 40.8022 61.8146 40.9495C61.2715 41.0968 60.7787 41.3891 60.3891 41.7951C60.3784 41.5591 60.3167 41.3281 60.2082 41.1181C60.0997 40.9082 59.9471 40.7242 59.7608 40.5788C59.5744 40.4334 59.3588 40.3301 59.1288 40.276C58.8987 40.2218 58.6597 40.2181 58.4281 40.2651C56.6111 40.5491 56.0451 43.4881 55.3451 44.6231C54.4954 45.8658 53.3487 46.8764 52.0091 47.5631C52.0091 47.5631 51.1751 53.3231 52.0091 56.9651Z" fill="#DA5742"/>
<path opacity="0.55" d="M49.7452 129.091C48.1109 129.027 46.5016 128.668 44.9952 128.032C40.8262 126.243 38.1442 122.206 37.6362 116.958C37.1012 111.459 39.0942 106.143 42.5962 103.721C44.9948 102.161 47.522 100.808 50.1502 99.6776L50.2192 99.6456C54.5772 97.6196 58.6932 95.7066 60.6452 92.0796C58.9021 91.6874 57.2842 90.8666 55.9382 89.6916C53.9502 87.9986 53.0042 85.9626 53.4062 84.2446C53.5595 83.3016 54.0437 82.4442 54.772 81.8259C55.5002 81.2076 56.4249 80.8689 57.3802 80.8706C57.646 80.8706 57.9112 80.896 58.1722 80.9466C60.6882 81.4386 63.0292 84.2076 62.2242 89.1246C62.0838 89.9917 61.8387 90.8386 61.4942 91.6466C61.7416 91.6746 61.9903 91.689 62.2392 91.6896C62.8144 91.7 63.3861 91.5981 63.9222 91.3896C65.3092 90.8276 66.1102 89.5216 66.3052 87.5086C66.6622 83.6166 65.5862 80.5356 63.1922 78.5996C61.0364 77.0123 58.4066 76.2016 55.7312 76.2996C53.927 76.3084 52.1346 76.5927 50.4162 77.1426C49.3251 77.4993 48.1861 77.6885 47.0382 77.7036C46.3581 77.7092 45.6804 77.6214 45.0242 77.4426C44.3908 77.3046 43.799 77.0189 43.2969 76.6088C42.7949 76.1986 42.3968 75.6757 42.1352 75.0826C41.4502 73.2676 42.3702 70.3606 47.2432 68.1426L47.4822 68.6506C42.9502 70.7156 42.0602 73.2926 42.6702 74.8726C43.2052 76.2646 44.8782 77.1286 47.0362 77.1286C48.1295 77.1137 49.214 76.9316 50.2522 76.5886C52.0214 76.0252 53.8665 75.7358 55.7232 75.7306C58.5313 75.6314 61.2901 76.4862 63.5502 78.1556C66.0952 80.2146 67.2442 83.4656 66.8722 87.5556C66.6202 90.3206 65.2502 91.4526 64.1502 91.9166C63.5334 92.1476 62.8787 92.2605 62.2202 92.2496C61.8995 92.2492 61.5791 92.2278 61.2612 92.1856C59.2612 96.0776 54.9942 98.0576 50.4782 100.156C47.8556 101.281 45.334 102.629 42.9412 104.185C39.6502 106.434 37.7102 111.663 38.2172 116.899C38.7092 121.926 41.2712 125.799 45.2472 127.51C46.6951 128.113 48.2381 128.456 49.8052 128.524L49.7462 129.09L49.7452 129.091ZM57.3262 81.4426C56.5153 81.4794 55.7408 81.7903 55.1294 82.3243C54.518 82.8583 54.1058 83.584 53.9602 84.3826C53.6172 85.8956 54.4972 87.7256 56.3142 89.2826C57.6282 90.4262 59.2109 91.2175 60.9142 91.5826C61.2844 90.7817 61.5403 89.9327 61.6742 89.0606C62.4192 84.5246 60.3282 81.9746 58.0742 81.5236C57.8287 81.4684 57.5778 81.4412 57.3262 81.4426Z" fill="#EAEAFF"/>
<path opacity="0.55" d="M61.4512 125.777C58.8371 125.867 56.2371 125.357 53.8512 124.285C52.2942 123.541 51.5322 121.669 51.7102 119.017C51.9482 115.476 53.7582 110.984 56.5512 107.003C59.7282 102.495 63.7592 99.2726 67.9002 97.9296C69.5349 97.391 71.2432 97.109 72.9642 97.0936C73.3952 97.0936 73.8262 97.1136 74.2452 97.1526C78.8332 94.6776 83.4942 91.4966 86.5032 85.0346C87.2848 83.2182 87.3643 81.1763 86.7262 79.3046L87.2622 79.1406C87.9347 81.1418 87.8446 83.3208 87.0092 85.2596C85.7028 88.1286 83.8374 90.7082 81.5222 92.8476C79.5999 94.5674 77.4764 96.0482 75.1982 97.2576C75.9809 97.3855 76.7489 97.5905 77.4912 97.8696C78.6364 98.2399 79.6907 98.8473 80.5856 99.652C81.4805 100.457 82.1959 101.441 82.6852 102.541C83.5782 104.869 83.0152 108.047 78.7542 109.989C77.0278 110.796 75.148 111.223 73.2422 111.241C70.9558 111.307 68.7235 110.538 66.9622 109.079C66.2456 108.504 65.7197 107.726 65.4538 106.847C65.1878 105.968 65.1942 105.029 65.4722 104.154C66.4452 101.246 69.3722 99.7166 72.7562 97.9456C72.9212 97.8626 73.1082 97.7696 73.2912 97.6616C73.2132 97.6616 73.1282 97.6616 73.0162 97.6616C71.3384 97.6752 69.6728 97.9478 68.0782 98.4696C59.0782 101.377 52.7082 112.601 52.2782 119.05C52.1602 120.744 52.3782 122.937 54.1102 123.766C56.4168 124.795 58.9281 125.283 61.4522 125.193C63.6552 125.15 65.8544 124.99 68.0402 124.712L68.0952 124.706L68.9292 124.617L68.9882 125.169L68.1542 125.259C65.9327 125.569 63.6941 125.742 61.4512 125.777ZM74.3512 97.7356C73.9132 97.9616 73.4622 98.2026 73.0112 98.4516L72.9842 98.4656C69.5772 100.255 66.8842 101.666 66.0112 104.347C65.7683 105.119 65.7664 105.946 66.0058 106.719C66.2452 107.492 66.7145 108.174 67.3512 108.674C69.0074 110.041 71.1047 110.758 73.2512 110.692C75.0794 110.674 76.8825 110.265 78.5392 109.492C81.8142 108.001 83.2122 105.422 82.1882 102.762C81.7246 101.738 81.0517 100.822 80.2127 100.074C79.3738 99.3262 78.3874 98.7622 77.3172 98.4186C76.3629 98.0629 75.3667 97.832 74.3532 97.7316L74.3512 97.7356Z" fill="#EAEAFF"/>
<path opacity="0.55" d="M80.7381 83.3048C78.3611 82.143 76.4295 80.2353 75.2381 77.8728C74.2001 75.6638 74.3041 73.5898 75.4961 72.5898L75.8531 73.0228C74.8531 73.8438 74.8101 75.6498 75.7531 77.6338C77.2421 80.7978 82.1721 85.6778 91.1981 83.9338L91.2981 84.4858C90.0658 84.7197 88.8145 84.8396 87.5601 84.8438C85.1972 84.8707 82.8607 84.3436 80.7381 83.3048Z" fill="#EAEAFF"/>
<path d="M98.9561 100.9V101.467H76.9561V100.9H98.9561Z" fill="#EAEAFF"/>
<path d="M61.675 46.7111C61.7295 46.4969 61.8581 46.309 62.0381 46.1808C62.2182 46.0526 62.4378 45.9925 62.658 46.0111C62.8776 45.9961 63.0956 46.0576 63.2748 46.1852C63.4541 46.3129 63.5835 46.4987 63.641 46.7111" fill="white"/>
<path d="M54.675 46.4286C54.675 46.4286 55.092 45.5926 55.792 45.7276C55.996 45.7732 56.1828 45.8759 56.3305 46.0238C56.4782 46.1717 56.5807 46.3586 56.626 46.5626" fill="white"/>
<path d="M58.3952 48.3835C58.2462 48.7835 58.0822 49.2045 57.9632 49.6225C57.8981 49.8156 57.8679 50.0188 57.8742 50.2225C57.8987 50.3124 57.942 50.3961 58.0011 50.4681C58.0602 50.5402 58.1338 50.5989 58.2172 50.6405C58.5937 50.8511 59.0005 51.0022 59.4232 51.0885C59.1984 51.0908 58.974 51.0707 58.7532 51.0285C58.5265 50.9884 58.3062 50.9181 58.0982 50.8195C58.0532 50.7895 57.9982 50.7595 57.9492 50.7295C57.896 50.6945 57.8461 50.6547 57.8002 50.6105C57.7046 50.5167 57.6374 50.3978 57.6062 50.2675C57.5842 50.0238 57.6103 49.7781 57.6832 49.5445C57.8083 49.1111 57.9783 48.6918 58.1902 48.2935C58.3919 47.8953 58.6208 47.5114 58.8752 47.1445C58.7262 47.5625 58.5622 47.9655 58.3952 48.3835Z" fill="#1F1F39"/>
<path d="M58.175 53.1739C58.8179 53.6457 59.619 53.8491 60.409 53.7409C61.526 53.4559 61.675 52.7559 61.675 52.7559" fill="white"/>
<path d="M55.2402 49.9491C54.9907 49.9158 54.764 49.7866 54.6083 49.5888C54.4526 49.3911 54.3801 49.1404 54.4062 48.8901C54.3798 48.6396 54.4522 48.3886 54.6079 48.1907C54.7637 47.9927 54.9905 47.8633 55.2402 47.8301C55.4899 47.8633 55.7168 47.9927 55.8725 48.1907C56.0283 48.3886 56.1007 48.6396 56.0742 48.8901C56.1004 49.1404 56.0279 49.3911 55.8722 49.5888C55.7164 49.7866 55.4897 49.9158 55.2402 49.9491Z" fill="#1F1F39"/>
<path d="M62.6582 49.9491C62.4087 49.9158 62.182 49.7866 62.0263 49.5888C61.8705 49.3911 61.798 49.1404 61.8242 48.8901C61.7978 48.6396 61.8701 48.3886 62.0259 48.1907C62.1816 47.9927 62.4085 47.8633 62.6582 47.8301C62.9079 47.8633 63.1347 47.9927 63.2905 48.1907C63.4463 48.3886 63.5186 48.6396 63.4922 48.8901C63.5183 49.1404 63.4459 49.3911 63.2901 49.5888C63.1344 49.7866 62.9077 49.9158 62.6582 49.9491Z" fill="#1F1F39"/>
<path d="M68.3586 53.0254C68.2712 54.0517 66.8582 54.7693 65.2032 54.6284C63.5482 54.4874 62.2759 53.5411 62.3633 52.5148C62.4507 51.4885 63.8638 50.7698 65.5198 50.9109C67.1758 51.0519 68.4465 51.9941 68.3586 53.0254Z" fill="#C43D28"/>
<path d="M0.505121 31.7747C0.345179 31.6166 0.218197 31.4283 0.131533 31.2208C0.0448688 31.0133 0.000244141 30.7906 0.000244141 30.5657C0.000244141 30.3408 0.0448688 30.1181 0.131533 29.9106C0.218197 29.7031 0.345179 29.5148 0.505121 29.3567L29.2971 0.505699C29.4551 0.347264 29.6427 0.221557 29.8493 0.135784C30.0559 0.0500113 30.2774 0.00585937 30.5011 0.00585938C30.7248 0.00585937 30.9463 0.0500113 31.1529 0.135784C31.3595 0.221557 31.5472 0.347264 31.7051 0.505699L34.0431 2.8487C34.2031 3.00681 34.33 3.19508 34.4167 3.40261C34.5034 3.61014 34.548 3.8328 34.548 4.0577C34.548 4.2826 34.5034 4.50526 34.4167 4.71279C34.33 4.92032 34.2031 5.10859 34.0431 5.2667L5.25912 34.1177C5.1011 34.2769 4.91314 34.4032 4.70607 34.4894C4.49901 34.5757 4.27692 34.6201 4.05262 34.6201C3.82832 34.6201 3.60624 34.5757 3.39917 34.4894C3.1921 34.4032 3.00414 34.2769 2.84612 34.1177L0.505121 31.7747Z" fill="#EAEAFF"/>
<path d="M27.3441 2.44922L26.2571 3.53822L29.2511 6.54922C29.3202 6.62945 29.4051 6.69458 29.5005 6.74052C29.5959 6.78646 29.6997 6.81223 29.8055 6.81622C29.9113 6.82021 30.0168 6.80233 30.1154 6.76371C30.214 6.72508 30.3036 6.66654 30.3785 6.59174C30.4535 6.51693 30.5122 6.42748 30.551 6.32896C30.5898 6.23044 30.6079 6.12498 30.6041 6.01916C30.6003 5.91335 30.5747 5.80945 30.5289 5.71396C30.4832 5.61848 30.4182 5.53346 30.3381 5.46422L27.3441 2.44922Z" fill="#FFFFFE"/>
<path d="M23.5771 6.22377L26.5711 9.23477C26.6402 9.315 26.7251 9.38012 26.8205 9.42606C26.9159 9.472 27.0198 9.49777 27.1256 9.50176C27.2314 9.50576 27.3369 9.48788 27.4355 9.44926C27.5341 9.41063 27.6237 9.35209 27.6986 9.27729C27.7735 9.20248 27.8322 9.11303 27.871 9.01451C27.9099 8.91599 27.9279 8.81053 27.9241 8.70471C27.9203 8.59889 27.8948 8.495 27.849 8.39951C27.8032 8.30403 27.7383 8.21901 27.6581 8.14977L24.6641 5.13477L23.5771 6.22377Z" fill="#FFFFFE"/>
<path d="M21.1941 8.61244L24.1881 11.6234C24.3352 11.7506 24.5249 11.8174 24.7192 11.8104C24.9135 11.8034 25.098 11.7232 25.2356 11.5859C25.3732 11.4485 25.4537 11.2642 25.4611 11.0699C25.4684 10.8756 25.402 10.6858 25.2751 10.5384L22.2811 7.52344L21.1941 8.61244Z" fill="#FFFFFE"/>
<path d="M18.3643 11.4484L21.3583 14.4594C21.4274 14.5396 21.5123 14.6047 21.6077 14.6507C21.7031 14.6966 21.8069 14.7224 21.9127 14.7264C22.0185 14.7304 22.124 14.7125 22.2226 14.6739C22.3212 14.6352 22.4108 14.5767 22.4857 14.5019C22.5606 14.4271 22.6193 14.3376 22.6582 14.2391C22.697 14.1406 22.715 14.0351 22.7112 13.9293C22.7074 13.8235 22.6819 13.7196 22.6361 13.6241C22.5903 13.5286 22.5254 13.4436 22.4453 13.3744L19.4513 10.3594L18.3643 11.4484Z" fill="#FFFFFE"/>
<path d="M15.6831 14.1339L18.6771 17.1449C18.8242 17.2721 19.0139 17.3389 19.2082 17.3319C19.4025 17.3249 19.587 17.2447 19.7246 17.1073C19.8622 16.97 19.9428 16.7857 19.9501 16.5914C19.9574 16.3971 19.891 16.2072 19.7641 16.0599L16.7701 13.0449L15.6831 14.1339Z" fill="#FFFFFE"/>
<path d="M13.3003 16.5226L16.2943 19.5336C16.3634 19.6138 16.4483 19.679 16.5437 19.7249C16.6391 19.7708 16.7429 19.7966 16.8487 19.8006C16.9546 19.8046 17.0601 19.7867 17.1586 19.7481C17.2572 19.7095 17.3468 19.6509 17.4217 19.5761C17.4967 19.5013 17.5554 19.4119 17.5942 19.3133C17.633 19.2148 17.6511 19.1094 17.6473 19.0035C17.6435 18.8977 17.6179 18.7938 17.5721 18.6983C17.5264 18.6029 17.4614 18.5178 17.3813 18.4486L14.3873 15.4336L13.3003 16.5226Z" fill="#FFFFFE"/>
<path d="M10.0981 19.7296L13.0921 22.7406C13.2392 22.8678 13.429 22.9346 13.6233 22.9276C13.8176 22.9206 14.002 22.8404 14.1396 22.7031C14.2772 22.5657 14.3578 22.3814 14.3651 22.1871C14.3725 21.9928 14.306 21.8029 14.1791 21.6556L11.1851 18.6406L10.0981 19.7296Z" fill="#FFFFFE"/>
<path d="M7.41724 22.4171L10.4112 25.4281C10.5583 25.5553 10.7481 25.6221 10.9424 25.6151C11.1367 25.6081 11.3211 25.5279 11.4587 25.3906C11.5963 25.2532 11.6769 25.0689 11.6842 24.8746C11.6915 24.6803 11.6251 24.4904 11.4982 24.3431L8.50424 21.3281L7.41724 22.4171Z" fill="#FFFFFE"/>
<path d="M5.03418 24.8038L8.02818 27.8148C8.09727 27.8951 8.18217 27.9602 8.27757 28.0061C8.37297 28.0521 8.47682 28.0779 8.58263 28.0818C8.68844 28.0858 8.79394 28.068 8.89253 28.0293C8.99112 27.9907 9.08068 27.9322 9.15562 27.8574C9.23056 27.7826 9.28927 27.6931 9.32808 27.5946C9.36688 27.4961 9.38495 27.3906 9.38116 27.2848C9.37736 27.179 9.35178 27.0751 9.30602 26.9796C9.26025 26.8841 9.19529 26.7991 9.11518 26.7298L6.12118 23.7148L5.03418 24.8038Z" fill="#FFFFFE"/>
<path d="M11.5131 28.6105C11.6933 26.8882 12.2147 25.219 13.0471 23.7005C13.6155 22.6606 14.4958 21.8254 15.5641 21.3125C15.5641 21.3125 11.6471 18.6425 11.5131 16.1195C11.3791 13.5965 13.1961 13.4475 14.0301 14.0145C14.8641 14.5815 17.3961 17.5215 18.7961 18.3725C20.1961 19.2235 21.8791 19.3575 22.4451 22.4465C23.0111 25.5355 17.8281 30.5945 17.8281 30.5945" fill="#DA5742"/>
<path d="M1.72717 21.7308C0.893168 23.8308 3.54417 26.9238 4.81017 27.4918C5.31126 27.7195 5.86649 27.8011 6.41193 27.7272C6.95736 27.6532 7.47082 27.4267 7.89317 27.0738C8.34003 26.6263 8.59168 26.0202 8.59317 25.3878C9.44585 25.4487 10.2919 25.2002 10.9762 24.6878C11.2671 24.4003 11.483 24.0458 11.6051 23.6555C11.7271 23.2651 11.7515 22.8507 11.6762 22.4488C12.0471 22.4798 12.4201 22.4199 12.7627 22.2742C13.1053 22.1285 13.4072 21.9015 13.6422 21.6128C14.3422 20.6278 13.7762 17.9568 11.7362 16.2998C10.4402 15.2378 8.74217 14.7008 7.74417 15.5508C5.89817 17.1308 2.26817 20.3568 1.72717 21.7308Z" fill="#DA5742"/>
<path d="M11.706 22.5206L7.78905 18.3116C7.76399 18.2855 7.75 18.2507 7.75 18.2146C7.75 18.1784 7.76399 18.1436 7.78905 18.1176C7.81501 18.0923 7.84981 18.0781 7.88605 18.0781C7.92229 18.0781 7.95709 18.0923 7.98305 18.1176L11.915 22.3416C11.9401 22.3676 11.9541 22.4024 11.9541 22.4386C11.9541 22.4747 11.9401 22.5095 11.915 22.5356C11.8867 22.5579 11.851 22.5686 11.815 22.5656C11.7947 22.5668 11.7743 22.5634 11.7554 22.5556C11.7365 22.5478 11.7196 22.5358 11.706 22.5206Z" fill="#1F1F39"/>
<path d="M8.49021 25.4758L4.84121 21.4018C4.81807 21.3738 4.8067 21.338 4.8095 21.3018C4.8123 21.2656 4.82905 21.2319 4.85621 21.2078C4.88402 21.1847 4.91972 21.1734 4.95575 21.1762C4.99178 21.179 5.0253 21.1957 5.04921 21.2228L8.69821 25.2968C8.72135 25.3248 8.73272 25.3607 8.72992 25.3969C8.72712 25.433 8.71038 25.4667 8.68321 25.4908C8.65617 25.5074 8.62575 25.5176 8.59421 25.5208C8.57465 25.5213 8.55522 25.5175 8.53726 25.5098C8.5193 25.502 8.50325 25.4904 8.49021 25.4758Z" fill="#1F1F39"/>
<path d="M11.8101 28.7444C11.7211 28.7294 11.6611 28.6694 11.6761 28.5954C11.8562 26.8501 12.3883 25.1593 13.2401 23.6254C13.802 22.6528 14.6146 21.8488 15.5931 21.2974C15.5519 21.2668 15.5068 21.2416 15.4591 21.2224C14.3741 20.5514 11.8401 18.9544 11.6741 16.1334C11.6735 16.0959 11.6873 16.0596 11.7125 16.0319C11.7378 16.0042 11.7727 15.9872 11.8101 15.9844C11.8473 15.9837 11.8833 15.9972 11.911 16.0221C11.9386 16.0469 11.9558 16.0814 11.9591 16.1184C12.1081 18.7904 14.4741 20.2674 15.6081 20.9844C15.7415 21.0737 15.8605 21.1484 15.9651 21.2084L16.2031 21.3724L15.9351 21.4624C14.8959 21.9609 14.0411 22.7754 13.4931 23.7894C12.6717 25.29 12.1554 26.9383 11.9741 28.6394C11.9587 28.6696 11.9353 28.695 11.9063 28.7126C11.8773 28.7303 11.844 28.7396 11.8101 28.7394V28.7444Z" fill="#1F1F39"/>
<path d="M41.0244 66.2456L41.4794 66.5823L24.7851 89.1433L24.3301 88.8066L41.0244 66.2456Z" fill="#EAEAFF"/>
<path d="M59.439 62.8594C58.265 62.6204 57.49 62.5754 56.924 62.4414L56.239 67.0524C57.5368 66.9596 58.8077 66.6362 59.992 66.0974C61.5603 65.3687 62.8807 64.1964 63.79 62.7254C62.3837 63.193 60.8714 63.2396 59.439 62.8594Z" fill="#C43D28"/>
<path d="M60.4232 63.1426C59.2309 63.0748 58.0487 62.8848 56.8952 62.5756C56.8769 62.5708 56.8599 62.5622 56.8452 62.5504C56.8305 62.5386 56.8184 62.5238 56.8099 62.507C56.8013 62.4902 56.7963 62.4718 56.7953 62.4529C56.7944 62.4341 56.7974 62.4152 56.8042 62.3976C56.8088 62.3792 56.8173 62.3619 56.8292 62.347C56.8411 62.3321 56.856 62.3199 56.873 62.3113C56.8899 62.3027 56.9086 62.2978 56.9276 62.297C56.9466 62.2962 56.9656 62.2995 56.9832 62.3066C58.1188 62.6045 59.2812 62.7894 60.4532 62.8586C61.5134 62.9681 62.5846 62.8771 63.6112 62.5906C63.6288 62.5844 63.6476 62.5818 63.6662 62.583C63.6849 62.5842 63.7031 62.5891 63.7199 62.5975C63.7366 62.6059 63.7514 62.6176 63.7635 62.6319C63.7756 62.6462 63.7847 62.6627 63.7902 62.6806C63.7964 62.6982 63.7991 62.7169 63.798 62.7355C63.7968 62.7541 63.792 62.7723 63.7837 62.789C63.7754 62.8057 63.7638 62.8206 63.7496 62.8327C63.7354 62.8448 63.719 62.854 63.7012 62.8596C62.9116 63.0841 62.0929 63.1896 61.2722 63.1726C61.0042 63.1726 60.7212 63.1576 60.4232 63.1426Z" fill="#1F1F39"/>
<path d="M70.6411 56.1132C70.8699 54.9043 71.3466 53.7559 72.0411 52.7402C72.0411 52.7402 70.4471 52.7402 69.4201 55.6952C68.9542 56.8548 68.7557 58.1044 68.8391 59.3512C69.4585 59.3081 70.0722 59.2039 70.6711 59.0402C70.5143 58.0716 70.5042 57.0849 70.6411 56.1132Z" fill="#C43D28"/>
<path d="M68.9722 57.9485C68.8832 57.9335 68.8232 57.8745 68.8362 57.7995C68.958 56.7175 69.245 55.6605 69.6872 54.6655C70.2866 53.576 71.1794 52.6762 72.2642 52.0685C72.298 52.0514 72.3372 52.0481 72.3734 52.0593C72.4096 52.0704 72.44 52.0953 72.4582 52.1285C72.4683 52.1449 72.4748 52.1632 72.4772 52.1823C72.4796 52.2014 72.4779 52.2207 72.4722 52.2391C72.4665 52.2575 72.457 52.2744 72.4442 52.2888C72.4315 52.3032 72.4158 52.3147 72.3982 52.3225C71.3682 52.9034 70.5167 53.7552 69.9362 54.7855C69.5105 55.7535 69.2307 56.7794 69.1062 57.8295C69.0986 57.8606 69.0817 57.8886 69.0577 57.9098C69.0338 57.9311 69.004 57.9446 68.9722 57.9485Z" fill="#1F1F39"/>
<path d="M26.217 127.464L17.217 66.6348L66.817 121.435L26.217 127.464ZM26.517 86.4378L31.277 118.614L52.754 115.42L26.517 86.4378Z" fill="#EAEAFF"/>
<path d="M26.5999 106.675L23.3079 107.167L23.5309 108.689L26.8229 108.197C26.9241 108.186 27.0221 108.155 27.1108 108.105C27.1995 108.055 27.277 107.987 27.3384 107.906C27.3998 107.825 27.4439 107.732 27.4679 107.633C27.4919 107.534 27.4953 107.431 27.4779 107.331C27.4462 107.128 27.3366 106.947 27.1725 106.824C27.0084 106.701 26.8029 106.648 26.5999 106.675Z" fill="#FFFFFE"/>
<path d="M25.5121 99.2726L22.2061 99.7646L22.4291 101.287L25.7361 100.795C25.9374 100.766 26.1192 100.659 26.2419 100.496C26.3645 100.334 26.4182 100.13 26.3911 99.9286C26.3594 99.726 26.2497 99.5439 26.0854 99.4213C25.9211 99.2987 25.7153 99.2453 25.5121 99.2726Z" fill="#FFFFFE"/>
<path d="M26.064 102.974L22.772 103.466L22.995 104.988L26.287 104.496C26.4883 104.467 26.6701 104.36 26.7928 104.198C26.9155 104.035 26.9691 103.831 26.942 103.63C26.9103 103.427 26.8007 103.245 26.6366 103.123C26.4726 103 26.267 102.947 26.064 102.974Z" fill="#FFFFFE"/>
<path d="M27.702 114.077L24.425 114.569L24.648 116.091L27.925 115.599C28.0258 115.587 28.1231 115.555 28.2112 115.505C28.2992 115.455 28.3761 115.387 28.4373 115.306C28.4985 115.225 28.5427 115.133 28.5672 115.034C28.5918 114.936 28.5961 114.833 28.58 114.733C28.5484 114.531 28.4388 114.349 28.2747 114.226C28.1106 114.104 27.9051 114.05 27.702 114.077Z" fill="#FFFFFE"/>
<path d="M24.961 95.5714L21.655 96.0634L21.878 97.5854L25.185 97.0934C25.2853 97.0806 25.3821 97.0478 25.4695 96.9971C25.557 96.9464 25.6335 96.8787 25.6945 96.7981C25.7555 96.7174 25.7998 96.6254 25.8248 96.5274C25.8498 96.4294 25.855 96.3275 25.84 96.2274C25.8084 96.0249 25.6986 95.8428 25.5343 95.7201C25.37 95.5975 25.1642 95.5441 24.961 95.5714Z" fill="#FFFFFE"/>
<path d="M27.1509 110.376L23.8589 110.868L24.0819 112.39L27.3589 111.898C27.4609 111.888 27.5598 111.857 27.6495 111.808C27.7392 111.758 27.8178 111.69 27.8805 111.609C27.9433 111.528 27.9888 111.435 28.0143 111.336C28.0398 111.237 28.0448 111.133 28.0289 111.032C27.9972 110.83 27.8876 110.648 27.7236 110.525C27.5595 110.402 27.3539 110.349 27.1509 110.376Z" fill="#FFFFFE"/>
<path d="M23.323 84.4543L20.002 84.9463L20.225 86.4683L23.547 85.9763C23.6471 85.963 23.7436 85.93 23.8309 85.8792C23.9182 85.8283 23.9945 85.7607 24.0554 85.6801C24.1163 85.5996 24.1607 85.5077 24.1858 85.4099C24.211 85.3121 24.2165 85.2102 24.202 85.1103C24.1703 84.9077 24.0606 84.7256 23.8963 84.603C23.732 84.4803 23.5261 84.4269 23.323 84.4543Z" fill="#FFFFFE"/>
<path d="M28.2531 117.778L24.9761 118.27L25.1991 119.792L28.4761 119.3C28.5762 119.287 28.6727 119.254 28.76 119.203C28.8473 119.152 28.9236 119.085 28.9845 119.004C29.0455 118.924 29.0898 118.832 29.1149 118.734C29.1401 118.636 29.1456 118.534 29.1311 118.434C29.0994 118.232 28.9898 118.05 28.8257 117.927C28.6617 117.805 28.4561 117.751 28.2531 117.778Z" fill="#FFFFFE"/>
<path d="M23.8588 88.1554L20.5378 88.6474L20.7608 90.1694L24.0828 89.6774C24.1846 89.668 24.2832 89.6375 24.3725 89.5878C24.4618 89.5382 24.5398 89.4704 24.6014 89.3889C24.663 89.3074 24.707 89.214 24.7305 89.1146C24.754 89.0151 24.7565 88.9119 24.7378 88.8114C24.7062 88.6089 24.5965 88.4268 24.4322 88.3041C24.2678 88.1815 24.062 88.1281 23.8588 88.1554Z" fill="#FFFFFE"/>
<path d="M24.41 91.8722L21.104 92.3642L21.327 93.8862L24.634 93.3942C24.7343 93.3814 24.831 93.3486 24.9185 93.2979C25.006 93.2472 25.0825 93.1795 25.1435 93.0989C25.2045 93.0182 25.2488 92.9262 25.2738 92.8282C25.2987 92.7302 25.3039 92.6282 25.289 92.5282C25.2574 92.3257 25.1476 92.1435 24.9833 92.0209C24.819 91.8983 24.6132 91.8449 24.41 91.8722Z" fill="#FFFFFE"/>
<path d="M98.6562 119.017C97.9562 126.882 95.7072 133.478 85.9072 134.179C76.1072 134.88 62.2262 127.016 55.3752 119.718C48.5242 112.42 40.2432 104.272 40.2432 104.272C38.4841 104.298 36.7381 104.579 35.0602 105.108C32.6772 105.944 30.7112 105.808 30.1602 105.242C29.6092 104.676 29.7432 104.257 29.7432 104.257C29.7432 104.257 28.0602 104.123 27.6432 102.988C27.5086 102.727 27.4384 102.438 27.4384 102.145C27.4384 101.852 27.5086 101.563 27.6432 101.302C27.0691 101.246 26.5325 100.992 26.1249 100.584C25.7174 100.175 25.4644 99.6381 25.4092 99.064C25.1262 96.964 30.0262 94.438 31.9922 93.587C33.5772 92.9954 35.2193 92.5701 36.8922 92.318C36.8922 92.318 33.8092 91.618 31.8432 92.318C29.8772 93.018 28.7602 92.184 28.7602 90.918C28.7602 89.652 31.2772 87.543 35.3432 87.543C39.4092 87.543 45.9922 90.349 49.4922 93.438C52.9922 96.527 78.3562 108.317 78.3562 108.317L77.7902 104.943H98.5222V104.973C99.0369 109.638 99.0818 114.343 98.6562 119.017Z" fill="#DA5742"/>
<path d="M27.5383 101.407C27.5173 101.377 27.5088 101.341 27.5144 101.304C27.52 101.268 27.5393 101.236 27.5683 101.213C27.5983 101.198 29.9813 99.3624 32.2003 97.9704C33.3678 97.1862 34.6627 96.611 36.0273 96.2704C36.046 96.2666 36.0652 96.2666 36.0839 96.2706C36.1025 96.2746 36.1201 96.2825 36.1356 96.2937C36.151 96.3049 36.1639 96.3192 36.1735 96.3357C36.1831 96.3522 36.1892 96.3705 36.1913 96.3894C36.1956 96.4083 36.1959 96.4279 36.1922 96.4469C36.1884 96.4659 36.1806 96.4839 36.1694 96.4997C36.1581 96.5155 36.1436 96.5287 36.1269 96.5385C36.1102 96.5483 36.0916 96.5544 36.0723 96.5564C34.7401 96.8967 33.4759 97.4622 32.3343 98.2284C30.1293 99.6164 27.7463 101.436 27.7123 101.451C27.6893 101.459 27.666 101.465 27.6423 101.47C27.6204 101.473 27.5984 101.468 27.5796 101.457C27.5608 101.445 27.5463 101.428 27.5383 101.407Z" fill="#1F1F39"/>
<path d="M29.6242 104.348C29.6033 104.318 29.5947 104.281 29.6003 104.245C29.6059 104.208 29.6252 104.176 29.6542 104.154C31.2444 102.997 32.9458 102.002 34.7332 101.184C35.7233 100.692 36.7829 100.354 37.8752 100.184C37.9108 100.184 37.9448 100.198 37.97 100.223C37.9951 100.248 38.0092 100.282 38.0092 100.318C38.0092 100.353 37.9951 100.387 37.97 100.412C37.9448 100.437 37.9108 100.452 37.8752 100.452C36.8248 100.622 35.8059 100.949 34.8522 101.422C33.0883 102.232 31.4071 103.212 29.8322 104.348C29.8022 104.408 29.7722 104.408 29.7432 104.408C29.7199 104.409 29.6967 104.404 29.6758 104.393C29.6549 104.383 29.6372 104.367 29.6242 104.348Z" fill="#1F1F39"/>
<path d="M77.7903 104.975L78.3563 108.348L98.7013 106.575C98.6013 105.545 98.5223 104.975 98.5223 104.975H77.7903Z" fill="#C43D28"/>
<path d="M82.6912 110.168L75.0652 106.9L82.6912 110.168Z" fill="#1F1F39"/>
<path d="M82.6303 110.287L75.0053 107.019C74.9885 107.012 74.9732 107.002 74.9603 106.989C74.9475 106.977 74.9372 106.961 74.9302 106.945C74.9233 106.928 74.9197 106.91 74.9197 106.892C74.9197 106.874 74.9233 106.856 74.9303 106.84C74.937 106.823 74.947 106.807 74.9596 106.795C74.9723 106.782 74.9874 106.771 75.0041 106.764C75.0207 106.757 75.0386 106.754 75.0567 106.754C75.0748 106.754 75.0926 106.758 75.1093 106.765L82.7353 110.034C82.752 110.04 82.7672 110.05 82.7799 110.063C82.7927 110.076 82.8029 110.091 82.8097 110.108C82.8166 110.124 82.8201 110.142 82.8201 110.16C82.82 110.178 82.8163 110.196 82.8093 110.213C82.8041 110.23 82.7949 110.247 82.7825 110.261C82.7701 110.275 82.7548 110.285 82.7376 110.293C82.7205 110.3 82.702 110.303 82.6834 110.302C82.6648 110.301 82.6467 110.296 82.6303 110.288V110.287Z" fill="#1F1F39"/>
<path d="M74.856 89.5293L78.356 108.329L74.856 89.5293Z" fill="#1F1F39"/>
<path d="M78.219 108.362L74.719 89.5585C74.7146 89.5394 74.7144 89.5195 74.7184 89.5003C74.7224 89.4811 74.7304 89.463 74.742 89.4472C74.7535 89.4313 74.7683 89.4182 74.7854 89.4086C74.8025 89.399 74.8215 89.3931 74.841 89.3915C74.8599 89.3876 74.8794 89.3877 74.8983 89.3919C74.9171 89.3961 74.9348 89.4042 74.9503 89.4158C74.9658 89.4273 74.9787 89.4419 74.9881 89.4588C74.9975 89.4756 75.0033 89.4942 75.005 89.5135L78.505 108.313C78.5089 108.332 78.5088 108.351 78.5048 108.37C78.5008 108.389 78.493 108.406 78.4818 108.422C78.4706 108.437 78.4563 108.45 78.4398 108.46C78.4233 108.469 78.405 108.475 78.386 108.477H78.356C78.3234 108.477 78.2919 108.465 78.2669 108.444C78.242 108.424 78.225 108.395 78.219 108.362Z" fill="#1F1F39"/>
<path d="M53.6182 50.458C52.9714 50.3899 52.3177 50.477 51.7112 50.712C51.6512 51.637 51.6222 52.667 51.6512 53.712C52.168 53.9695 52.7289 54.1266 53.3042 54.175C54.9722 54.309 56.3872 53.593 56.4612 52.563C56.5352 51.533 55.2712 50.592 53.6182 50.458Z" fill="#C43D28"/>
<path opacity="0.52" d="M96.5341 20.3567C98.1826 20.3567 99.5191 19.0203 99.5191 17.3717C99.5191 15.7231 98.1826 14.3867 96.5341 14.3867C94.8855 14.3867 93.5491 15.7231 93.5491 17.3717C93.5491 19.0203 94.8855 20.3567 96.5341 20.3567Z" fill="white"/>
</svg>
