<svg width="36" height="51" viewBox="0 0 36 51" fill="none" xmlns="http://www.w3.org/2000/svg">
<path d="M18 36.8789C14.4399 36.8789 10.9598 35.8232 7.99974 33.8454C5.03966 31.8675 2.73255 29.0563 1.37018 25.7672C0.00779915 22.4781 -0.348661 18.8589 0.345873 15.3673C1.04041 11.8756 2.75474 8.66834 5.27209 6.15099C7.78943 3.63365 10.9967 1.91931 14.4884 1.22478C17.98 0.530245 21.5992 0.886705 24.8883 2.24908C28.1774 3.61146 30.9886 5.91857 32.9665 8.87865C34.9443 11.8387 36 15.3189 36 18.8789C36 23.6528 34.1036 28.2312 30.7279 31.6068C27.3523 34.9825 22.7739 36.8789 18 36.8789Z" fill="#FFEBF0"/>
<path d="M20.2 14.8892C20.5167 14.7283 20.8762 14.672 21.227 14.7282C21.5563 14.7519 21.8735 14.8627 22.146 15.0492" fill="white"/>
<path d="M17.0759 14.8892C16.7592 14.7283 16.3996 14.672 16.0489 14.7282C15.7194 14.7522 15.4023 14.8633 15.1299 15.0502" fill="white"/>
<path d="M27.0381 41.1758L29.6711 48.2098C31.9597 47.1274 34.0892 45.7364 36.0001 44.0758C35.5381 42.7198 35.1381 41.6938 35.1381 41.6938L27.0381 41.1758Z" fill="#DA5742"/>
<path d="M6.356 48.3452L9.1 40.9902L1 41.5082C1 41.5172 0.518 42.7572 0 44.3112C1.92373 45.9409 4.06243 47.2983 6.356 48.3452Z" fill="#DA5742"/>
<path d="M27.0381 41.1758L27.9481 43.5678L35.9821 44.0678C35.5451 42.8098 35.1381 41.6938 35.1381 41.6938L27.0381 41.1758Z" fill="#C43D28"/>
<path d="M9.18497 40.7305L8.27497 43.1225L0.115967 43.9175C0.552967 42.6675 1.08897 41.2485 1.08897 41.2485L9.18497 40.7305Z" fill="#C43D28"/>
<path d="M8.84701 30.1577C5.31001 31.7687 1.43801 36.7317 0.0100098 42.5517H6.33001L5.28501 47.8357C9.17882 49.8259 13.4901 50.8618 17.863 50.8577C22.253 50.8651 26.581 49.8213 30.485 47.8137L29.378 43.2347L35.769 42.6637C35.76 42.6637 34.287 34.4517 27.548 30.5637C22.147 27.4577 13.828 27.9217 8.84701 30.1577Z" fill="#3D5CFF"/>
<path d="M8.05195 36.5625L4.29395 42.5525L6.42695 42.5435L8.05195 36.5625Z" fill="#224BF4"/>
<path d="M29.3771 43.2305L31.2771 43.0695L27.0381 35.8125L29.3771 43.2305Z" fill="#224BF4"/>
<path d="M6.40895 42.6426C6.3868 42.6361 6.36792 42.6215 6.35606 42.6016C6.34421 42.5818 6.34024 42.5583 6.34495 42.5356L8.13195 35.9116C8.1385 35.8895 8.15313 35.8706 8.17296 35.8587C8.19278 35.8469 8.21634 35.8429 8.23895 35.8476C8.26073 35.8546 8.27915 35.8694 8.29061 35.8892C8.30207 35.9089 8.30576 35.9323 8.30095 35.9546L6.51595 42.5796C6.51089 42.5971 6.50041 42.6125 6.48604 42.6237C6.47167 42.6348 6.45413 42.6411 6.43595 42.6416L6.40895 42.6426Z" fill="#1F1F39"/>
<path d="M29.2071 43.23L26.9221 35.813C26.9183 35.8025 26.9167 35.7914 26.9174 35.7802C26.918 35.7691 26.9209 35.7582 26.9259 35.7483C26.9308 35.7383 26.9377 35.7294 26.9462 35.7221C26.9546 35.7149 26.9645 35.7094 26.9751 35.706C26.9856 35.7023 26.9967 35.7007 27.0078 35.7013C27.019 35.702 27.0298 35.7048 27.0398 35.7098C27.0498 35.7147 27.0587 35.7216 27.0659 35.7301C27.0732 35.7386 27.0787 35.7484 27.0821 35.759L29.3761 43.177C29.3798 43.1876 29.3813 43.1988 29.3806 43.2099C29.3799 43.2211 29.3769 43.232 29.3719 43.242C29.3669 43.252 29.3598 43.2609 29.3513 43.2681C29.3427 43.2753 29.3328 43.2807 29.3221 43.284C29.3041 43.284 29.2951 43.293 29.2861 43.293C29.2679 43.2922 29.2505 43.2856 29.2363 43.2743C29.2222 43.263 29.2119 43.2475 29.2071 43.23Z" fill="#1F1F39"/>
<path d="M11.607 15.5936C11.607 15.5936 9.51802 15.5936 8.95602 14.6836C8.80001 14.4364 8.74039 14.1406 8.78852 13.8523C8.83666 13.5641 8.98918 13.3036 9.21702 13.1206C8.90869 12.717 8.69954 12.2467 8.60643 11.7475C8.51333 11.2482 8.53888 10.7341 8.68102 10.2466C8.86985 9.7972 9.20636 9.42572 9.63493 9.19353C10.0635 8.96134 10.5585 8.88233 11.038 8.96957C11.038 8.96957 9.83302 6.83657 11.307 5.23857C13.107 3.27457 16.127 5.23857 16.127 5.23857C16.1851 4.88127 16.3688 4.55644 16.6451 4.32253C16.9214 4.08861 17.272 3.96097 17.634 3.96257C18.934 3.96257 18.934 4.74857 18.934 4.74857C19.3106 4.282 19.8184 3.93898 20.3918 3.76376C20.9652 3.58855 21.578 3.58918 22.151 3.76557C25.159 4.64957 24.641 7.98757 24.641 7.98757C24.8176 7.95059 24.9999 7.94934 25.177 7.98389C25.3541 8.01844 25.5225 8.08809 25.6722 8.18874C25.822 8.28939 25.9501 8.419 26.049 8.56994C26.1479 8.72087 26.2155 8.89007 26.248 9.06757C26.3668 9.43466 26.3395 9.83339 26.1719 10.1809C26.0043 10.5284 25.7092 10.798 25.348 10.9336C25.348 10.9336 26.562 10.7336 26.865 11.7196C26.9945 12.1318 26.9864 12.5749 26.8421 12.9822C26.6978 13.3894 26.4251 13.7388 26.065 13.9776L25.36 17.4146L11.899 17.9676L11.607 15.5936Z" fill="#1F1F39"/>
<path d="M9.27896 15.2889C7.82396 15.9589 7.67196 17.9759 8.76996 19.2439C9.86796 20.5119 12.635 20.2169 12.635 20.2169L12.233 15.6819C11.8073 15.3863 11.3172 15.1964 10.8035 15.1281C10.2898 15.0597 9.76713 15.1149 9.27896 15.2889Z" fill="#C43D28"/>
<path d="M26.72 15.2887C28.175 15.9577 28.327 17.9757 27.229 19.2427C26.131 20.5097 23.364 20.2157 23.364 20.2157L24.105 15.6187C24.4685 15.3288 24.9048 15.1445 25.3661 15.0863C25.8275 15.0281 26.2959 15.0981 26.72 15.2887Z" fill="#C43D28"/>
<path d="M24.1501 19.279C24.2169 18.7437 24.4238 18.2356 24.7501 17.806C25.1785 17.2124 25.7892 16.7752 26.4891 16.561C26.5032 16.5569 26.518 16.5556 26.5325 16.5575C26.5471 16.5593 26.5611 16.5641 26.5737 16.5716C26.5863 16.5791 26.5972 16.5892 26.6057 16.6011C26.6142 16.6131 26.6202 16.6267 26.6231 16.641C26.6273 16.6551 26.6285 16.6699 26.6267 16.6844C26.6249 16.699 26.6201 16.713 26.6126 16.7256C26.605 16.7382 26.595 16.7491 26.583 16.7576C26.5711 16.7661 26.5575 16.7721 26.5431 16.775C25.8958 16.975 25.3295 17.377 24.9271 17.922C24.6254 18.3182 24.4315 18.7857 24.3641 19.279C24.3636 19.3073 24.3522 19.3342 24.3322 19.3541C24.3123 19.3741 24.2854 19.3855 24.2571 19.386C24.2289 19.3855 24.202 19.3741 24.1821 19.3541C24.1621 19.3342 24.1507 19.3073 24.1501 19.279V19.279Z" fill="#1F1F39"/>
<path d="M12.1261 19.2794C12.0581 18.7868 11.8653 18.3197 11.5661 17.9224C11.1655 17.3757 10.5974 16.9747 9.94805 16.7804C9.92019 16.7723 9.89637 16.754 9.88122 16.7293C9.86606 16.7045 9.86066 16.675 9.86605 16.6464C9.87484 16.6186 9.8935 16.5948 9.91855 16.5797C9.94359 16.5646 9.97328 16.5592 10.0021 16.5644C10.7038 16.7739 11.3159 17.2108 11.7421 17.8064C12.072 18.2339 12.2794 18.7431 12.3421 19.2794C12.3421 19.2935 12.3393 19.3074 12.3339 19.3204C12.3285 19.3334 12.3206 19.3452 12.3107 19.3551C12.3008 19.365 12.289 19.3729 12.276 19.3783C12.263 19.3837 12.2491 19.3865 12.2351 19.3865C12.221 19.3865 12.2071 19.3837 12.1941 19.3783C12.1811 19.3729 12.1693 19.365 12.1594 19.3551C12.1495 19.3452 12.1416 19.3334 12.1362 19.3204C12.1308 19.3074 12.1281 19.2935 12.1281 19.2794H12.1261Z" fill="#1F1F39"/>
<path d="M14.9651 24.3043L14.5991 29.3743C14.5991 29.3743 15.1081 30.4903 17.7991 30.4903C20.7181 30.4903 21.5211 29.3743 21.5211 29.3743L21.3831 24.3803C21.3831 24.3803 23.2041 24.0853 24.0831 20.8013C24.6089 18.7838 24.757 16.6866 24.5201 14.6153C24.5201 14.6153 20.2201 15.2843 18.7631 13.4993C17.3061 11.7143 15.8371 9.92426 13.7241 10.8173C11.6111 11.7103 11.8761 17.4673 12.4301 20.2073C12.7789 21.8238 13.6742 23.2706 14.9651 24.3043Z" fill="#DA5742"/>
<path d="M15.9111 17.4675C15.7199 17.4497 15.5434 17.3574 15.4197 17.2105C15.296 17.0636 15.2351 16.8739 15.2501 16.6825C15.2348 16.4909 15.2956 16.301 15.4193 16.1539C15.5431 16.0067 15.7197 15.9143 15.9111 15.8965C16.1025 15.9143 16.2792 16.0067 16.4029 16.1539C16.5266 16.301 16.5874 16.4909 16.5721 16.6825C16.5871 16.8739 16.5262 17.0636 16.4025 17.2105C16.2788 17.3574 16.1023 17.4497 15.9111 17.4675Z" fill="#1F1F39"/>
<path d="M20.7231 17.4675C20.5319 17.4497 20.3554 17.3574 20.2317 17.2105C20.108 17.0636 20.0471 16.8739 20.0621 16.6825C20.0468 16.4909 20.1076 16.301 20.2314 16.1539C20.3551 16.0067 20.5317 15.9143 20.7231 15.8965C20.9145 15.9143 21.0912 16.0067 21.2149 16.1539C21.3386 16.301 21.3994 16.4909 21.3841 16.6825C21.3991 16.8739 21.3382 17.0636 21.2145 17.2105C21.0909 17.3574 20.9143 17.4497 20.7231 17.4675Z" fill="#1F1F39"/>
<path d="M17.811 17.7621C18.034 18.2081 18.611 17.9851 18.611 17.9851C18.611 17.9851 18.031 17.8331 18.031 17.3851C18.031 16.9371 17.99 15.4141 17.99 15.4141C17.8005 16.1814 17.74 16.9749 17.811 17.7621Z" fill="#1F1F39"/>
<path d="M14.759 28.0047C14.804 27.9917 19.588 26.1347 20.49 25.2867C20.49 24.7687 20.508 24.3867 20.508 24.3867C19.5663 24.7899 18.5365 24.9436 17.518 24.8327C16.6392 24.8365 15.7693 24.6566 14.964 24.3047C14.973 24.7597 14.804 27.8217 14.759 28.0047Z" fill="#C43D28"/>
<path d="M21.9271 19.4041C21.1431 19.4041 20.5081 19.0051 20.5081 18.5121C20.5081 18.0191 21.1431 17.6191 21.9271 17.6191C22.7111 17.6191 23.3471 18.0191 23.3471 18.5121C23.3471 19.0051 22.7081 19.4041 21.9271 19.4041Z" fill="#C43D28"/>
<path d="M14.42 19.4041C13.636 19.4041 13.001 19.0051 13.001 18.5121C13.001 18.0191 13.636 17.6191 14.42 17.6191C15.204 17.6191 15.84 18.0191 15.84 18.5121C15.84 19.0051 15.201 19.4041 14.42 19.4041Z" fill="#C43D28"/>
<path d="M18.3019 19.6099C18.6849 19.449 19.0453 19.2389 19.3739 18.9849C19.3739 18.9849 19.5529 18.8959 19.6419 18.9849C19.5739 19.25 19.4515 19.498 19.2825 19.7132C19.1134 19.9284 18.9014 20.1061 18.6599 20.2349C18.4184 20.3148 18.1575 20.3145 17.9161 20.2339C17.6748 20.1533 17.466 19.9969 17.3209 19.7879C17.0529 19.4309 17.4099 19.5199 17.4099 19.5199C17.6966 19.617 18.0016 19.6478 18.3019 19.6099Z" fill="white"/>
<path d="M14.911 22.4647C16.25 22.8217 16 23.4467 16.58 23.1787C17.16 22.9107 17.33 22.3787 18.508 22.5537C19.686 22.7287 19.427 23.3537 20.177 23.2677C21.1467 22.9734 22.0336 22.4551 22.766 21.7547C23.355 21.2147 24.185 20.3227 24.185 20.3227C24.185 20.3227 23.649 24.0717 20.668 24.9647C18.427 25.6337 15.25 25.3217 13.83 23.2647C13.0801 22.3293 12.5633 21.2291 12.322 20.0547C12.322 20.0547 13.572 22.1077 14.911 22.4647Z" fill="#1F1F39"/>
<path d="M16.276 22.0202C16.2631 22.0129 16.2521 22.0029 16.2435 21.9909C16.235 21.9788 16.2292 21.9651 16.2266 21.9505C16.2241 21.936 16.2247 21.9211 16.2286 21.9068C16.2325 21.8926 16.2394 21.8794 16.249 21.8682L16.606 21.3322C16.6132 21.3193 16.6232 21.3082 16.6353 21.2997C16.6473 21.2911 16.6611 21.2854 16.6756 21.2828C16.6902 21.2802 16.7051 21.2809 16.7193 21.2847C16.7336 21.2886 16.7468 21.2956 16.758 21.3052C16.7709 21.3124 16.782 21.3224 16.7905 21.3344C16.799 21.3465 16.8048 21.3603 16.8074 21.3748C16.8099 21.3893 16.8093 21.4042 16.8054 21.4185C16.8015 21.4327 16.7946 21.4459 16.785 21.4572L16.428 21.9932C16.4177 22.007 16.4042 22.0181 16.3887 22.0258C16.3733 22.0334 16.3562 22.0373 16.339 22.0372C16.3171 22.0357 16.2957 22.03 16.276 22.0202Z" fill="#1F1F39"/>
<path d="M14.376 21.6448C14.3602 21.6208 14.3541 21.5917 14.3591 21.5634C14.3642 21.5351 14.3799 21.5098 14.403 21.4928L14.938 21.1358C14.962 21.1199 14.9911 21.1139 15.0194 21.1189C15.0477 21.1239 15.073 21.1396 15.09 21.1628C15.1065 21.1869 15.1129 21.2165 15.1078 21.2453C15.1028 21.274 15.0867 21.2997 15.063 21.3168L14.528 21.6718C14.5088 21.6828 14.4871 21.6886 14.465 21.6888C14.4478 21.6889 14.4307 21.685 14.4153 21.6774C14.3998 21.6698 14.3864 21.6586 14.376 21.6448Z" fill="#1F1F39"/>
<path d="M18.196 22.1077V21.6617C18.1966 21.6335 18.208 21.6066 18.228 21.5866C18.2479 21.5666 18.2748 21.5552 18.303 21.5547C18.3308 21.5566 18.3569 21.5684 18.3766 21.5881C18.3963 21.6078 18.4082 21.6339 18.41 21.6617V22.1077C18.4112 22.1221 18.4093 22.1366 18.4044 22.1502C18.3994 22.1637 18.3916 22.1761 18.3814 22.1863C18.3713 22.1966 18.359 22.2045 18.3455 22.2096C18.3319 22.2147 18.3175 22.2167 18.303 22.2157C18.2747 22.2152 18.2476 22.2036 18.2276 22.1834C18.2076 22.1633 18.1963 22.1361 18.196 22.1077V22.1077Z" fill="#1F1F39"/>
<path d="M19.893 21.8779L19.714 21.4299C19.7085 21.4164 19.7058 21.4019 19.7061 21.3874C19.7063 21.3728 19.7094 21.3584 19.7153 21.3451C19.7212 21.3318 19.7297 21.3197 19.7403 21.3097C19.7509 21.2998 19.7634 21.292 19.777 21.2869C19.7905 21.2816 19.8048 21.279 19.8193 21.2793C19.8337 21.2796 19.848 21.2828 19.8612 21.2887C19.8744 21.2945 19.8863 21.303 19.8963 21.3135C19.9062 21.324 19.9139 21.3364 19.919 21.3499L20.098 21.7959C20.1035 21.8094 20.1062 21.8239 20.1059 21.8384C20.1057 21.853 20.1026 21.8674 20.0967 21.8807C20.0908 21.894 20.0823 21.906 20.0717 21.916C20.0611 21.926 20.0487 21.9338 20.035 21.9389C20.027 21.9479 20.018 21.9479 20 21.9479C19.9773 21.948 19.955 21.9414 19.936 21.929C19.917 21.9165 19.902 21.8988 19.893 21.8779Z" fill="#1F1F39"/>
<path d="M21.91 21.7525L21.285 21.3955C21.2592 21.3809 21.2401 21.3569 21.2317 21.3286C21.2233 21.3002 21.2263 21.2697 21.24 21.2435C21.2545 21.2177 21.2785 21.1986 21.3069 21.1902C21.3352 21.1818 21.3658 21.1848 21.392 21.1985L22.017 21.5555C22.0389 21.5679 22.0561 21.5871 22.066 21.6103C22.0759 21.6334 22.0779 21.6591 22.0718 21.6835C22.0657 21.7079 22.0517 21.7296 22.032 21.7453C22.0124 21.7611 21.9881 21.7699 21.963 21.7705C21.9442 21.7685 21.9261 21.7623 21.91 21.7525Z" fill="#1F1F39"/>
<g opacity="0.592">
<g opacity="0.592">
<path opacity="0.592" d="M12.9878 34.7667C13.0737 34.8114 13.1678 34.8384 13.2643 34.846C13.3609 34.8535 13.458 34.8415 13.5498 34.8107C13.7818 34.7487 14.0228 34.6317 14.2548 34.7567C14.3538 34.8108 14.432 34.8962 14.4772 34.9995C14.5224 35.1029 14.5322 35.2183 14.5048 35.3277C14.4868 35.4077 14.6118 35.4437 14.6298 35.3637C14.6555 35.263 14.656 35.1575 14.6314 35.0566C14.6068 34.9557 14.5578 34.8623 14.4887 34.7847C14.4196 34.7071 14.3325 34.6477 14.235 34.6116C14.1376 34.5755 14.0328 34.5638 13.9298 34.5777C13.7016 34.6478 13.4672 34.6957 13.2298 34.7207C12.9788 34.7037 12.9158 34.4717 12.8718 34.2487C12.8701 34.2403 12.8667 34.2324 12.8618 34.2254C12.857 34.2184 12.8508 34.2124 12.8437 34.2077C12.8365 34.2031 12.8285 34.1999 12.8202 34.1984C12.8118 34.1968 12.8032 34.1969 12.7948 34.1987C12.7865 34.2005 12.7786 34.2039 12.7716 34.2087C12.7645 34.2135 12.7585 34.2197 12.7539 34.2268C12.7492 34.234 12.746 34.242 12.7445 34.2504C12.7429 34.2587 12.7431 34.2673 12.7448 34.2757C12.76 34.4644 12.847 34.6401 12.9878 34.7667Z" fill="#BFE3C6"/>
<path opacity="0.592" d="M11.7298 39.2028C11.8341 39.4008 11.9959 39.5625 12.1938 39.6668C12.3988 39.7918 12.6138 39.9528 12.5598 40.2198C12.4968 40.5088 12.2208 40.6668 11.9878 40.7998C11.9741 40.8098 11.9646 40.8246 11.9612 40.8413C11.9579 40.858 11.9609 40.8753 11.9697 40.8899C11.9785 40.9044 11.9924 40.9152 12.0087 40.92C12.025 40.9248 12.0426 40.9233 12.0578 40.9158C12.3047 40.802 12.5104 40.6149 12.6468 40.3798C12.6949 40.2801 12.7121 40.1683 12.6963 40.0587C12.6804 39.9491 12.6322 39.8468 12.5578 39.7648C12.3988 39.5948 12.1668 39.5148 12.0058 39.3538C11.9067 39.2538 11.8401 39.1263 11.8146 38.9879C11.7891 38.8494 11.8059 38.7065 11.8628 38.5778C11.8808 38.5088 11.7468 38.4798 11.7208 38.5508C11.678 38.6544 11.6567 38.7656 11.6583 38.8777C11.6598 38.9898 11.6842 39.1004 11.7298 39.2028Z" fill="#BFE3C6"/>
<path opacity="0.592" d="M4.74889 36.8728C4.73105 36.7904 4.73861 36.7045 4.77057 36.6265C4.80252 36.5485 4.85738 36.482 4.92789 36.4358C5.26689 36.2218 5.60589 36.5358 5.93689 36.5608C6.23689 36.5878 6.43689 36.3198 6.51689 36.0518C6.554 35.9185 6.56286 35.7789 6.54288 35.642C6.52291 35.5051 6.47454 35.3739 6.40089 35.2568C6.39072 35.2437 6.37611 35.2347 6.35982 35.2317C6.34352 35.2286 6.32665 35.2315 6.3124 35.24C6.29814 35.2485 6.28747 35.2619 6.28241 35.2777C6.27734 35.2935 6.27822 35.3106 6.28489 35.3258C6.36866 35.4557 6.41471 35.6062 6.41788 35.7607C6.42106 35.9152 6.38125 36.0676 6.30289 36.2008C6.26596 36.2851 6.19868 36.3525 6.1144 36.3895C6.03012 36.4266 5.93499 36.4306 5.84789 36.4008C5.69049 36.3378 5.52955 36.284 5.36589 36.2398C5.23401 36.2034 5.09379 36.2117 4.96714 36.2635C4.8405 36.3152 4.73456 36.4075 4.66589 36.5258C4.61541 36.6625 4.59994 36.8096 4.62089 36.9538C4.62935 37.1317 4.65616 37.3083 4.70089 37.4808C4.71889 37.5608 4.84389 37.5258 4.82589 37.4448C4.77838 37.2577 4.75255 37.0658 4.74889 36.8728Z" fill="#BFE3C6"/>
<path opacity="0.592" d="M9.26585 46.0126C9.30256 45.9994 9.34183 45.995 9.38054 45.9997C9.41924 46.0044 9.45633 46.0181 9.48885 46.0396C9.61773 46.1253 9.73737 46.2241 9.84585 46.3346C10.0777 46.529 10.3587 46.6556 10.6578 46.7006C10.7876 46.721 10.9203 46.7117 11.0459 46.6734C11.1716 46.635 11.2869 46.5687 11.3832 46.4794C11.4794 46.39 11.5542 46.28 11.6018 46.1575C11.6493 46.0351 11.6685 45.9035 11.6578 45.7726C11.6408 45.6916 11.5158 45.7266 11.5338 45.8076C11.5477 45.9633 11.5084 46.1192 11.4223 46.2498C11.3362 46.3804 11.2085 46.4779 11.0598 46.5266C10.9022 46.5718 10.7363 46.5811 10.5746 46.554C10.4128 46.5268 10.2591 46.4638 10.1248 46.3696C9.98349 46.2785 9.85121 46.174 9.72985 46.0576C9.63759 45.9632 9.51976 45.8979 9.39085 45.8696C9.17685 45.8436 8.94485 46.0576 9.05185 46.2716C9.08785 46.3436 9.20385 46.2806 9.16785 46.2006C9.13185 46.1206 9.20385 46.0486 9.26585 46.0126Z" fill="#BFE3C6"/>
<path opacity="0.592" d="M18.344 44.2644C18.3522 44.3897 18.3906 44.5111 18.4559 44.6184C18.5212 44.7256 18.6115 44.8155 18.719 44.8804C18.942 45.0504 19.264 45.2014 19.319 45.5054C19.373 45.8444 18.98 45.9164 18.73 45.8894C18.641 45.8804 18.65 46.0144 18.73 46.0234C18.8509 46.0487 18.9763 46.0404 19.0928 45.9995C19.2093 45.9586 19.3124 45.8866 19.391 45.7914C19.4485 45.6739 19.4639 45.5403 19.4346 45.4128C19.4053 45.2854 19.3331 45.1719 19.23 45.0914C19.025 44.8864 18.73 44.7914 18.569 44.5384C18.5005 44.3854 18.4832 44.2143 18.5198 44.0507C18.5564 43.8871 18.6448 43.7396 18.772 43.6304C18.826 43.5774 18.728 43.4794 18.674 43.5414C18.4788 43.7335 18.3613 43.991 18.344 44.2644V44.2644Z" fill="#BFE3C6"/>
<path opacity="0.592" d="M25.824 45.8347C25.7602 45.9489 25.729 46.0784 25.7337 46.209C25.7385 46.3397 25.779 46.4666 25.851 46.5757C25.9401 46.7052 26.0035 46.8504 26.038 47.0037C26.0553 47.1535 26.0137 47.3041 25.922 47.4238C25.8739 47.4835 25.8138 47.5325 25.7456 47.5675C25.6774 47.6026 25.6026 47.6229 25.526 47.6271C25.4494 47.6313 25.3728 47.6194 25.3011 47.5922C25.2295 47.5649 25.1643 47.5228 25.11 47.4688C25.0967 47.4555 25.0787 47.448 25.06 47.448C25.0412 47.448 25.0232 47.4555 25.01 47.4688C24.9967 47.482 24.9893 47.5 24.9893 47.5187C24.9893 47.5375 24.9967 47.5555 25.01 47.5687C25.1113 47.663 25.2378 47.7258 25.3741 47.7496C25.5104 47.7734 25.6507 47.7571 25.778 47.7027C25.9008 47.643 26.0035 47.5485 26.0734 47.4311C26.1432 47.3136 26.1771 47.1783 26.171 47.0417C26.155 46.7277 25.86 46.5037 25.86 46.1827C25.8627 46.0344 25.921 45.8924 26.0234 45.785C26.1258 45.6775 26.2649 45.6125 26.413 45.6028C26.4307 45.6028 26.4478 45.5957 26.4603 45.5831C26.4729 45.5706 26.48 45.5535 26.48 45.5358C26.48 45.518 26.4729 45.5009 26.4603 45.4884C26.4478 45.4758 26.4307 45.4688 26.413 45.4688C26.2917 45.4745 26.174 45.5111 26.0709 45.5752C25.9678 45.6393 25.8828 45.7286 25.824 45.8347Z" fill="#BFE3C6"/>
<path opacity="0.592" d="M21.8879 33.5341C22.0023 33.7722 22.1596 33.9871 22.3519 34.1681C22.4589 34.2841 22.5519 34.4541 22.3789 34.5611C22.2288 34.6427 22.0578 34.6775 21.8879 34.6611C21.8701 34.6611 21.8531 34.6682 21.8405 34.6808C21.8279 34.6933 21.8209 34.7104 21.8209 34.7281C21.8209 34.7459 21.8279 34.7629 21.8405 34.7755C21.8531 34.7881 21.8701 34.7951 21.8879 34.7951C22.1109 34.8041 22.5039 34.7591 22.5929 34.5181C22.6819 34.2771 22.4499 34.0791 22.3069 33.9271C22.0873 33.7178 21.9591 33.4304 21.9499 33.1271C21.9498 32.9938 21.9908 32.8636 22.0674 32.7545C22.144 32.6453 22.2524 32.5624 22.3779 32.5171C22.3869 32.5148 22.3954 32.5108 22.4029 32.5052C22.4104 32.4996 22.4168 32.4926 22.4215 32.4846C22.4263 32.4765 22.4295 32.4676 22.4308 32.4584C22.4322 32.4491 22.4317 32.4397 22.4294 32.4306C22.4271 32.4216 22.423 32.4131 22.4174 32.4056C22.4118 32.3981 22.4048 32.3918 22.3968 32.387C22.3888 32.3822 22.3799 32.379 22.3706 32.3777C22.3614 32.3763 22.3519 32.3768 22.3429 32.3791C22.2348 32.4222 22.1368 32.4869 22.0547 32.5693C21.9726 32.6517 21.9083 32.7501 21.8657 32.8583C21.8231 32.9665 21.803 33.0823 21.8069 33.1985C21.8107 33.3147 21.8382 33.429 21.8879 33.5341Z" fill="#BFE3C6"/>
<path opacity="0.592" d="M21.7808 38.7373C22.0488 38.8803 22.1018 39.2103 22.1918 39.4693C22.2248 39.5969 22.2873 39.715 22.3741 39.8141C22.4609 39.9133 22.5697 39.9907 22.6918 40.0403C22.9544 40.134 23.2412 40.134 23.5038 40.0403C23.6538 39.9721 23.7886 39.8745 23.9004 39.7535C24.0122 39.6324 24.0987 39.4903 24.1548 39.3353C24.1908 39.2553 24.0548 39.2193 24.0298 39.2993C23.9754 39.4465 23.8897 39.5802 23.7787 39.6912C23.6677 39.8022 23.534 39.8879 23.3868 39.9423C23.2415 39.9857 23.0879 39.9937 22.9388 39.9657C22.7897 39.9377 22.6495 39.8745 22.5298 39.7813C22.3158 39.5813 22.2978 39.2633 22.1908 39.0043C22.1492 38.8935 22.0824 38.7938 21.9956 38.7133C21.9088 38.6327 21.8045 38.5735 21.6908 38.5403C21.56 38.5081 21.4231 38.5101 21.2933 38.5462C21.1635 38.5823 21.0452 38.6512 20.9498 38.7463C20.8788 38.8263 20.9678 38.9163 21.0298 38.8533C21.1247 38.7539 21.2497 38.6886 21.3856 38.6676C21.5214 38.6466 21.6604 38.6711 21.7808 38.7373Z" fill="#BFE3C6"/>
<path opacity="0.592" d="M30.002 36.2129C29.9281 36.4394 29.9303 36.6838 30.008 36.9089C30.053 37.1409 30.062 37.4089 29.829 37.5429C29.7267 37.5946 29.6089 37.6067 29.4982 37.577C29.3875 37.5473 29.2917 37.4779 29.229 37.3819C29.184 37.3109 29.068 37.3819 29.113 37.4529C29.1707 37.5443 29.2514 37.6188 29.3471 37.669C29.4428 37.7192 29.55 37.7433 29.658 37.7389C29.7649 37.7303 29.867 37.6912 29.9524 37.6264C30.0379 37.5615 30.1029 37.4736 30.14 37.3729C30.1816 37.1195 30.1648 36.8599 30.091 36.6139C30.0623 36.4827 30.0845 36.3455 30.153 36.2299C30.1819 36.1825 30.2253 36.1456 30.2768 36.1247C30.3283 36.1038 30.3852 36.1 30.439 36.1139C30.519 36.1229 30.555 35.9979 30.475 35.9709C30.3803 35.9498 30.2812 35.9624 30.1948 36.0066C30.1084 36.0508 30.0402 36.1238 30.002 36.2129Z" fill="#BFE3C6"/>
</g>
<path opacity="0.592" d="M35.4338 41.4061L35.443 41.4946L28.9352 42.1725L28.926 42.084L35.4338 41.4061Z" fill="#BFE3C6"/>
<path opacity="0.592" d="M6.7565 41.0451L6.75841 41.1341L0.3149 41.2726L0.312988 41.1836L6.7565 41.0451Z" fill="#BFE3C6"/>
</g>
</svg>
