<svg width="79" height="70" viewBox="0 0 79 70" fill="none" xmlns="http://www.w3.org/2000/svg">
<path d="M48.6379 42.1777L51.0759 48.6777C53.1952 47.6777 55.1675 46.392 56.9379 44.8567C56.5079 43.6037 56.1379 42.6567 56.1379 42.6567L48.6379 42.1777Z" fill="#DA5742"/>
<path d="M29.4868 48.7989L32.0328 42.0059L24.5358 42.4839C24.5278 42.4919 24.0808 43.6379 23.6018 45.0729C25.3836 46.5784 27.3638 47.8321 29.4868 48.7989Z" fill="#DA5742"/>
<path d="M48.6379 42.1777L49.4809 44.3867L56.9199 44.8487C56.5149 43.6867 56.1379 42.6557 56.1379 42.6557L48.6379 42.1777Z" fill="#C43D28"/>
<path d="M32.11 41.7656L31.264 43.9746L23.71 44.7086C24.115 43.5546 24.61 42.2436 24.61 42.2436L32.11 41.7656Z" fill="#C43D28"/>
<path d="M31.7938 32.003C28.5208 33.487 24.9328 38.071 23.6108 43.446H29.4628L28.4958 48.327C32.1028 50.1639 36.0941 51.119 40.1418 51.114C44.2058 51.1208 48.2125 50.1571 51.8288 48.303L50.8038 44.074L56.7218 43.546C56.7138 43.546 55.3498 35.961 49.1098 32.375C44.1108 29.505 36.4058 29.937 31.7938 32.003Z" fill="#3D5CFF"/>
<path opacity="0.467" d="M32.7189 38.5995C32.5739 40.9825 32.4459 43.3566 32.3059 45.7395C32.2309 47.0665 32.1489 48.3935 32.0739 49.7125C32.0659 49.8695 32.3139 49.8695 32.3219 49.7125C32.4629 47.3385 32.6029 44.9725 32.7349 42.5975C32.8669 40.2225 33.0079 37.8485 33.1479 35.4745C33.2219 34.1635 33.3049 32.8525 33.3789 31.5425C33.3869 31.3855 33.1389 31.3855 33.1309 31.5505C32.9909 33.9005 32.8536 36.2502 32.7189 38.5995Z" fill="#CDECFE"/>
<path opacity="0.467" d="M35.992 38.5173C35.942 41.0973 35.892 43.6863 35.843 46.2663C35.819 47.7173 35.786 49.1763 35.761 50.6273C35.761 50.6602 35.7741 50.6917 35.7973 50.715C35.8206 50.7383 35.8521 50.7513 35.885 50.7513C35.9179 50.7513 35.9494 50.7383 35.9727 50.715C35.9959 50.6917 36.009 50.6602 36.009 50.6273C36.0583 48.0386 36.109 45.4503 36.161 42.8623L36.315 35.1203C36.34 33.6783 36.373 32.2273 36.397 30.7843C36.398 30.7514 36.386 30.7195 36.3635 30.6955C36.341 30.6715 36.3099 30.6574 36.277 30.6563C36.2441 30.6553 36.2121 30.6673 36.1881 30.6898C36.1641 30.7123 36.15 30.7434 36.149 30.7763C36.0997 33.3563 36.0473 35.9366 35.992 38.5173Z" fill="#CDECFE"/>
<path opacity="0.467" d="M39.852 38.4937C39.894 41.1367 39.943 43.7857 39.984 46.4367C40.009 47.9287 40.034 49.4297 40.058 50.9217C40.058 50.9546 40.071 50.9861 40.0943 51.0094C40.1175 51.0326 40.1491 51.0457 40.182 51.0457C40.2149 51.0457 40.2464 51.0326 40.2697 51.0094C40.2929 50.9861 40.306 50.9546 40.306 50.9217C40.266 48.2707 40.22 45.6247 40.175 42.9777C40.13 40.3307 40.084 37.6857 40.042 35.0367C40.02 33.5467 39.993 32.0467 39.968 30.5537C39.968 30.5208 39.9549 30.4893 39.9317 30.466C39.9084 30.4428 39.8769 30.4297 39.844 30.4297C39.8111 30.4297 39.7795 30.4428 39.7563 30.466C39.733 30.4893 39.72 30.5208 39.72 30.5537C39.761 33.2007 39.811 35.8467 39.852 38.4937Z" fill="#CDECFE"/>
<path opacity="0.467" d="M43.5719 34.2886C43.6459 35.5886 43.7369 36.8936 43.8199 38.1966C43.9109 39.5156 44.0019 40.8266 44.1089 42.1456C44.2089 43.4456 44.3159 44.7586 44.4309 46.0616C44.5383 47.3149 44.6539 48.5679 44.7779 49.8206C44.7949 49.9686 44.8109 50.1206 44.8189 50.2656C44.8269 50.4106 45.0829 50.4226 45.0669 50.2656C44.9429 49.0206 44.8269 47.7756 44.7199 46.5396C44.6039 45.2396 44.4969 43.9346 44.3979 42.6396C44.2979 41.3206 44.1979 40.0096 44.1089 38.6906C44.0199 37.3716 43.9359 36.0776 43.8529 34.7666C43.7779 33.5136 43.7039 32.2526 43.6379 30.9996L43.6129 30.5546C43.6049 30.3896 43.3569 30.3896 43.3649 30.5456C43.4309 31.7906 43.4969 33.0356 43.5719 34.2886Z" fill="#CDECFE"/>
<path opacity="0.467" d="M47.7949 38.2786C48.1749 40.5786 48.5553 42.8816 48.9359 45.1876C49.1429 46.4406 49.3489 47.7016 49.5559 48.9556C49.5809 49.1126 49.8199 49.0466 49.7959 48.8896C49.4229 46.6216 49.0509 44.3626 48.6759 42.0956C48.2979 39.7956 47.9189 37.4926 47.5389 35.1866C47.3319 33.9296 47.1249 32.6726 46.9189 31.4196C46.8859 31.2626 46.6459 31.3296 46.6759 31.4856C47.0509 33.7526 47.4229 36.0116 47.7949 38.2786Z" fill="#CDECFE"/>
<path opacity="0.467" d="M29.0899 37.1496C28.7899 38.4496 28.5029 39.7626 28.2219 41.0656C28.0569 41.8156 27.8999 42.5666 27.7399 43.3246C27.7069 43.4816 27.9469 43.5476 27.9799 43.3906C28.2559 42.0636 28.5399 40.7446 28.8339 39.4166C29.1229 38.1166 29.4209 36.8036 29.7099 35.5006C29.8839 34.7506 30.0489 34.0006 30.2099 33.2496C30.2117 33.2218 30.2037 33.1943 30.1873 33.1719C30.1709 33.1494 30.1471 33.1334 30.1201 33.1266C30.0932 33.1199 30.0647 33.1227 30.0396 33.1348C30.0145 33.1468 29.9945 33.1673 29.9829 33.1926L29.0899 37.1496Z" fill="#CDECFE"/>
<path opacity="0.467" d="M51.647 37.4211C52.069 38.7571 52.498 40.1001 52.928 41.4361C53.168 42.1861 53.416 42.9361 53.672 43.6781C53.722 43.8261 53.961 43.7601 53.912 43.6121C53.466 42.2851 53.036 40.9491 52.606 39.6121C52.176 38.2751 51.754 36.9351 51.324 35.5991C51.085 34.8491 50.834 34.0991 50.58 33.3571C50.534 33.2001 50.291 33.2671 50.341 33.4231C50.787 34.7501 51.217 36.0851 51.647 37.4211Z" fill="#CDECFE"/>
<path d="M31.0579 37.916L27.5779 43.448L29.5529 43.44L31.0579 37.916Z" fill="#224BF4"/>
<path d="M50.8039 44.0737L52.5639 43.9227L48.6379 37.2227L50.8039 44.0737Z" fill="#224BF4"/>
<path d="M29.5369 43.5307C29.5164 43.5247 29.499 43.5111 29.4881 43.4928C29.4771 43.4744 29.4735 43.4526 29.4779 43.4317L31.1329 37.3147C31.139 37.2943 31.1525 37.2768 31.1709 37.2659C31.1892 37.255 31.211 37.2513 31.2319 37.2557C31.2524 37.262 31.2698 37.2758 31.2805 37.2944C31.2913 37.3129 31.2946 37.3348 31.2899 37.3557L29.6369 43.4737C29.6324 43.49 29.6228 43.5045 29.6095 43.5149C29.5961 43.5254 29.5798 43.5313 29.5629 43.5317L29.5369 43.5307Z" fill="#1F1F39"/>
<path d="M50.647 44.073L48.531 37.218C48.5274 37.2082 48.5259 37.1977 48.5265 37.1873C48.5271 37.1768 48.5298 37.1666 48.5345 37.1573C48.5392 37.1479 48.5457 37.1396 48.5537 37.1329C48.5617 37.1261 48.571 37.1211 48.581 37.118C48.5908 37.1144 48.6012 37.1128 48.6116 37.1134C48.622 37.1139 48.6321 37.1166 48.6415 37.1211C48.6508 37.1257 48.6592 37.1321 48.6659 37.14C48.6727 37.1479 48.6779 37.1571 48.681 37.167L50.804 44.023C50.8076 44.0329 50.8091 44.0433 50.8085 44.0538C50.8079 44.0642 50.8052 44.0744 50.8005 44.0838C50.7958 44.0931 50.7893 44.1014 50.7813 44.1082C50.7733 44.1149 50.764 44.12 50.754 44.123C50.737 44.123 50.729 44.131 50.721 44.131C50.7041 44.1306 50.6878 44.1247 50.6744 44.1142C50.6611 44.1038 50.6515 44.0893 50.647 44.073Z" fill="#1F1F39"/>
<path d="M36.24 27.9485C35.496 27.7835 35.413 27.3715 35.413 27.3715C35.413 27.3715 35.165 27.8665 33.677 27.7015C33.237 27.6402 32.8212 27.4629 32.4725 27.1877C32.1238 26.9124 31.8547 26.5492 31.693 26.1355C31.693 26.1355 29.875 25.8055 29.544 24.8165C29.356 24.3747 29.2712 23.8959 29.296 23.4165C28.6325 22.8553 28.2171 22.055 28.14 21.1895C28.223 20.0355 28.64 19.7895 28.64 19.7895C28.64 19.7895 27.979 19.2125 28.14 18.7175C28.1699 18.5878 28.2311 18.4674 28.3183 18.3668C28.4054 18.2662 28.5159 18.1885 28.64 18.1405C28.64 18.1405 26.901 16.4065 27.479 14.5105C28.057 12.6145 29.461 12.6145 29.461 12.6145C29.3967 12.4056 29.4123 12.1803 29.5047 11.9822C29.597 11.7842 29.7597 11.6274 29.961 11.5425C30.705 11.1305 31.035 11.2125 31.035 11.2125C31.035 11.2125 30.87 9.15146 31.944 8.65646C32.561 8.36093 33.2574 8.27424 33.928 8.40946C33.928 8.40946 33.845 7.25546 34.589 7.17246C34.7886 7.14027 34.9932 7.16194 35.1817 7.23525C35.3701 7.30855 35.5356 7.43083 35.661 7.58946C35.661 7.58946 35.661 7.25946 36.322 7.17746C36.983 7.09546 37.066 7.34246 37.066 7.34246C37.116 6.87778 37.3398 6.44918 37.6925 6.1426C38.0453 5.83603 38.5009 5.67416 38.968 5.68946C39.406 5.6443 39.8482 5.7114 40.253 5.88443C40.6579 6.05746 41.012 6.33072 41.282 6.67846C41.4296 6.45068 41.6432 6.27338 41.8943 6.17027C42.1454 6.06717 42.4219 6.04316 42.687 6.10146C42.9534 6.13151 43.2002 6.2563 43.3823 6.45308C43.5644 6.64985 43.6697 6.90552 43.679 7.17346C44.0275 6.87691 44.4506 6.68167 44.9024 6.60902C45.3541 6.53638 45.8172 6.5891 46.241 6.76146C47.977 7.25646 48.473 10.3065 48.473 10.3065C48.8302 10.2143 49.2079 10.2432 49.547 10.3885C50.047 10.6355 49.96 11.5425 49.96 11.5425C50.3802 11.5598 50.7856 11.7023 51.1242 11.9518C51.4627 12.2013 51.719 12.5463 51.86 12.9425C52.191 14.2615 51.86 14.7565 51.86 14.7565C52.2791 15.1858 52.5882 15.7101 52.7609 16.2847C52.9336 16.8593 52.9649 17.4672 52.852 18.0565C52.7313 19.0439 52.2975 19.9667 51.614 20.6895C51.7978 21.2518 51.7978 21.8581 51.614 22.4205C51.5359 22.6254 51.4012 22.8039 51.2256 22.9353C51.05 23.0666 50.8407 23.1454 50.622 23.1625C50.622 23.1625 50.87 24.3165 50.291 24.7285C50.1265 24.8489 49.9384 24.9332 49.7389 24.9758C49.5395 25.0184 49.3334 25.0182 49.134 24.9755C48.9243 25.5882 48.5768 26.1447 48.1183 26.602C47.6597 27.0594 47.1023 27.4054 46.489 27.6135C45.1232 27.983 43.6743 27.8981 42.361 27.3715L37.484 28.1135C37.0649 28.0997 36.6482 28.0444 36.24 27.9485Z" fill="#F99A3D"/>
<path d="M33.777 20.1995C34.0062 20.2895 34.223 20.4085 34.422 20.5535C34.6326 19.1814 35.2091 17.8915 36.091 16.8195C36.5192 16.3664 37.0923 16.0772 37.7112 16.002C38.33 15.9267 38.9557 16.0702 39.48 16.4075C40.637 17.3145 41.133 18.7985 41.88 18.3865C42.627 17.9745 43.45 17.1495 44.28 17.8095C44.9 18.3045 45.007 19.8295 45.024 20.5545C45.225 20.4126 45.4414 20.2938 45.669 20.2005C45.9267 20.0954 46.208 20.0615 46.4833 20.1022C46.7586 20.143 47.018 20.257 47.2342 20.4322C47.4504 20.6075 47.6156 20.8376 47.7125 21.0985C47.8094 21.3594 47.8344 21.6416 47.785 21.9155C47.8131 22.2487 47.7567 22.5836 47.6208 22.8892C47.485 23.1948 47.2742 23.4611 47.008 23.6635C46.2498 23.9642 45.4303 24.0774 44.619 23.9935C44.5094 24.4803 44.3373 24.9508 44.107 25.3935C43.6481 26.1493 43.0606 26.819 42.371 27.3725V29.3265L42.553 31.9895C42.3842 32.072 42.2101 32.1435 42.032 32.2035C41.7942 32.2986 41.5477 32.3703 41.296 32.4175C40.7833 32.5327 40.2595 32.5907 39.734 32.5905C39.2081 32.5989 38.6833 32.5408 38.172 32.4175C37.9194 32.3742 37.6724 32.3024 37.436 32.2035C37.2579 32.1435 37.0838 32.072 36.915 31.9895L37.097 29.3265V27.3715C36.4061 26.8187 35.8172 26.1492 35.357 25.3935C35.0978 24.9754 34.9466 24.4995 34.917 24.0085C34.0772 24.1255 33.2214 24.0057 32.446 23.6625C32.1766 23.4623 31.9628 23.1967 31.8247 22.8909C31.6866 22.585 31.6289 22.2489 31.657 21.9145C31.6065 21.64 31.6309 21.3569 31.7277 21.0951C31.8246 20.8332 31.9902 20.6024 32.2072 20.4268C32.4243 20.2513 32.6846 20.1375 32.9609 20.0975C33.2371 20.0575 33.5191 20.0927 33.777 20.1995Z" fill="#DA5742"/>
<path d="M37.075 29.3333L37.009 30.3563C37.9315 30.2803 38.8396 30.0808 39.709 29.7633C40.6524 29.4135 41.5434 28.9361 42.357 28.3443V27.3713C40.869 28.2783 37.728 27.9483 37.075 27.3633V29.3333Z" fill="#C43D28"/>
<path d="M37.0172 27.42C37 27.4028 36.9897 27.3798 36.9882 27.3555C36.9867 27.3312 36.9942 27.3072 37.0092 27.288C37.0172 27.2786 37.027 27.271 37.0381 27.2655C37.0491 27.26 37.0611 27.2568 37.0735 27.256C37.0858 27.2553 37.0981 27.257 37.1097 27.2611C37.1214 27.2653 37.1321 27.2717 37.1412 27.28C38.0603 27.7434 39.0935 27.9323 40.1172 27.824C40.1292 27.8223 40.1414 27.8231 40.1531 27.8264C40.1648 27.8296 40.1756 27.8353 40.185 27.8431C40.1943 27.8508 40.202 27.8604 40.2074 27.8713C40.2128 27.8821 40.2159 27.894 40.2165 27.9061C40.217 27.9182 40.215 27.9303 40.2106 27.9416C40.2063 27.9529 40.1995 27.9632 40.1909 27.9718C40.1823 27.9803 40.172 27.987 40.1607 27.9913C40.1494 27.9957 40.1373 27.9976 40.1252 27.997C40.0023 28.0176 39.8777 28.026 39.7532 28.022C38.8023 28.0879 37.8525 27.8789 37.0172 27.42Z" fill="#1F1F39"/>
<path d="M45.1089 20.4877C45.1151 21.1922 45.0515 21.8956 44.9189 22.5877C44.8609 22.9617 44.6549 23.6617 44.5549 24.0247C45.3883 24.1216 46.2326 23.9963 47.0019 23.6617C47.2667 23.458 47.4765 23.1915 47.6122 22.8862C47.7479 22.581 47.8052 22.2467 47.7789 21.9137C47.8275 21.64 47.8018 21.3583 47.7046 21.0978C47.6074 20.8374 47.4422 20.6078 47.2262 20.4328C47.0102 20.2579 46.7513 20.144 46.4764 20.103C46.2015 20.062 45.9206 20.0953 45.6629 20.1997C45.4707 20.2803 45.2854 20.3767 45.1089 20.4877Z" fill="#C43D28"/>
<path d="M35.3401 25.3919C35.3481 25.4079 35.3641 25.4329 35.3731 25.4489C35.2901 25.2849 35.2071 25.1199 35.1331 24.9629C35.1911 25.0949 35.2571 25.2349 35.3401 25.3919Z" fill="#C43D28"/>
<path d="M33.7691 20.1988C33.5111 20.0927 33.2294 20.058 32.9535 20.0983C32.6775 20.1386 32.4175 20.2525 32.2007 20.4279C31.9838 20.6033 31.8182 20.8338 31.7212 21.0952C31.6241 21.3567 31.5992 21.6394 31.6491 21.9138C31.6216 22.2472 31.6787 22.5822 31.8153 22.8876C31.9518 23.193 32.1633 23.459 32.4301 23.6608C33.1828 24.0016 34.0161 24.1243 34.8351 24.0148C34.5999 22.8464 34.4234 21.6669 34.3061 20.4808C34.1363 20.3701 33.9565 20.2757 33.7691 20.1988Z" fill="#C43D28"/>
<path d="M34.5049 23.2713C34.4471 22.8697 34.2847 22.4903 34.0339 22.1713C33.693 21.733 33.2256 21.41 32.6949 21.2463C32.673 21.2391 32.6542 21.2244 32.6418 21.2049C32.6294 21.1854 32.6242 21.1622 32.6269 21.1393C32.6342 21.117 32.6492 21.0979 32.6691 21.0855C32.689 21.073 32.7127 21.068 32.7359 21.0713C33.317 21.2358 33.8261 21.5904 34.1819 22.0783C34.4565 22.4243 34.6296 22.8397 34.6819 23.2783C34.6836 23.2899 34.6826 23.3018 34.6791 23.313C34.6757 23.3243 34.6698 23.3346 34.6618 23.3433C34.6539 23.352 34.6442 23.3588 34.6333 23.3633C34.6224 23.3678 34.6107 23.3698 34.5989 23.3693C34.5862 23.3696 34.5735 23.3672 34.5617 23.3624C34.5499 23.3575 34.5392 23.3502 34.5304 23.341C34.5215 23.3318 34.5147 23.3208 34.5103 23.3088C34.5059 23.2968 34.5041 23.284 34.5049 23.2713Z" fill="#1F1F39"/>
<path d="M44.8609 23.2735C44.9171 22.8359 45.0898 22.4215 45.3609 22.0735C45.7218 21.5929 46.2272 21.2407 46.8029 21.0685C46.8146 21.0647 46.827 21.0636 46.8393 21.0652C46.8515 21.0668 46.8632 21.0711 46.8735 21.0778C46.8839 21.0845 46.8926 21.0934 46.899 21.1039C46.9055 21.1144 46.9096 21.1262 46.9109 21.1385C46.9147 21.1498 46.9159 21.1619 46.9145 21.1738C46.9131 21.1857 46.9092 21.1972 46.9029 21.2074C46.8966 21.2176 46.8881 21.2263 46.8781 21.2328C46.8681 21.2394 46.8567 21.2437 46.8449 21.2455C46.3087 21.4015 45.8384 21.7289 45.5059 22.1775C45.2552 22.4965 45.0927 22.8758 45.0349 23.2775C45.0365 23.2891 45.0356 23.301 45.0321 23.3122C45.0286 23.3234 45.0227 23.3338 45.0148 23.3425C45.0068 23.3512 44.9971 23.358 44.9862 23.3625C44.9754 23.367 44.9636 23.369 44.9519 23.3685C44.9396 23.3683 44.9275 23.3658 44.9163 23.3609C44.905 23.356 44.8949 23.349 44.8864 23.3401C44.8779 23.3313 44.8713 23.3208 44.8669 23.3094C44.8625 23.2979 44.8605 23.2857 44.8609 23.2735Z" fill="#1F1F39"/>
<path d="M37.0669 20.5291C37.0669 20.5291 37.1329 19.8691 37.6129 19.8691C38.0929 19.8691 38.1589 20.5291 38.1589 20.5291" fill="white"/>
<path d="M41.2571 20.5291C41.2571 20.5291 41.3231 19.8691 41.8031 19.8691C42.2831 19.8691 42.3491 20.5291 42.3491 20.5291" fill="white"/>
<path d="M39.7121 21.7065C39.6529 21.8465 39.6112 21.9933 39.5881 22.1435C39.5757 22.2059 39.5875 22.2706 39.6211 22.3245C39.6211 22.3325 39.6291 22.3325 39.6291 22.3405L39.6461 22.3565C39.6586 22.3666 39.6724 22.3751 39.6871 22.3815C39.7137 22.4009 39.7453 22.4124 39.7781 22.4145C39.9282 22.4242 40.0778 22.3895 40.2081 22.3145C40.1566 22.3797 40.0919 22.4332 40.0181 22.4715C39.9399 22.5164 39.8501 22.537 39.7601 22.5305C39.7142 22.5255 39.6697 22.5116 39.6291 22.4895C39.6068 22.4808 39.5868 22.4667 39.5711 22.4485L39.5461 22.4235C39.5358 22.4141 39.5274 22.403 39.5211 22.3905C39.4666 22.3111 39.4448 22.2137 39.4601 22.1185C39.4716 22.0326 39.4951 21.9488 39.5301 21.8695C39.5551 21.7975 39.5961 21.7225 39.6291 21.6485C39.7033 21.5128 39.7921 21.3857 39.8941 21.2695C39.8271 21.4175 39.7701 21.5695 39.7121 21.7065Z" fill="#1F1F39"/>
<path d="M39.1331 23.6781C39.2307 23.904 39.4004 24.0913 39.6157 24.2106C39.831 24.33 40.0797 24.3748 40.3231 24.3381C41.0331 24.2381 41.1171 23.4141 41.1171 23.4141" fill="white"/>
<path d="M37.6861 22.3424C37.5282 22.3245 37.3836 22.2455 37.2832 22.1224C37.1829 21.9992 37.1347 21.8417 37.1491 21.6834C37.1344 21.525 37.1825 21.3672 37.2829 21.2439C37.3833 21.1205 37.528 21.0413 37.6861 21.0234C37.8441 21.0413 37.9889 21.1205 38.0892 21.2439C38.1896 21.3672 38.2377 21.525 38.2231 21.6834C38.2374 21.8417 38.1892 21.9992 38.0889 22.1224C37.9885 22.2455 37.8439 22.3245 37.6861 22.3424Z" fill="#1F1F39"/>
<path d="M41.8191 22.3424C41.6613 22.3245 41.5167 22.2455 41.4163 22.1224C41.3159 21.9992 41.2678 21.8417 41.2821 21.6834C41.2675 21.525 41.3155 21.3672 41.4159 21.2439C41.5163 21.1205 41.6611 21.0413 41.8191 21.0234C41.9772 21.0413 42.1219 21.1205 42.2223 21.2439C42.3227 21.3672 42.3707 21.525 42.3561 21.6834C42.3705 21.8417 42.3223 21.9992 42.2219 22.1224C42.1216 22.2455 41.977 22.3245 41.8191 22.3424Z" fill="#1F1F39"/>
<path d="M44.5967 23.1845C44.5587 23.6289 43.9011 23.9359 43.1279 23.8698C42.3547 23.8036 41.7589 23.3893 41.7969 22.9449C41.8349 22.5006 42.4925 22.1935 43.2657 22.2596C44.0388 22.3258 44.6347 22.7401 44.5967 23.1845Z" fill="#C43D28"/>
<path d="M37.9004 23.1841C37.8625 23.6283 37.2052 23.9354 36.4323 23.8694C35.6594 23.8035 35.0637 23.3894 35.1016 22.9452C35.1395 22.501 35.7968 22.1939 36.5697 22.2599C37.3426 22.3258 37.9383 22.7399 37.9004 23.1841Z" fill="#C43D28"/>
<path d="M13.669 27.7992C10.893 29.2352 9.75496 33.2452 8.36296 35.3902C7.63094 36.7598 6.59433 37.9432 5.33296 38.8492C4.61108 39.327 3.77281 39.5994 2.90796 39.6372C2.90796 39.6372 5.30796 45.6612 14.553 46.7212C23.798 47.7812 28.753 44.6552 30.629 43.3762C31.8363 42.5025 32.835 41.3721 33.553 40.0662C33.553 40.0662 29.201 39.1032 27.967 35.1012C26.733 31.0992 24.991 28.2722 22.294 27.8252C20.9434 27.4915 19.5187 27.64 18.266 28.2452C17.6504 27.6848 16.8701 27.3387 16.0416 27.2583C15.2131 27.1779 14.3808 27.3676 13.669 27.7992Z" fill="#1F1F39"/>
<path d="M26.97 59.8457L29.553 66.7457C31.7978 65.6843 33.8865 64.3202 35.761 62.6917C35.306 61.3607 34.912 60.3537 34.912 60.3537L26.97 59.8457Z" fill="#F9D2DD"/>
<path d="M6.682 66.8771L9.379 59.6621L1.437 60.1701C1.429 60.1791 0.955998 61.3961 0.447998 62.9191C2.33477 64.5179 4.43242 65.8497 6.682 66.8771Z" fill="#F9D2DD"/>
<path d="M26.97 59.8457L27.863 62.1927L35.743 62.6827C35.314 61.4457 34.912 60.3537 34.912 60.3537L26.97 59.8457Z" fill="#F9ACC0"/>
<path d="M9.46201 59.4082L8.56201 61.7552L0.562012 62.5342C0.991012 61.3082 1.51601 59.9162 1.51601 59.9162L9.46201 59.4082Z" fill="#F9ACC0"/>
<path d="M9.13403 49.0404C5.66703 50.6074 1.85703 55.4714 0.457031 61.1844H6.65703L5.63203 66.3714C9.44788 68.32 13.6724 69.3332 17.957 69.3274C22.262 69.3331 26.5063 68.3126 30.338 66.3504L29.257 61.8584L35.526 61.2984C35.526 61.3074 34.081 53.2514 27.479 49.4424C22.189 46.3874 14.02 46.8424 9.13403 49.0404Z" fill="#3D5CFF"/>
<path d="M8.34591 55.3184L4.65991 61.1934L6.75291 61.1844L8.34591 55.3184Z" fill="#224BF4"/>
<path d="M29.264 61.86L31.129 61.702L26.97 54.584L29.264 61.86Z" fill="#224BF4"/>
<path d="M6.7351 61.2822C6.71329 61.2758 6.69468 61.2615 6.68299 61.242C6.67131 61.2226 6.66742 61.1994 6.6721 61.1772L8.4251 54.6802C8.43143 54.6584 8.44576 54.6397 8.46524 54.6281C8.48471 54.6164 8.50788 54.6125 8.5301 54.6172C8.55154 54.6239 8.56969 54.6384 8.58098 54.6578C8.59227 54.6773 8.59588 54.7002 8.5911 54.7222L6.8401 61.2172C6.83519 61.2344 6.82486 61.2497 6.81064 61.2607C6.79642 61.2717 6.77906 61.2778 6.7611 61.2782L6.7351 61.2822Z" fill="#1F1F39"/>
<path d="M29.0979 61.8611L26.8559 54.5851C26.8521 54.5747 26.8506 54.5636 26.8512 54.5525C26.8519 54.5415 26.8548 54.5307 26.8597 54.5208C26.8647 54.5109 26.8716 54.5021 26.88 54.4949C26.8885 54.4877 26.8983 54.4824 26.9089 54.4791C26.9192 54.4755 26.9302 54.4741 26.9412 54.4748C26.9521 54.4755 26.9628 54.4785 26.9726 54.4834C26.9824 54.4883 26.9911 54.4952 26.9982 54.5036C27.0053 54.5119 27.0106 54.5216 27.0139 54.5321L29.2509 61.8081C29.2545 61.8185 29.2559 61.8294 29.2552 61.8404C29.2544 61.8513 29.2515 61.862 29.2466 61.8718C29.2416 61.8816 29.2348 61.8903 29.2264 61.8974C29.218 61.9045 29.2083 61.9098 29.1979 61.9131C29.1889 61.9131 29.1809 61.9221 29.1719 61.9221C29.1548 61.9207 29.1385 61.9141 29.1253 61.9032C29.1121 61.8923 29.1025 61.8776 29.0979 61.8611Z" fill="#1F1F39"/>
<path d="M24.6851 36.2399C24.4423 36.3359 24.2127 36.4626 24.0021 36.6169C23.9999 36.1342 23.9735 35.652 23.9231 35.1719L22.1891 35.1539L22.0841 34.1119L21.8741 35.1539L19.2211 35.1279L19.1071 34.1119L18.9231 35.1189L14.5481 35.0749L14.3701 33.2539L14.1251 35.0749L12.7941 35.0659C12.7941 35.0659 12.7771 35.7929 12.7771 36.6069C12.5643 36.4562 12.3352 36.3301 12.0941 36.2309C11.8203 36.1183 11.5212 36.0816 11.2283 36.1246C10.9354 36.1676 10.6595 36.2887 10.4296 36.4753C10.1998 36.6619 10.0244 36.907 9.92209 37.1848C9.81975 37.4626 9.79418 37.7628 9.84808 38.0539C9.81892 38.4077 9.87941 38.7631 10.024 39.0873C10.1685 39.4116 10.3924 39.6941 10.6751 39.9089C11.463 40.2806 12.3439 40.4088 13.2051 40.2769C13.2972 40.797 13.4843 41.2956 13.7571 41.7479C14.2431 42.5497 14.8655 43.2603 15.5961 43.8479V45.9239L15.4031 48.7539C15.5819 48.8418 15.7663 48.918 15.9551 48.9819C16.2067 49.0831 16.4676 49.1595 16.7341 49.2099C17.2772 49.3324 17.8323 49.3941 18.3891 49.3939C18.9463 49.4028 19.5024 49.341 20.0441 49.2099C20.3115 49.1637 20.5729 49.0872 20.8231 48.9819C21.0118 48.918 21.1962 48.8418 21.3751 48.7539L21.1821 45.9259V43.8539C21.9127 43.2663 22.535 42.5557 23.0211 41.7539C23.27 41.285 23.4527 40.7839 23.5641 40.2649C24.4233 40.3541 25.2913 40.234 26.0941 39.9149C26.3786 39.7013 26.6042 39.419 26.7498 39.0944C26.8953 38.7697 26.956 38.4134 26.9261 38.0589C26.9789 37.7686 26.9528 37.4695 26.8504 37.1928C26.748 36.9161 26.5731 36.672 26.344 36.486C26.115 36.3001 25.8401 36.1791 25.5483 36.1358C25.2564 36.0925 24.9583 36.1285 24.6851 36.2399Z" fill="#F9D2DD"/>
<path d="M12.1021 36.2404C11.8285 36.1282 11.5298 36.0917 11.2373 36.1347C10.9447 36.1778 10.6692 36.2988 10.4395 36.4851C10.2099 36.6713 10.0346 36.916 9.93216 37.1934C9.82968 37.4707 9.80376 37.7706 9.85712 38.0614C9.82814 38.415 9.88871 38.7702 10.0332 39.0943C10.1778 39.4183 10.4016 39.7007 10.6841 39.9154C11.4675 40.2823 12.3406 40.4132 13.1971 40.2924C13.1971 40.2924 13.0221 39.3154 12.8911 38.3424C12.8162 37.7698 12.7808 37.1928 12.7851 36.6154C12.5723 36.4651 12.3432 36.3393 12.1021 36.2404Z" fill="#F9ACC0"/>
<path d="M24.0101 36.614C24.0113 37.1613 23.9849 37.7083 23.9311 38.253C23.8181 39.251 23.5901 40.267 23.5901 40.267C24.4469 40.3543 25.3121 40.2332 26.1121 39.914C26.3927 39.6974 26.6149 39.4143 26.7586 39.0902C26.9023 38.7662 26.9629 38.4114 26.9351 38.058C26.9873 37.7675 26.9606 37.4682 26.8577 37.1915C26.7549 36.9148 26.5796 36.6708 26.3502 36.485C26.1209 36.2991 25.8458 36.1783 25.5538 36.135C25.2618 36.0917 24.9635 36.1277 24.6901 36.239C24.4484 36.3346 24.2199 36.4606 24.0101 36.614Z" fill="#F9ACC0"/>
<path d="M12.6981 39.5051C12.6306 39.0216 12.4406 38.5634 12.1461 38.1741C11.7537 37.6383 11.1972 37.245 10.5611 37.0541C10.5338 37.046 10.5104 37.0279 10.4957 37.0035C10.4809 36.9791 10.4757 36.9501 10.4811 36.9221C10.4893 36.8946 10.5074 36.8711 10.5321 36.8563C10.5567 36.8415 10.5859 36.8364 10.6141 36.8421C11.3027 37.0475 11.9033 37.4764 12.3211 38.0611C12.6442 38.4806 12.8471 38.9801 12.9081 39.5061C12.9081 39.534 12.897 39.5607 12.8773 39.5804C12.8576 39.6001 12.8309 39.6111 12.8031 39.6111C12.7752 39.6111 12.7485 39.6001 12.7288 39.5804C12.7092 39.5607 12.6981 39.534 12.6981 39.5061V39.5051Z" fill="#1F1F39"/>
<path d="M24.124 39.3822C24.0974 39.3692 24.077 39.3463 24.0671 39.3185C24.0572 39.2906 24.0586 39.26 24.071 39.2332C24.3602 38.663 24.727 38.1357 25.161 37.6662C25.4557 37.3059 25.8502 37.0405 26.295 36.9032C26.3089 36.8998 26.3234 36.8995 26.3375 36.9022C26.3516 36.905 26.3649 36.9107 26.3766 36.9191C26.3883 36.9274 26.398 36.9382 26.4051 36.9506C26.4123 36.9631 26.4167 36.9769 26.418 36.9912C26.4214 37.0051 26.4217 37.0196 26.4189 37.0337C26.4162 37.0478 26.4104 37.0611 26.4021 37.0728C26.3938 37.0845 26.383 37.0942 26.3706 37.1013C26.3581 37.1085 26.3443 37.1129 26.33 37.1142C25.9329 37.2487 25.5811 37.491 25.314 37.8142C24.8946 38.2651 24.5401 38.7723 24.261 39.3212C24.2529 39.3413 24.2391 39.3586 24.2214 39.371C24.2036 39.3834 24.1826 39.3904 24.161 39.3912C24.148 39.3919 24.1352 39.3887 24.124 39.3822Z" fill="#1F1F39"/>
<path d="M22.049 40.4151C21.28 40.4151 20.657 40.0231 20.657 39.5401C20.657 39.0571 21.28 38.6641 22.049 38.6641C22.818 38.6641 23.441 39.0561 23.441 39.5401C23.441 40.0241 22.818 40.4151 22.049 40.4151Z" fill="#F9ACC0"/>
<path d="M14.685 40.4151C13.916 40.4151 13.293 40.0231 13.293 39.5401C13.293 39.0571 13.916 38.6641 14.685 38.6641C15.454 38.6641 16.077 39.0561 16.077 39.5401C16.077 40.0241 15.454 40.4151 14.685 40.4151Z" fill="#F9ACC0"/>
<path d="M16.6551 44.2102C16.2901 44.1587 15.9338 44.0577 15.5961 43.9102V45.9332L15.5081 47.1932C15.7785 47.1725 16.0442 47.1108 16.2961 47.0102C17.8458 46.2786 19.2679 45.3028 20.5081 44.1202C19.2289 44.264 17.9395 44.2941 16.6551 44.2102Z" fill="#F9ACC0"/>
<path d="M14.9752 35.9331C15.1248 35.8268 15.3092 35.7811 15.4912 35.8051C15.6718 35.8184 15.845 35.8821 15.9912 35.9891C16.0636 36.0432 16.1216 36.1142 16.1601 36.196C16.1987 36.2778 16.2165 36.3678 16.2122 36.4581C16.1545 36.3129 16.0486 36.1921 15.9122 36.1161C15.778 36.0492 15.6325 36.0078 15.4832 35.9941C15.3373 35.9785 15.1899 35.9995 15.0542 36.0551C14.9145 36.1283 14.7966 36.2369 14.7122 36.3701C14.7231 36.2829 14.7521 36.199 14.7974 36.1237C14.8427 36.0485 14.9032 35.9835 14.9752 35.9331Z" fill="#1F1F39"/>
<path d="M20.8411 36.055C20.9983 35.9684 21.1811 35.9404 21.3571 35.976C21.4455 35.9875 21.5308 36.0163 21.6081 36.061C21.6861 36.1049 21.7542 36.1644 21.8081 36.236C21.9215 36.369 21.9851 36.5372 21.9881 36.712C21.9195 36.5723 21.8244 36.4473 21.7081 36.344C21.6573 36.295 21.5975 36.2563 21.5321 36.23C21.4971 36.221 21.4711 36.204 21.4361 36.195L21.3311 36.169C21.1881 36.1426 21.0408 36.1516 20.9021 36.195C20.7513 36.2354 20.6148 36.3172 20.5081 36.431C20.5658 36.2671 20.6853 36.1321 20.8411 36.055Z" fill="#1F1F39"/>
<path d="M18.4241 38.0519C18.3308 38.255 18.2659 38.47 18.2311 38.6909C18.2238 38.7432 18.2208 38.796 18.2221 38.8489C18.2258 38.8993 18.2345 38.9492 18.2481 38.9979C18.2721 39.0894 18.3286 39.1691 18.4071 39.2219C18.4985 39.2779 18.6008 39.3137 18.7071 39.3269C18.8197 39.3459 18.9342 39.352 19.0481 39.3449C18.937 39.3933 18.8174 39.4195 18.6961 39.4219C18.5689 39.4252 18.4428 39.3981 18.3281 39.3429C18.2064 39.2785 18.115 39.1684 18.0741 39.0369C18.0537 38.9731 18.0419 38.9068 18.0391 38.8399C18.0378 38.7754 18.0408 38.7109 18.0481 38.6469C18.0889 38.4097 18.1718 38.1817 18.2931 37.9739C18.4064 37.7733 18.5445 37.5879 18.7041 37.4219C18.6081 37.6319 18.5121 37.8419 18.4241 38.0519Z" fill="#1F1F39"/>
<path d="M16.2156 38.0717C16.2104 38.2532 16.1343 38.4253 16.0037 38.5513C15.873 38.6773 15.6982 38.7471 15.5167 38.7458C15.3401 38.7039 15.187 38.5944 15.0901 38.4409C14.9932 38.2874 14.9603 38.1021 14.9985 37.9247C15.0037 37.7432 15.0798 37.5711 15.2105 37.4451C15.3411 37.3191 15.5159 37.2493 15.6974 37.2506C15.874 37.2926 16.0272 37.402 16.124 37.5555C16.2209 37.709 16.2538 37.8943 16.2156 38.0717Z" fill="#1F1F39"/>
<path d="M21.8265 38.187C21.8213 38.3684 21.7452 38.5406 21.6145 38.6666C21.4839 38.7926 21.3091 38.8624 21.1276 38.861C20.951 38.8191 20.7978 38.7097 20.7009 38.5562C20.6041 38.4027 20.5712 38.2173 20.6093 38.0399C20.6146 37.8585 20.6906 37.6863 20.8213 37.5603C20.9519 37.4343 21.1268 37.3645 21.3082 37.3659C21.4848 37.4078 21.638 37.5172 21.7349 37.6707C21.8317 37.8242 21.8646 38.0095 21.8265 38.187Z" fill="#1F1F39"/>
<path d="M18.2051 40.1798H19.0111C19.1771 40.1798 19.3701 40.1798 19.6331 40.1888C19.626 40.3134 19.5867 40.4339 19.5191 40.5388C19.4574 40.6426 19.3775 40.7345 19.2831 40.8098C19.087 40.9677 18.8429 41.0541 18.5911 41.0548C18.4594 41.0537 18.3288 41.03 18.2051 40.9848C18.0821 40.9405 17.9689 40.8726 17.8721 40.7848C17.7772 40.6966 17.7028 40.5888 17.6541 40.4688C17.61 40.3481 17.601 40.2174 17.6281 40.0918C17.8172 40.1393 18.0104 40.1687 18.2051 40.1798Z" fill="#DA5742"/>
<path d="M15.184 43.8218C15.1657 43.8036 15.1547 43.7793 15.1531 43.7535C15.1514 43.7277 15.1592 43.7022 15.175 43.6818C15.1925 43.6622 15.217 43.6503 15.2432 43.6486C15.2694 43.647 15.2952 43.6556 15.315 43.6728C16.2888 44.164 17.3836 44.3636 18.468 44.2478C18.4924 44.2466 18.5163 44.2552 18.5344 44.2716C18.5525 44.288 18.5633 44.3109 18.5645 44.3353C18.5657 44.3597 18.5572 44.3836 18.5408 44.4017C18.5244 44.4198 18.5014 44.4306 18.477 44.4318C18.3469 44.4535 18.2149 44.4622 18.083 44.4578C17.0756 44.5289 16.0691 44.3081 15.184 43.8218Z" fill="#1F1F39"/>
<path opacity="0.55" d="M25.3061 52.8576C24.8042 52.6128 24.3827 52.2298 24.0911 51.7536C23.7996 51.2774 23.65 50.7279 23.6601 50.1696C23.5857 49.4352 23.6005 48.6945 23.7041 47.9636C23.7124 47.9178 23.7378 47.8769 23.775 47.849C23.8123 47.8212 23.8588 47.8085 23.9051 47.8136C23.9505 47.8221 23.991 47.8474 24.0186 47.8845C24.0462 47.9215 24.0589 47.9676 24.0541 48.0136C23.9564 48.7165 23.9433 49.4286 24.0151 50.1346C24.0042 50.6292 24.1332 51.1169 24.3873 51.5415C24.6413 51.9661 25.0101 52.3103 25.4511 52.5346C26.6151 53.0416 28.4941 52.5866 30.0081 51.4216C30.0264 51.4078 30.0474 51.3978 30.0696 51.3921C30.0919 51.3864 30.1151 51.3851 30.1378 51.3883C30.1606 51.3916 30.1824 51.3993 30.2022 51.411C30.222 51.4227 30.2393 51.4382 30.2531 51.4566C30.2668 51.475 30.2769 51.4959 30.2826 51.5182C30.2883 51.5404 30.2896 51.5636 30.2863 51.5863C30.2831 51.6091 30.2754 51.631 30.2636 51.6507C30.2519 51.6705 30.2364 51.6878 30.2181 51.7016C29.1851 52.5508 27.9032 53.0399 26.5671 53.0946C26.135 53.1022 25.7059 53.0216 25.3061 52.8576Z" fill="#EAEAFF"/>
<path opacity="0.55" d="M34.1241 58.1206L33.9141 58.0206C30.4461 56.4136 27.1721 54.8896 26.5611 51.1426C26.4366 50.4362 26.4298 49.7141 26.5411 49.0056C26.5445 48.9827 26.5524 48.9607 26.5645 48.941C26.5766 48.9212 26.5926 48.9042 26.6115 48.8908C26.6304 48.8774 26.6518 48.868 26.6744 48.8632C26.697 48.8583 26.7204 48.8581 26.7431 48.8626C26.7655 48.8663 26.787 48.8745 26.8062 48.8866C26.8254 48.8987 26.8421 48.9145 26.8551 48.9332C26.8681 48.9518 26.8773 48.9728 26.8821 48.995C26.8869 49.0173 26.8873 49.0402 26.8831 49.0626C26.7779 49.7349 26.7867 50.4201 26.9091 51.0896C27.4961 54.6536 30.6831 56.1416 34.0711 57.7096L34.2811 57.8096C34.3225 57.8309 34.3545 57.8669 34.3708 57.9105C34.3871 57.9542 34.3865 58.0023 34.3691 58.0456C34.3257 58.1 34.2631 58.1358 34.1941 58.1456C34.1692 58.1427 34.1452 58.1341 34.1241 58.1206Z" fill="#EAEAFF"/>
<path opacity="0.55" d="M29.4999 66.7275L29.1689 66.6275C29.3461 65.9759 29.3744 65.2927 29.2517 64.6287C29.129 63.9646 28.8584 63.3367 28.4599 62.7915C27.1882 61.1791 25.4266 60.024 23.4409 59.5005C22.315 59.1259 21.1375 58.9299 19.9509 58.9195C19.1553 58.9149 18.3631 59.0233 17.5979 59.2415C16.946 59.427 16.3322 59.7266 15.7849 60.1265C16.4159 60.1885 17.0849 60.2345 17.6749 60.2745C21.0749 60.5205 24.2939 60.7515 25.0579 63.0425C25.2268 63.4683 25.2598 63.9359 25.1524 64.3812C25.045 64.8265 24.8024 65.2276 24.4579 65.5295C23.5623 66.2204 22.4534 66.5766 21.3229 66.5365H21.1749C19.682 66.5073 18.2116 66.1667 16.8579 65.5365C15.8888 65.1646 15.0638 64.493 14.5029 63.6195C14.3056 63.29 14.1871 62.9194 14.1568 62.5365C14.1264 62.1537 14.185 61.769 14.3279 61.4125C14.4773 61.0333 14.6972 60.6859 14.9759 60.3885C13.3349 60.1885 11.3039 59.7935 10.1599 58.5885C9.80107 58.2005 9.53808 57.7338 9.39204 57.2259C9.246 56.718 9.22096 56.1829 9.31893 55.6635C8.55179 55.644 7.78614 55.5856 7.02493 55.4885C5.76537 55.363 4.54699 54.9707 3.45093 54.3375L3.62693 54.0315C4.67855 54.6406 5.84915 55.0158 7.05893 55.1315C7.82885 55.2286 8.60315 55.287 9.37893 55.3065C9.69293 54.0647 10.327 52.9269 11.2179 52.0065C12.0223 51.1052 13.0528 50.4352 14.2029 50.0655C14.5614 49.9589 14.933 49.9034 15.3069 49.9005C16.0389 49.894 16.7487 50.151 17.3069 50.6245C17.5838 50.8397 17.778 51.1438 17.8569 51.4855C17.9358 51.8272 17.8945 52.1857 17.7399 52.5005C17.3678 53.1176 16.8764 53.6543 16.2945 54.0795C15.7127 54.5046 15.0519 54.8095 14.3509 54.9765C12.8484 55.455 11.2787 55.6887 9.70193 55.6685H9.67593C9.57727 56.1407 9.5917 56.6296 9.71805 57.0952C9.8444 57.5608 10.0791 57.9899 10.4029 58.3475C11.5209 59.5225 13.6029 59.8905 15.2879 60.0805C16.6183 59.0456 18.2717 58.5143 19.9559 58.5805C21.1795 58.5897 22.3941 58.7897 23.5559 59.1735C25.6113 59.727 27.4332 60.9288 28.7509 62.6005C29.1728 63.1898 29.4584 63.8655 29.5873 64.5787C29.7161 65.2919 29.6849 66.0248 29.4959 66.7245L29.4999 66.7275ZM15.3999 60.4405C15.0671 60.7434 14.8067 61.1173 14.6379 61.5345C14.1039 62.9265 14.9849 64.3045 16.9939 65.2205C18.3278 65.8327 19.7735 66.1636 21.2409 66.1925C22.3092 66.2606 23.3652 65.9335 24.2079 65.2735C24.5035 65.0175 24.7115 64.6754 24.8026 64.2951C24.8937 63.9149 24.8634 63.5156 24.7159 63.1535C24.0229 61.0815 20.9229 60.8595 17.6409 60.6235C16.8719 60.5785 16.1179 60.5165 15.3999 60.4395V60.4405ZM15.2359 50.2655C14.5009 50.3135 13.7842 50.5153 13.1322 50.858C12.4801 51.2006 11.9074 51.6764 11.4509 52.2545C10.6265 53.1134 10.034 54.1677 9.72893 55.3185C11.2526 55.3394 12.7695 55.1117 14.2199 54.6445C15.5359 54.3241 16.6758 53.5048 17.3989 52.3595C17.5246 52.1161 17.5601 51.8362 17.4992 51.5691C17.4382 51.3021 17.2847 51.0652 17.0659 50.9005C16.5504 50.4787 15.9019 50.2537 15.2359 50.2655Z" fill="#EAEAFF"/>
<path d="M65.0899 36.449C64.8549 36.2958 64.5847 36.205 64.3049 36.185C64.0059 36.1405 63.7005 36.1865 63.4279 36.317C63.399 36.3329 63.3653 36.3374 63.3333 36.3296C63.3012 36.3218 63.2733 36.3024 63.2549 36.275C63.2387 36.2478 63.2339 36.2153 63.2416 36.1846C63.2493 36.1539 63.2688 36.1274 63.2959 36.111C63.6154 35.9522 63.9758 35.8946 64.3289 35.946C64.6577 35.97 64.9743 36.0812 65.2459 36.268C65.27 36.2894 65.2851 36.3191 65.2883 36.3512C65.2914 36.3833 65.2824 36.4153 65.2629 36.441C65.2378 36.4632 65.2053 36.475 65.1719 36.474C65.1428 36.4733 65.1145 36.4647 65.0899 36.449Z" fill="#1F1F39"/>
<path d="M58.576 36.4323C58.5566 36.4066 58.5475 36.3746 58.5507 36.3425C58.5538 36.3104 58.5689 36.2807 58.593 36.2593C58.8637 36.0707 59.1808 35.9597 59.51 35.9383C59.8635 35.8867 60.2242 35.9443 60.544 36.1033C60.5719 36.1212 60.5918 36.1493 60.5995 36.1816C60.6071 36.2138 60.6019 36.2478 60.585 36.2763C60.5671 36.3045 60.5389 36.3246 60.5064 36.3322C60.4739 36.3399 60.4397 36.3345 60.411 36.3173C60.1383 36.1883 59.8337 36.1423 59.535 36.1853C59.2552 36.2053 58.9851 36.2961 58.75 36.4493C58.7284 36.4648 58.7026 36.4735 58.676 36.4743C58.6387 36.473 58.6031 36.4581 58.576 36.4323Z" fill="#1F1F39"/>
<path d="M69.7019 60.4805L72.1399 66.9805C74.2592 65.9804 76.2315 64.6948 78.0019 63.1595C77.5719 61.9065 77.2019 60.9595 77.2019 60.9595L69.7019 60.4805Z" fill="#F9D2DD"/>
<path d="M50.551 67.0996L53.097 60.3066L45.6 60.7846C45.592 60.7926 45.145 61.9386 44.666 63.3736C46.4479 64.8792 48.428 66.1329 50.551 67.0996Z" fill="#F9D2DD"/>
<path d="M69.7019 60.4805L70.5449 62.6895L77.9839 63.1515C77.5789 61.9895 77.2019 60.9585 77.2019 60.9585L69.7019 60.4805Z" fill="#F9ACC0"/>
<path d="M53.1729 60.0684L52.3279 62.2774L44.7729 63.0114C45.1779 61.8574 45.6729 60.5464 45.6729 60.5464L53.1729 60.0684Z" fill="#F9ACC0"/>
<path d="M52.8651 50.306C49.5921 51.782 45.9961 56.366 44.6741 61.741H50.5261L49.5591 66.621C53.1632 68.4579 57.1518 69.4131 61.1971 69.408C65.2596 69.4145 69.2655 68.4547 72.8841 66.608L71.8591 62.379L77.7771 61.851C77.7771 61.859 76.4131 54.275 70.1771 50.688C65.1891 47.808 57.4741 48.241 52.8651 50.306Z" fill="#3D5CFF"/>
<path d="M52.1221 56.2188L48.6421 61.7508L50.6171 61.7428L52.1221 56.2188Z" fill="#224BF4"/>
<path d="M71.8679 62.3764L73.6279 62.2254L69.7019 55.5254L71.8679 62.3764Z" fill="#224BF4"/>
<g opacity="0.451">
<g opacity="0.451">
<path opacity="0.451" d="M58.6012 61.3783C58.3731 61.3777 58.1503 61.3095 57.9609 61.1824C57.7715 61.0552 57.6241 60.8748 57.5372 60.6639C57.4503 60.4529 57.4279 60.221 57.4727 59.9973C57.5176 59.7737 57.6277 59.5683 57.7893 59.4073C57.9508 59.2462 58.1564 59.1366 58.3802 59.0923C58.6039 59.048 58.8358 59.071 59.0465 59.1584C59.2572 59.2459 59.4372 59.3938 59.5639 59.5835C59.6906 59.7732 59.7582 59.9962 59.7582 60.2243C59.7577 60.5307 59.6355 60.8244 59.4186 61.0408C59.2016 61.2572 58.9076 61.3786 58.6012 61.3783Z" fill="#F9EDC7"/>
<path opacity="0.451" d="M64.015 59.1928C63.7869 59.1922 63.5641 59.124 63.3747 58.9968C63.1853 58.8697 63.0379 58.6892 62.951 58.4783C62.8641 58.2674 62.8417 58.0355 62.8866 57.8118C62.9314 57.5881 63.0416 57.3828 63.2031 57.2217C63.3646 57.0606 63.5702 56.951 63.794 56.9067C64.0178 56.8624 64.2496 56.8855 64.4603 56.9729C64.671 57.0603 64.8511 57.2082 64.9777 57.3979C65.1044 57.5877 65.172 57.8107 65.172 58.0388C65.1715 58.3452 65.0493 58.6389 64.8324 58.8552C64.6154 59.0716 64.3214 59.193 64.015 59.1928Z" fill="#F9EDC7"/>
<path opacity="0.451" d="M54.5931 55.3178C54.365 55.3172 54.1422 55.249 53.9528 55.1218C53.7635 54.9947 53.616 54.8142 53.5291 54.6033C53.4422 54.3924 53.4198 54.1605 53.4647 53.9368C53.5095 53.7131 53.6197 53.5078 53.7812 53.3467C53.9427 53.1856 54.1483 53.076 54.3721 53.0317C54.5959 52.9874 54.8278 53.0105 55.0384 53.0979C55.2491 53.1853 55.4292 53.3332 55.5559 53.5229C55.6825 53.7127 55.7501 53.9357 55.7501 54.1638C55.7496 54.4702 55.6274 54.7639 55.4105 54.9802C55.1935 55.1966 54.8996 55.318 54.5931 55.3178Z" fill="#F9EDC7"/>
<path opacity="0.451" d="M54.5931 66.6967C54.365 66.6961 54.1422 66.6279 53.9528 66.5007C53.7635 66.3736 53.616 66.1931 53.5291 65.9822C53.4422 65.7713 53.4198 65.5394 53.4647 65.3157C53.5095 65.092 53.6197 64.8867 53.7812 64.7256C53.9427 64.5645 54.1483 64.4549 54.3721 64.4106C54.5959 64.3663 54.8278 64.3894 55.0384 64.4768C55.2491 64.5642 55.4292 64.7121 55.5559 64.9019C55.6825 65.0916 55.7501 65.3146 55.7501 65.5427C55.7496 65.8491 55.6274 66.1428 55.4105 66.3591C55.1935 66.5755 54.8996 66.6969 54.5931 66.6967Z" fill="#F9EDC7"/>
<path opacity="0.451" d="M64.7592 67.849C64.531 67.8484 64.3082 67.7802 64.1188 67.6531C63.9295 67.5259 63.782 67.3455 63.6951 67.1346C63.6083 66.9236 63.5858 66.6917 63.6307 66.468C63.6756 66.2444 63.7857 66.039 63.9472 65.878C64.1087 65.7169 64.3143 65.6073 64.5381 65.563C64.7619 65.5187 64.9938 65.5417 65.2045 65.6291C65.4152 65.7166 65.5952 65.8645 65.7219 66.0542C65.8485 66.2439 65.9162 66.4669 65.9162 66.695C65.9156 67.0014 65.7935 67.2951 65.5765 67.5115C65.3596 67.7279 65.0656 67.8493 64.7592 67.849Z" fill="#F9EDC7"/>
<path opacity="0.451" d="M74.0162 62.9857C73.7881 62.9851 73.5653 62.917 73.3759 62.7898C73.1865 62.6626 73.0391 62.4822 72.9522 62.2713C72.8653 62.0604 72.8429 61.8284 72.8878 61.6048C72.9326 61.3811 73.0428 61.1758 73.2043 61.0147C73.3658 60.8536 73.5714 60.744 73.7952 60.6997C74.019 60.6554 74.2509 60.6784 74.4615 60.7659C74.6722 60.8533 74.8523 61.0012 74.979 61.1909C75.1056 61.3806 75.1732 61.6036 75.1732 61.8317C75.1727 62.1381 75.0505 62.4318 74.8336 62.6482C74.6166 62.8646 74.3227 62.986 74.0162 62.9857Z" fill="#F9EDC7"/>
<path opacity="0.451" d="M46.9061 58.6166C46.678 58.616 46.4552 58.5478 46.2658 58.4206C46.0764 58.2935 45.929 58.113 45.8421 57.9021C45.7552 57.6912 45.7328 57.4593 45.7777 57.2356C45.8225 57.012 45.9327 56.8066 46.0942 56.6455C46.2557 56.4844 46.4613 56.3748 46.6851 56.3305C46.9089 56.2863 47.1407 56.3093 47.3514 56.3967C47.5621 56.4842 47.7422 56.6321 47.8688 56.8218C47.9955 57.0115 48.0631 57.2345 48.0631 57.4626C48.0626 57.769 47.9404 58.0627 47.7235 58.2791C47.5065 58.4955 47.2125 58.6169 46.9061 58.6166Z" fill="#F9EDC7"/>
<path opacity="0.451" d="M74.4291 56.226C74.201 56.2254 73.9781 56.1572 73.7888 56.03C73.5994 55.9029 73.4519 55.7224 73.3651 55.5115C73.2782 55.3006 73.2558 55.0687 73.3006 54.845C73.3455 54.6213 73.4556 54.416 73.6171 54.2549C73.7786 54.0938 73.9843 53.9842 74.208 53.9399C74.4318 53.8956 74.6637 53.9187 74.8744 54.0061C75.0851 54.0935 75.2651 54.2414 75.3918 54.4312C75.5185 54.6209 75.5861 54.8439 75.5861 55.072C75.5855 55.3784 75.4634 55.6721 75.2464 55.8884C75.0295 56.1048 74.7355 56.2262 74.4291 56.226Z" fill="#F9EDC7"/>
<path opacity="0.451" d="M67.3212 51.2787C67.0931 51.2781 66.8702 51.2099 66.6809 51.0828C66.4915 50.9556 66.344 50.7752 66.2572 50.5642C66.1703 50.3533 66.1478 50.1214 66.1927 49.8977C66.2376 49.6741 66.3477 49.4687 66.5092 49.3076C66.6707 49.1466 66.8764 49.0369 67.1001 48.9927C67.3239 48.9484 67.5558 48.9714 67.7665 49.0588C67.9772 49.1463 68.1572 49.2942 68.2839 49.4839C68.4106 49.6736 68.4782 49.8966 68.4782 50.1247C68.4776 50.4311 68.3555 50.7248 68.1385 50.9412C67.9216 51.1576 67.6276 51.279 67.3212 51.2787Z" fill="#F9EDC7"/>
</g>
</g>
<path d="M50.6001 61.8315C50.5797 61.8254 50.5622 61.8119 50.5513 61.7935C50.5404 61.7752 50.5367 61.7534 50.5411 61.7325L52.1961 55.6155C52.2022 55.595 52.2158 55.5776 52.2341 55.5667C52.2524 55.5557 52.2742 55.5521 52.2951 55.5565C52.3156 55.5628 52.333 55.5766 52.3437 55.5951C52.3545 55.6137 52.3579 55.6356 52.3531 55.6565L50.7001 61.7745C50.6956 61.7908 50.686 61.8053 50.6727 61.8157C50.6594 61.8262 50.6431 61.832 50.6261 61.8325L50.6001 61.8315Z" fill="#1F1F39"/>
<path d="M71.71 62.3758L69.594 55.5208C69.5904 55.5109 69.5889 55.5005 69.5895 55.49C69.5901 55.4796 69.5928 55.4694 69.5975 55.46C69.6022 55.4506 69.6087 55.4423 69.6167 55.4356C69.6247 55.4288 69.634 55.4238 69.644 55.4208C69.6538 55.4172 69.6642 55.4156 69.6746 55.4161C69.6849 55.4167 69.6951 55.4193 69.7045 55.4239C69.7138 55.4285 69.7221 55.4349 69.7289 55.4428C69.7357 55.4507 69.7408 55.4598 69.744 55.4698L71.867 62.3258C71.8706 62.3356 71.8721 62.346 71.8715 62.3565C71.8709 62.3669 71.8682 62.3772 71.8635 62.3865C71.8588 62.3959 71.8523 62.4042 71.8443 62.4109C71.8363 62.4177 71.827 62.4227 71.817 62.4258C71.8 62.4258 71.792 62.4338 71.784 62.4338C71.7671 62.4333 71.7507 62.4274 71.7374 62.417C71.7241 62.4065 71.7145 62.3921 71.71 62.3758Z" fill="#1F1F39"/>
<path d="M53.353 31.4108C54.427 29.2678 55.915 29.1028 55.915 29.1028C56.4696 27.9734 57.3466 27.0337 58.4353 26.4027C59.5239 25.7717 60.7752 25.4777 62.031 25.5578C66.742 25.5578 67.817 30.1748 67.817 30.1748C68.4141 30.3616 68.9363 30.7336 69.3077 31.2371C69.6792 31.7405 69.8807 32.3492 69.883 32.9748C69.8 35.1178 67.8 40.0398 67.8 40.0398L54.592 37.4298C54.592 37.4298 52.278 33.5578 53.353 31.4108Z" fill="white"/>
<path d="M53.5931 36.5725C53.2846 36.7506 53.0214 36.9976 52.8239 37.294C52.6263 37.5905 52.4998 37.9285 52.4542 38.2818C52.4085 38.6351 52.4449 38.9941 52.5606 39.331C52.6763 39.668 52.868 39.9737 53.1211 40.2245C54.1381 41.3955 56.7001 41.1245 56.7001 41.1245L56.0141 36.8775C55.6773 36.6095 55.2733 36.4394 54.8463 36.3856C54.4193 36.3318 53.9858 36.3964 53.5931 36.5725Z" fill="#F9ACC0"/>
<path d="M69.743 36.5708C70.0506 36.7498 70.3129 36.9971 70.5098 37.2935C70.7066 37.59 70.8326 37.9278 70.8782 38.2808C70.9237 38.6337 70.8875 38.9924 70.7723 39.3291C70.6571 39.6659 70.4661 39.9716 70.214 40.2228C69.197 41.3938 66.635 41.1218 66.635 41.1218L67.321 36.8758C67.6579 36.6077 68.0621 36.4374 68.4892 36.3836C68.9164 36.3298 69.3502 36.3946 69.743 36.5708Z" fill="#F9ACC0"/>
<path d="M56.229 40.2564C56.1652 39.8011 55.9858 39.3697 55.708 39.0034C55.3372 38.4984 54.8121 38.1281 54.212 37.9484C54.1861 37.9409 54.164 37.924 54.15 37.9011C54.1359 37.8782 54.1309 37.8508 54.136 37.8244C54.1435 37.7981 54.1606 37.7757 54.184 37.7616C54.2074 37.7475 54.2352 37.7428 54.262 37.7484C54.9113 37.9414 55.4781 38.3449 55.873 38.8954C56.1778 39.2899 56.3693 39.7601 56.427 40.2554C56.427 40.2819 56.4164 40.3073 56.3977 40.3261C56.3789 40.3449 56.3535 40.3554 56.327 40.3554C56.3004 40.3554 56.275 40.3449 56.2562 40.3261C56.2375 40.3073 56.227 40.2819 56.227 40.2554L56.229 40.2564Z" fill="#1F1F39"/>
<path d="M67.428 40.1402C67.403 40.1281 67.3837 40.1066 67.3743 40.0804C67.365 40.0543 67.3663 40.0254 67.378 40.0002C67.6526 39.4627 68.0006 38.9659 68.412 38.5242C68.6894 38.1857 69.06 37.936 69.478 37.8062C69.491 37.8039 69.5043 37.8042 69.5172 37.8071C69.5301 37.81 69.5423 37.8154 69.5531 37.823C69.5639 37.8307 69.573 37.8403 69.5801 37.8515C69.5871 37.8627 69.5918 37.8752 69.594 37.8882C69.5966 37.9014 69.5965 37.915 69.5936 37.9282C69.5908 37.9414 69.5854 37.9539 69.5776 37.9649C69.5699 37.9759 69.56 37.9853 69.5485 37.9924C69.5371 37.9995 69.5243 38.0042 69.511 38.0062C69.1363 38.133 68.8042 38.3615 68.552 38.6662C68.1574 39.0902 67.8238 39.5671 67.561 40.0832C67.5536 40.1018 67.541 40.118 67.5247 40.1297C67.5083 40.1414 67.489 40.1481 67.469 40.1492C67.4547 40.1511 67.4402 40.1479 67.428 40.1402Z" fill="#1F1F39"/>
<path d="M56.4268 41.1135C56.8557 42.5824 57.6995 43.8964 58.8568 44.8975L58.5178 49.5805C58.5178 49.5805 58.9888 50.6115 61.4848 50.6115C64.1848 50.6115 64.9318 49.5805 64.9318 49.5805L64.7998 44.9725C64.7998 44.9725 66.4858 44.7005 67.2998 41.6665C67.7868 39.8035 67.9241 37.8665 67.7048 35.9535C67.7048 35.9535 63.7168 36.5715 62.3698 34.9225C61.0228 33.2735 59.6668 31.6165 57.7078 32.4415C57.1473 32.7164 56.6926 33.1677 56.4134 33.7261C56.1343 34.2845 56.0463 34.9192 56.1628 35.5325C55.9356 37.3944 56.0248 39.2813 56.4268 41.1135Z" fill="#F9D2DD"/>
<path d="M59.7339 38.9119C59.557 38.8957 59.3936 38.8104 59.279 38.6745C59.1645 38.5386 59.1081 38.3631 59.1219 38.1859C59.1083 38.0089 59.1649 37.8337 59.2794 37.698C59.3939 37.5624 59.5572 37.4772 59.7339 37.4609C59.9107 37.4772 60.074 37.5624 60.1885 37.698C60.303 37.8337 60.3596 38.0089 60.3459 38.1859C60.3598 38.3631 60.3034 38.5386 60.1889 38.6745C60.0743 38.8104 59.9109 38.8957 59.7339 38.9119Z" fill="#1F1F39"/>
<path d="M64.189 38.9119C64.0121 38.8957 63.8486 38.8104 63.7341 38.6745C63.6196 38.5386 63.5631 38.3631 63.577 38.1859C63.5634 38.0089 63.62 37.8337 63.7345 37.698C63.849 37.5624 64.0122 37.4772 64.189 37.4609C64.3658 37.4772 64.5291 37.5624 64.6436 37.698C64.7581 37.8337 64.8146 38.0089 64.801 38.1859C64.8149 38.3631 64.7585 38.5386 64.6439 38.6745C64.5294 38.8104 64.366 38.8957 64.189 38.9119Z" fill="#1F1F39"/>
<path d="M61.4929 39.1836C61.6999 39.5956 62.2369 39.3896 62.2369 39.3896C62.2369 39.3896 61.6999 39.2496 61.6999 38.8376C61.6999 38.4256 61.6589 37.0156 61.6589 37.0156C61.4834 37.724 61.4273 38.4568 61.4929 39.1836Z" fill="#1F1F39"/>
<path d="M58.667 48.3114C58.708 48.2984 63.139 46.5884 63.973 45.8054C63.973 45.3274 63.99 44.9724 63.99 44.9724C63.1176 45.345 62.1641 45.4869 61.221 45.3844C60.4078 45.3883 59.6027 45.2228 58.857 44.8984C58.867 45.3184 58.708 48.1464 58.667 48.3114Z" fill="#F9ACC0"/>
<path d="M65.304 40.7017C64.578 40.7017 63.99 40.3327 63.99 39.8767C63.99 39.4207 64.578 39.0527 65.304 39.0527C66.03 39.0527 66.618 39.4217 66.618 39.8767C66.618 40.3317 66.03 40.7017 65.304 40.7017Z" fill="#F9ACC0"/>
<path d="M58.3531 40.7017C57.6271 40.7017 57.0391 40.3327 57.0391 39.8767C57.0391 39.4207 57.6271 39.0527 58.3531 39.0527C59.0791 39.0527 59.6671 39.4217 59.6671 39.8767C59.6671 40.3317 59.0791 40.7017 58.3531 40.7017Z" fill="#F9ACC0"/>
<path d="M59.684 41.743C60.7478 42.069 61.8799 42.1018 62.9608 41.8377C64.0417 41.5737 65.0312 41.0227 65.825 40.243C66.792 39.163 66.825 35.692 66.825 35.692L67.833 35.362C67.833 35.362 68.102 41.823 66.792 43.562C66.1824 44.3404 65.3842 44.9504 64.473 45.3342C63.5618 45.7179 62.5678 45.8628 61.585 45.755C60.7446 45.7411 59.9196 45.5276 59.178 45.132C58.4364 44.7364 57.7995 44.1702 57.32 43.48C56.002 41.743 55.502 35.697 55.502 35.697L56.163 34.543C56.163 34.543 56.702 40.99 59.684 41.743Z" fill="white"/>
<path d="M61.9469 40.4806C62.3016 40.3322 62.6354 40.1383 62.9399 39.9036C62.9399 39.9036 63.1049 39.8216 63.1879 39.9036C63.1248 40.1485 63.0114 40.3776 62.8549 40.5763C62.6984 40.775 62.5023 40.9389 62.2789 41.0576C62.0555 41.1317 61.814 41.1316 61.5906 41.0573C61.3672 40.9831 61.1737 40.8387 61.0389 40.6456C60.7909 40.3156 61.1219 40.3976 61.1219 40.3976C61.3872 40.487 61.6692 40.5154 61.9469 40.4806Z" fill="#F95368"/>
</svg>
