<svg width="44" height="44" viewBox="0 0 44 44" fill="none" xmlns="http://www.w3.org/2000/svg">
<path d="M22 44C34.1503 44 44 34.1503 44 22C44 9.84974 34.1503 0 22 0C9.84974 0 0 9.84974 0 22C0 34.1503 9.84974 44 22 44Z" fill="#3D5CFF"/>
<path d="M29 20.2687C29.304 20.4443 29.5565 20.6967 29.732 21.0008C29.9075 21.3048 29.9999 21.6497 29.9999 22.0007C29.9999 22.3518 29.9075 22.6967 29.732 23.0007C29.5565 23.3047 29.304 23.5572 29 23.7327L20 28.9327C19.696 29.1083 19.3511 29.2007 19 29.2007C18.649 29.2007 18.3041 29.1083 18 28.9327C17.696 28.7572 17.4435 28.5047 17.268 28.2007C17.0925 27.8967 17 27.5518 17 27.2007V16.8007C17 16.4497 17.0925 16.1048 17.268 15.8007C17.4435 15.4967 17.696 15.2442 18 15.0687C18.3041 14.8932 18.649 14.8008 19 14.8008C19.3511 14.8008 19.696 14.8932 20 15.0687L29 20.2687Z" fill="white"/>
</svg>
