<svg width="119" height="108" viewBox="0 0 119 108" fill="none" xmlns="http://www.w3.org/2000/svg">
<path d="M100.765 70.3748L99.3769 78.9268L89.4869 83.7598L91.0979 74.9598L100.765 70.3748Z" fill="#DADAF7"/>
<path d="M100.637 35.9174C100.637 35.9174 101.637 31.5804 99.1539 30.9614C97.6486 30.5862 96.1146 30.3374 94.5679 30.2174L78.7909 107.691L88.2479 107.679L100.637 35.9174Z" fill="#DADAF7"/>
<path d="M94.5678 30.0927C94.5678 30.0927 96.0548 30.0927 96.5508 30.7127C96.8653 31.2786 96.9953 31.9285 96.9228 32.5717L82.9798 107.678L29.0048 107.678L48.4628 28.9767C48.4628 28.9767 49.7028 25.6307 54.0368 26.6227L94.5678 30.0927Z" fill="#EAEAFF"/>
<path d="M90.9738 37.405C90.9738 37.405 91.2218 35.794 89.8588 35.67L51.6858 32.2L43.8778 69.258L79.8198 75.083C79.8198 75.083 83.6618 76.075 84.1578 73.224L90.9738 37.405Z" fill="white"/>
<path d="M106.961 107.803H111.299L96.0548 51.6587L94.4438 60.4587L106.961 107.803Z" fill="#DADAF7"/>
<path d="M19.4421 65.082C13.4421 65.082 11.1421 58.798 15.9221 55.911C16.792 55.3953 17.8007 55.1624 18.8087 55.2447C19.8166 55.3269 20.7742 55.7201 21.5491 56.37C21.5491 56.37 21.5371 50.976 27.8821 51.076C34.2271 51.176 33.4821 57.93 33.4821 57.93C33.4821 57.93 36.7681 58.03 37.1651 60.967C37.6111 64.214 33.5461 65.082 31.4391 65.082H19.4421Z" fill="white"/>
<path d="M94.3321 72.9267L102.425 58.2027C102.281 56.7025 102.281 55.192 102.425 53.6917C102.74 52.3449 102.551 50.9291 101.892 49.7127C101.359 49.0557 99.7731 45.4737 100.826 44.1477C101.879 42.8217 104.011 43.6147 105.065 44.6807C106.119 45.7467 109.043 48.7957 109.043 48.7957C109.043 48.7957 116.603 49.1917 117.932 51.8447C119.261 54.4977 107.332 86.8447 103.89 90.6867C100.448 94.5287 90.3681 92.4097 85.7211 89.1007C81.0741 85.7917 88.3701 68.9527 88.3701 68.9527L94.3321 72.9267Z" fill="#F9D2DD"/>
<path d="M85.7311 89.0987C81.0961 85.7897 88.3871 68.9467 88.3871 68.9467L92.2871 71.5467L90.0931 91.3047C88.5485 90.7642 87.0819 90.0225 85.7311 89.0987Z" fill="#F9ACC0"/>
<path d="M101.384 48.7831L105.871 45.4621C106.809 46.4291 108.089 47.7671 108.709 48.3991L102.537 52.1621C102.578 51.3013 102.359 50.4481 101.909 49.7131C101.703 49.4214 101.527 49.1099 101.384 48.7831Z" fill="#F9ACC0"/>
<path d="M114.497 65.3652C114.497 64.5222 114.497 61.1262 113.171 60.3212C111.808 59.5032 107.871 60.1852 106.008 58.3382C104.801 56.9525 104.018 55.2488 103.752 53.4302L102.389 53.9632L102.426 53.7032C102.438 53.5792 102.463 53.4682 102.476 53.3442V53.2942C102.491 53.1915 102.499 53.088 102.501 52.9842V52.9592C102.513 52.7362 102.526 52.5252 102.526 52.3152L103.479 50.5052L113.332 50.8152C114.906 51.7202 117.372 50.7052 117.944 51.8432C118.452 52.8592 117.002 58.2632 114.833 64.7572C114.734 64.9668 114.622 65.1699 114.497 65.3652Z" fill="#F9ACC0"/>
<path d="M99.412 56.3787L117.98 37.8127C118.129 37.6628 118.213 37.46 118.213 37.2487C118.213 37.0373 118.129 36.8346 117.98 36.6847C117.83 36.5357 117.627 36.4521 117.416 36.4521C117.205 36.4521 117.002 36.5357 116.852 36.6847L98.286 55.2527C98.137 55.4026 98.0534 55.6053 98.0534 55.8167C98.0534 56.028 98.137 56.2308 98.286 56.3807C98.4361 56.5288 98.6386 56.6117 98.8494 56.6113C99.0603 56.611 99.2625 56.5273 99.412 56.3787Z" fill="white"/>
<path d="M99.3761 57.409C98.9761 58.599 97.5171 58.995 97.2571 59.801C97.177 60.0177 97.1476 60.2499 97.1712 60.4797C97.1948 60.7096 97.2707 60.931 97.3931 61.127C96.9058 60.8892 96.5039 60.5067 96.2422 60.0319C95.9805 59.557 95.8719 59.0129 95.9311 58.474C96.0671 56.479 97.2571 54.756 98.9791 55.686C99.2267 55.8887 99.4 56.1678 99.4719 56.4796C99.5437 56.7915 99.5101 57.1183 99.3761 57.409Z" fill="#E88524"/>
<path d="M114.497 57.9417C111.052 59.4037 109.056 59.4037 108.263 59.0077C107.47 58.6117 107.73 57.2847 107.73 57.2847C107.73 57.2847 106.404 57.1487 106.007 56.3547C105.891 56.1286 105.83 55.878 105.83 55.6237C105.83 55.3695 105.891 55.1189 106.007 54.8927C105.638 54.8181 105.29 54.6597 104.992 54.4298C104.693 54.2 104.452 53.9047 104.285 53.5667C104.156 53.3223 104.089 53.0501 104.089 52.7737C104.089 52.4974 104.156 52.2252 104.285 51.9807C103.88 51.95 103.495 51.7919 103.186 51.5291C102.876 51.2663 102.658 50.9123 102.562 50.5177C101.906 48.3987 108.796 42.9577 113.431 44.5567C116.108 45.4617 117.819 50.2667 118.079 51.1747C118.388 52.5445 118.196 53.9795 117.539 55.2205C116.882 56.4615 115.803 57.4267 114.497 57.9417Z" fill="#F9D2DD"/>
<path d="M109.739 49.0535L103.803 51.8535L109.739 49.0535Z" fill="#1F1F39"/>
<path d="M103.864 51.9668L109.8 49.1658C109.816 49.1586 109.83 49.1483 109.841 49.1355C109.853 49.1228 109.862 49.108 109.867 49.0918C109.873 49.0756 109.876 49.0584 109.875 49.0413C109.874 49.0241 109.87 49.0073 109.862 48.9918C109.855 48.976 109.845 48.9618 109.832 48.95C109.82 48.9382 109.805 48.9291 109.789 48.9233C109.772 48.9175 109.755 48.9151 109.738 48.9162C109.72 48.9173 109.704 48.922 109.688 48.9298L103.752 51.7298C103.737 51.7371 103.723 51.7474 103.711 51.7602C103.7 51.7729 103.691 51.7877 103.685 51.8039C103.679 51.8201 103.677 51.8373 103.678 51.8544C103.678 51.8716 103.683 51.8884 103.69 51.9038C103.698 51.927 103.713 51.9469 103.733 51.9604C103.754 51.9738 103.778 51.98 103.802 51.9778C103.823 51.9802 103.845 51.9764 103.864 51.9668Z" fill="#1F1F39"/>
<path d="M111.449 52.2406L106.008 54.8926L111.449 52.2406Z" fill="#1F1F39"/>
<path d="M106.069 55.0025L111.51 52.3525C111.526 52.3452 111.54 52.3349 111.551 52.3222C111.563 52.3095 111.572 52.2946 111.577 52.2784C111.583 52.2622 111.586 52.2451 111.585 52.2279C111.584 52.2108 111.58 52.194 111.572 52.1785C111.565 52.1629 111.555 52.149 111.542 52.1374C111.529 52.1259 111.514 52.117 111.498 52.1112C111.482 52.1054 111.465 52.1029 111.448 52.1038C111.43 52.1047 111.414 52.109 111.398 52.1165L105.958 54.7695C105.943 54.7768 105.929 54.7871 105.917 54.7998C105.906 54.8125 105.897 54.8274 105.891 54.8435C105.885 54.8597 105.883 54.8769 105.884 54.894C105.884 54.9112 105.889 54.928 105.896 54.9435C105.905 54.9656 105.921 54.9846 105.941 54.9978C105.961 55.011 105.984 55.0178 106.008 55.0175C106.029 55.0184 106.051 55.0132 106.069 55.0025Z" fill="#1F1F39"/>
<path d="M112.775 54.8934L107.731 57.2734L112.775 54.8934Z" fill="#1F1F39"/>
<path d="M107.791 57.3968L112.835 55.0048C112.851 54.9975 112.865 54.9872 112.876 54.9745C112.888 54.9618 112.897 54.9469 112.902 54.9307C112.908 54.9145 112.911 54.8974 112.91 54.8802C112.909 54.8631 112.905 54.8463 112.897 54.8308C112.89 54.8152 112.88 54.8013 112.867 54.7897C112.854 54.7782 112.839 54.7693 112.823 54.7635C112.807 54.7578 112.79 54.7553 112.773 54.7562C112.755 54.7571 112.739 54.7614 112.723 54.7688L107.679 57.1618C107.664 57.1691 107.65 57.1794 107.638 57.1921C107.626 57.2048 107.618 57.2197 107.612 57.2359C107.606 57.2521 107.604 57.2692 107.604 57.2864C107.605 57.3035 107.61 57.3203 107.617 57.3358C107.626 57.358 107.642 57.3769 107.662 57.3901C107.682 57.4033 107.705 57.4102 107.729 57.4098C107.751 57.4115 107.772 57.407 107.791 57.3968Z" fill="#1F1F39"/>
<path d="M91.693 78.0918L94.345 72.9118L91.693 78.0918Z" fill="#1F1F39"/>
<path d="M91.816 78.1428L94.468 72.9748C94.4774 72.9597 94.4833 72.9427 94.4852 72.9251C94.4871 72.9074 94.485 72.8896 94.479 72.8728C94.473 72.8561 94.4634 72.841 94.4507 72.8285C94.4381 72.816 94.4228 72.8065 94.406 72.8008C94.3909 72.7914 94.374 72.7856 94.3563 72.7837C94.3386 72.7818 94.3208 72.7839 94.3041 72.7898C94.2873 72.7958 94.2722 72.8054 94.2597 72.8181C94.2472 72.8307 94.2378 72.846 94.232 72.8628L91.585 78.0308C91.5756 78.0459 91.5698 78.0629 91.5679 78.0805C91.566 78.0982 91.5681 78.116 91.5741 78.1328C91.58 78.1495 91.5897 78.1646 91.6023 78.1771C91.6149 78.1896 91.6302 78.1991 91.647 78.2048C91.659 78.2168 91.672 78.2168 91.697 78.2168C91.7217 78.2164 91.7458 78.2093 91.7668 78.1963C91.7878 78.1833 91.8048 78.1648 91.816 78.1428Z" fill="#1F1F39"/>
<path d="M27.6539 67.7583C19.1769 76.2483 17.8379 82.6683 15.9789 88.8653C14.1199 95.0623 13.5129 107.654 13.5129 107.654H39.0189L48.8469 57.5453C48.8469 57.5453 36.1309 59.2683 27.6539 67.7583Z" fill="#F9ACC0"/>
<path d="M85.6319 107.666L30.2809 107.666L30.9749 83.537L15.9909 83.537C15.9909 83.537 20.7579 68.687 31.9039 61.66C43.0499 54.633 55.3039 53.86 63.3349 55.96C78.0579 59.8 89.8579 68.823 89.8579 68.823L87.6019 91.095L81.6159 88.567L85.6319 107.666Z" fill="#F99A3D"/>
<path d="M41.4351 82.606L35.5981 64.573C35.5981 64.573 52.5651 67.882 63.5711 88.84C68.7021 98.594 68.7641 104.332 67.3631 107.666H30.2691L30.8641 86.919L41.4351 82.606Z" fill="#E88524"/>
<path d="M87.4531 91.0312L81.7771 88.6403L78.9631 79.5312L87.4531 91.0312Z" fill="#E88524"/>
<path d="M69.6589 65.7127C69.6538 65.9235 69.6036 66.1307 69.5117 66.3205C69.4197 66.5102 69.2882 66.6781 69.1259 66.8127C68.8039 67.1127 68.4069 67.2957 68.0729 67.5687C67.8923 67.698 67.746 67.8694 67.6467 68.0681C67.5474 68.2668 67.498 68.4867 67.5029 68.7087C67.5188 68.9446 67.5988 69.1716 67.7341 69.3654C67.8694 69.5593 68.055 69.7125 68.2709 69.8087C68.5059 69.9207 68.2959 70.2547 68.0709 70.1557C67.8722 70.0632 67.6937 69.9324 67.5456 69.7708C67.3975 69.6091 67.2828 69.4199 67.2079 69.2139C67.133 69.0079 67.0995 68.7891 67.1093 68.5701C67.1191 68.3511 67.172 68.1362 67.2649 67.9377C67.4868 67.5363 67.8175 67.2056 68.2189 66.9837C68.6048 66.785 68.9333 66.4906 69.1729 66.1287C69.4459 65.6287 69.0989 65.1617 68.7729 64.7907C68.6039 64.6097 68.8889 64.3247 69.0499 64.5227C69.3738 64.8449 69.587 65.2616 69.6589 65.7127Z" fill="white"/>
<path d="M70.7959 78.269C70.4369 78.542 70.0149 78.728 69.6809 79.037C69.5032 79.1944 69.3825 79.4061 69.3376 79.6393C69.2928 79.8724 69.3263 80.1139 69.4329 80.326C69.7602 80.8671 70.2448 81.2955 70.8219 81.554C70.8679 81.5805 70.9015 81.6242 70.9153 81.6755C70.9291 81.7268 70.922 81.7815 70.8954 81.8275C70.8689 81.8735 70.8252 81.9071 70.7739 81.9209C70.7226 81.9347 70.6679 81.9275 70.6219 81.901C70.0945 81.6456 69.6299 81.2772 69.2609 80.822C69.0953 80.609 68.9858 80.3579 68.9425 80.0916C68.8991 79.8253 68.9234 79.5525 69.0129 79.298C69.3969 78.398 70.5499 78.245 71.0329 77.427C71.1774 77.1864 71.2637 76.9154 71.2853 76.6356C71.3068 76.3558 71.2629 76.0748 71.1569 75.815C71.1342 75.7682 71.1291 75.7148 71.1427 75.6646C71.1563 75.6144 71.1877 75.5708 71.2309 75.542C71.2538 75.5267 71.2795 75.5163 71.3065 75.5114C71.3335 75.5065 71.3613 75.5072 71.388 75.5134C71.4148 75.5197 71.4399 75.5315 71.4619 75.5479C71.4839 75.5643 71.5023 75.5851 71.5159 75.609C71.7097 76.0692 71.7441 76.5809 71.6136 77.0629C71.4832 77.5448 71.1954 77.9694 70.7959 78.269Z" fill="white"/>
<path d="M85.0371 74.413C85.0953 74.0502 85.0786 73.6792 84.9881 73.323C84.7401 72.691 83.9351 72.654 83.3641 72.802C82.7441 72.976 82.0871 73.434 81.4311 73.161C81.1653 73.0217 80.9354 72.8228 80.7591 72.58C80.5829 72.3371 80.4652 72.0569 80.4151 71.761C80.3387 71.4288 80.3289 71.0847 80.3863 70.7486C80.4436 70.4126 80.5669 70.0912 80.7491 69.803C80.8851 69.592 81.2321 69.791 81.0961 70.003C80.9383 70.2484 80.8305 70.5225 80.779 70.8096C80.7276 71.0967 80.7333 71.3912 80.7961 71.676C80.9201 72.221 81.3041 72.903 81.9491 72.841C82.2852 72.7752 82.6111 72.6649 82.9181 72.513C83.2362 72.3854 83.5753 72.3176 83.9181 72.313C84.2206 72.3015 84.5197 72.3811 84.7765 72.5416C85.0332 72.7021 85.2358 72.936 85.3581 73.213C85.4639 73.5912 85.4898 73.9873 85.4341 74.376C85.4 74.8026 85.3294 75.2255 85.2231 75.64C85.205 75.6852 85.171 75.7222 85.1275 75.7442C85.0841 75.7661 85.0341 75.7714 84.987 75.7592C84.9399 75.7469 84.8989 75.7179 84.8717 75.6775C84.8444 75.6372 84.8328 75.5883 84.8391 75.54C84.936 75.1705 85.0022 74.7935 85.0371 74.413Z" fill="white"/>
<path d="M77.8871 95.1727C77.7509 95.1444 77.6097 95.1512 77.4768 95.1922C77.3439 95.2333 77.2236 95.3075 77.1271 95.4077C76.8791 95.6077 76.6561 95.8287 76.4081 96.0277C76.1509 96.2281 75.8773 96.4064 75.5901 96.5607C75.0243 96.8736 74.3802 97.0167 73.7351 96.9727C73.1628 96.9087 72.6301 96.649 72.2271 96.2377C72.0014 96.0169 71.8319 95.7452 71.7327 95.4454C71.6335 95.1457 71.6076 94.8265 71.6571 94.5147C71.7071 94.2667 72.0911 94.3657 72.0411 94.6267C72.0069 94.8969 72.042 95.1715 72.1431 95.4244C72.2442 95.6774 72.408 95.9005 72.6191 96.0727C72.8401 96.2692 73.1 96.4171 73.3818 96.5068C73.6636 96.5966 73.9611 96.6262 74.2551 96.5937C74.8989 96.5095 75.5097 96.259 76.0271 95.8667C76.5271 95.5077 76.9441 94.9127 77.5641 94.7887C77.7151 94.7585 77.8713 94.7664 78.0185 94.8118C78.1657 94.8572 78.2993 94.9386 78.4071 95.0487C78.5164 95.1486 78.5891 95.2822 78.6138 95.4283C78.6384 95.5743 78.6135 95.7244 78.5431 95.8547C78.5139 95.9017 78.4677 95.9356 78.4141 95.9493C78.3605 95.9629 78.3037 95.9553 78.2556 95.9281C78.2075 95.9008 78.1718 95.8559 78.1561 95.8029C78.1403 95.7499 78.1457 95.6928 78.1711 95.6437C78.2831 95.4447 78.0601 95.2467 77.8871 95.1727Z" fill="white"/>
<path d="M63.7579 81.8617C63.8071 82.1432 63.7877 82.4324 63.7013 82.7048C63.615 82.9773 63.4643 83.2249 63.2619 83.4267C62.8619 83.8357 62.3449 84.0837 61.9109 84.4557C61.5269 84.7907 61.0559 85.3557 61.3039 85.8937C61.5269 86.4017 62.2339 86.4887 62.7169 86.4267C62.7677 86.4148 62.8211 86.4222 62.8669 86.4472C62.9126 86.4723 62.9475 86.5134 62.9649 86.5627C62.9899 86.6497 62.9279 86.7977 62.8289 86.8107C62.5649 86.863 62.2932 86.8626 62.0294 86.8094C61.7656 86.7562 61.5149 86.6512 61.2919 86.5007C61.0749 86.3221 60.9264 86.0739 60.8717 85.7983C60.817 85.5226 60.8595 85.2365 60.9919 84.9887C61.2929 84.4482 61.7408 84.004 62.2839 83.7077C62.5429 83.5771 62.7729 83.3956 62.9602 83.1742C63.1474 82.9527 63.2882 82.6957 63.3739 82.4187C63.3982 82.0738 63.3451 81.7279 63.2185 81.4062C63.0918 81.0846 62.8948 80.7953 62.6419 80.5597C62.4679 80.3857 62.7419 80.1007 62.9149 80.2867C63.344 80.7178 63.6371 81.2655 63.7579 81.8617Z" fill="white"/>
<path d="M66.819 103.019C66.67 103.626 66.162 104.11 66.063 104.742C66.0238 105.011 66.0624 105.286 66.1744 105.534C66.2864 105.782 66.467 105.993 66.695 106.142C66.9682 106.308 67.2884 106.38 67.6065 106.347C67.9245 106.313 68.2226 106.176 68.455 105.956C68.641 105.782 68.926 106.056 68.74 106.241C68.5213 106.448 68.2567 106.599 67.9679 106.684C67.6792 106.768 67.3745 106.782 67.079 106.726C66.7877 106.663 66.517 106.528 66.2917 106.332C66.0665 106.137 65.8939 105.888 65.79 105.609C65.6856 105.32 65.6501 105.01 65.6866 104.704C65.7231 104.399 65.8304 104.106 66 103.849C66.179 103.574 66.3247 103.279 66.434 102.969C66.5063 102.708 66.4976 102.432 66.409 102.176C66.3146 101.888 66.1371 101.635 65.899 101.448C65.6609 101.262 65.3728 101.149 65.071 101.126C64.811 101.114 64.811 100.717 65.059 100.726C65.3323 100.743 65.5986 100.819 65.8403 100.948C66.0819 101.077 66.2931 101.256 66.4599 101.473C66.6266 101.69 66.7449 101.94 66.8068 102.207C66.8688 102.474 66.8729 102.751 66.819 103.019Z" fill="white"/>
<path d="M45.1041 61.8587C45.0189 62.4259 44.785 62.9604 44.4261 63.4077C44.2452 63.6339 44.0509 63.849 43.8441 64.0517C43.6489 64.2277 43.4999 64.4488 43.4101 64.6957C43.3361 65.0057 43.5961 65.1667 43.8561 65.2657C44.1963 65.3985 44.5618 65.4538 44.9261 65.4277C45.1861 65.4157 45.1861 65.8117 44.9261 65.8277C44.5999 65.8403 44.2737 65.8025 43.9591 65.7157C43.6821 65.654 43.4258 65.5217 43.2151 65.3317C42.7941 64.8857 43.0911 64.3157 43.4261 63.9317C43.6121 63.7207 43.8261 63.5317 43.9961 63.3247C44.1915 63.1 44.356 62.8501 44.4851 62.5817C44.7376 62.1004 44.8039 61.5428 44.6711 61.0157C44.6086 60.7524 44.4797 60.5094 44.2968 60.3098C44.1139 60.1103 43.883 59.9609 43.6261 59.8757C43.5979 59.8721 43.5708 59.8625 43.5467 59.8476C43.5225 59.8327 43.5018 59.8128 43.4859 59.7893C43.47 59.7658 43.4593 59.7391 43.4545 59.7111C43.4497 59.6831 43.451 59.6544 43.4581 59.627C43.4653 59.5995 43.4782 59.5739 43.496 59.5518C43.5139 59.5297 43.5362 59.5116 43.5615 59.4988C43.5869 59.486 43.6147 59.4788 43.643 59.4776C43.6714 59.4763 43.6997 59.4812 43.7261 59.4917C44.1959 59.6634 44.5909 59.9941 44.8426 60.4264C45.0942 60.8587 45.1867 61.3654 45.1041 61.8587Z" fill="white"/>
<path d="M57.4989 69.5424C56.8049 69.8154 56.5989 70.5424 56.3989 71.2034C56.3328 71.5755 56.1838 71.9281 55.9629 72.2348C55.742 72.5416 55.4549 72.7947 55.1229 72.9754C54.4132 73.2903 53.6088 73.3169 52.8799 73.0494C52.4732 72.876 52.1068 72.6202 51.8039 72.2982C51.501 71.9762 51.2681 71.5949 51.1199 71.1784C51.0329 70.9434 51.4199 70.8314 51.5039 71.0664C51.6356 71.4234 51.838 71.7501 52.099 72.0269C52.36 72.3037 52.6743 72.525 53.0229 72.6774C53.369 72.7994 53.7382 72.8417 54.1029 72.8014C54.4781 72.7862 54.844 72.6798 55.1689 72.4914C55.8129 72.0824 55.9369 71.2644 56.1599 70.5914C56.2465 70.2577 56.4124 69.9498 56.6434 69.6939C56.8744 69.438 57.1638 69.2416 57.4869 69.1214C57.8475 69.0013 58.2348 68.9864 58.6035 69.0785C58.9723 69.1706 59.3071 69.3658 59.5689 69.6414C59.7429 69.8274 59.4569 70.1124 59.2839 69.9264C59.0595 69.6902 58.7691 69.5272 58.4507 69.4587C58.1322 69.3902 57.8005 69.4194 57.4989 69.5424Z" fill="white"/>
<path d="M23.5519 69.2581C23.6954 69.4511 23.7952 69.673 23.8444 69.9083C23.8936 70.1436 23.891 70.3869 23.8369 70.6211C23.7217 71.1175 23.6547 71.6239 23.6369 72.1331C23.6511 72.3538 23.734 72.5645 23.8741 72.7357C24.0142 72.9068 24.2044 73.0297 24.4179 73.0871C24.6603 73.1432 24.914 73.1233 25.1447 73.0301C25.3753 72.9368 25.5716 72.7749 25.7069 72.5661C25.8569 72.3561 26.1869 72.5551 26.0549 72.7651C25.9328 72.9606 25.7691 73.1266 25.5754 73.2516C25.3818 73.3765 25.163 73.4572 24.9346 73.4879C24.7062 73.5187 24.4738 73.4987 24.254 73.4294C24.0342 73.3602 23.8324 73.2433 23.6629 73.0871C23.5005 72.9051 23.3797 72.6899 23.3091 72.4563C23.2384 72.2228 23.2196 71.9767 23.2539 71.7351C23.3707 71.2012 23.4452 70.6588 23.4769 70.1131C23.4519 69.6791 23.0929 69.0971 22.5769 69.2581C22.3289 69.3451 22.2179 68.9581 22.4649 68.8741C22.6638 68.8233 22.8733 68.8326 23.0668 68.901C23.2603 68.9694 23.4292 69.0937 23.5519 69.2581Z" fill="white"/>
<path d="M59.383 59.0954C57.8763 59.7687 56.2588 60.1595 54.611 60.2484C52.1925 60.569 49.7441 59.938 47.782 58.4884C47.0524 57.8611 46.4615 57.0887 46.047 56.2204C45.935 55.9974 46.282 55.7864 46.394 56.0204C46.7455 56.7446 47.2191 57.4029 47.794 57.9664C48.4908 58.6148 49.3193 59.1053 50.223 59.4044C51.4486 59.7875 52.7324 59.951 54.015 59.8874C55.6172 59.8629 57.2027 59.5583 58.7 58.9874C60.3126 58.3298 61.7388 57.2859 62.853 55.9474C62.989 55.7364 63.274 56.0224 63.113 56.2204C62.0983 57.4436 60.8242 58.4257 59.383 59.0954Z" fill="white"/>
<path d="M87.553 73.2106C87.367 74.4995 87.169 75.7756 86.995 77.0646C86.846 78.1556 86.71 79.2456 86.586 80.3486C86.45 81.6006 86.313 82.8396 86.202 84.0916L85.719 89.3336C85.694 89.6066 85.669 89.8666 85.645 90.1396C85.62 90.3876 85.224 90.3996 85.245 90.1396C85.406 88.3056 85.567 86.4716 85.745 84.6496C85.869 83.3496 85.993 82.0496 86.145 80.7496C86.269 79.6496 86.405 78.5436 86.554 77.4496C86.728 76.1856 86.901 74.9335 87.087 73.6695L87.863 68.4636C87.9 68.1916 87.937 67.9305 87.987 67.6586C87.999 67.5466 88.135 67.4966 88.234 67.5216C88.2589 67.5274 88.2822 67.5383 88.3027 67.5536C88.3232 67.5688 88.3404 67.588 88.3533 67.6101C88.3661 67.6322 88.3743 67.6566 88.3773 67.682C88.3804 67.7073 88.3782 67.7331 88.371 67.7576C88.098 69.5796 87.825 71.4006 87.553 73.2106Z" fill="white"/>
<path d="M80.5761 85.0727C80.3531 84.9607 80.5511 84.6137 80.7761 84.7257C82.4601 85.5927 84.1331 86.4607 85.8161 87.3277C86.0391 87.4517 85.8411 87.7867 85.6161 87.6747C83.9341 86.8037 82.2611 85.9397 80.5761 85.0727Z" fill="white"/>
<path d="M23.1801 80.9609H17.3671C17.3141 80.9609 17.2632 80.9399 17.2257 80.9024C17.1882 80.8649 17.1671 80.814 17.1671 80.7609C17.1671 80.7079 17.1882 80.657 17.2257 80.6195C17.2632 80.582 17.3141 80.5609 17.3671 80.5609H27.4311C27.4841 80.5609 27.535 80.582 27.5725 80.6195C27.61 80.657 27.6311 80.7079 27.6311 80.7609C27.6311 80.814 27.61 80.8649 27.5725 80.9024C27.535 80.9399 27.4841 80.9609 27.4311 80.9609H23.1801Z" fill="white"/>
<path d="M16.3 99.8209L21.741 97.3049C21.7568 97.298 21.7711 97.2879 21.7829 97.2752C21.7946 97.2625 21.8037 97.2476 21.8095 97.2313C21.8153 97.215 21.8177 97.1977 21.8166 97.1804C21.8155 97.1632 21.8109 97.1463 21.803 97.1309C21.796 97.1151 21.7859 97.1009 21.7733 97.0891C21.7606 97.0773 21.7457 97.0682 21.7294 97.0624C21.7131 97.0566 21.6958 97.0542 21.6785 97.0553C21.6613 97.0564 21.6444 97.0611 21.629 97.0689L16.189 99.5859C16.1738 99.5929 16.1602 99.6029 16.1488 99.6152C16.1375 99.6274 16.1287 99.6419 16.1229 99.6576C16.1171 99.6733 16.1145 99.6899 16.1152 99.7067C16.1159 99.7234 16.1199 99.7398 16.127 99.7549C16.1386 99.7777 16.1564 99.7967 16.1784 99.8098C16.2003 99.8228 16.2255 99.8295 16.251 99.8289C16.276 99.8339 16.288 99.8339 16.3 99.8209Z" fill="#1F1F39"/>
<path d="M47.6089 107.616C46.5898 107.615 45.5715 107.561 44.5579 107.455C41.0935 106.973 37.7302 105.933 34.5989 104.374C30.6958 102.599 27.2891 99.8913 24.6789 96.4895C22.3219 93.3826 20.9503 89.6406 20.7409 85.7465C20.648 83.7685 21.0502 81.7987 21.9109 80.0155C23.1109 77.7705 25.1909 77.1155 27.0289 76.5345C28.1215 76.3212 29.134 75.8104 29.9549 75.0585C30.6479 74.2265 30.2669 73.0455 29.8249 71.6785C29.2749 69.9785 28.6509 68.0445 29.8559 66.1605C30.6839 64.8525 32.5309 64.1895 35.3499 64.1895C37.0069 64.1895 39.4859 65.1165 42.5199 66.8695C45.0853 68.3746 47.5327 70.0725 49.8409 71.9485C53.5999 75.0085 61.9409 85.1485 62.2589 95.3485C62.378 96.8497 62.185 98.3594 61.6919 99.7824C61.1988 101.205 60.4164 102.511 59.3939 103.616C57.9512 105.047 56.1767 106.097 54.2289 106.674C52.0841 107.328 49.8509 107.646 47.6089 107.616ZM35.5969 75.3815C35.0134 75.3815 34.4431 75.5545 33.958 75.8786C33.4728 76.2028 33.0947 76.6635 32.8714 77.2025C32.6482 77.7416 32.5897 78.3347 32.7036 78.907C32.8174 79.4792 33.0984 80.0049 33.5109 80.4174C33.9235 80.83 34.4491 81.1109 35.0214 81.2248C35.5936 81.3386 36.1868 81.2802 36.7258 81.0569C37.2648 80.8336 37.7256 80.4555 38.0497 79.9704C38.3739 79.4853 38.5469 78.9149 38.5469 78.3315C38.5461 77.5493 38.235 76.7994 37.682 76.2464C37.1289 75.6933 36.379 75.3822 35.5969 75.3815Z" fill="white"/>
<path d="M51.7121 82.2079C51.1911 80.5469 49.4321 79.9279 48.5021 81.2779C48.1652 81.7844 48.0376 82.4017 48.1461 83.0002C48.2546 83.5988 48.5908 84.132 49.0841 84.4879C49.553 84.7958 50.1107 84.9396 50.6701 84.8969C51.0976 84.6088 51.4266 84.1966 51.6129 83.7159C51.7992 83.2352 51.8338 82.7089 51.7121 82.2079Z" fill="#F99A3D"/>
<path d="M53.151 90.7974C52.011 90.6974 51.701 90.7974 51.391 91.6274C51.081 92.4574 52.106 93.2884 53.358 93.3874C53.9116 93.4304 54.4627 93.278 54.9155 92.9566C55.3683 92.6352 55.694 92.1652 55.836 91.6284C56.151 90.5864 55.836 89.7694 54.808 89.9674C54.6353 90.2452 54.3891 90.4698 54.0967 90.6163C53.8042 90.7628 53.4769 90.8255 53.151 90.7974Z" fill="#3C82F5"/>
<path d="M46.108 97.4168C43.939 97.8258 40.519 96.8958 40.308 95.4458C40.097 93.9958 40.928 94.0948 42.068 93.8968C43.2782 93.6722 44.3948 93.0943 45.277 92.2358C45.5339 91.9855 45.8519 91.8068 46.1994 91.7174C46.5468 91.628 46.9116 91.6311 47.2575 91.7263C47.6033 91.8215 47.9183 92.0056 48.171 92.2603C48.4237 92.5149 48.6054 92.8312 48.698 93.1778C48.8799 93.6255 48.9543 94.1095 48.9151 94.5911C48.8759 95.0727 48.7243 95.5384 48.4724 95.9507C48.2204 96.363 47.8753 96.7105 47.4646 96.9651C47.054 97.2198 46.5893 97.3745 46.108 97.4168Z" fill="#BEE3C5"/>
<path d="M33.59 90.2777C30.38 89.7567 30.479 88.3067 31.111 87.8977C31.743 87.4887 33.391 87.8977 33.8 87.3767C34.209 86.8557 36.788 85.6177 37.42 87.7997C38.052 89.9817 36.8 90.7987 33.59 90.2777Z" fill="#DA5742"/>
<path d="M46.802 21.8637C42.861 23.5367 41.832 26.0637 40.382 30.6507C38.932 35.2377 39.229 37.7397 37.395 41.2967C36.4818 43.2816 34.8659 44.8579 32.859 45.7217C32.859 45.7217 36.391 50.6417 53.792 49.8737C70.833 49.1297 76.522 38.9797 76.522 38.9797C76.522 38.9797 70.635 37.8147 68.689 33.7867C66.743 29.7587 64.401 22.5577 59.468 21.5417C54.535 20.5257 53.147 23.4997 53.147 23.4997C52.4269 22.5539 51.4093 21.8781 50.2582 21.5813C49.1071 21.2845 47.8896 21.384 46.802 21.8637Z" fill="#1F1F39"/>
<path d="M64.426 43.9107C63.9957 45.1239 63.2808 46.2163 62.3413 47.0962C61.4017 47.9761 60.2648 48.6179 59.026 48.9677C59.026 48.9677 59.226 51.7437 59.646 54.0987L60.067 56.4537C59.4392 57.3285 58.602 58.0319 57.6321 58.4996C56.6621 58.9672 55.5904 59.1842 54.515 59.1307C50.636 59.0687 48.851 57.5447 48.851 57.5447C48.851 57.5447 48.863 54.3347 48.566 50.7657C48.269 47.1967 47.798 44.4447 47.798 44.4447C47.798 44.4447 42.023 44.2097 41.49 39.7347C41.019 35.8807 44.898 35.8557 45.877 36.2647C46.856 36.6737 46.877 36.8097 46.877 36.8097C47.1344 37.7313 47.4658 38.6305 47.868 39.4987C48.0659 39.9875 48.395 40.4122 48.819 40.7257C48.3516 39.2859 48.0825 37.7892 48.019 36.2767C48.0165 35.2643 48.1668 34.2572 48.465 33.2897L49.541 35.5577L56.358 34.4667L56.506 31.2447L57.969 34.5447L64.525 33.6147C64.525 33.6147 65.925 39.7217 64.426 43.9107Z" fill="#F9D2DD"/>
<path d="M47.7939 44.4451C47.3943 44.4165 46.9968 44.3627 46.6039 44.2841C46.5116 43.6099 46.378 42.942 46.2039 42.2841C45.802 41.0146 45.3146 39.7737 44.7449 38.5701C45.7092 39.1362 46.4916 39.9661 46.9999 40.9621C47.4123 42.0713 47.6792 43.2293 47.7939 44.4071C47.8552 44.6978 47.9006 44.9915 47.9299 45.2871C47.8559 44.7541 47.7939 44.4451 47.7939 44.4451Z" fill="#F9ACC0"/>
<path d="M47.5699 42.2018C47.5867 42.1959 47.6021 42.1866 47.6151 42.1744C47.628 42.1623 47.6383 42.1475 47.6453 42.1311C47.6523 42.1148 47.6557 42.0971 47.6555 42.0793C47.6553 42.0615 47.6513 42.044 47.6439 42.0278C47.316 41.1078 46.8434 40.2459 46.2439 39.4748C45.8696 39.0196 45.4003 38.6517 44.8689 38.3968C44.836 38.3847 44.7996 38.3856 44.7673 38.3993C44.7349 38.4131 44.7091 38.4386 44.6949 38.4708C44.6828 38.5038 44.6837 38.5401 44.6974 38.5725C44.7112 38.6048 44.7368 38.6307 44.7689 38.6448C45.2594 38.886 45.6942 39.2265 46.0459 39.6448C46.6207 40.3916 47.0724 41.2255 47.3839 42.1148C47.3933 42.1436 47.4115 42.1687 47.4359 42.1866C47.4603 42.2046 47.4897 42.2144 47.5199 42.2148C47.5375 42.2152 47.5548 42.2107 47.5699 42.2018Z" fill="#1F1F39"/>
<path d="M62.4908 35.8683C62.2786 35.721 62.0187 35.6589 61.7628 35.6943C61.5078 35.7133 61.2632 35.8034 61.0568 35.9543C60.9558 36.0305 60.8748 36.1301 60.8208 36.2446C60.7668 36.359 60.7414 36.4849 60.7468 36.6113C60.8263 36.4076 60.9731 36.2372 61.1628 36.1283C61.3526 36.0332 61.5584 35.9742 61.7698 35.9543C61.9772 35.9321 62.1869 35.962 62.3798 36.0413C62.5796 36.1415 62.7471 36.2961 62.8628 36.4873C62.8474 36.3639 62.8064 36.2451 62.7423 36.1384C62.6782 36.0318 62.5926 35.9398 62.4908 35.8683Z" fill="#1F1F39"/>
<path d="M54.312 36.5261C54.0898 36.4038 53.8316 36.3641 53.583 36.4141C53.4562 36.431 53.3341 36.4732 53.224 36.5381C53.1128 36.6001 53.0157 36.6845 52.939 36.7861C52.7819 36.974 52.6943 37.2102 52.691 37.4551C52.7892 37.2571 52.925 37.0801 53.091 36.9341C53.1625 36.865 53.2467 36.8103 53.339 36.7731C53.389 36.7611 53.426 36.7361 53.475 36.7231L53.624 36.6861C53.8244 36.6502 54.0306 36.6632 54.225 36.7241C54.4386 36.7815 54.6318 36.8976 54.783 37.0591C54.7015 36.8268 54.5324 36.6355 54.312 36.5261Z" fill="#1F1F39"/>
<path d="M58.6009 38.6057C58.7325 38.8918 58.8244 39.1946 58.8739 39.5057C58.8843 39.5812 58.8884 39.6575 58.8859 39.7337C58.8797 39.8052 58.8663 39.8759 58.8459 39.9447C58.8137 40.0758 58.7343 40.1904 58.6229 40.2667C58.4951 40.3446 58.3524 40.3947 58.2039 40.4137C58.0444 40.4405 57.8823 40.4489 57.7209 40.4387C57.8794 40.5044 58.0493 40.5384 58.2209 40.5387C58.401 40.5434 58.5797 40.505 58.7419 40.4267C58.9122 40.3345 59.0394 40.1789 59.0959 39.9937C59.1244 39.9056 59.1413 39.8141 59.1459 39.7217C59.1481 39.6305 59.1441 39.5393 59.1339 39.4487C59.0764 39.1124 58.9588 38.7893 58.7869 38.4947C58.6262 38.2109 58.4303 37.9485 58.2039 37.7137C58.3399 38.0137 58.4769 38.3087 58.6009 38.6057Z" fill="#1F1F39"/>
<path d="M62.4717 38.882C62.5259 38.6309 62.4795 38.3686 62.3425 38.1513C62.2055 37.9341 61.9888 37.7791 61.7389 37.7197C61.4819 37.7176 61.2343 37.8163 61.0493 37.9947C60.8643 38.1731 60.7565 38.417 60.7493 38.6739C60.6951 38.9251 60.7417 39.1876 60.8789 39.4049C61.0161 39.6222 61.233 39.7771 61.4831 39.8363C61.74 39.8381 61.9873 39.7393 62.1721 39.5609C62.3569 39.3825 62.4645 39.1388 62.4717 38.882Z" fill="#1F1F39"/>
<path d="M54.6539 39.4191C54.708 39.168 54.6616 38.9057 54.5246 38.6884C54.3876 38.4712 54.1709 38.3162 53.921 38.2568C53.664 38.2547 53.4164 38.3535 53.2314 38.5319C53.0464 38.7102 52.9387 38.9541 52.9314 39.211C52.8773 39.4622 52.9238 39.7247 53.061 39.942C53.1982 40.1593 53.4151 40.3142 53.6652 40.3734C53.9221 40.3752 54.1694 40.2764 54.3543 40.098C54.5391 39.9196 54.6466 39.6759 54.6539 39.4191Z" fill="#1F1F39"/>
<path d="M59.0469 49.1047C59.0469 49.1047 59.2169 51.5837 59.6169 53.8757C58.4375 53.9826 57.2526 53.7413 56.2089 53.1817C52.5029 51.6047 52.1439 49.4047 52.1439 49.4047C54.4031 50.16 56.8618 50.0531 59.0469 49.1047Z" fill="#F9ACC0"/>
<path d="M57.2119 42.56C56.9896 42.5285 56.7728 42.4659 56.5679 42.374C56.3594 42.2783 56.1602 42.1635 55.9729 42.031C55.7729 41.882 55.5639 41.721 55.3289 41.531C55.3285 41.8361 55.4206 42.1342 55.5929 42.386C55.7693 42.6503 56.0192 42.8572 56.3119 42.981C56.4634 43.0411 56.6215 43.0827 56.7829 43.105C56.9448 43.1235 57.1087 43.111 57.2659 43.068C57.4162 43.0352 57.5582 42.972 57.6832 42.8825C57.8082 42.7929 57.9136 42.6787 57.9929 42.547C57.734 42.5819 57.4719 42.5863 57.2119 42.56Z" fill="#DA5742"/>
<path d="M56.0718 49.8614C57.1474 49.7682 58.2081 49.5476 59.2318 49.2044C59.2486 49.1985 59.264 49.1892 59.2769 49.177C59.2899 49.1649 59.3002 49.1501 59.3072 49.1337C59.3141 49.1174 59.3176 49.0997 59.3174 49.0819C59.3171 49.0641 59.3132 49.0466 59.3058 49.0304C59.2999 49.0136 59.2906 48.9983 59.2784 48.9853C59.2662 48.9723 59.2515 48.962 59.2351 48.955C59.2187 48.9481 59.2011 48.9446 59.1833 48.9448C59.1655 48.9451 59.148 48.949 59.1318 48.9564C58.1234 49.2751 57.0844 49.4869 56.0318 49.5884C54.7833 49.7337 53.5183 49.62 52.3158 49.2544C52.2828 49.2423 52.2465 49.2432 52.2141 49.2569C52.1818 49.2707 52.1559 49.2963 52.1418 49.3284C52.1297 49.3614 52.1306 49.3978 52.1443 49.4301C52.1581 49.4624 52.1836 49.4883 52.2158 49.5024C53.1089 49.7903 54.0425 49.9325 54.9808 49.9234C55.3278 49.9234 55.6878 49.8984 56.0718 49.8614Z" fill="#1F1F39"/>
<path d="M53.9665 42.9789C54.0714 42.1092 53.0058 41.2654 51.5851 41.094C50.1645 40.9226 48.9287 41.4886 48.8238 42.3583C48.7188 43.228 49.7853 44.0728 51.205 44.2441C52.6247 44.4155 53.8614 43.8496 53.9665 42.9789Z" fill="#F9ACC0"/>
<path d="M62.939 39.8226C63.6833 39.706 64.445 39.8505 65.095 40.2316C65.0605 40.985 64.9693 41.7348 64.822 42.4746C64.3585 42.7465 63.8436 42.9195 63.31 42.9826C61.895 43.1436 60.658 42.5736 60.559 41.7066C60.46 40.8396 61.513 39.9836 62.939 39.8226Z" fill="#F9ACC0"/>
<path d="M31.8909 94.3313C33.7509 94.4653 33.8739 96.6493 33.8739 96.6493C34.6761 96.4221 35.5355 96.5202 36.2659 96.9223C37.3319 97.6043 37.0589 99.6493 37.0589 99.6493C37.4958 99.7568 37.897 99.9768 38.2224 100.288C38.5479 100.598 38.7863 100.989 38.9139 101.42C39.5709 103.056 36.8069 106.253 31.4899 107.456C26.1729 108.659 22.4719 106.477 21.0139 103.465C19.5559 100.453 20.0839 98.4083 19.0309 95.5333C18.4371 94.1519 17.5825 92.898 16.5139 91.8403C16.3322 91.5462 16.2349 91.2078 16.2324 90.8621C16.23 90.5164 16.3226 90.1767 16.5001 89.8801C16.6775 89.5834 16.9331 89.3412 17.2389 89.1799C17.5446 89.0186 17.8888 88.9443 18.2339 88.9653C20.4899 88.9653 22.8689 90.7373 24.3339 92.5223C25.2092 93.5983 25.8006 94.8766 26.0539 96.2403C26.0539 96.2403 30.0319 94.1953 31.8909 94.3313Z" fill="#F9D2DD"/>
<path d="M31.557 102.511L37.122 99.9082C37.1375 99.9009 37.1515 99.8906 37.163 99.8779C37.1746 99.8652 37.1835 99.8503 37.1892 99.8341C37.195 99.818 37.1975 99.8008 37.1966 99.7836C37.1957 99.7665 37.1914 99.7497 37.184 99.7342C37.1767 99.7187 37.1664 99.7047 37.1537 99.6932C37.1409 99.6816 37.1261 99.6727 37.1099 99.6669C37.0937 99.6612 37.0765 99.6587 37.0594 99.6596C37.0422 99.6605 37.0254 99.6648 37.01 99.6722L31.445 102.272C31.4294 102.28 31.4155 102.29 31.4039 102.303C31.3924 102.315 31.3834 102.33 31.3777 102.346C31.3719 102.362 31.3694 102.38 31.3703 102.397C31.3712 102.414 31.3755 102.431 31.383 102.446C31.3926 102.469 31.4087 102.488 31.4294 102.502C31.45 102.516 31.4742 102.523 31.499 102.523C31.519 102.524 31.5391 102.52 31.557 102.511Z" fill="#1F1F39"/>
<path d="M28.2359 99.2256L33.7999 96.6226C33.8155 96.6153 33.8294 96.605 33.841 96.5923C33.8525 96.5796 33.8614 96.5647 33.8672 96.5485C33.873 96.5323 33.8755 96.5152 33.8746 96.498C33.8737 96.4809 33.8694 96.4641 33.8619 96.4486C33.8546 96.433 33.8443 96.4191 33.8316 96.4075C33.8189 96.396 33.804 96.3871 33.7879 96.3813C33.7717 96.3755 33.7545 96.373 33.7374 96.3739C33.7202 96.3748 33.7034 96.3791 33.6879 96.3866L28.1229 98.9866C28.1074 98.9939 28.0934 99.0042 28.0819 99.0169C28.0703 99.0296 28.0614 99.0445 28.0557 99.0606C28.0499 99.0768 28.0474 99.094 28.0483 99.1111C28.0492 99.1283 28.0535 99.1451 28.0609 99.1606C28.0681 99.185 28.0836 99.2062 28.1049 99.2203C28.1261 99.2344 28.1516 99.2405 28.1769 99.2376C28.1973 99.239 28.2177 99.2349 28.2359 99.2256Z" fill="#1F1F39"/>
<path d="M24.9889 91.1836C25.5553 92.7411 25.9987 94.3407 26.3149 95.9676L22.5969 98.4336L20.7379 89.6466C20.7629 89.6466 20.7749 89.6466 20.7879 89.6586L24.9889 91.1836Z" fill="#F9ACC0"/>
<path d="M78.6919 78.6264L81.6169 88.5664L78.6919 78.6264Z" fill="#1F1F39"/>
<path d="M81.654 88.7089C81.6706 88.7044 81.686 88.6967 81.6995 88.686C81.7129 88.6754 81.724 88.6622 81.7322 88.6471C81.7403 88.632 81.7453 88.6155 81.7468 88.5984C81.7483 88.5813 81.7464 88.5642 81.741 88.5479L78.828 78.6029C78.8236 78.5863 78.8158 78.5709 78.8052 78.5574C78.7946 78.544 78.7813 78.5329 78.7662 78.5247C78.7512 78.5166 78.7346 78.5116 78.7175 78.5101C78.7005 78.5086 78.6833 78.5105 78.667 78.5159C78.6505 78.5203 78.635 78.5281 78.6216 78.5387C78.6082 78.5493 78.597 78.5626 78.5889 78.5777C78.5807 78.5927 78.5758 78.6093 78.5742 78.6264C78.5727 78.6434 78.5747 78.6606 78.58 78.6769L81.492 88.6169C81.4991 88.6441 81.5152 88.668 81.5378 88.6848C81.5603 88.7015 81.588 88.71 81.616 88.7089H81.654Z" fill="#1F1F39"/>
<path d="M83.2429 60.619C83.2356 60.5938 83.2332 60.5674 83.2361 60.5413C83.239 60.5152 83.2469 60.4899 83.2596 60.4668C83.2722 60.4438 83.2892 60.4235 83.3097 60.407C83.3302 60.3906 83.3537 60.3784 83.3789 60.371C83.4293 60.3603 83.4818 60.3683 83.5267 60.3935C83.5716 60.4187 83.6058 60.4594 83.6229 60.508C83.7229 60.793 83.8339 61.078 83.9329 61.351C83.9403 61.3762 83.9426 61.4026 83.9397 61.4287C83.9369 61.4548 83.9289 61.4801 83.9163 61.5032C83.9037 61.5262 83.8866 61.5465 83.8661 61.563C83.8457 61.5794 83.8221 61.5916 83.7969 61.599C83.7719 61.6076 83.7454 61.6109 83.7191 61.6087C83.6928 61.6066 83.6672 61.5991 83.6439 61.5866C83.6206 61.5741 83.6002 61.5569 83.5838 61.5362C83.5675 61.5154 83.5556 61.4916 83.5489 61.466C83.4499 61.177 83.3429 60.892 83.2429 60.619Z" fill="white"/>
<path d="M47.6089 107.988C46.5898 107.986 45.5715 107.932 44.5579 107.827C41.0935 107.345 37.7302 106.304 34.5989 104.746C30.6958 102.97 27.2891 100.262 24.6789 96.8605C22.3219 93.7537 20.9503 90.0117 20.7409 86.1175C20.648 84.1396 21.0502 82.1698 21.9109 80.3865C23.1109 78.1415 25.1909 77.4865 27.0289 76.9055C28.1215 76.6923 29.134 76.1815 29.9549 75.4295C30.6479 74.5975 30.2669 73.4165 29.8249 72.0495C29.2749 70.3495 28.6509 68.4155 29.8559 66.5315C30.6839 65.2235 32.5309 64.5605 35.3499 64.5605C37.0069 64.5605 39.4859 65.4875 42.5199 67.2405C45.0853 68.7457 47.5327 70.4436 49.8409 72.3195C53.5999 75.3795 61.9409 85.5195 62.2589 95.7195C62.378 97.2208 62.185 98.7305 61.6919 100.153C61.1988 101.576 60.4164 102.882 59.3939 103.988C57.9512 105.418 56.1767 106.468 54.2289 107.046C52.0841 107.699 49.8509 108.017 47.6089 107.988ZM35.5969 75.7525C35.0134 75.7525 34.4431 75.9256 33.958 76.2497C33.4728 76.5739 33.0947 77.0346 32.8714 77.5736C32.6482 78.1127 32.5897 78.7058 32.7036 79.2781C32.8174 79.8503 33.0984 80.3759 33.5109 80.7885C33.9235 81.2011 34.4491 81.482 35.0214 81.5959C35.5936 81.7097 36.1868 81.6513 36.7258 81.428C37.2648 81.2047 37.7256 80.8266 38.0497 80.3415C38.3739 79.8564 38.5469 79.286 38.5469 78.7025C38.5461 77.9204 38.235 77.1705 37.682 76.6175C37.1289 76.0644 36.379 75.7533 35.5969 75.7525Z" fill="white"/>
<path d="M47.6089 107.988C46.5898 107.986 45.5715 107.932 44.5579 107.827C41.0935 107.345 37.7302 106.304 34.5989 104.746C30.6958 102.97 27.2891 100.262 24.6789 96.8605C22.3219 93.7537 20.9503 90.0117 20.7409 86.1175C20.648 84.1396 21.0502 82.1698 21.9109 80.3865C23.1109 78.1415 25.1909 77.4865 27.0289 76.9055C28.1215 76.6923 29.134 76.1815 29.9549 75.4295C30.6479 74.5975 30.2669 73.4165 29.8249 72.0495C29.2749 70.3495 28.6509 68.4155 29.8559 66.5315C30.6839 65.2235 32.5309 64.5605 35.3499 64.5605C37.0069 64.5605 39.4859 65.4875 42.5199 67.2405C45.0853 68.7457 47.5327 70.4436 49.8409 72.3195C53.5999 75.3795 61.9409 85.5195 62.2589 95.7195C62.378 97.2208 62.185 98.7305 61.6919 100.153C61.1988 101.576 60.4164 102.882 59.3939 103.988C57.9512 105.418 56.1767 106.468 54.2289 107.046C52.0841 107.699 49.8509 108.017 47.6089 107.988ZM35.5969 75.7525C35.0134 75.7525 34.4431 75.9256 33.958 76.2497C33.4728 76.5739 33.0947 77.0346 32.8714 77.5736C32.6482 78.1127 32.5897 78.7058 32.7036 79.2781C32.8174 79.8503 33.0984 80.3759 33.5109 80.7885C33.9235 81.2011 34.4491 81.482 35.0214 81.5959C35.5936 81.7097 36.1868 81.6513 36.7258 81.428C37.2648 81.2047 37.7256 80.8266 38.0497 80.3415C38.3739 79.8564 38.5469 79.286 38.5469 78.7025C38.5461 77.9204 38.235 77.1705 37.682 76.6175C37.1289 76.0644 36.379 75.7533 35.5969 75.7525Z" fill="white"/>
<path d="M51.7118 82.581C51.1908 80.92 49.4318 80.301 48.5018 81.651C48.1649 82.1574 48.0373 82.7748 48.1458 83.3733C48.2544 83.9718 48.5905 84.505 49.0838 84.861C49.5528 85.1688 50.1105 85.3127 50.6698 85.27C51.0974 84.9818 51.4264 84.5697 51.6127 84.089C51.799 83.6082 51.8336 83.082 51.7118 82.581Z" fill="white"/>
<path d="M53.1508 91.1704C52.0108 91.0704 51.7008 91.1704 51.3908 92.0004C51.0808 92.8304 52.1058 93.6614 53.3578 93.7604C53.9114 93.8035 54.4625 93.651 54.9153 93.3296C55.368 93.0082 55.6938 92.5382 55.8358 92.0014C56.1508 90.9594 55.8358 90.1424 54.8078 90.3404C54.6351 90.6182 54.3889 90.8428 54.0964 90.9893C53.804 91.1358 53.4767 91.1985 53.1508 91.1704Z" fill="white"/>
<path d="M46.108 97.7879C43.939 98.1969 40.519 97.2669 40.308 95.8169C40.097 94.3669 40.928 94.4659 42.068 94.2679C43.2782 94.0433 44.3948 93.4653 45.277 92.6069C45.5339 92.3566 45.8519 92.1779 46.1994 92.0885C46.5468 91.9991 46.9116 92.0022 47.2575 92.0974C47.6033 92.1926 47.9183 92.3767 48.171 92.6314C48.4237 92.886 48.6054 93.2023 48.698 93.5489C48.8799 93.9965 48.9543 94.4806 48.9151 94.9622C48.8759 95.4438 48.7243 95.9095 48.4724 96.3218C48.2204 96.7341 47.8753 97.0816 47.4646 97.3362C47.054 97.5909 46.5893 97.7456 46.108 97.7879Z" fill="white"/>
<path d="M33.59 90.6488C30.38 90.1278 30.479 88.6778 31.111 88.2688C31.743 87.8598 33.391 88.2688 33.8 87.7478C34.209 87.2268 36.788 85.9888 37.42 88.1708C38.052 90.3528 36.8 91.1698 33.59 90.6488Z" fill="white"/>
</svg>
