<svg width="110" height="109" viewBox="0 0 110 109" fill="none" xmlns="http://www.w3.org/2000/svg">
<path d="M106.905 61.9355L79.357 49.9355L68.657 53.1815L87.057 70.4965L106.905 61.9355Z" fill="#F9ACC0"/>
<path d="M15.2699 67.6108L14.6809 88.2918L21.2809 85.8918L19.2379 107.531L77.5549 107.771L73.5869 75.0658L89.0979 70.2578L80.6809 51.2578C80.6809 51.2578 58.7129 53.2418 45.2099 56.4278C38.7943 58.0383 32.5208 60.1697 26.4519 62.8008C19.2379 65.8068 15.2699 67.6108 15.2699 67.6108Z" fill="#3D5CFF"/>
<path d="M34.629 25.166C30.782 28.052 30.06 34.425 28.496 38.032C26.932 41.639 26.212 42.602 24.769 44.044C23.7929 44.952 22.5871 45.5758 21.282 45.848C21.282 45.848 26.452 54.385 40.761 53.664C55.07 52.943 61.803 46.931 64.328 44.526C65.9415 42.8917 67.1733 40.9205 67.935 38.754C67.935 38.754 61.081 38.393 58.196 32.622C55.311 26.851 51.943 23.002 47.735 23.002C43.527 23.002 41.723 24.685 41.723 24.685C40.646 23.9917 39.3742 23.6641 38.0963 23.7507C36.8184 23.8374 35.6025 24.3337 34.629 25.166Z" fill="#1F1F39"/>
<path d="M15.0059 88.1832L21.2829 85.8832L20.9339 89.6502L22.2439 78.6602L15.0059 88.1832Z" fill="#224BF4"/>
<path d="M74.321 81.0796L73.588 75.0676L77.051 73.9976L71.988 65.2676L74.321 81.0796Z" fill="#224BF4"/>
<path d="M60.457 67.467C60.282 67.8424 59.9853 68.1476 59.615 68.333C59.2235 68.5412 58.886 68.8377 58.629 69.199C58.5092 69.3924 58.432 69.6092 58.4026 69.8348C58.3732 70.0604 58.3922 70.2897 58.4585 70.5074C58.5247 70.7251 58.6366 70.9261 58.7868 71.0971C58.9369 71.2681 59.1217 71.4051 59.329 71.499C59.557 71.607 59.75 71.271 59.521 71.162C59.3362 71.0825 59.1739 70.9589 59.0482 70.802C58.9224 70.645 58.8372 70.4596 58.8 70.262C58.7616 70.0484 58.7788 69.8285 58.8499 69.6234C58.921 69.4184 59.0436 69.235 59.206 69.091C59.795 68.538 60.769 68.249 60.865 67.335C60.8621 67.0861 60.8084 66.8405 60.7071 66.6131C60.6058 66.3858 60.4591 66.1815 60.276 66.013C60.132 65.833 59.855 66.113 60.011 66.302C60.276 66.626 60.601 67.023 60.457 67.467Z" fill="white"/>
<path d="M27.4149 105.739C27.4208 105.886 27.3934 106.033 27.3347 106.168C27.276 106.304 27.1875 106.424 27.0759 106.521C26.6189 106.978 25.9939 107.194 25.6089 107.721C25.4649 107.921 25.8009 108.121 25.9459 107.913C26.1844 107.64 26.4695 107.412 26.7879 107.24C27.0908 107.058 27.3579 106.823 27.5759 106.545C27.6779 106.411 27.7501 106.257 27.7873 106.093C27.8246 105.929 27.8261 105.759 27.7919 105.595C27.6889 105.23 27.4924 104.898 27.2219 104.633C27.0659 104.433 26.7889 104.705 26.9449 104.898C27.1802 105.126 27.3436 105.418 27.4149 105.739Z" fill="white"/>
<path d="M66.9979 75.4992C66.7721 75.9035 66.4337 76.2335 66.0239 76.4492C65.6276 76.6503 65.2885 76.9482 65.0379 77.3152C64.9146 77.5441 64.8551 77.802 64.8657 78.0619C64.8763 78.3217 64.9564 78.5739 65.0979 78.7922C65.4586 79.3086 65.9477 79.7222 66.5169 79.9922C66.5615 80.016 66.6136 80.0215 66.6621 80.0074C66.7107 79.9934 66.7519 79.961 66.7769 79.9171C66.8019 79.8732 66.8088 79.8212 66.7961 79.7723C66.7834 79.7234 66.7521 79.6814 66.7089 79.6552C66.2098 79.4271 65.7759 79.0774 65.4469 78.6382C65.3102 78.4445 65.2409 78.2114 65.2495 77.9746C65.2582 77.7377 65.3444 77.5103 65.4949 77.3272C65.814 77.0306 66.1695 76.7759 66.5529 76.5692C66.9506 76.3104 67.2575 75.9338 67.4309 75.4922C67.6201 74.9723 67.6029 74.3997 67.3829 73.8922C67.3707 73.8696 67.3541 73.8497 67.3341 73.8336C67.314 73.8175 67.291 73.8056 67.2663 73.7985C67.2417 73.7914 67.2158 73.7893 67.1903 73.7924C67.1648 73.7954 67.1402 73.8035 67.1179 73.8162C67.0723 73.8408 67.038 73.8822 67.0223 73.9317C67.0066 73.9811 67.0108 74.0347 67.0339 74.0812C67.1262 74.3072 67.1706 74.5499 67.1644 74.7939C67.1582 75.038 67.1015 75.2781 66.9979 75.4992Z" fill="white"/>
<path d="M33.4868 94.1365C33.5349 93.7935 33.5349 93.4455 33.4868 93.1025C33.4308 92.8204 33.2865 92.5635 33.0747 92.369C32.8629 92.1744 32.5946 92.0524 32.3088 92.0205C31.9604 91.9781 31.607 92.015 31.2748 92.1285C30.9748 92.2285 30.6858 92.3685 30.3748 92.4535C30.2308 92.5088 30.0745 92.5247 29.9222 92.4994C29.77 92.474 29.6273 92.4085 29.5088 92.3095C29.2963 92.1093 29.138 91.8585 29.0488 91.5805C28.947 91.2795 28.9148 90.9593 28.9546 90.644C28.9944 90.3288 29.1053 90.0267 29.2788 89.7605C29.4108 89.5555 29.0858 89.3635 28.9418 89.5675C28.6233 90.063 28.4912 90.6556 28.5688 91.2395C28.5973 91.5343 28.6869 91.8199 28.8318 92.0782C28.9768 92.3364 29.174 92.5617 29.4108 92.7395C29.9998 93.1245 30.6608 92.7635 31.2388 92.5595C31.513 92.4172 31.8248 92.3639 32.1307 92.4069C32.4366 92.4499 32.7215 92.5871 32.9458 92.7995C33.1269 93.125 33.1864 93.5042 33.1138 93.8695C33.0903 94.2962 33.0233 94.7194 32.9138 95.1325C32.8658 95.3485 33.2388 95.4575 33.2988 95.2165C33.3925 94.8626 33.4554 94.5012 33.4868 94.1365Z" fill="white"/>
<path d="M68.7289 95.3627C68.1039 95.3387 67.6589 95.9157 67.2139 96.2757C66.7857 96.7093 66.2288 96.9928 65.6263 97.0838C65.0238 97.1748 64.408 97.0685 63.8709 96.7807C63.6181 96.6179 63.4163 96.3872 63.2886 96.115C63.1609 95.8428 63.1125 95.5402 63.1489 95.2417C63.1979 94.9987 62.8249 94.8937 62.7769 95.1337C62.7209 95.6806 62.8749 96.2284 63.2076 96.666C63.5403 97.1036 64.0269 97.3984 64.5689 97.4907C65.1807 97.5878 65.8076 97.4997 66.3689 97.2377C66.9374 96.9684 67.4575 96.6069 67.9079 96.1677C68.1279 95.9757 68.4159 95.7107 68.7289 95.7587C68.9289 95.7827 69.2339 96.0117 69.1019 96.2397C69.0179 96.4397 69.3419 96.6397 69.4629 96.4197C69.7389 95.9277 69.2339 95.3867 68.7289 95.3627Z" fill="white"/>
<path d="M54.8049 83.1941C54.7741 83.4712 54.676 83.7367 54.5191 83.9673C54.3622 84.1978 54.1514 84.3866 53.9049 84.5171C53.384 84.8099 52.9324 85.2117 52.5809 85.6951C52.4226 85.9211 52.3427 86.1929 52.3535 86.4687C52.3643 86.7445 52.4653 87.0091 52.6409 87.2221C52.8606 87.4128 53.1214 87.55 53.403 87.6231C53.6846 87.6961 53.9793 87.7029 54.2639 87.6431C54.3719 87.6311 54.4199 87.4991 54.3959 87.4031C54.3719 87.3071 54.2639 87.2541 54.1539 87.2701C53.9258 87.3199 53.6888 87.3119 53.4645 87.2468C53.2402 87.1816 53.0358 87.0614 52.8699 86.8971C52.5089 86.4281 52.8699 85.8391 53.2189 85.4901C53.6189 85.0901 54.1329 84.8651 54.5419 84.4901C54.7515 84.316 54.918 84.0958 55.0283 83.8467C55.1387 83.5975 55.1899 83.3263 55.1779 83.0541C55.1024 82.3931 54.8057 81.7771 54.3359 81.3061C54.1679 81.1381 53.9039 81.4141 54.0719 81.5951C54.5083 82.0171 54.77 82.5879 54.8049 83.1941Z" fill="white"/>
<path d="M50.429 98.4035C50.5476 98.6328 50.5976 98.8914 50.573 99.1485C50.5145 99.4478 50.4002 99.7335 50.236 99.9905C50.0616 100.258 49.9269 100.55 49.836 100.856C49.7677 101.138 49.7718 101.431 49.848 101.71C49.919 101.99 50.0573 102.248 50.2508 102.462C50.4442 102.675 50.687 102.839 50.958 102.937C51.2692 103.041 51.6029 103.058 51.9229 102.986C52.243 102.914 52.5373 102.756 52.774 102.528C52.954 102.36 52.674 102.083 52.497 102.251C52.2996 102.441 52.0513 102.57 51.7824 102.621C51.5134 102.672 51.2353 102.644 50.982 102.54C50.7381 102.426 50.5323 102.244 50.3893 102.016C50.2464 101.787 50.1723 101.523 50.176 101.253C50.176 100.64 50.645 100.159 50.849 99.6185C50.9416 99.3664 50.9747 99.0962 50.9456 98.8292C50.9164 98.5622 50.8259 98.3056 50.681 98.0795C50.5289 97.8189 50.3137 97.6007 50.0553 97.445C49.7968 97.2894 49.5034 97.2011 49.202 97.1885C48.962 97.1655 48.962 97.5625 49.202 97.5625C49.4629 97.5805 49.7142 97.668 49.93 97.8159C50.1457 97.9638 50.318 98.1666 50.429 98.4035Z" fill="white"/>
<path d="M36.5648 62.4529C36.7455 62.936 36.7326 63.4702 36.5288 63.9439C36.3023 64.4564 35.9705 64.9153 35.5548 65.2909C35.2178 65.6399 34.8338 66.1449 35.0978 66.6499C35.2698 66.8969 35.5263 67.0723 35.8188 67.1429C36.162 67.2629 36.5261 67.3119 36.8888 67.2869C37.1418 67.2749 37.1418 66.8869 36.8888 66.9019C36.5794 66.9162 36.27 66.8756 35.9748 66.7819C35.7588 66.7099 35.4348 66.6009 35.4098 66.3369C35.4271 66.1004 35.5298 65.8783 35.6988 65.7119C35.8788 65.5119 36.0838 65.3269 36.2518 65.1229C36.6284 64.7441 36.8877 64.2646 36.9985 63.7421C37.1094 63.2195 37.0671 62.6761 36.8768 62.1769C36.7722 61.9291 36.6148 61.707 36.4154 61.5263C36.2161 61.3457 35.9797 61.2107 35.7228 61.1309C35.6733 61.1209 35.6219 61.13 35.5788 61.1563C35.5357 61.1826 35.5042 61.2242 35.4905 61.2728C35.4769 61.3214 35.4821 61.3734 35.5051 61.4183C35.5282 61.4632 35.5674 61.4977 35.6148 61.5149C35.8337 61.5895 36.0328 61.7126 36.1973 61.875C36.3619 62.0375 36.4875 62.235 36.5648 62.4529Z" fill="white"/>
<path d="M45.3309 71.881C45.0065 71.9489 44.7052 72.0998 44.4565 72.3188C44.2078 72.5379 44.0202 72.8177 43.9119 73.131C43.6469 73.768 43.5869 74.55 43.0699 75.043C42.795 75.2801 42.4561 75.4307 42.0959 75.476C41.738 75.5441 41.3702 75.5401 41.0139 75.464C40.6225 75.3417 40.2646 75.1305 39.9685 74.8468C39.6723 74.5632 39.4459 74.2148 39.3069 73.829C39.2219 73.6 38.8499 73.697 38.9339 73.937C39.1948 74.6624 39.7124 75.2672 40.3889 75.637C41.061 75.9599 41.8317 76.0114 42.5409 75.781C42.9073 75.6811 43.2346 75.4718 43.4789 75.181C43.6994 74.8924 43.8664 74.5665 43.9719 74.219C44.1769 73.588 44.3089 72.819 44.9219 72.445C45.227 72.2634 45.5847 72.1909 45.9364 72.2392C46.2882 72.2876 46.6131 72.4539 46.8579 72.711C47.0139 72.891 47.2909 72.627 47.1229 72.434C46.8956 72.1975 46.6118 72.0226 46.2984 71.9259C45.9849 71.8291 45.652 71.8137 45.3309 71.881Z" fill="white"/>
<path d="M67.4429 53.4839C66.9536 53.8235 66.5024 54.2148 66.0969 54.6509C65.8894 54.8475 65.6381 54.9918 65.3639 55.0719C64.9937 55.1538 64.6073 55.1189 64.2579 54.9719C63.889 54.8525 63.5519 54.6511 63.2719 54.3829C63.0134 54.1007 62.8201 53.7651 62.7059 53.3999C62.6915 53.3505 62.6582 53.3087 62.613 53.2839C62.5679 53.259 62.5148 53.2531 62.4654 53.2674C62.4159 53.2817 62.3741 53.3151 62.3493 53.3602C62.3244 53.4053 62.3185 53.4585 62.3329 53.5079C62.5141 54.1627 62.9407 54.7224 63.5239 55.0709C63.8286 55.2726 64.1733 55.406 64.5343 55.4621C64.8954 55.5182 65.2643 55.4956 65.6159 55.3959C66.1482 55.1265 66.6223 54.7547 67.0109 54.3019C67.1892 54.0861 67.4164 53.9158 67.6735 53.805C67.9307 53.6943 68.2105 53.6463 68.4899 53.6649C68.7935 53.705 69.0787 53.8335 69.3098 54.0344C69.541 54.2353 69.7079 54.4998 69.7899 54.7949C69.8053 54.8447 69.8395 54.8866 69.8853 54.9115C69.9311 54.9364 69.9848 54.9425 70.035 54.9284C70.0851 54.9143 70.1279 54.8812 70.154 54.8361C70.1801 54.791 70.1876 54.7375 70.1749 54.6869C70.0982 54.4119 69.9614 54.1572 69.7744 53.9414C69.5874 53.7256 69.3549 53.554 69.0935 53.4389C68.8322 53.3238 68.5486 53.2682 68.2631 53.276C67.9777 53.2837 67.6975 53.3548 67.4429 53.4839Z" fill="white"/>
<path d="M32.513 78.5775C32.5629 79.1117 32.5096 79.6505 32.356 80.1645C32.3032 80.4002 32.2984 80.6442 32.3419 80.8817C32.3853 81.1193 32.4762 81.3458 32.609 81.5475C32.7452 81.723 32.9204 81.8643 33.1207 81.9603C33.321 82.0563 33.5409 82.1043 33.763 82.1005C34.0184 82.0867 34.2669 82.0129 34.4885 81.885C34.71 81.7571 34.8983 81.5788 35.038 81.3645C35.182 81.1645 34.846 80.9645 34.701 81.1725C34.5836 81.3494 34.4219 81.4923 34.2321 81.5873C34.0422 81.6822 33.8309 81.7257 33.619 81.7135C33.4105 81.6945 33.2131 81.6114 33.0537 81.4757C32.8944 81.34 32.7809 81.1583 32.729 80.9555C32.501 80.0175 33.27 79.0075 32.717 78.1175C32.6059 77.9159 32.4315 77.7563 32.2209 77.6634C32.0102 77.5706 31.7748 77.5495 31.551 77.6035C31.325 77.6645 31.431 78.0365 31.671 77.9645C32.068 77.8315 32.425 78.2165 32.513 78.5775Z" fill="white"/>
<path d="M54.7938 56.8622C54.6882 57.5474 54.3923 58.1891 53.9398 58.7142C53.3818 59.3333 52.7006 59.8289 51.9398 60.1692C50.9271 60.6276 49.8721 60.986 48.7898 61.2392C47.1524 61.7227 45.4304 61.8498 43.7398 61.6122C42.678 61.4293 41.6929 60.9399 40.9058 60.2042C40.3015 59.5923 39.8054 58.8822 39.4388 58.1042C39.3939 58.0223 39.3538 57.9378 39.3188 57.8512C39.2108 57.6232 38.8738 57.8272 38.9818 58.0432C39.3585 58.8466 39.8441 59.5943 40.4248 60.2652C41.1857 61.076 42.1686 61.6446 43.2508 61.9002C44.9054 62.2411 46.6164 62.196 48.2508 61.7682C49.3968 61.5263 50.5195 61.1843 51.6058 60.7462C52.4534 60.4137 53.2329 59.9287 53.9058 59.3152C54.452 58.7999 54.8507 58.1482 55.0608 57.4272C55.256 56.6798 55.2715 55.8967 55.1058 55.1422C55.0651 54.9312 55.013 54.7226 54.9498 54.5172C54.9354 54.4693 54.9027 54.4291 54.8587 54.4054C54.8147 54.3817 54.7631 54.3764 54.7153 54.3907C54.6674 54.405 54.6272 54.4378 54.6034 54.4818C54.5797 54.5257 54.5744 54.5773 54.5888 54.6252C54.8184 55.3472 54.8884 56.1105 54.7938 56.8622Z" fill="white"/>
<path d="M76.4073 52.0062L84.2236 71.9696L84.0002 72.0571L76.1838 52.0938L76.4073 52.0062Z" fill="white"/>
<path d="M82.3959 67.5942L82.4614 67.8251L72.8414 70.5551L72.7759 70.3242L82.3959 67.5942Z" fill="white"/>
<path d="M79.4189 55.7665C67.9959 49.5135 61.6189 45.7865 61.6189 45.7865C59.9431 45.4042 58.3539 44.7109 56.9339 43.7425C55.3709 42.4195 57.3549 35.5025 57.3549 35.5025C57.3549 35.5025 56.0929 31.3575 56.6939 30.9975C57.2949 30.6375 58.1339 30.2755 60.1809 32.0795C61.5568 33.4634 62.5868 35.1525 63.1869 37.0095C63.1869 37.0095 88.9179 40.4965 96.3729 43.1415C103.828 45.7865 110.321 49.0335 109.72 56.6085C109.119 64.1835 101.303 63.2215 101.303 63.2215C93.6289 62.0333 86.2223 59.5102 79.4189 55.7665Z" fill="#F9D2DD"/>
<path d="M56.9339 33.9688C57.1339 34.8108 57.3549 35.5078 57.3549 35.5078C57.3549 35.5078 55.3709 42.4218 56.9339 43.7448C57.7935 44.3912 58.7518 44.8947 59.7719 45.2358C60.7719 43.9608 62.1649 41.6648 61.6839 39.1157C61.1549 36.3137 58.3889 34.6538 56.9339 33.9688Z" fill="#F9ACC0"/>
<path d="M56.4679 43.2282C54.5002 43.4735 52.6628 41.6689 52.3547 39.197C52.0465 36.7252 53.3846 34.5247 55.3524 34.2794C57.3201 34.0341 59.1576 35.8397 59.4656 38.3105C59.7736 40.7814 58.4317 42.9833 56.4679 43.2282Z" fill="#F99A3D"/>
<path d="M55.6163 42.0777C54.1912 42.1748 52.9376 40.8024 52.8157 39.0129C52.6938 37.2235 53.7497 35.6948 55.1748 35.5977C56.5999 35.5006 57.8535 36.873 57.9754 38.6614C58.0972 40.4498 57.0415 41.9806 55.6163 42.0777Z" fill="#FF7F2D"/>
<path d="M34.6298 42.7219C34.2928 46.1219 39.7998 47.5319 39.7998 47.5319C40.4818 49.8582 41.004 52.2284 41.3628 54.6259C41.5039 56.2662 41.5039 57.9156 41.3628 59.5559C43.3716 60.6924 45.7464 60.9948 47.9758 60.3979C52.9058 59.3159 53.1458 57.2719 53.1458 57.2719L51.2218 49.3359C52.3999 48.9115 53.4382 48.1708 54.223 47.1951C55.0078 46.2195 55.5088 45.0465 55.6708 43.8049C56.5128 39.3559 55.0708 33.9449 55.0708 33.9449L48.9388 35.1449L47.0148 33.4629V35.5069L41.2428 37.0699L39.6798 35.3869C39.6798 35.3869 40.7618 36.7099 40.1608 39.7159C39.5598 42.7219 39.1988 42.8419 39.1988 42.8419L38.9588 40.6779C38.9588 40.6779 35.1148 37.7919 34.6298 42.7219Z" fill="#F9D2DD"/>
<path d="M43.8504 43.5753C42.4849 43.8243 41.2545 43.3483 41.102 42.5121C40.9495 41.6759 41.9327 40.7962 43.2982 40.5472C44.6636 40.2982 45.894 40.7742 46.0465 41.6104C46.199 42.4466 45.2149 43.3264 43.8504 43.5753Z" fill="#F9ACC0"/>
<path d="M51.2819 36.6498C51.3628 36.4956 51.4754 36.3603 51.6122 36.2526C51.749 36.1449 51.907 36.0673 52.0759 36.0248C52.2373 35.9873 52.4034 35.9735 52.5689 35.9838C52.738 35.9948 52.9025 36.044 53.0499 36.1278C53.1973 36.2018 53.3194 36.3179 53.4008 36.4614C53.4821 36.6049 53.519 36.7693 53.5069 36.9338C53.3182 36.7793 53.0877 36.6846 52.8449 36.6618C52.7452 36.6498 52.6445 36.6498 52.5449 36.6618C52.4922 36.6632 52.4399 36.6706 52.3889 36.6838C52.3289 36.6838 52.2889 36.7078 52.2449 36.7078C52.156 36.7283 52.0707 36.762 51.9919 36.8078C51.8998 36.8503 51.8145 36.9063 51.7389 36.9738C51.5829 37.1298 51.4139 37.3228 51.2219 37.5508C51.1693 37.4046 51.1474 37.2491 51.1578 37.094C51.1681 36.939 51.2103 36.7877 51.2819 36.6498Z" fill="#1F1F39"/>
<path d="M43.6349 38.2745C43.6998 38.1256 43.7938 37.9912 43.9115 37.8792C44.0291 37.7673 44.168 37.68 44.3199 37.6225C44.3689 37.6105 44.4009 37.5985 44.4529 37.5865L44.5129 37.5745H44.7129C44.7532 37.5731 44.7936 37.5771 44.8329 37.5865C44.993 37.605 45.1481 37.6539 45.2899 37.7305C45.4344 37.8147 45.5546 37.935 45.6389 38.0795C45.6753 38.151 45.6997 38.228 45.7109 38.3075C45.7257 38.3835 45.7222 38.462 45.7009 38.5365C45.606 38.456 45.5007 38.3887 45.3879 38.3365C45.295 38.3045 45.1987 38.2837 45.1009 38.2745H44.7409C44.7169 38.2745 44.7009 38.2835 44.6809 38.2835H44.6569L44.6329 38.2955C44.6209 38.2955 44.5969 38.3075 44.5849 38.3075C44.4129 38.3806 44.2543 38.482 44.1159 38.6075C43.9239 38.7515 43.7549 38.9325 43.5269 39.1125C43.4725 38.8288 43.5103 38.5351 43.6349 38.2745Z" fill="#1F1F39"/>
<path d="M49.6839 38.4171C49.8191 38.5262 49.9403 38.6515 50.0449 38.7901C50.1588 38.9342 50.2369 39.1031 50.2729 39.2831C50.287 39.3793 50.283 39.4774 50.2609 39.5721C50.2523 39.6184 50.2361 39.663 50.2129 39.7041C50.2031 39.7521 50.1826 39.7972 50.1529 39.8361C50.0687 40.0019 49.9394 40.1405 49.7799 40.2361C49.4856 40.4182 49.1359 40.4892 48.7939 40.4361C49.111 40.3795 49.4111 40.252 49.6719 40.0631C49.7928 39.9749 49.8847 39.8527 49.9359 39.7121C49.9515 39.6801 49.9635 39.6466 49.9719 39.6121C49.9845 39.58 49.9926 39.5464 49.9959 39.5121C50.0075 39.4459 50.0075 39.3783 49.9959 39.3121C49.9686 39.1685 49.9114 39.0322 49.8279 38.9121C49.7382 38.7836 49.6378 38.6629 49.5279 38.5511C49.3108 38.3174 49.0732 38.1035 48.8179 37.9121C49.1318 38.033 49.4242 38.2035 49.6839 38.4171Z" fill="#1F1F39"/>
<path d="M49.4308 41.8928C50.1864 41.7732 50.9054 41.4854 51.5348 41.0508C51.5348 41.0508 52.3528 43.7078 51.4348 44.6218C50.5168 45.5358 48.1688 45.6798 47.5558 44.0088C46.9428 42.3378 47.1468 41.9648 47.1468 41.9648C47.9072 42.0608 48.678 42.0365 49.4308 41.8928Z" fill="#F95368"/>
<path d="M51.7629 43.9923C51.1025 43.7551 50.385 43.7268 49.7079 43.9113C49.1079 44.0734 48.558 44.3828 48.1079 44.8113C48.6041 45.1516 49.1992 45.3176 49.7999 45.2832C50.4005 45.2488 50.9728 45.016 51.4269 44.6213C51.59 44.4433 51.7056 44.2269 51.7629 43.9923Z" fill="#F9ACC0"/>
<path d="M40.161 39.7278C39.561 42.7338 39.199 42.8538 39.199 42.8538L38.959 40.6898C38.8634 40.6192 38.7632 40.5551 38.659 40.4978L36.229 45.8478C37.3116 46.6136 38.5203 47.1833 39.8 47.5308C39.8 47.5308 39.92 47.9308 40.077 48.5528C41.0821 47.2792 41.7531 45.7747 42.029 44.1758C42.325 43.1612 42.322 42.0828 42.0205 41.0699C41.719 40.0569 41.1317 39.1524 40.329 38.4648C40.3039 38.8894 40.2477 39.3115 40.161 39.7278Z" fill="#F9ACC0"/>
<path d="M38.5832 47.5071C36.4032 47.6548 34.486 45.5566 34.3005 42.8199C34.1151 40.0831 35.7318 37.7455 37.9118 37.5978C40.0918 37.4501 42.009 39.5483 42.1944 42.285C42.3799 45.0218 40.7632 47.3594 38.5832 47.5071Z" fill="#F99A3D"/>
<path d="M38.058 45.5632C36.6333 45.6597 35.3807 44.2872 35.2595 42.4983C35.1383 40.7094 36.1944 39.1816 37.6191 39.085C39.0439 38.9885 40.2965 40.361 40.4176 42.1489C40.5388 43.9368 39.4828 45.4666 38.058 45.5632Z" fill="#FF7F2D"/>
<path d="M34.9909 28.2912C33.8526 30.3073 33.2714 32.5901 33.3069 34.9052C33.2709 36.5219 33.4334 38.137 33.7909 39.7142L36.5449 38.5142C36.5449 38.5142 35.6909 32.8002 37.0339 29.4942C37.6534 27.8995 38.7284 26.5223 40.1249 25.5342C40.1969 25.4862 40.6419 25.1972 41.0149 24.9932C41.1349 24.9332 41.2429 24.8852 41.3279 24.8372L41.7279 24.6812C41.7279 24.6812 42.3169 24.3322 42.8099 24.0812C43.3957 23.8068 43.9967 23.566 44.6099 23.3602C42.9489 22.8584 41.1658 22.9432 39.5599 23.6002C37.5682 24.6265 35.9644 26.2731 34.9909 28.2912Z" fill="#F99A3D"/>
<path d="M45.0539 105.846C42.9979 105.413 40.7369 104.716 39.6429 102.936C38.8489 101.649 38.7529 99.9421 39.3429 97.7421C39.9799 95.3491 42.0719 93.3531 44.4889 91.0421C47.6389 88.0361 51.2099 84.6211 52.5689 79.3421C54.3489 72.4161 48.0839 67.3181 43.5269 63.5901C42.2206 62.6023 40.9981 61.5082 39.8719 60.3191C38.4889 58.6881 37.7319 55.9831 37.6349 52.3031C37.5948 50.6238 37.6794 48.9439 37.8879 47.2771C37.8922 47.2452 37.9028 47.2144 37.9191 47.1866C37.9354 47.1587 37.9571 47.1344 37.9829 47.1151C38.0086 47.0957 38.038 47.0817 38.0693 47.0738C38.1005 47.0659 38.133 47.0643 38.1649 47.0691C38.227 47.0817 38.282 47.1172 38.319 47.1685C38.3561 47.2199 38.3725 47.2833 38.3649 47.3461C38.3569 47.4331 37.0939 56.3071 40.2329 60.0231C41.3382 61.1885 42.5365 62.2621 43.8159 63.2331C48.4809 67.0331 54.8779 72.2511 53.0259 79.4771C51.6429 84.8881 48.0119 88.3511 44.8139 91.4051C42.4449 93.6411 40.4009 95.5891 39.7999 97.8621C39.2469 99.9301 39.3309 101.517 40.0529 102.684C40.8469 103.984 42.3739 104.784 45.1529 105.377C47.4144 105.869 49.7351 106.031 52.0429 105.858C52.0737 105.854 52.105 105.856 52.135 105.864C52.1649 105.873 52.193 105.887 52.2175 105.906C52.2421 105.925 52.2627 105.948 52.2781 105.975C52.2935 106.002 52.3035 106.032 52.3074 106.063C52.3114 106.093 52.3092 106.125 52.3011 106.155C52.2929 106.185 52.2789 106.213 52.26 106.237C52.241 106.262 52.2173 106.282 52.1904 106.298C52.1634 106.313 52.1337 106.323 52.1029 106.327C51.5199 106.392 50.9334 106.42 50.3469 106.411C48.5678 106.406 46.794 106.217 45.0539 105.846Z" fill="#1F1F39"/>
<path d="M49.298 68.8736C49.2592 68.8237 49.2412 68.7606 49.248 68.6978C49.2547 68.6349 49.2855 68.5771 49.334 68.5366C49.407 68.4776 56.441 62.8136 58.447 55.8756C59.6175 51.5815 59.283 47.0161 57.499 42.9386C57.4848 42.9101 57.4763 42.8792 57.474 42.8474C57.4717 42.8157 57.4757 42.7839 57.4857 42.7537C57.4957 42.7235 57.5116 42.6956 57.5324 42.6716C57.5532 42.6475 57.5786 42.6278 57.607 42.6136C57.6355 42.5993 57.6664 42.5908 57.6981 42.5885C57.7298 42.5862 57.7617 42.5902 57.7919 42.6002C57.8221 42.6103 57.85 42.6262 57.874 42.647C57.8981 42.6678 57.9178 42.6931 57.932 42.7216C59.7659 46.9048 60.1097 51.5904 58.906 55.9966C56.862 63.0786 49.707 68.8376 49.635 68.8976C49.6198 68.9214 49.5983 68.9407 49.573 68.9534C49.5476 68.9661 49.5193 68.9717 49.491 68.9696C49.4537 68.9689 49.4171 68.9599 49.3837 68.9433C49.3503 68.9267 49.321 68.9029 49.298 68.8736Z" fill="#1F1F39"/>
<path d="M46.7259 87.8953L47.1459 87.4753C47.2341 87.3818 47.3401 87.307 47.4578 87.2552C47.5754 87.2035 47.7022 87.1758 47.8307 87.1739C47.9592 87.172 48.0868 87.1959 48.2059 87.2442C48.325 87.2925 48.4332 87.3642 48.5241 87.455C48.6151 87.5459 48.6868 87.654 48.7352 87.7731C48.7836 87.8922 48.8076 88.0197 48.8058 88.1483C48.804 88.2768 48.7764 88.4036 48.7247 88.5213C48.6731 88.6389 48.5983 88.7451 48.5049 88.8333L48.0839 89.2543C47.902 89.426 47.6603 89.5199 47.4102 89.5162C47.1602 89.5126 46.9214 89.4115 46.7446 89.2346C46.5678 89.0577 46.467 88.8188 46.4635 88.5688C46.46 88.3187 46.5541 88.0771 46.7259 87.8953Z" fill="#1F1F39"/>
<path d="M51.2949 49.6588C51.3429 49.4668 49.7799 50.0668 48.0959 50.0668C45.3189 50.0668 44.3689 49.4668 44.3689 49.4668C44.3689 49.4668 47.0139 52.8338 49.7799 53.9158C50.6522 54.2605 51.5654 54.4908 52.4969 54.6008L51.2949 49.6588Z" fill="#F9ACC0"/>
<path d="M43.9718 49.4423C43.9583 49.4368 43.946 49.4287 43.9356 49.4184C43.9252 49.4081 43.917 49.3959 43.9114 49.3824C43.9058 49.3689 43.903 49.3544 43.9031 49.3398C43.9031 49.3252 43.9061 49.3107 43.9118 49.2973C43.9173 49.2837 43.9254 49.2714 43.9357 49.261C43.946 49.2507 43.9583 49.2425 43.9718 49.2369C43.9853 49.2313 43.9997 49.2284 44.0143 49.2285C44.0289 49.2286 44.0434 49.2316 44.0568 49.2373C45.3441 49.7357 46.7168 49.9766 48.0968 49.9463C49.1579 49.92 50.21 49.7456 51.2228 49.4283C51.237 49.4233 51.252 49.4212 51.267 49.4221C51.282 49.4231 51.2967 49.427 51.3101 49.4338C51.3235 49.4405 51.3355 49.4498 51.3452 49.4612C51.355 49.4727 51.3623 49.486 51.3668 49.5003C51.3718 49.5144 51.3739 49.5295 51.373 49.5445C51.372 49.5595 51.3681 49.5741 51.3614 49.5875C51.3546 49.601 51.3453 49.6129 51.3339 49.6227C51.3224 49.6324 51.3092 49.6398 51.2948 49.6443C50.26 49.9771 49.1817 50.1553 48.0948 50.1733H47.7948C46.4879 50.1517 45.1945 49.9044 43.9718 49.4423Z" fill="#1F1F39"/>
<path d="M52.2448 107.532C51.8787 107.53 51.5281 107.383 51.2692 107.124C51.0103 106.865 50.8639 106.515 50.8618 106.149C50.8639 105.782 51.0103 105.432 51.2692 105.173C51.5281 104.914 51.8787 104.768 52.2448 104.766H71.2448C71.611 104.768 71.9615 104.914 72.2204 105.173C72.4793 105.432 72.6257 105.782 72.6278 106.149C72.6289 106.331 72.5938 106.511 72.5247 106.679C72.4556 106.847 72.3537 107 72.2251 107.129C72.0965 107.258 71.9436 107.359 71.7753 107.429C71.607 107.498 71.4267 107.533 71.2448 107.532H52.2448Z" fill="#EAEAFF"/>
<path d="M23.206 72.1797L21.282 85.8867L23.206 72.1797Z" fill="#1F1F39"/>
<path d="M21.2719 86.0085C21.2564 86.0069 21.2414 86.0022 21.2279 85.9946C21.2143 85.987 21.2025 85.9767 21.1931 85.9643C21.1837 85.9519 21.177 85.9377 21.1733 85.9226C21.1697 85.9075 21.1692 85.8918 21.1719 85.8765L23.0979 72.1705C23.1052 72.1427 23.1226 72.1186 23.1466 72.1029C23.1707 72.0871 23.1998 72.0809 23.2281 72.0854C23.2565 72.0899 23.2823 72.1048 23.3003 72.1271C23.3184 72.1495 23.3275 72.1778 23.3259 72.2065L21.4019 85.9125C21.3956 85.94 21.3804 85.9646 21.3587 85.9827C21.3371 86.0008 21.3101 86.0112 21.2819 86.0125L21.2719 86.0085Z" fill="#1F1F39"/>
<path d="M26.6959 38.0317C27.7645 35.981 29.3888 34.2725 31.3829 33.1017C32.7059 32.7407 33.0659 33.5827 33.0659 33.5827C33.3245 33.3539 33.6343 33.1908 33.9692 33.1071C34.304 33.0234 34.6542 33.0215 34.9899 33.1017C35.2694 33.2096 35.5161 33.3882 35.7058 33.6201C35.8955 33.8521 36.0217 34.1293 36.0719 34.4247C36.3469 34.2213 36.6747 34.1017 37.0161 34.0802C37.3574 34.0588 37.6977 34.1364 37.9959 34.3037C38.8379 34.7847 38.5959 35.9867 37.9959 36.7037C37.3959 37.4207 35.5959 38.7477 35.4709 39.4697C35.3459 40.1917 38.4769 47.8867 37.0339 53.0567C35.5909 58.2267 23.9279 78.6727 18.5169 85.4057C13.1059 92.1387 6.13192 91.1777 3.96792 89.4947C2.03303 88.0153 0.699167 85.8854 0.212942 83.4987C-0.273282 81.1121 0.12101 78.6301 1.32292 76.5117C4.68892 70.0117 26.6959 46.9297 26.6959 46.9297C26.6959 46.9297 25.8519 40.0757 26.6959 38.0317Z" fill="#F9D2DD"/>
<path d="M32.4769 42.6254C32.4409 42.4574 31.6349 38.3444 32.9819 36.8774C33.8928 35.9164 34.9092 35.0613 36.0119 34.3284C36.0243 34.3196 36.0383 34.3136 36.0532 34.3106C36.068 34.3077 36.0833 34.3079 36.098 34.3113C36.1128 34.3147 36.1266 34.3212 36.1387 34.3304C36.1507 34.3395 36.1607 34.3511 36.1679 34.3644C36.1767 34.3767 36.1828 34.3908 36.1857 34.4056C36.1887 34.4205 36.1884 34.4358 36.185 34.4505C36.1816 34.4652 36.1751 34.4791 36.166 34.4912C36.1568 34.5032 36.1452 34.5132 36.1319 34.5204C35.0514 35.2447 34.0517 36.0828 33.1499 37.0204C31.8759 38.4084 32.6929 42.5294 32.6929 42.5774C32.6958 42.5918 32.6959 42.6066 32.693 42.621C32.6901 42.6354 32.6845 42.6491 32.6763 42.6613C32.6681 42.6735 32.6576 42.6839 32.6453 42.692C32.6331 42.7001 32.6194 42.7057 32.6049 42.7084C32.6049 42.7204 32.5929 42.7204 32.5809 42.7204C32.5555 42.7185 32.5314 42.7081 32.5125 42.6909C32.4937 42.6737 32.4811 42.6506 32.4769 42.6254Z" fill="#1F1F39"/>
<path d="M28.99 40.9299C28.978 40.7979 28.765 37.6229 29.856 36.2769C30.8013 35.235 31.8575 34.2994 33.006 33.4869C33.0303 33.4691 33.0607 33.4616 33.0905 33.4661C33.1203 33.4706 33.1471 33.4867 33.165 33.5109C33.1813 33.5353 33.1876 33.565 33.1826 33.5938C33.1775 33.6227 33.1616 33.6485 33.138 33.6659C32.0098 34.4663 30.9706 35.3852 30.038 36.4069C28.99 37.6829 29.219 40.8659 29.219 40.8939C29.2216 40.9288 29.2105 40.9633 29.1881 40.9902C29.1657 41.017 29.1338 41.0341 29.099 41.0379C29.0848 41.0381 29.0706 41.0354 29.0574 41.03C29.0442 41.0246 29.0322 41.0167 29.022 41.0067C29.0119 40.9966 29.0038 40.9847 28.9984 40.9715C28.9929 40.9583 28.99 40.9442 28.99 40.9299Z" fill="#1F1F39"/>
<path d="M71.7839 64.0039L73.5839 75.0659L71.7839 64.0039Z" fill="#1F1F39"/>
<path d="M73.479 75.0932L71.674 64.0272C71.6697 63.9962 71.6778 63.9648 71.6965 63.9397C71.7152 63.9146 71.743 63.8979 71.774 63.8932C71.8043 63.89 71.8348 63.8986 71.859 63.9173C71.8832 63.9359 71.8993 63.9631 71.904 63.9932L73.704 75.0552C73.7077 75.0859 73.6994 75.1168 73.6807 75.1415C73.662 75.1661 73.6345 75.1825 73.604 75.1872H73.588C73.5746 75.1885 73.5611 75.187 73.5483 75.1829C73.5355 75.1788 73.5237 75.1722 73.5135 75.1634C73.5033 75.1546 73.495 75.1439 73.4891 75.1318C73.4832 75.1198 73.4797 75.1066 73.479 75.0932Z" fill="#1F1F39"/>
<path d="M48.1918 42.5764C48.195 42.6103 48.2052 42.6431 48.2218 42.6728C48.2384 42.7025 48.2611 42.7283 48.2883 42.7487C48.3156 42.769 48.3468 42.7834 48.3799 42.791C48.4131 42.7985 48.4475 42.799 48.4808 42.7924L49.6588 42.5984C50.0577 42.5203 50.4512 42.4168 50.8368 42.2884C50.8708 42.2831 50.9034 42.2711 50.9326 42.2531C50.9619 42.2351 50.9874 42.2114 51.0074 42.1835C51.0275 42.1556 51.0419 42.124 51.0497 42.0905C51.0575 42.057 51.0585 42.0223 51.0528 41.9884L50.9218 41.3984C50.4447 41.6256 49.9407 41.7913 49.4218 41.8914C48.9962 41.9695 48.5645 42.0096 48.1318 42.0114L48.1918 42.5764Z" fill="white"/>
<path d="M0.504869 78.4336C-0.128567 80.4095 -0.135825 82.5329 0.484088 84.5132C1.104 86.4934 2.32079 88.2336 3.96787 89.4956C6.13187 91.1786 13.1059 92.1406 18.5169 85.4076C19.0459 84.7466 19.6469 83.9406 20.2849 83.0386C17.6749 84.7706 12.3969 87.4276 6.85387 85.2876C5.32557 84.7345 3.9518 83.8237 2.8473 82.6314C1.7428 81.439 0.939628 79.9997 0.504869 78.4336V78.4336Z" fill="#F9ACC0"/>
<path d="M54.596 37.9006C53.242 38.1526 52.256 39.0356 52.412 39.8726C52.568 40.7096 53.796 41.1956 55.154 40.9426C55.4218 40.8939 55.6839 40.8175 55.936 40.7146C55.9312 39.7623 55.8748 38.8109 55.767 37.8646C55.3771 37.8167 54.9822 37.8289 54.596 37.9006Z" fill="#F9ACC0"/>
</svg>
