<svg width="44" height="44" viewBox="0 0 44 44" fill="none" xmlns="http://www.w3.org/2000/svg">
<path opacity="0.3" d="M22 44C34.1503 44 44 34.1503 44 22C44 9.84974 34.1503 0 22 0C9.84974 0 0 9.84974 0 22C0 34.1503 9.84974 44 22 44Z" fill="#3D5CFF"/>
<path d="M28.918 31.309H15.082C14.5963 31.3085 14.1306 31.1153 13.7872 30.7718C13.4437 30.4284 13.2505 29.9627 13.25 29.477V21.237C13.2497 20.7508 13.4426 20.2843 13.7861 19.9402C14.1296 19.5961 14.5958 19.4025 15.082 19.402H16.456V16.637C16.4556 15.3245 16.9273 14.0555 17.785 13.062C18.6424 12.0692 19.8234 11.4118 21.119 11.206C21.703 11.1136 22.298 11.1136 22.882 11.206C24.1774 11.4116 25.3584 12.0687 26.216 13.061C27.074 14.0548 27.5458 15.3241 27.545 16.637V19.402H28.918C29.4042 19.4025 29.8704 19.5961 30.2139 19.9402C30.5574 20.2843 30.7503 20.7508 30.75 21.237V29.477C30.7495 29.9627 30.5563 30.4284 30.2128 30.7718C29.8694 31.1153 29.4037 31.3085 28.918 31.309V31.309ZM22 23.045C21.7842 23.056 21.5792 23.1432 21.4217 23.2912C21.2642 23.4392 21.1644 23.6383 21.14 23.853L21.134 23.96V26.708C21.1339 26.9424 21.2238 27.1679 21.3852 27.338C21.5465 27.508 21.7669 27.6097 22.001 27.622C22.2353 27.61 22.456 27.5084 22.6175 27.3383C22.779 27.1682 22.8691 26.9426 22.869 26.708V23.96L22.863 23.853C22.8382 23.6379 22.7378 23.4387 22.5797 23.2907C22.4217 23.1427 22.2162 23.0557 22 23.045V23.045ZM22 12.969C21.864 12.969 21.741 12.976 21.624 12.988L21.558 12.995C20.7879 13.0825 20.0649 13.4107 19.492 13.9328C18.9192 14.4549 18.5255 15.1443 18.367 15.903C18.361 15.933 18.353 15.961 18.345 15.988C18.3178 16.1397 18.3001 16.293 18.292 16.447V16.634V19.402H25.717V16.637V16.45C25.7093 16.2961 25.6919 16.1428 25.665 15.991C25.6558 15.9632 25.6484 15.9348 25.643 15.906C25.4844 15.1455 25.0896 14.4545 24.515 13.9317C23.9403 13.4089 23.2151 13.0811 22.443 12.995L22.383 12.989H22.376C22.259 12.976 22.136 12.969 22 12.969V12.969Z" fill="white"/>
</svg>
